<svg width="40" height="40" viewBox="0 0 40 40" fill="none" xmlns="http://www.w3.org/2000/svg">
<rect x="0.5" y="0.5" width="39" height="39" fill="#181818" stroke="#191919"/>
<path d="M24.373 18.4829L24.1574 20.2143C24.1401 20.354 24.0724 20.4825 23.9671 20.5758C23.8618 20.6691 23.7261 20.7208 23.5854 20.7211H20.7812V27.9601C20.4854 27.987 20.186 28.0003 19.8829 27.9998C19.2188 28.0003 18.5564 27.9348 17.9053 27.8044V20.7211H15.7478C15.6525 20.7204 15.5613 20.6821 15.4941 20.6146C15.4269 20.547 15.3891 20.4556 15.3889 20.3603V18.1937C15.3891 18.0984 15.4269 18.007 15.4941 17.9394C15.5613 17.8718 15.6525 17.8335 15.7478 17.8328H17.9053V14.5837C17.9042 14.1106 17.9964 13.6419 18.1765 13.2044C18.3567 12.7669 18.6212 12.3692 18.955 12.034C19.2889 11.6988 19.6855 11.4326 20.1222 11.2506C20.5589 11.0687 21.0272 10.9746 21.5003 10.9736H24.0167C24.0641 10.9738 24.1109 10.9833 24.1547 11.0016C24.1984 11.0199 24.2381 11.0466 24.2715 11.0803C24.3048 11.1139 24.3313 11.1538 24.3493 11.1976C24.3672 11.2415 24.3764 11.2884 24.3762 11.3358V13.5024C24.3761 13.5978 24.3382 13.6893 24.2708 13.7569C24.2035 13.8245 24.1121 13.8627 24.0167 13.8632H22.2188C22.0294 13.8637 21.842 13.9014 21.6672 13.9743C21.4924 14.0473 21.3337 14.1539 21.2002 14.2882C21.0667 14.4226 20.9609 14.5819 20.889 14.7571C20.8171 14.9323 20.7805 15.1199 20.7812 15.3093V17.8361H23.8011C23.8826 17.8364 23.9631 17.854 24.0374 17.8877C24.1116 17.9213 24.1779 17.9703 24.2319 18.0314C24.2859 18.0925 24.3264 18.1643 24.3507 18.2421C24.375 18.3199 24.3826 18.402 24.373 18.4829Z" fill="white"/>
</svg>
