<svg width="318" height="75" viewBox="0 0 318 75" fill="none" xmlns="http://www.w3.org/2000/svg">
<g clip-path="url(#clip0_533_2332)">
<mask id="mask0_533_2332" style="mask-type:luminance" maskUnits="userSpaceOnUse" x="0" y="0" width="318" height="75">
<path d="M317.637 0H0V74.8211H317.637V0Z" fill="white"/>
</mask>
<g mask="url(#mask0_533_2332)">
<mask id="mask1_533_2332" style="mask-type:alpha" maskUnits="userSpaceOnUse" x="100" y="15" width="218" height="44">
<path d="M100.284 15.5289H317.637V58.9217H100.284V15.5289Z" fill="white"/>
</mask>
<g mask="url(#mask1_533_2332)">
<path fill-rule="evenodd" clip-rule="evenodd" d="M100.284 58.1029H122.401V53.5419H105.434V16.3477H100.284V58.1029ZM124.74 21.962H129.655V16.3477H124.74V21.962ZM124.74 58.1029H129.655V26.7576H124.74V58.1029ZM136.207 58.1029H141.122V30.6172H146.505V26.7576H141.122V23.0723C141.122 20.9089 142.176 20.0901 144.281 20.0901H146.563V15.8804H142.993C138.255 15.8804 136.207 18.3354 136.207 23.0723V26.7576H131.643V30.6172H136.207V58.1029ZM167.685 43.0162V41.0271C167.685 34.2425 166.807 25.9388 157.211 25.9388C147.557 25.9388 146.036 35.0612 146.036 42.8391C146.036 53.6591 149.195 58.9217 156.918 58.9217C165.52 58.9217 167.45 51.1441 167.45 47.8104H162.536C162.536 50.2081 161.893 55.0623 157.211 55.0623C151.185 55.0623 151.185 47.869 151.185 43.0162H167.685ZM151.361 39.1552V37.9863C151.361 36.1144 151.945 29.7984 157.094 29.7984C161.482 29.7984 162.536 33.951 162.536 37.4591V39.1552H151.361ZM190.618 43.775C190.443 48.8635 189.566 54.7122 183.306 54.7122C176.168 54.7122 175.23 46.8758 175.23 37.2261C175.23 27.5764 176.168 19.74 183.306 19.74C188.63 19.74 190.093 23.7754 190.268 28.5124H195.651C195.416 20.3245 191.789 15.5289 183.306 15.5289C171.779 15.5289 169.847 26.699 169.847 37.2261C169.847 47.7518 171.429 58.9217 183.306 58.9217C192.433 58.9217 195.533 51.67 196.002 43.775H190.618ZM197.815 58.1029H202.73V36.4659C202.73 31.9618 206.299 30.1485 208.932 30.1485C213.379 30.1485 213.554 34.0681 213.554 36.4659V58.1029H218.469V35.88C218.469 32.1376 218.528 25.9388 210.395 25.9388C207.587 25.9388 204.135 27.7522 202.847 30.3257H202.73V16.3477H197.815V58.1029ZM220.575 42.4304C220.575 51.2613 222.798 58.9217 231.868 58.9217C240.877 58.9217 243.16 51.2613 243.16 42.4304C243.16 33.5994 240.936 25.9388 231.868 25.9388C222.798 25.9388 220.575 33.5994 220.575 42.4304ZM231.749 55.0623C226.719 55.0623 225.723 49.215 225.723 42.4304C225.723 35.6457 226.777 29.7984 231.749 29.7984C237.074 29.7984 238.011 35.6457 238.011 42.4304C238.011 49.215 236.957 55.0623 231.749 55.0623ZM244.387 21.962H249.302V16.3477H244.387V21.962ZM244.387 58.1029H249.302V26.7576H244.387V58.1029ZM273.055 36.2901C273.055 32.7221 271.652 25.9388 263.051 25.9388C253.397 25.9388 251.876 35.0612 251.876 42.8391C251.876 53.6591 255.035 58.9217 262.758 58.9217C270.599 58.9217 273.055 52.1386 273.055 47.226H268.14C268.14 50.6182 267.205 55.0623 262.992 55.0623C257.084 55.0623 257.025 46.8173 257.025 42.7805C257.025 31.3188 260.127 29.7984 263.168 29.7984C266.912 29.7984 268.14 33.2479 268.14 36.2901H273.055ZM295.933 43.0162V41.0271C295.933 34.2425 295.055 25.9388 285.459 25.9388C275.805 25.9388 274.284 35.0612 274.284 42.8391C274.284 53.6591 277.445 58.9217 285.167 58.9217C293.768 58.9217 295.699 51.1441 295.699 47.8104H290.784C290.784 50.2081 290.14 55.0623 285.459 55.0623C279.433 55.0623 279.433 47.869 279.433 43.0162H295.933ZM279.609 39.1552V37.9863C279.609 36.1144 280.193 29.7984 285.342 29.7984C289.73 29.7984 290.784 33.951 290.784 37.4591V39.1552H279.609ZM316.878 35.9386C316.878 32.2548 316.467 25.9388 307.341 25.9388C301.9 25.9388 297.335 28.7453 297.335 34.594C297.335 41.0271 301.256 42.196 305.058 43.4835C308.805 44.711 312.725 45.6469 312.725 49.858C312.725 54.3021 309.097 55.0623 307.516 55.0623C302.66 55.0623 301.665 51.6114 301.665 47.8104H296.751C296.751 51.0269 296.869 58.9217 307.516 58.9217C313.368 58.9217 317.637 55.6467 317.637 49.0979C317.637 42.8391 313.72 41.4944 309.974 40.2669C306.112 39.038 302.251 38.3364 302.251 34.594C302.251 30.2071 305.761 29.7984 307.341 29.7984C310.909 29.7984 311.963 31.9618 311.963 35.9386H316.878Z" fill="black"/>
</g>
<mask id="mask2_533_2332" style="mask-type:alpha" maskUnits="userSpaceOnUse" x="0" y="16" width="100" height="43">
<path d="M0 16.348H99.0558V58.9223H0V16.348Z" fill="white"/>
</mask>
<g mask="url(#mask2_533_2332)">
<path fill-rule="evenodd" clip-rule="evenodd" d="M10.5907 58.1035H20.4208V41.6705L31.0101 16.348H20.478L15.6816 31.8465H15.5644L10.8823 16.348H0L10.5907 41.6705V58.1035ZM38.6758 58.9223C49.6168 58.9223 51.7226 51.6703 51.7226 42.1964C51.7226 32.7224 50.2015 25.6462 38.6758 25.6462C27.7348 25.6462 25.6275 32.8982 25.6275 42.3722C25.6275 51.8461 27.0901 58.9223 38.6758 58.9223ZM42.2442 42.3135C42.2442 50.0914 41.6594 52.7235 38.7344 52.7235C35.9252 52.7235 35.106 49.9742 35.106 42.255C35.106 34.5943 35.9252 31.8465 38.7344 31.8465C41.6594 31.8465 42.2442 34.4772 42.2442 42.3135ZM78.2262 26.465H68.7483V47.1677C68.7483 50.2671 67.17 51.6703 65.3542 51.6703C63.5414 51.6703 62.6048 50.3257 62.6048 48.0451V26.465H53.1265V50.1499C53.1265 56.2316 55.9943 58.9223 61.3769 58.9223C64.8865 58.9223 67.6371 57.1675 68.9828 54.361H69.1V58.1035H78.2262V26.465ZM80.6838 58.1035H90.1623V40.1501C90.1623 35.939 92.6198 34.4186 96.423 34.4186C97.3591 34.4186 98.1198 34.4772 99.0564 34.6529V25.7634C98.7634 25.7048 98.4715 25.6462 98.2359 25.6462H97.5349C93.5564 25.6462 91.1575 28.1026 89.9296 30.9105H89.8124V26.465H80.6838V58.1035Z" fill="#ED1B33"/>
</g>
</g>
</g>
<defs>
<clipPath id="clip0_533_2332">
<rect width="318" height="74.8577" fill="white"/>
</clipPath>
</defs>
</svg>
