<svg width="20" height="20" viewBox="0 0 20 20" fill="none" xmlns="http://www.w3.org/2000/svg">
<path d="M17.5 17.5L13.8809 13.8808M13.8809 13.8808C14.5 13.2617 14.991 12.5268 15.3261 11.7179C15.6611 10.9091 15.8336 10.0421 15.8336 9.16664C15.8336 8.29114 15.6611 7.42421 15.3261 6.61535C14.991 5.80649 14.5 5.07155 13.8809 4.45247C13.2618 3.8334 12.5269 3.34232 11.718 3.00728C10.9091 2.67224 10.0422 2.4998 9.16672 2.4998C8.29121 2.4998 7.42429 2.67224 6.61543 3.00728C5.80657 3.34232 5.07162 3.8334 4.45255 4.45247C3.20227 5.70275 2.49988 7.39848 2.49988 9.16664C2.49988 10.9348 3.20227 12.6305 4.45255 13.8808C5.70282 15.1311 7.39856 15.8335 9.16672 15.8335C10.9349 15.8335 12.6306 15.1311 13.8809 13.8808Z" stroke="black" stroke-width="2.08333" stroke-linecap="round" stroke-linejoin="round"/>
</svg>
