<svg width="24" height="24" viewBox="0 0 24 24" fill="none" xmlns="http://www.w3.org/2000/svg">
<path d="M15.096 5.904C14.4944 5.29131 13.7775 4.80387 12.9865 4.46983C12.1955 4.13579 11.3462 3.96178 10.4876 3.95783C9.62899 3.95389 8.7781 4.12009 7.98409 4.44685C7.19008 4.7736 6.46867 5.25443 5.86154 5.86157C5.2544 6.4687 4.77357 7.19011 4.44681 7.98412C4.12006 8.77814 3.95385 9.62902 3.9578 10.4876C3.96174 11.3462 4.13576 12.1956 4.4698 12.9865C4.80384 13.7775 5.29128 14.4945 5.90397 15.096C7.12672 16.2965 8.77405 16.9656 10.4876 16.9577C12.2011 16.9498 13.8423 16.2656 15.0539 15.054C16.2656 13.8423 16.9498 12.2012 16.9577 10.4876C16.9655 8.77409 16.2965 7.12675 15.096 5.904ZM4.48997 4.49C6.02279 2.95756 8.08312 2.06857 10.2496 2.00483C12.4162 1.94109 14.5252 2.7074 16.1455 4.14707C17.7657 5.58674 18.7748 7.59099 18.9664 9.74998C19.1579 11.909 18.5175 14.0596 17.176 15.762L22.521 21.107L21.107 22.521L15.762 17.176C14.059 18.5125 11.9102 19.149 9.75403 18.9556C7.59784 18.7622 5.59667 17.7534 4.15874 16.1351C2.72082 14.5168 1.95446 12.4109 2.01601 10.2469C2.07756 8.08293 2.96238 6.02396 4.48997 4.49Z" fill="#2D2D2D"/>
</svg>
