<svg width="88" height="88" viewBox="0 0 88 88" fill="none" xmlns="http://www.w3.org/2000/svg">
<path d="M50.0619 4.81298C51.208 4.81298 52.354 4.87329 53.4799 4.97382C56.5762 5.2553 59.391 5.89869 61.8841 6.86376C64.4577 7.84894 66.9106 9.21614 69.1423 10.9452L69.1825 10.9854C69.2629 11.0458 69.3634 11.1061 69.464 11.1664C70.5497 11.7495 71.8968 11.3473 72.4798 10.2616C72.7613 9.73889 72.8216 9.13571 72.6608 8.57275C72.5 8.00979 72.1179 7.52725 71.5952 7.24577C68.7603 5.71774 65.7645 4.61192 62.7085 3.96853C59.8735 3.36536 56.7773 3.1643 53.5201 3.38547C50.5646 3.58653 47.5889 4.14949 44.6535 5.03414C44.3519 5.11456 44.0704 5.21509 43.7889 5.31562C44.0905 5.27541 44.3921 5.21509 44.6937 5.17488C46.463 4.93361 48.2725 4.81298 50.0619 4.81298Z" fill="white"/>
<path d="M71.6757 46.1706C68.7 32.3981 61.8239 23.3505 51.1477 19.1484C56.4958 22.7474 60.2355 28.578 60.9392 35.3738C60.9995 36.0373 61.0397 36.7209 61.0397 37.3844C61.8641 36.8817 62.8694 36.7812 63.9551 37.123C66.5889 37.9674 69.5445 41.2447 71.6757 46.1706Z" fill="white"/>
<path d="M61.8237 14.9864C51.7708 10.6034 41.0143 11.0859 31.6651 16.0721C33.3942 15.6097 35.1635 15.3282 36.973 15.288C37.536 15.288 38.682 15.3282 39.1645 15.3483H39.3455C40.4714 15.3684 41.5571 15.4891 42.6227 15.6901C42.7233 15.6499 42.8238 15.6298 42.9243 15.6499C62.5073 18.5451 73.1433 32.8604 74.5306 58.1736C74.5306 58.2138 74.5104 58.2339 74.5104 58.2741C74.6311 60.2244 74.6311 62.255 74.4702 64.346C74.3898 65.4519 75.1136 66.1153 75.7771 66.3365C76.4607 66.5778 77.4057 66.5175 78.029 65.6127C80.9443 61.4106 83.1358 51.4381 83.0353 47.1556C82.9348 32.9811 74.812 20.6562 61.8237 14.9864Z" fill="white"/>
<path d="M13.2079 57.8922C14.0523 58.4752 15.118 58.435 15.5603 57.7917L21.2301 49.6488C21.2301 49.6488 21.2301 49.6287 21.2502 49.6287L26.8999 41.4859C27.3423 40.8425 27.0206 39.8372 26.1761 39.234C25.3317 38.651 24.2661 38.6912 23.8237 39.3346L12.5042 55.6604C12.0418 56.3038 12.3635 57.3091 13.2079 57.8922Z" fill="white"/>
<path d="M33.7962 41.124C30.3984 41.3251 27.5635 42.8129 25.8344 45.3261L18.8174 55.4393C17.0884 57.9324 16.6661 61.1091 17.6714 64.3663C18.4756 67.0202 20.1042 69.4329 22.2957 71.3028L40.6322 42.4108C38.4206 41.4457 36.0883 40.9833 33.7962 41.124Z" fill="white"/>
<path d="M5.46735 41.1843C6.15095 43.2149 7.49803 44.9843 9.16681 46.0096C9.95094 46.5123 10.8356 46.8541 11.7202 47.0149C11.8409 47.035 11.9414 47.0551 12.062 47.0753C11.2779 46.4319 10.6747 45.6678 10.2726 44.8234C9.62924 43.4763 9.4885 41.9282 9.91073 40.5208C10.0515 40.0382 10.0515 39.5356 9.89062 39.0531C9.68956 38.4298 9.24723 37.9472 8.66417 37.6457C8.32237 37.4848 7.96047 37.3843 7.57846 37.3843C7.31708 37.3843 7.05571 37.4245 6.79433 37.5049C5.52767 37.9271 4.84408 39.3144 5.2663 40.5811L5.46735 41.1843Z" fill="white"/>
<path d="M19.0789 43.9388C18.2747 42.0891 17.8726 40.0785 17.8726 37.8266C17.8726 29.523 23.5424 24.1547 32.3286 24.1547C38.0788 24.1547 43.3465 27.3113 46.0407 32.3981C46.5434 33.3431 47.2873 35.5547 47.428 36.0774C47.7095 36.8415 48.4534 37.2838 49.2576 37.1632C50.1222 37.0425 50.7052 36.2182 50.6449 35.2933C50.6248 35.0319 50.5846 34.7505 50.5042 34.469C50.082 32.9007 49.4185 31.2722 48.5942 29.6235C48.1116 28.6986 48.3328 27.633 49.137 26.9695C49.9613 26.306 51.0672 26.306 51.8915 26.9695C53.4597 28.2161 54.646 29.9452 55.4502 32.0764C55.5708 32.3981 55.7518 33.0214 55.8523 33.3833C56.2142 34.7505 56.2142 36.178 56.2142 37.4245C56.2142 39.6563 55.8925 41.8478 55.2492 43.9589C55.2492 43.979 55.2492 43.979 55.229 43.9991C55.1888 44.0996 55.1687 44.2002 55.1285 44.3007L55.0883 44.4414C55.0682 44.542 55.0682 44.6425 55.0682 44.7631C55.0682 45.688 55.8322 46.452 56.7571 46.452C56.8174 46.452 56.8777 46.452 56.9179 46.4319C57.5412 46.3716 58.0841 45.9695 58.3253 45.4065C58.3454 45.3462 58.3655 45.306 58.3857 45.2457C59.0692 43.5166 59.4915 41.7071 59.6925 39.8171C59.6925 39.6965 59.7126 39.2139 59.7729 38.9124C59.7931 38.47 59.8132 38.0679 59.8132 37.6658C59.8132 36.942 59.7729 36.2182 59.6925 35.4944C58.6269 25.0193 49.8608 16.9167 39.3254 16.6553H39.1243C38.682 16.6352 37.536 16.595 36.9931 16.595C32.1275 16.6955 27.4429 18.5251 23.7635 21.7018C23.7434 21.7219 23.7233 21.742 23.7032 21.7621C22.5974 22.8076 21.5318 23.9738 20.5265 25.2404C17.9128 28.8394 16.5054 33.1219 16.5054 37.6055C16.5054 40.4404 17.008 43.034 18.0133 45.4869L19.0789 43.9388Z" fill="white"/>
<path d="M30.5593 60.6266L42.0396 61.4308L36.3698 51.4584L30.5593 60.6266Z" fill="white"/>
<path d="M42.0597 62.7175L30.8005 61.9333L36.4502 71.6444L42.0597 62.7175Z" fill="white"/>
<path d="M56.8979 83.7482L65.6238 71.1821C66.2672 70.2371 66.0661 68.8498 65.1212 67.7842L50.645 51.4985L43.7488 62.4562C43.7488 62.4763 43.7488 62.4763 43.7286 62.4964C43.7286 62.5165 43.7085 62.5165 43.7085 62.5366L34.5604 77.073L53.5403 84.4519C54.8672 84.9746 56.2344 84.673 56.8979 83.7482Z" fill="white"/>
<path d="M33.334 76.5906L35.3044 73.4742L24.95 73.1525C25.6134 73.5345 26.3171 73.8562 27.0409 74.1578L33.334 76.5906Z" fill="white"/>
<path d="M49.1572 51.4382L37.6366 51.0964L43.2059 60.8879L49.1572 51.4382Z" fill="white"/>
<path d="M46.2418 46.5323C44.9349 45.0646 43.4069 43.8784 41.7582 42.9736L37.4355 49.7895L49.4788 50.1715L46.2418 46.5323Z" fill="white"/>
<path d="M29.5138 62.2551L23.4419 71.8255L35.2842 72.1874L29.5138 62.2551Z" fill="white"/>
<path d="M50.0621 4.81298C51.2081 4.81298 52.3541 4.87329 53.48 4.97382C56.5763 5.2553 59.3911 5.89869 61.8842 6.86376C64.4578 7.84894 66.9107 9.21614 69.1424 10.9452L69.1826 10.9854C69.263 11.0458 69.3636 11.1061 69.4641 11.1664C70.5498 11.7495 71.8969 11.3473 72.48 10.2616C72.7614 9.73889 72.8218 9.13571 72.6609 8.57275C72.5001 8.00979 72.1181 7.52725 71.5953 7.24577C68.7604 5.71774 65.7646 4.61192 62.7086 3.96853C59.8737 3.36536 56.7774 3.1643 53.5202 3.38547C50.5647 3.58653 47.589 4.14949 44.6536 5.03414C44.352 5.11456 44.0705 5.21509 43.7891 5.31562C44.0906 5.27541 44.3922 5.21509 44.6938 5.17488C46.4631 4.93361 48.2726 4.81298 50.0621 4.81298Z" fill="#E7F4F6"/>
<path d="M51.1679 19.1484C56.516 22.7474 60.2557 28.578 60.9594 35.3738C61.0197 36.0373 61.0599 36.7209 61.0599 37.3844C61.8843 36.8817 62.8896 36.7812 63.9753 37.123C66.589 37.9674 69.5647 41.2447 71.6959 46.1505C68.7001 32.3981 61.824 23.3505 51.1679 19.1484Z" fill="#C9DEE2"/>
<path d="M26.1965 39.234C26.1362 39.1937 26.0759 39.1736 26.0156 39.1334L14.7563 55.3387C14.314 55.982 14.6357 56.9873 15.4801 57.5905C15.5405 57.6307 15.6008 57.6508 15.6611 57.691L21.2505 49.6487C21.2505 49.6487 21.2505 49.6286 21.2706 49.6286L26.9203 41.4858C27.3626 40.8424 27.041 39.8371 26.1965 39.234Z" fill="#F68362"/>
<path d="M33.7964 41.124C30.3986 41.3251 27.5636 42.8129 25.8345 45.3261L20.1446 53.4891C18.9182 55.8213 18.697 58.616 19.5817 61.4711C20.3859 64.1049 21.9943 66.4774 24.1457 68.3472L40.5922 42.4108C38.4207 41.4457 36.0885 40.9833 33.7964 41.124Z" fill="#FBCA82"/>
<path d="M33.7964 41.124C30.3985 41.325 27.5636 42.8129 25.8345 45.3261L20.1446 53.489C20.0239 53.7102 19.9234 53.9514 19.8229 54.1726L23.4017 49.0255C25.1308 46.5324 27.9657 45.0446 31.3636 44.8234C33.6757 44.6827 36.008 45.1451 38.1593 46.0901L40.572 42.3705C38.4207 41.4457 36.0884 40.9832 33.7964 41.124Z" fill="#ECA870"/>
<path d="M12.0621 47.0753C11.278 46.4319 10.6748 45.6679 10.2727 44.8234C9.62934 43.4764 9.4886 41.9282 9.91082 40.5208C10.0516 40.0383 10.0516 39.5356 9.89072 39.0531C9.72987 38.5907 9.44839 38.1885 9.04627 37.887C8.82511 37.9071 8.62405 37.9272 8.423 38.0076C7.15633 38.4298 6.47274 39.8171 6.89496 41.0838L7.09602 41.6668C7.77961 43.6975 9.1267 45.4668 10.7955 46.4922C11.1373 46.7134 11.4992 46.8742 11.8611 47.0351C11.9214 47.0552 12.0018 47.0753 12.0621 47.0753Z" fill="#E7F4F6"/>
<path d="M42.0398 61.4308L36.3699 51.4584L30.5594 60.6266L42.0398 61.4308Z" fill="#F68362"/>
<path d="M30.8006 61.9333L36.4503 71.6444L42.0598 62.7175L30.8006 61.9333Z" fill="#F68362"/>
<path d="M65.1212 67.7841L50.6652 51.5387L45.5181 59.7217C45.5181 59.7418 45.5181 59.7418 45.498 59.762C45.498 59.7821 45.4779 59.7821 45.4779 59.8022L36.3298 74.3386L55.3096 81.7174C56.6366 82.2402 58.0239 81.9386 58.6673 80.9936L65.8852 70.5989C66.1667 69.7143 65.8852 68.6487 65.1212 67.7841Z" fill="#FBCA82"/>
<path d="M65.1211 67.7841L50.6651 51.5387L48.4333 55.0974L62.8693 71.3228C63.5127 72.0466 63.8143 72.9312 63.7137 73.7354L65.8851 70.5989C66.1666 69.7143 65.8851 68.6487 65.1211 67.7841Z" fill="#ECA870"/>
<path d="M37.6367 51.0964L43.206 60.8879L49.1573 51.4382L37.6367 51.0964Z" fill="#F68362"/>
<path d="M37.4155 49.7895L49.4589 50.1715L46.2218 46.5323C44.915 45.0646 43.3869 43.8784 41.7383 42.9736L37.4155 49.7895Z" fill="#F68362"/>
<path d="M31.7657 72.0868L35.2842 72.1874L29.5139 62.2551L25.2917 68.9101L31.7657 72.0868Z" fill="#F68362"/>
<path d="M68.8809 19.068C56.5159 11.8299 44.5329 14.3431 40.6725 15.4691C41.3159 15.5294 41.9794 15.6098 42.6027 15.7103C42.7032 15.6701 42.8038 15.65 42.9043 15.6701C62.4873 18.5653 73.1232 32.8806 74.5105 58.1938C74.5105 58.234 74.4904 58.2541 74.4904 58.2943C74.611 60.2446 74.611 62.2752 74.4502 64.3662C74.3698 65.4721 75.0936 66.1356 75.7571 66.3567C76.4407 66.598 77.3856 66.5377 78.0089 65.6329C80.9243 61.4308 83.1158 51.4584 83.0153 47.1758C82.9549 35.7759 77.6872 25.5621 68.8809 19.068Z" fill="#E7F4F6"/>
<path d="M18.8981 32.0162L18.9383 32.1167C19.0389 31.8553 19.1595 31.614 19.3002 31.3527C19.1595 31.5738 19.0188 31.795 18.8981 32.0162Z" fill="#E7F4F6"/>
<path d="M55.1286 24.4966C36.5509 12.4533 26.9404 19.812 20.7478 29.0204C23.261 25.9241 27.2621 24.1347 32.3287 24.1347C38.079 24.1347 43.3467 27.2913 46.0408 32.3781C46.5435 33.323 47.2874 35.5347 47.4281 36.0574C47.7096 36.8214 48.4535 37.2638 49.2578 37.1431C50.1223 37.0225 50.7054 36.1982 50.6451 35.2733C50.6249 35.0119 50.5847 34.7305 50.5043 34.449C50.0821 32.8807 49.4186 31.2522 48.5943 29.6035C48.1117 28.6786 48.3329 27.613 49.1371 26.9495C49.9615 26.286 51.0673 26.286 51.8916 26.9495C53.4599 28.1961 54.6461 29.9252 55.4503 32.0564C55.571 32.3781 55.7519 33.0014 55.8524 33.3633C56.2143 34.7304 56.2143 36.158 56.2143 37.4045C56.2143 39.6363 55.8927 41.8278 55.2493 43.9389C55.2493 43.959 55.2493 43.959 55.2292 43.9791C55.189 44.0796 55.1688 44.1802 55.1286 44.2807L55.0884 44.4214C55.0683 44.5219 55.0683 44.6225 55.0683 44.7431C55.0683 45.668 55.8323 46.432 56.7572 46.432C56.8175 46.432 56.8778 46.432 56.918 46.4119C57.5413 46.3516 58.0842 45.9495 58.3255 45.3865C58.3456 45.3262 58.3657 45.286 58.3858 45.2256C59.0694 43.4966 59.4916 41.687 59.6926 39.7971C59.6926 39.6765 59.7127 39.1939 59.7731 38.8923C59.7932 38.45 59.8133 38.0479 59.8133 37.6458C59.8133 36.922 59.7731 36.1982 59.6926 35.4744C59.2302 31.3326 57.6016 27.5527 55.1286 24.4966Z" fill="#E7F4F6"/>
<path d="M55.4504 32.0362C55.5711 32.3579 55.752 32.9811 55.8526 33.343C56.2145 34.7102 56.2145 36.1377 56.2145 37.3843C56.2145 39.616 55.8928 41.8076 55.2494 43.9187C55.2494 43.9388 55.2494 43.9388 55.2293 43.9589C55.1891 44.0594 55.169 44.1599 55.1288 44.2605L55.0885 44.4012C55.0684 44.5017 55.0684 44.6023 55.0684 44.7229C55.0684 45.6478 55.8325 46.4118 56.7573 46.4118C55.0684 44.7229 59.1097 40.2192 56.8377 32.3176C54.7065 24.8785 49.3182 24.2954 48.6748 27.4722C48.7954 27.2711 48.9563 27.0901 49.1573 26.9293C49.9817 26.2658 51.0875 26.2658 51.9118 26.9293C53.46 28.1759 54.6462 29.905 55.4504 32.0362Z" fill="#C9DEE2"/>
<path d="M75.7773 66.3567C76.4609 66.598 77.4059 66.5377 78.0292 65.6329C80.9445 61.4308 83.136 51.4583 83.0355 47.1758C83.0154 44.7832 82.7741 42.451 82.3117 40.1991C81.608 54.7155 77.6069 67.9049 73.9477 43.2954C70.8514 22.6267 54.5657 18.0426 49.1975 17.0775C64.7795 21.923 73.3043 35.7155 74.5308 58.1938C74.5308 58.234 74.5106 58.2541 74.5106 58.2943C74.6313 60.2446 74.6313 62.2752 74.4704 64.3662C74.39 65.4721 75.1138 66.1355 75.7773 66.3567Z" fill="#C9DEE2"/>
<path d="M49.1572 51.4382L44.0906 51.2975L47.4281 54.2128L49.1572 51.4382Z" fill="#E66754"/>
<path d="M42.5625 49.9503L49.4789 50.1715L46.2418 46.5323C44.935 45.0646 43.4069 43.8784 41.7583 42.9736L39.2048 47.0149L42.5625 49.9503Z" fill="#E66754"/>
<path d="M76.4808 67.7843C76.0988 67.7843 75.7168 67.724 75.3549 67.5832C73.9274 67.0806 73.0829 65.7737 73.2036 64.2658C74.3697 49.6489 67.5538 39.6161 63.593 38.3495C62.447 37.9875 61.5623 38.3092 60.9592 39.3145C60.7782 39.6161 60.3761 39.7166 60.0745 39.5357C59.7729 39.3547 59.6724 38.9526 59.8533 38.651C60.7581 37.123 62.266 36.5801 63.9951 37.123C69.1623 38.7717 75.6565 49.9304 74.5104 64.3663C74.43 65.4721 75.1538 66.1356 75.8173 66.3568C76.5009 66.598 77.4459 66.5377 78.0692 65.6329C80.9845 61.4309 83.176 51.4584 83.0755 47.1759C82.975 32.9812 74.8522 20.6363 61.8639 14.9665C48.7751 9.29664 34.5603 11.8099 23.7635 21.6818C23.5021 21.9231 23.1 21.9029 22.8588 21.6416C22.6175 21.3802 22.6376 20.9781 22.899 20.7368C34.0778 10.503 48.8153 7.90934 62.3465 13.8003C75.7972 19.6712 84.2215 32.4585 84.322 47.1558C84.4226 51.579 82.231 61.833 79.0946 66.3769C78.4512 67.2816 77.5062 67.7843 76.4808 67.7843Z" fill="#303030"/>
<path d="M56.7372 47.7187C55.0885 47.7187 53.7615 46.3917 53.7615 44.743C53.7615 44.542 53.7816 44.361 53.8219 44.1801C53.8219 44.1399 53.842 44.0997 53.842 44.0796L53.9224 43.8584C53.9425 43.778 53.9626 43.7177 54.0028 43.6372C54.0028 43.6171 54.0028 43.6171 54.0229 43.597C54.6462 41.5864 54.9478 39.5156 54.9478 37.3843C54.9478 36.1579 54.9478 34.8711 54.6261 33.6648C54.5457 33.3431 54.3647 32.7399 54.2642 32.4785C53.5404 30.5685 52.4949 29.0405 51.1076 27.9346C50.6854 27.5928 50.243 27.7135 49.9817 27.9346C49.7203 28.1558 49.5192 28.5378 49.7605 29.0002C50.6451 30.7092 51.3287 32.4182 51.7711 34.087C51.8716 34.4489 51.9319 34.8108 51.952 35.1727C52.0525 36.7812 50.9869 38.1886 49.479 38.4097C48.0314 38.6309 46.7044 37.8267 46.242 36.4796C46.2219 36.4394 46.2219 36.4193 46.2219 36.3791C46.1817 36.178 45.4176 33.8859 44.9552 33.0013C42.4822 28.3368 37.6568 25.4415 32.369 25.4415C24.2463 25.4415 19.1998 30.1865 19.1998 37.8267C19.1998 39.9378 19.5617 41.8076 20.3257 43.5166C20.4664 43.8383 20.3257 44.2203 20.004 44.361C19.6823 44.5018 19.3003 44.361 19.1595 44.0393C18.3352 42.1494 17.913 40.1187 17.913 37.8267C17.913 29.523 23.5828 24.1548 32.369 24.1548C38.1193 24.1548 43.387 27.3114 46.0811 32.3981C46.5838 33.3431 47.3277 35.5547 47.4684 36.0775C47.7499 36.8415 48.4938 37.2838 49.2981 37.1632C50.1626 37.0425 50.7457 36.2182 50.6854 35.2933C50.6652 35.032 50.625 34.7505 50.5446 34.469C50.1224 32.9008 49.4589 31.2722 48.6346 29.6235C48.152 28.6987 48.3732 27.6331 49.1774 26.9696C50.0018 26.3061 51.1076 26.3061 51.9319 26.9696C53.5002 28.2161 54.6864 29.9452 55.4906 32.0764C55.6113 32.3981 55.7922 33.0214 55.8927 33.3833C56.2546 34.7505 56.2547 36.178 56.2547 37.4246C56.2547 39.6563 55.933 41.8478 55.2896 43.9589C55.2896 43.979 55.2896 43.979 55.2695 43.9991C55.2293 44.0997 55.2091 44.2002 55.1689 44.3007L55.1287 44.4415C55.1086 44.542 55.1086 44.6425 55.1086 44.7632C55.1086 45.688 55.8726 46.452 56.7975 46.452C56.8578 46.452 56.9181 46.452 56.9584 46.4319C57.5816 46.3716 58.1245 45.9695 58.3658 45.4065C58.3859 45.3462 58.406 45.306 58.4261 45.2457C59.1097 43.5166 59.5319 41.7071 59.7329 39.8171C59.7329 39.6965 59.753 39.214 59.8134 38.9124C59.8335 38.4701 59.8536 38.0679 59.8536 37.6658C59.8536 36.942 59.8134 36.2182 59.7329 35.4944C58.6673 25.0193 49.9012 16.9167 39.3658 16.6553H39.1648C38.7224 16.6352 37.5764 16.595 37.0336 16.595C32.1277 16.6955 27.4431 18.5251 23.7638 21.7019C23.7436 21.722 23.7235 21.7421 23.7034 21.7622C22.5976 22.8077 21.532 23.9738 20.5267 25.2405C17.913 28.8394 16.5056 33.1219 16.5056 37.6055C16.5056 40.7822 17.1289 43.6573 18.3955 46.3716C18.5564 46.6933 18.4156 47.0753 18.0939 47.2362C17.7722 47.397 17.3902 47.2563 17.2294 46.9346C15.8622 44.0393 15.2188 40.9833 15.2188 37.6055C15.2188 32.8404 16.7066 28.2965 19.5013 24.4563C20.5468 23.1294 21.6527 21.923 22.7786 20.8574C22.8389 20.7971 22.8791 20.7569 22.9193 20.7368C26.8198 17.359 31.8061 15.4289 36.9732 15.3082C37.5362 15.3082 38.6822 15.3484 39.1648 15.3685H39.3457C50.5245 15.65 59.8134 24.2553 60.9594 35.3738C61.0398 36.1378 61.08 36.9018 61.08 37.6658C61.08 38.1082 61.0599 38.5706 61.0398 39.0129C61.0398 39.0732 61.0398 39.1335 61.0197 39.1939C60.9996 39.2944 60.9795 39.6764 60.9795 39.7769C60.9795 39.797 60.9795 39.8775 60.9795 39.8976C60.7784 41.9081 60.316 43.8383 59.5922 45.6679C59.5721 45.7282 59.5319 45.8288 59.4917 45.9092C59.0695 46.8944 58.1446 47.578 57.079 47.6785C56.9785 47.7187 56.8578 47.7187 56.7372 47.7187Z" fill="#303030"/>
<path d="M13.1078 48.4425C12.5649 48.4425 12.022 48.4023 11.4993 48.2816C10.4538 48.0806 9.42841 47.6785 8.50354 47.0954C6.5935 45.9092 5.04535 43.8986 4.26123 41.5864L4.06017 41.0235C3.73848 40.0785 3.8189 39.0732 4.26123 38.1885C4.70356 37.3039 5.46757 36.6404 6.41254 36.3187C7.35751 35.997 8.3628 36.0774 9.24746 36.5198C10.1321 36.9621 10.7956 37.7261 11.1173 38.6711C11.3586 39.3949 11.3787 40.1589 11.1575 40.9028C10.8358 42.0086 10.9363 43.2351 11.4591 44.3007C12.022 45.507 13.1681 46.5324 14.6157 47.1356C14.8771 47.2361 15.0379 47.5176 15.0178 47.7991C14.9776 48.0806 14.7564 48.3218 14.475 48.3621C13.9924 48.4023 13.5501 48.4425 13.1078 48.4425ZM7.57868 37.4044C7.3173 37.4044 7.05593 37.4446 6.79455 37.5251C5.52789 37.9473 4.8443 39.3346 5.26652 40.6012L5.46757 41.1843C6.15117 43.215 7.49825 44.9843 9.16703 46.0097C9.95116 46.5123 10.8358 46.8541 11.7205 47.015C11.8411 47.0351 11.9416 47.0552 12.0623 47.0753C11.2781 46.4319 10.675 45.6679 10.2728 44.8234C9.62946 43.4764 9.48872 41.9282 9.91094 40.5208C10.0517 40.0383 10.0517 39.5356 9.89084 39.0531C9.68978 38.4298 9.24746 37.9473 8.66439 37.6457C8.32259 37.4848 7.96069 37.4044 7.57868 37.4044Z" fill="#303030"/>
<path d="M70.5096 12.7145C69.9467 12.7145 69.3636 12.5738 68.8409 12.2923C68.68 12.2119 68.5393 12.1114 68.3985 12.0108C68.3985 12.0108 68.3583 11.9907 68.3583 11.9706C66.2271 10.3421 63.8948 9.01508 61.4218 8.07011C59.0493 7.14524 56.3351 6.52197 53.3594 6.26059C50.5848 5.99922 47.7097 6.07964 44.8346 6.46165C41.5775 6.90398 38.8632 7.62778 36.4907 8.67328C36.1891 8.81402 35.8272 8.69339 35.6664 8.3918C35.5055 8.09021 35.606 7.72831 35.8875 7.54736C38.1997 6.05953 40.9341 4.83308 44.2716 3.80769C47.2875 2.90293 50.3637 2.31986 53.4197 2.0987C56.8176 1.85743 60.0345 2.05849 62.97 2.70187C66.1668 3.36536 69.2631 4.51139 72.2186 6.09975C73.043 6.54207 73.6461 7.28598 73.9075 8.19074C74.1689 9.0955 74.0683 10.0405 73.626 10.8648C72.9625 12.051 71.7562 12.7145 70.5096 12.7145ZM50.0621 4.81298C51.2081 4.81298 52.3541 4.87329 53.4801 4.97382C56.5763 5.2553 59.3912 5.89869 61.8843 6.86376C64.4578 7.84895 66.9107 9.21614 69.1424 10.9452L69.1827 10.9854C69.2631 11.0458 69.3636 11.1061 69.4641 11.1664C70.5498 11.7495 71.8969 11.3473 72.48 10.2616C72.7615 9.73889 72.8218 9.13571 72.6609 8.57275C72.5001 8.00979 72.1181 7.52725 71.5953 7.24577C68.7604 5.71774 65.7647 4.61192 62.7086 3.96854C59.8737 3.36536 56.7774 3.16431 53.5203 3.38547C50.5647 3.58653 47.5891 4.14949 44.6536 5.03414C44.352 5.11456 44.0706 5.21509 43.7891 5.31562C44.0907 5.27541 44.3923 5.21509 44.6938 5.17488C46.4632 4.93361 48.2727 4.81298 50.0621 4.81298Z" fill="#303030"/>
<path d="M54.827 86C54.2439 86 53.6609 85.8995 53.0577 85.6582L26.5784 75.344C21.6525 73.4339 17.8525 69.4731 16.4049 64.7281C15.2991 61.089 15.7615 57.5102 17.7319 54.6954L24.7488 44.5822C26.7192 41.7473 29.8959 40.0584 33.6959 39.8372C38.6218 39.5356 43.6683 41.7272 47.1868 45.6679L66.0661 66.9197C67.4132 68.4276 67.6545 70.4784 66.6693 71.9059L57.9434 84.472C57.2598 85.4572 56.0937 86 54.827 86ZM25.8144 45.3261L18.7975 55.4393C17.0684 57.9324 16.6462 61.1091 17.6515 64.3662C18.9785 68.7292 22.497 72.3884 27.061 74.1577L53.5402 84.4519C54.8672 84.9746 56.2545 84.673 56.8979 83.7281L65.6238 71.162C66.2672 70.217 66.0661 68.8297 65.1212 67.7641L46.2419 46.5123C42.9847 42.8531 38.3403 40.8425 33.7964 41.1039C30.3784 41.325 27.5636 42.833 25.8144 45.3261Z" fill="#303030"/>
<path d="M14.4547 59.6011C13.7912 59.6011 13.1076 59.4 12.4843 58.9577C11.0568 57.9725 10.5944 56.1429 11.4388 54.9164L22.7785 38.6107C23.643 37.3842 25.4927 37.1831 26.9203 38.1884C28.3478 39.1736 28.8102 41.0032 27.9658 42.2297L22.2959 50.3725C22.2959 50.3725 22.2959 50.3926 22.2758 50.3926L16.6261 58.5355C16.1436 59.2191 15.3393 59.6011 14.4547 59.6011ZM23.8441 39.3546L12.5044 55.6603C12.0621 56.3037 12.3838 57.309 13.2282 57.9122C14.0727 58.4952 15.1383 58.455 15.5806 57.8116L21.2504 49.6688C21.2504 49.6688 21.2504 49.6487 21.2705 49.6487L26.9203 41.5059C27.3626 40.8625 27.0409 39.8572 26.1964 39.254C25.352 38.6509 24.2864 38.6911 23.8441 39.3546Z" fill="#303030"/>
<path d="M22.3965 72.9312C22.2759 72.9312 22.1553 72.891 22.0547 72.8307C21.7532 72.6497 21.6727 72.2476 21.8537 71.946L40.8938 41.9482C41.0748 41.6467 41.4769 41.5662 41.7785 41.7472C42.0801 41.9281 42.1605 42.3302 41.9795 42.6318L22.9394 72.6296C22.8188 72.8106 22.6177 72.9312 22.3965 72.9312Z" fill="#303030"/>
<path d="M36.4103 73.5143L22.5976 73.0921C22.2357 73.072 21.9542 72.7905 21.9743 72.4286C21.9944 72.0667 22.2759 71.8053 22.6378 71.8053L35.2843 72.2075L29.0918 61.5514C28.9711 61.3504 28.9711 61.089 29.0918 60.8879C29.2124 60.6869 29.4537 60.5662 29.6748 60.5863L42.0198 61.4509L35.9277 50.7546C35.8071 50.5536 35.8071 50.3123 35.9277 50.1112C36.0484 49.9102 36.2695 49.8097 36.4907 49.7896L50.2832 50.2118C50.6451 50.2319 50.9266 50.5134 50.9065 50.8753C50.8864 51.2372 50.5848 51.4985 50.243 51.4985L37.5965 51.0964L43.7087 61.853C43.8293 62.0541 43.8293 62.3154 43.6886 62.5165C43.5679 62.7175 43.3468 62.8181 43.1055 62.8181L30.8008 61.9334L36.9732 72.5493C37.0939 72.7503 37.0939 72.9916 36.9732 73.1926C36.8526 73.3937 36.6515 73.5143 36.4103 73.5143Z" fill="#303030"/>
<path d="M33.6155 77.9778C33.4948 77.9778 33.3742 77.9376 33.2737 77.8773C32.9721 77.6964 32.8917 77.2942 33.0726 76.9927L49.7604 50.4933C49.9413 50.1917 50.3435 50.1113 50.645 50.2922C50.9466 50.4732 51.0271 50.8753 50.8461 51.1769L34.1583 77.6763C34.0377 77.8773 33.8366 77.9778 33.6155 77.9778Z" fill="#303030"/>
<path d="M73.8873 58.8772C73.5455 58.8772 73.264 58.6159 73.2439 58.2741C71.8968 33.6445 61.6228 19.7514 42.7435 16.9366C42.4017 16.8763 42.1403 16.5546 42.2006 16.2128C42.261 15.8509 42.5827 15.6298 42.9245 15.67C62.5075 18.5652 73.1434 32.8805 74.5307 58.1936C74.5508 58.5555 74.2693 58.8571 73.9275 58.8772C73.9074 58.8772 73.9074 58.8772 73.8873 58.8772Z" fill="#303030"/>
</svg>
