<svg width="88" height="88" viewBox="0 0 88 88" fill="none" xmlns="http://www.w3.org/2000/svg">
<path d="M8.50257 48.9647C8.72527 49.0092 8.90343 49.1651 8.99251 49.3878C9.08159 49.6105 9.05932 49.8332 8.94797 50.0336C8.43577 50.8576 8.16853 51.7929 8.16853 52.7728C8.16853 55.6233 10.4623 57.9171 13.2683 57.9171C14.5154 57.9171 15.718 57.4717 16.631 56.6255C16.7646 56.4918 16.9651 56.4473 17.1432 56.4473C17.3214 56.4696 17.4995 56.5364 17.6332 56.6923C18.3012 57.4494 18.6798 58.4293 18.6798 59.4314C18.6798 61.0794 17.7 62.5269 16.297 63.1728C16.7424 63.3064 17.21 63.3732 17.7 63.3732C19.5038 63.3732 21.1295 62.3488 21.9535 60.7676C19.3257 56.7814 16.7869 52.5724 14.6936 48.497C13.1124 48.1407 11.6649 47.339 10.5068 46.181C9.01478 44.7112 8.10172 42.7514 7.90129 40.6581C7.87902 40.5245 7.87902 40.3908 7.87902 40.2572C7.76767 38.8988 7.6786 37.5849 7.63406 36.2932C5.11758 37.2954 3.42508 39.7227 3.42508 42.5065C3.42508 45.6242 5.51843 48.2743 8.50257 48.9647Z" fill="white"/>
<path d="M59.3445 28.9443C59.3445 29.8796 59.2999 30.815 59.1886 31.7726C59.1218 32.307 59.055 32.8415 58.9659 33.376C58.7877 34.2222 58.4982 35.0239 58.1419 35.7811C58.1419 35.8034 58.1419 35.8034 58.1419 35.8256C58.0083 36.182 57.8301 36.4937 57.6297 36.761C55.6254 40.1905 51.9287 42.4398 47.831 42.4398C46.8957 42.4398 45.9826 42.3284 45.0918 42.1057C42.4195 41.4376 40.1034 39.8342 38.5 37.5404C38.2328 37.1396 37.9433 36.7387 37.8319 36.3601C37.4756 36.6719 37.0748 36.9614 36.6516 37.1841C34.9146 38.0972 33.4002 39.322 32.1309 40.8586C31.9973 41.0368 31.7968 41.1258 31.5741 41.1258C31.4182 41.1258 31.2624 41.0813 31.1287 40.97C30.817 40.725 30.7724 40.2796 31.0397 39.9678C32.4204 38.2976 34.0906 36.9391 36.0058 35.937C37.4533 35.1798 38.4109 33.6209 38.4109 31.9953C38.4109 28.343 37.097 24.8467 34.7142 22.152C34.6919 22.1298 34.6696 22.1075 34.6251 22.1298C34.5805 22.152 34.536 22.1966 34.5583 22.2411C34.5805 22.5974 34.5805 22.976 34.5805 23.3546C34.5805 29.167 32.1309 34.7344 27.8774 38.6539C27.8551 38.6539 27.8551 38.6762 27.8328 38.6762C27.7883 38.6984 27.7437 38.7207 27.6992 38.743C27.6547 38.7653 27.6324 38.7875 27.5879 38.7875C27.521 38.8098 27.4542 38.8321 27.3874 38.8543C19.4371 40.5468 15.9185 45.023 15.9185 47.7622C20.6174 56.9596 27.6769 66.8696 32.799 73.5506C33.5339 74.5081 34.2465 75.3989 34.8701 76.1784L35.2041 76.5792C35.2486 76.6238 35.3154 76.7129 35.3822 76.8019C36.3844 78.049 37.8765 78.7617 39.5021 78.7617C41.0165 78.7617 42.3972 78.1158 43.3771 77.0469C42.5531 76.7351 41.4396 76.0002 40.5488 74.3077C40.3707 73.9514 40.5043 73.5283 40.8383 73.3501C41.1946 73.172 41.6178 73.3056 41.7959 73.6396C42.6422 75.2431 43.6666 75.6884 44.2233 75.8221C44.3347 75.5994 44.4238 75.3767 44.5128 75.154C44.5128 75.1317 44.5351 75.0649 44.5796 74.9981C45.27 73.1942 45.5818 72.2589 45.7377 71.7912C44.8023 71.0118 42.4418 68.8962 41.8405 66.981C41.7291 66.6024 41.9295 66.2015 42.3081 66.0902C42.6867 65.9788 43.0876 66.1793 43.1989 66.5579C43.5775 67.7604 45.0473 69.2748 46.1163 70.2324C46.1385 70.0097 46.1831 69.787 46.1831 69.5643C46.1831 68.384 45.7822 67.2482 45.0473 66.3129L45.0028 66.2461C44.9582 66.1793 44.8914 66.1125 44.8469 66.0457C44.8469 66.0457 44.8246 66.0011 44.8023 65.9788C42.5976 63.2619 42.3972 61.0572 42.2191 57.3827C42.2191 55.8016 42.0186 54.265 41.6178 52.7729C40.8606 49.9001 39.3685 47.2723 37.2752 45.1344C37.0079 44.8449 37.0079 44.3995 37.2974 44.1323C37.587 43.865 38.0323 43.865 38.2996 44.1545C40.5488 46.4706 42.1522 49.3211 42.9762 52.4166C43.4216 54.02 43.622 55.6902 43.622 57.3605C43.6666 58.4071 43.7334 59.3202 43.8225 60.1442C45.4482 60.3223 47.1184 60.1665 48.6773 59.6542C49.0336 59.5429 49.4567 59.7211 49.5903 60.0774C51.1047 64.2863 54.9351 67.315 59.3667 67.7827C59.3667 67.7827 59.3667 67.7827 59.389 67.7827C63.2194 68.0054 66.2258 71.2122 66.2258 75.0872C66.2258 75.154 66.2258 75.2208 66.2258 75.2876V75.3099C66.2258 75.3544 66.2258 75.3767 66.2258 75.4212C66.2258 75.4435 66.2258 75.4658 66.2258 75.488C66.1813 76.8019 66.0922 78.0936 65.9808 79.4298C65.8472 81.0109 65.6691 82.2135 65.5354 83.0375C67.6511 82.0799 72.4168 79.4298 76.8039 73.2165C76.8707 73.1274 76.9153 73.0606 76.9598 72.9938C78.63 70.6555 79.4986 67.9163 79.4986 65.0435C78.2737 65.5557 76.9153 65.8452 75.5123 65.8452C75.2896 65.8452 75.0446 65.8452 74.8219 65.823C74.4211 65.8007 74.1316 65.4666 74.1538 65.0658C74.1761 64.6649 74.5101 64.3754 74.911 64.3977C75.1114 64.42 75.3119 64.42 75.5123 64.42C80.4116 64.42 84.3979 60.3891 84.3979 55.4453C84.3979 53.3742 83.6853 51.3476 82.3714 49.7442C82.1709 49.4993 82.1487 49.1429 82.3491 48.8757C83.6407 47.0273 84.3311 44.9117 84.3311 42.707C84.3311 38.498 81.8369 34.6676 78.0733 32.9529C77.3161 35.358 75.9131 37.5181 73.9534 39.1884C73.8198 39.2997 73.6639 39.3665 73.4857 39.3665C73.2853 39.3665 73.0849 39.2775 72.9513 39.1216C72.7063 38.8321 72.7286 38.3644 73.0181 38.1194C75.7127 35.8034 77.2716 32.4407 77.2716 28.8775C77.2716 22.1743 71.8823 16.7405 65.2459 16.7405C64.8896 16.7405 64.5333 16.7628 64.1993 16.785C64.4888 17.8317 64.6669 18.9229 64.6892 20.0587C64.6892 20.4595 64.3774 20.7713 63.9988 20.7936C63.9988 20.7936 63.9988 20.7936 63.9766 20.7936C63.598 20.7936 63.2639 20.4818 63.2639 20.1032C63.1081 13.5782 57.7188 8.25574 51.2383 8.25574C50.5925 8.25574 49.9689 8.32255 49.3454 8.41163C55.4027 13.1773 59.3445 20.5932 59.3445 28.9443ZM31.6187 60.1887C31.5296 60.4782 31.2401 60.6787 30.9506 60.6787C30.8838 60.6787 30.7947 60.6564 30.7279 60.6341L28.3673 59.8547C27.4097 59.5429 26.6748 58.7635 26.3853 57.8059L25.1605 53.7305C25.0491 53.3519 25.2718 52.9511 25.6281 52.8397C26.0067 52.7284 26.4076 52.9511 26.5189 53.3074L26.9866 54.8663C27.4097 54.7549 27.8328 54.7549 28.2559 54.844C29.8594 55.1558 30.8838 56.7369 30.572 58.3403C30.5275 58.5853 30.4384 58.808 30.3493 59.0084L31.1733 59.2757C31.5519 59.4316 31.7523 59.8324 31.6187 60.1887Z" fill="white"/>
<path d="M27.9665 56.2469C27.7661 56.2024 27.588 56.2246 27.3875 56.2469L27.7216 57.3827C27.8775 57.9171 28.2783 58.318 28.7905 58.4961L28.9464 58.5407C29.0355 58.3848 29.1246 58.2289 29.1468 58.0508C29.3473 57.2268 28.7905 56.4251 27.9665 56.2469Z" fill="white"/>
<path d="M39.9699 36.182C41.1502 37.2955 42.7091 37.8967 44.3125 37.8967C46.8513 37.8967 49.1673 36.3824 50.1695 34.0218C50.1695 33.9995 50.1695 33.9995 50.1917 33.9773C50.4813 33.3314 50.6371 32.6633 50.7039 31.9507C50.8153 31.1935 50.8598 30.5255 50.8598 29.8574C50.8598 26.3833 49.5237 23.1319 47.074 20.7045C44.6689 18.2771 41.462 16.9632 38.0547 16.9632C30.9952 16.9632 25.2497 22.7533 25.2497 29.8796C25.2497 31.5053 25.5392 33.1087 26.1405 34.6231C26.4745 35.4916 26.9199 36.3156 27.4321 37.0728C31.0621 33.4651 33.1554 28.4989 33.1554 23.3323C33.1554 22.976 33.1554 22.642 33.1331 22.3079C33.0886 21.6398 33.4672 21.0386 34.0907 20.7936C34.692 20.5486 35.3601 20.7045 35.7832 21.1944C38.3888 24.1563 39.8363 27.9867 39.8363 31.9507C39.8363 33.1756 39.4355 34.3558 38.7451 35.3134C39.146 35.4471 39.5691 35.8256 39.9699 36.182Z" fill="white"/>
<path d="M10.5512 34.8235C12.6891 33.4205 15.5619 33.2423 17.2989 33.6432C17.6775 33.7322 17.9225 34.1108 17.8334 34.4894C17.7443 34.868 17.3657 35.113 16.9871 35.0239C15.4728 34.6676 13.0677 34.9125 11.3306 36.026C10.2171 36.7387 9.52677 37.7631 9.2818 39.0324C9.2818 39.077 9.25953 39.0992 9.23726 39.1438C9.25953 39.5001 9.2818 39.8564 9.30407 40.235C9.30407 40.3686 9.32634 40.48 9.32634 40.5913C9.5045 42.3729 10.2839 44.0208 11.531 45.2457C12.3996 46.0919 13.424 46.6932 14.5597 47.0495C15.0719 43.5977 19.0582 39.5224 26.14 37.7185C25.6278 36.9168 25.1824 36.0706 24.8261 35.1798C24.1802 33.5095 23.8462 31.728 23.8462 29.9241C23.8462 22.0184 30.2376 15.5824 38.0765 15.5824C41.8624 15.5824 45.4255 17.0745 48.0979 19.7469C50.7926 22.4415 52.2846 26.0492 52.2846 29.9018C52.2846 30.6367 52.2401 31.3716 52.1065 32.1288C52.0397 32.9973 51.8392 33.799 51.5052 34.5562C51.5052 34.5785 51.4829 34.623 51.4606 34.6453C50.2135 37.4958 47.4076 39.3442 44.2898 39.3442C43.399 39.3442 42.5305 39.1883 41.7065 38.8988C42.7977 39.7673 44.0671 40.3909 45.4255 40.7249C46.205 40.9254 47.029 41.0144 47.8307 41.0144C50.3249 41.0144 52.6409 40.0568 54.4002 38.4757C54.3334 38.4757 54.2666 38.4757 54.2221 38.4757C53.7322 38.4757 53.2868 38.4089 52.9527 38.2975C52.5741 38.1862 52.3514 37.7853 52.4628 37.4067C52.5741 37.0282 52.975 36.8055 53.3536 36.9168C53.5763 36.9836 55.3578 37.429 56.4045 36.026C56.939 35.1352 57.3398 34.1331 57.5625 33.0864C57.6516 32.6188 57.7184 32.1065 57.763 31.5943C57.8298 30.8594 57.8743 30.1468 57.8966 29.4119C57.4067 29.9018 56.8276 30.1691 56.4045 30.2582C56.36 30.2582 56.2932 30.2804 56.2486 30.2804C55.9146 30.2804 55.6251 30.0577 55.5583 29.7237C55.4692 29.3451 55.7142 28.9665 56.115 28.8774C56.3154 28.8329 58.0747 28.3207 57.6294 25.3143C57.6294 25.2475 57.6294 25.2029 57.6294 25.1361C57.3398 23.31 56.8499 21.5284 56.1818 19.8582C55.8478 21.0385 55.202 21.6843 55.1351 21.7511C55.0015 21.8847 54.8234 21.9516 54.6452 21.9516C54.4671 21.9516 54.2666 21.8847 54.133 21.7289C53.8658 21.4394 53.8658 20.994 54.1553 20.7267C54.2221 20.6599 55.781 19.0565 54.2666 16.1169C54.2666 16.0946 54.2666 16.0724 54.2444 16.0501C53.0641 14.1572 51.6611 12.4201 50.0354 10.9058C50.1022 11.9747 49.835 12.9769 49.5454 13.5781C49.4341 13.8454 49.1669 13.979 48.8996 13.979C48.7883 13.979 48.6992 13.9567 48.5878 13.9122C48.2315 13.734 48.0756 13.3109 48.2538 12.9546C48.2983 12.8655 49.3005 10.6608 47.8307 9.07966C45.6037 7.45397 43.1095 6.20687 40.4149 5.40516C41.1275 6.51865 41.3057 7.81029 41.2388 8.67881C41.2166 9.05739 40.9048 9.3469 40.5262 9.3469C40.5039 9.3469 40.4817 9.3469 40.4817 9.3469C40.0808 9.32463 39.7913 8.96832 39.8136 8.58973C39.8359 8.23341 39.9249 5.04884 36.4509 4.60345C35.5155 4.4921 34.5579 4.42529 33.5781 4.42529C31.5292 4.42529 29.525 4.69253 27.6098 5.18246C29.859 5.87282 30.9725 7.45397 31.0616 7.56532C31.2843 7.89937 31.1952 8.34476 30.8612 8.54519C30.7498 8.63427 30.5939 8.65654 30.4603 8.65654C30.2376 8.65654 30.0149 8.54519 29.859 8.34476C29.7922 8.23341 27.877 5.56105 23.8017 6.49638C20.8398 7.83256 18.1674 9.74776 15.9404 12.1083C17.967 11.7966 20.1272 12.3979 21.5747 13.2218C21.9087 13.4223 22.0423 13.8454 21.8419 14.2017C21.6415 14.5357 21.2184 14.6694 20.8621 14.4689C19.5481 13.734 15.8514 12.4647 13.7357 14.803C11.776 17.5644 10.373 20.7713 9.68266 24.2231C11.5533 22.6419 14.3593 22.1074 16.809 22.5306C17.1875 22.5974 17.4548 22.9537 17.388 23.3546C17.3212 23.7331 16.9649 24.0004 16.564 23.9336C14.2479 23.555 10.4398 24.0895 9.2818 27.1627C8.97002 30.08 8.88095 33.0641 8.99229 36.1596C9.45996 35.6474 9.97216 35.202 10.5512 34.8235Z" fill="white"/>
<path d="M19.6818 61.7698C19.1918 61.7698 20.1272 61.9034 19.6818 61.7698V61.7698Z" fill="#E7F4F6"/>
<path d="M14.7157 48.5416C13.1346 48.1853 11.687 47.3836 10.529 46.2256C9.03693 44.7558 8.12387 42.796 7.92344 40.7027C7.90117 40.5691 7.90117 40.4355 7.90117 40.3018C7.78982 38.9434 7.70074 37.6295 7.6562 36.3378C7.52259 36.3824 7.41124 36.4492 7.29989 36.516C6.45364 37.6295 5.94144 39.0102 5.94144 40.5245C5.94144 43.62 8.03479 46.2701 11.0189 46.9828C11.2416 47.0273 11.4198 47.1832 11.5089 47.4059C11.5979 47.6286 11.5757 47.8513 11.4643 48.0517C10.9521 48.8757 10.6849 49.811 10.6849 50.7909C10.6849 53.6414 12.9787 55.9352 15.7847 55.9352C16.475 55.9352 17.1431 55.8016 17.7667 55.5343C17.8112 55.4898 17.8557 55.4675 17.9003 55.423C18.0116 55.3116 18.1675 55.2671 18.3011 55.2671C18.3457 55.2448 18.3902 55.2226 18.4347 55.2003C17.0986 52.9733 15.8292 50.7241 14.7157 48.5416Z" fill="#E7F4F6"/>
<path d="M28.9686 58.563C29.0576 58.4071 29.1467 58.2512 29.169 58.073C29.3249 57.2268 28.7904 56.4251 27.9664 56.2692C27.766 56.2246 27.5878 56.2469 27.3874 56.2692L27.7215 57.4049C27.8773 57.9394 28.2782 58.3403 28.7904 58.5184L28.9686 58.563Z" fill="white"/>
<path d="M39.9698 36.182C41.1501 37.2955 42.709 37.8967 44.3124 37.8967C46.8512 37.8967 49.1672 36.3824 50.1694 34.0218C50.1694 33.9995 50.1694 33.9995 50.1916 33.9773C50.4811 33.3314 50.637 32.6633 50.7038 31.9507C50.8152 31.1935 50.8597 30.5255 50.8597 29.8574C50.8597 26.3833 49.5235 23.1319 47.0739 20.7045C44.6687 18.2771 41.4619 16.9632 38.0546 16.9632C30.9951 16.9632 25.2495 22.7533 25.2495 29.8796C25.2495 31.5053 25.539 33.1087 26.1403 34.6231C26.4744 35.4916 26.9198 36.3156 27.432 37.0728C31.0619 33.4651 33.1553 28.4989 33.1553 23.3323C33.1553 22.976 33.1553 22.642 33.133 22.3079C33.0885 21.6398 33.4671 21.0386 34.0906 20.7936C34.6919 20.5486 35.36 20.7045 35.7831 21.1944C38.3887 24.1563 39.8362 27.9867 39.8362 31.9507C39.8362 33.1756 39.4354 34.3558 38.745 35.3134C39.1458 35.4471 39.569 35.8256 39.9698 36.182Z" fill="#C9DEE2"/>
<path d="M56.4044 30.2804C56.3599 30.2804 56.2931 30.3027 56.2485 30.3027C55.9145 30.3027 55.625 30.08 55.5582 29.7459C55.4691 29.3673 55.7141 28.9888 56.1149 28.8997C56.3153 28.8551 58.0747 28.3429 57.6293 25.3365C57.6293 25.2697 57.6293 25.2252 57.6293 25.1584C57.3398 23.3322 56.8498 21.5507 56.1817 19.8804C55.8477 21.0607 55.2019 21.7066 55.1351 21.7734C55.0014 21.907 54.8233 21.9738 54.6451 21.9738C54.467 21.9738 54.2665 21.907 54.1329 21.7511C53.8657 21.4616 53.8657 21.0162 54.1552 20.749C54.222 20.6822 55.7809 19.0787 54.2665 16.1391C54.2665 16.1169 54.2665 16.0946 54.2443 16.0723C53.064 14.1794 51.661 12.4424 50.0353 10.928C50.1021 11.997 49.8349 12.9991 49.5454 13.6004C49.434 13.8676 49.1668 14.0012 48.8995 14.0012C48.7882 14.0012 48.6991 13.979 48.5878 13.9344C48.2314 13.7563 48.0756 13.3331 48.2537 12.9768C48.2983 12.8878 49.3004 10.6831 47.8306 9.1019C47.4965 8.85693 47.1402 8.61197 46.7839 8.38927C44.8019 7.76572 42.909 7.32032 41.0829 7.05309C41.2388 7.65437 41.261 8.23338 41.2388 8.70105C41.2165 9.07963 40.9047 9.36914 40.5261 9.36914C40.5039 9.36914 40.4816 9.36914 40.4816 9.36914C40.0807 9.34687 39.7912 8.99055 39.8135 8.61197C39.8135 8.43381 39.8358 7.67664 39.5463 6.87493C36.4062 6.56315 33.5112 6.76358 30.8833 7.38713C30.9724 7.49848 31.0392 7.58756 31.0615 7.60983C31.2842 7.94388 31.1951 8.38927 30.8611 8.5897C30.7497 8.67878 30.5938 8.70105 30.4602 8.70105C30.2375 8.70105 30.0148 8.5897 29.8589 8.38927C29.8367 8.367 29.6585 8.09976 29.3245 7.78799C25.8949 8.83466 22.9776 10.594 20.6393 12.7987C20.9733 12.9323 21.3074 13.0882 21.5969 13.2441C21.9309 13.4445 22.0645 13.8676 21.8641 14.2239C21.6637 14.558 21.2406 14.6916 20.8842 14.4912C20.5502 14.313 20.0825 14.0903 19.5035 13.9122C17.1652 16.4064 15.4727 19.3905 14.4928 22.4415C15.2945 22.3747 16.0962 22.4192 16.8534 22.5305C17.232 22.5973 17.4992 22.9537 17.4324 23.3545C17.3656 23.7331 17.0093 24.0003 16.6084 23.9335C15.8735 23.7999 14.9828 23.7776 14.0697 23.9113C13.9806 24.3121 13.8915 24.713 13.8247 25.1138C13.2235 28.5434 12.9117 31.3939 13.0676 33.7545C14.6042 33.3759 16.1631 33.3759 17.2765 33.6431C17.6551 33.7322 17.9001 34.1108 17.811 34.4894C17.7219 34.868 17.3433 35.1129 16.9648 35.0238C15.9626 34.8012 14.5819 34.8234 13.2457 35.1797C13.7134 38.0971 15.0718 40.2572 17.6329 41.9497C19.5926 40.1682 22.4208 38.6093 26.1399 37.6739C25.6277 36.8722 25.1823 36.026 24.826 35.1352C24.1802 33.465 23.8461 31.6834 23.8461 29.8795C23.8461 21.9738 30.2375 15.5378 38.0765 15.5378C41.8623 15.5378 45.4255 17.0299 48.0978 19.7023C50.7925 22.3969 52.2845 26.0046 52.2845 29.8573C52.2845 30.5922 52.24 31.3271 52.1064 32.0842C52.0396 32.9528 51.8391 33.7545 51.5051 34.5116C51.5051 34.5339 51.4828 34.5785 51.4606 34.6007C50.2134 37.4512 47.4075 39.2996 44.2897 39.2996C43.3989 39.2996 42.5304 39.1437 41.7064 38.8542C42.7976 39.7228 44.067 40.3463 45.4255 40.6804C46.2049 40.8808 47.0289 40.9699 47.8306 40.9699C50.3248 40.9699 52.6408 40.0123 54.4002 38.4311C54.3333 38.4311 54.2665 38.4311 54.222 38.4311C53.7321 38.4311 53.2867 38.3643 52.9526 38.253C52.574 38.1416 52.3513 37.7408 52.4627 37.3622C52.574 36.9836 52.9749 36.7609 53.3535 36.8722C53.5762 36.939 55.3578 37.3844 56.4044 35.9814C56.9389 35.0907 57.3398 34.0885 57.5625 33.0418C57.6515 32.5742 57.7183 32.062 57.7629 31.5498C57.8297 30.8149 57.8742 30.1022 57.8965 29.3673C57.4066 29.9241 56.8276 30.1913 56.4044 30.2804Z" fill="#FBCA82"/>
<path d="M53.8882 28.4989C53.8882 19.4797 46.5837 12.1752 37.5645 12.1752C28.5452 12.1752 21.2408 19.4797 21.2408 28.4989C21.2408 32.1289 22.421 35.4916 24.4253 38.1863C24.9821 38.0081 25.5388 37.8299 26.1401 37.6741C25.6279 36.8723 25.1825 36.0261 24.8262 35.1353C24.1804 33.4651 23.8463 31.6835 23.8463 29.8797C23.8463 21.9739 30.2377 15.538 38.0767 15.538C41.8625 15.538 45.4257 17.03 48.098 19.7024C50.7927 22.397 52.2847 26.0047 52.2847 29.8574C52.2847 30.5923 52.2402 31.3272 52.1066 32.0844C52.0398 32.9529 51.8393 33.7546 51.5053 34.5118C51.5053 34.534 51.483 34.5786 51.4608 34.6008C50.2137 37.4514 47.4077 39.2997 44.2899 39.2997C43.3991 39.2997 42.5306 39.1439 41.7066 38.8544C41.8848 39.0102 42.0852 39.1216 42.2856 39.2552C50.1023 41.9944 53.8882 35.937 53.8882 28.4989Z" fill="#ECA870"/>
<path d="M74.8888 64.4422C75.0892 64.4645 75.2896 64.4645 75.49 64.4645C80.3894 64.4645 84.3757 60.4336 84.3757 55.4898C84.3757 53.4187 83.663 51.3921 82.3491 49.7887C82.1487 49.5438 82.1264 49.1874 82.3268 48.9202C83.6185 47.0718 84.3088 44.9562 84.3088 42.7515C84.3088 38.5425 81.8146 34.7121 78.051 32.9973C77.2939 35.4025 75.8909 37.5626 73.9312 39.2329C73.7975 39.3442 73.6416 39.411 73.4635 39.411C73.2631 39.411 73.0626 39.3219 72.929 39.1661C72.6841 38.8766 72.7063 38.4089 72.9958 38.1639C75.6905 35.8479 77.2493 32.4851 77.2493 28.922C77.2493 22.2188 71.8601 16.785 65.2237 16.785C64.8674 16.785 64.5111 16.8073 64.177 16.8295C64.4665 17.8762 64.6447 18.9674 64.667 20.1032C64.667 20.504 64.3552 20.8158 63.9766 20.8381C63.9766 20.8381 63.9766 20.8381 63.9543 20.8381C63.5757 20.8381 63.2417 20.5263 63.2417 20.1477C63.0858 13.6227 57.6965 8.30023 51.216 8.30023C50.5702 8.30023 49.9467 8.36704 49.3231 8.45612C55.4028 13.1996 59.3445 20.6377 59.3445 28.9665C59.3445 29.9019 59.2999 30.8372 59.1886 31.7948C59.1218 32.3293 59.055 32.8637 58.9659 33.3982C58.7878 34.2445 58.4982 35.0462 58.1419 35.8033C58.1419 35.8256 58.1419 35.8256 58.1419 35.8479C58.0083 36.2042 57.8302 36.516 57.6297 36.7832C55.6255 40.2127 51.9287 42.462 47.831 42.462C46.8957 42.462 45.9827 42.3506 45.0919 42.1279C42.4195 41.4598 40.1035 39.8564 38.5 37.5626C38.2328 37.1618 37.9433 36.7609 37.8319 36.3823C37.4756 36.6941 37.0748 36.9836 36.6517 37.2063C34.9146 38.1194 33.4003 39.3442 32.1309 40.8808C31.9973 41.059 31.7969 41.1481 31.5742 41.1481C31.4183 41.1481 31.2624 41.1035 31.1288 40.9922C30.817 40.7472 30.7724 40.3018 31.0397 39.99C32.4204 38.3198 34.0906 36.9614 36.0058 35.9592C37.4534 35.2021 38.411 33.6432 38.411 32.0175C38.411 28.3652 37.097 24.8689 34.7142 22.1743C34.6919 22.152 34.6696 22.1297 34.6251 22.152C34.5806 22.1743 34.536 22.2188 34.5583 22.2633C34.5806 22.6197 34.5806 22.9982 34.5806 23.3768C34.5806 29.1892 32.1309 34.7567 27.8774 38.6761C27.8551 38.6761 27.8551 38.6984 27.8328 38.6984C27.7883 38.7207 27.7438 38.7429 27.6992 38.7652C27.6547 38.7875 27.6324 38.8097 27.5879 38.8097C27.5211 38.832 27.4543 38.8543 27.3874 38.8766C22.9558 39.8119 19.9271 41.6157 18.0787 43.5087C20.2389 47.5617 37.1416 79.1625 42.0632 76.2674C41.5287 75.822 40.9942 75.1985 40.5266 74.3077C40.3484 73.9514 40.482 73.5282 40.8161 73.3501C41.1724 73.1719 41.5955 73.3055 41.7737 73.6396C42.1523 74.3522 42.5754 74.8422 42.954 75.1762C44.0229 73.5505 44.7133 72.3034 45.1587 71.3235C44.0675 70.3437 42.3082 68.5844 41.796 66.9809C41.6846 66.6024 41.885 66.2015 42.2636 66.0902C42.6422 65.9788 43.0431 66.1792 43.1544 66.5578C43.4885 67.6268 44.691 68.9407 45.6932 69.8983C45.9159 69.0743 45.9381 68.5176 45.8936 68.0722C45.7154 67.4486 45.4036 66.8473 44.9805 66.3128L44.936 66.246C44.8914 66.1792 44.8246 66.1124 44.7801 66.0456C44.7801 66.0456 44.7578 66.0011 44.7356 65.9788C42.5309 63.2619 42.3304 61.0572 42.1523 57.3827C42.1523 55.8015 41.9518 54.2649 41.551 52.7729C40.7938 49.9001 39.3017 47.2722 37.2084 45.1343C36.9412 44.8448 36.9412 44.3994 37.2307 44.1322C37.5202 43.865 37.9656 43.865 38.2328 44.1545C40.482 46.4705 42.0855 49.3211 42.9094 52.4165C43.3548 54.02 43.5553 55.6902 43.5553 57.3604C43.5998 58.4071 43.6666 59.3202 43.7557 60.1441C45.3814 60.3223 47.0516 60.1664 48.6105 59.6542C48.9668 59.5429 49.3899 59.721 49.5235 60.0773C51.0379 64.2863 54.8683 67.315 59.2999 67.7826C59.2999 67.7826 59.2999 67.7826 59.3222 67.7826C63.1526 68.0053 66.159 71.2122 66.159 75.0871C66.159 75.1539 66.159 75.2207 66.159 75.2876V75.3098C66.159 75.3544 66.159 75.3766 66.159 75.4212C66.159 75.4434 66.159 75.4657 66.159 75.488C66.1145 76.8019 66.0254 78.0935 65.9141 79.4297C65.7804 81.0109 65.6023 82.2134 65.4687 83.0374C67.5843 82.0798 72.35 79.4297 76.7371 73.2165C76.804 73.1274 76.8485 73.0606 76.893 72.9938C78.5633 70.6554 79.4318 67.9163 79.4318 65.0435C78.2069 65.5557 76.8485 65.8452 75.4455 65.8452C75.2228 65.8452 74.9778 65.8452 74.7551 65.8229C74.3543 65.8006 74.0648 65.4666 74.087 65.0657C74.1539 64.7094 74.4879 64.4199 74.8888 64.4422ZM31.6187 60.1887C31.5296 60.4782 31.2401 60.6786 30.9506 60.6786C30.8838 60.6786 30.7947 60.6563 30.7279 60.6341L28.3673 59.8546C27.4097 59.5429 26.6748 58.7634 26.3853 57.8058L25.1605 53.7305C25.0491 53.3519 25.2718 52.951 25.6281 52.8397C26.0067 52.7283 26.4076 52.951 26.5189 53.3073L26.9866 54.8662C27.4097 54.7549 27.8328 54.7549 28.256 54.8439C29.8594 55.1557 30.8838 56.7369 30.572 58.3403C30.5275 58.5853 30.4384 58.808 30.3493 59.0084L31.1733 59.2756C31.5519 59.4315 31.7523 59.8324 31.6187 60.1887Z" fill="#E7F4F6"/>
<path d="M84.3086 42.7515C84.3086 38.5425 81.8144 34.7121 78.0508 32.9974C77.2937 35.4025 75.8907 37.5627 73.9309 39.2329C73.9087 39.2552 73.8864 39.2552 73.8641 39.2774C76.3361 39.6783 82.7943 41.4153 82.4157 48.7421C83.6628 46.9159 84.3086 44.8671 84.3086 42.7515Z" fill="#C9DEE2"/>
<path d="M64.5551 32.4184C62.0164 25.9824 71.6369 18.9897 76.9593 26.1829C75.7345 20.7936 70.9465 16.7628 65.2455 16.7628C64.8892 16.7628 64.5328 16.785 64.1988 16.8073C64.4883 17.854 64.6665 18.9452 64.6887 20.081C64.6887 20.4818 64.3769 20.7936 63.9984 20.8159C63.9984 20.8159 63.9984 20.8159 63.9761 20.8159C63.5975 20.8159 63.2635 20.5041 63.2635 20.1255C63.1076 13.6005 57.7183 8.27802 51.2378 8.27802C50.592 8.27802 49.9684 8.34482 49.3449 8.4339C55.4245 13.1774 59.3663 20.6154 59.3663 28.9443C59.3663 29.8796 59.3217 30.815 59.2104 31.7726C59.1436 32.307 59.0768 32.8415 58.9877 33.376C58.8095 34.2222 58.52 35.0239 58.1637 35.7811C58.1637 35.8034 58.1637 35.8034 58.1637 35.8257C58.0301 36.182 57.8519 36.4937 57.6515 36.761C55.6472 40.1905 51.9504 42.4398 47.8528 42.4398C46.9175 42.4398 46.0044 42.3284 45.1136 42.1057C42.4413 41.4376 40.1252 39.8342 38.5218 37.5404C38.2546 37.1396 37.9651 36.7387 37.8537 36.3601C37.4974 36.6719 37.0965 36.9614 36.6734 37.1841C34.9809 38.0749 33.5111 39.2552 32.2863 40.725C33.8674 41.5267 35.8494 42.8406 37.2524 44.1991C37.2747 44.1768 37.2747 44.1545 37.297 44.1545C37.5865 43.8873 38.0319 43.8873 38.2991 44.1768C40.5484 46.4929 42.1518 49.3434 42.9757 52.4389C43.4211 54.0423 43.6216 55.7125 43.6216 57.3827C43.6661 58.4294 43.7329 59.3425 43.822 60.1665C45.4477 60.3446 47.1179 60.1887 48.6768 59.6765C49.0331 59.5652 49.4562 59.7433 49.5899 60.0996C50.7256 63.2174 53.1085 65.6671 56.0481 66.9365C51.2824 61.5695 51.1487 58.1176 51.1487 56.8705C46.0935 55.9798 45.2695 43.9764 55.6249 45.6911C55.2018 37.7186 63.1298 32.9083 64.5551 32.4184Z" fill="#C9DEE2"/>
<path d="M76.7815 73.2388C76.8483 73.1497 76.8929 73.0829 76.9374 73.0161C78.6077 70.6778 79.4762 67.9386 79.4762 65.0658C78.2513 65.578 76.8929 65.8675 75.4899 65.8675C75.2895 65.8675 75.089 65.8675 74.8886 65.8452C76.2025 70.8559 72.8843 76.8465 65.5131 83.0375C67.6287 82.1021 72.3944 79.4298 76.7815 73.2388Z" fill="#C9DEE2"/>
<path d="M75.8459 64.4422C80.5894 64.2417 84.3752 60.3 84.3752 55.4897C84.3752 53.4187 83.6626 51.3921 82.3487 49.7887C83.2172 53.3073 82.3932 61.1017 75.8459 64.4422Z" fill="#C9DEE2"/>
<path d="M39.4797 80.2091C37.4309 80.2091 35.538 79.2961 34.2463 77.6926C34.2018 77.6258 34.1573 77.559 34.0904 77.5145L33.7341 77.0691C33.1106 76.2674 32.3979 75.3766 31.663 74.419C26.5187 67.7158 19.4592 57.8058 14.7158 48.5416C13.1346 48.1853 11.6871 47.3835 10.5291 46.2255C9.03701 44.7557 8.12396 42.796 7.92353 40.7026C7.90126 40.569 7.90126 40.4354 7.90126 40.3018C7.5004 35.5806 7.52267 31.1935 7.96807 26.9177C7.96807 26.8731 7.96807 26.8063 7.99034 26.7395V26.6282C9.10382 13.3777 20.3723 3 33.6005 3C47.7863 3 59.3443 14.6248 59.3443 28.9442C59.3443 29.8796 59.2998 30.8149 59.1884 31.7725C59.1216 32.3069 59.0548 32.8414 58.9657 33.3759C57.83 38.6315 53.1533 42.4397 47.8309 42.4397C46.8955 42.4397 45.9825 42.3283 45.0917 42.1056C42.4193 41.4375 40.1033 39.8341 38.4998 37.5403C37.9876 36.7832 37.4309 36.026 38.0545 35.4915C38.6557 34.9793 39.3461 35.6251 39.9697 36.2042C41.1499 37.3176 42.7088 37.9189 44.3122 37.9189C46.851 37.9189 49.167 36.4046 50.1692 34.044C50.1692 34.0217 50.1692 34.0217 50.1915 33.9994C50.481 33.3536 50.6368 32.6855 50.7037 31.9729C50.815 31.2157 50.8595 30.5476 50.8595 29.8795C50.8595 26.4055 49.5234 23.1541 47.0737 20.7267C44.6686 18.2993 41.4617 16.9854 38.0545 16.9854C30.995 16.9854 25.2494 22.7755 25.2494 29.9018C25.2494 31.5275 25.5389 33.1309 26.1402 34.6453C26.5633 35.7588 27.1646 36.8054 27.8772 37.7408C28.1222 38.0525 28.0554 38.4979 27.7436 38.7429C27.4318 38.9879 26.9864 38.9211 26.7414 38.6093C25.9397 37.5626 25.2939 36.4046 24.804 35.1797C24.1582 33.5095 23.8241 31.7279 23.8241 29.9241C23.8241 22.0183 30.2155 15.5824 38.0545 15.5824C41.8403 15.5824 45.4035 17.0745 48.0758 19.7468C50.7705 22.4415 52.2625 26.0492 52.2625 29.9018C52.2625 30.6367 52.218 31.3716 52.0844 32.1288C52.0176 32.9973 51.8171 33.799 51.4831 34.5562C51.4831 34.5785 51.4608 34.623 51.4386 34.6453C50.1915 37.4958 47.3855 39.3442 44.2677 39.3442C43.3769 39.3442 42.5084 39.1883 41.6844 38.8988C42.7756 39.7673 44.045 40.3909 45.4035 40.7249C46.1829 40.9253 47.0069 41.0144 47.8086 41.0144C52.463 41.0144 56.5606 37.6962 57.5405 33.1087C57.6295 32.641 57.6964 32.1288 57.7409 31.6166C57.83 30.7258 57.8745 29.8127 57.8745 28.9442C57.8745 15.4265 46.9623 4.42526 33.556 4.42526C21.1072 4.42526 10.4623 14.2462 9.39333 26.7618L9.37106 27.0513C8.92566 31.2603 8.9034 35.5583 9.30425 40.2127C9.30425 40.3463 9.32652 40.4577 9.32652 40.569C9.50468 42.3506 10.2841 43.9986 11.5312 45.2234C12.6002 46.2701 13.9141 46.9604 15.3393 47.2277C15.562 47.2722 15.7402 47.4058 15.8515 47.6062C20.5505 56.8482 27.6768 66.825 32.8211 73.5505C33.556 74.5081 34.2686 75.3989 34.8922 76.1783L35.2262 76.5791C35.2707 76.6237 35.3376 76.7128 35.4044 76.8018C36.4065 78.049 37.8986 78.7616 39.5243 78.7616C41.7958 78.7616 43.8223 77.314 44.5572 75.1539C44.5572 75.1316 44.5795 75.0648 44.624 74.998C45.6484 72.3702 45.8489 71.5685 45.8711 71.4126C45.8711 71.368 45.8934 71.3235 45.8934 71.279C46.0938 70.7222 46.1829 70.1432 46.1829 69.5642C46.1829 68.3839 45.782 67.2481 45.0471 66.3128L45.0026 66.246C44.9581 66.1792 44.8913 66.1124 44.8467 66.0456C44.8467 66.0456 44.8245 66.001 44.8022 65.9788C42.5975 63.2619 42.3971 61.0572 42.2189 57.3827C42.2189 55.8015 42.0185 54.2649 41.6176 52.7728C40.8604 49.9 39.3684 47.2722 37.275 45.1343C37.0078 44.8448 37.0078 44.3994 37.2973 44.1322C37.5868 43.8649 38.0322 43.8649 38.2994 44.1544C40.5487 46.4705 42.1521 49.321 42.9761 52.4165C43.4215 54.0199 43.6219 55.6902 43.6219 57.3604C43.7778 60.8122 43.9559 62.7274 45.8934 65.1325L45.9825 65.2439C46.027 65.2884 46.027 65.3107 46.0493 65.3329L46.1384 65.4443C47.0737 66.6246 47.5859 68.0721 47.5859 69.5865C47.5859 70.3214 47.4745 71.0563 47.2296 71.7243C47.185 71.9693 46.9401 72.8824 45.8934 75.577C44.9135 78.3607 42.3525 80.2091 39.4797 80.2091Z" fill="#303030"/>
<path d="M31.5963 41.1258C31.4404 41.1258 31.2845 41.0812 31.1509 40.9699C30.8391 40.7249 30.7945 40.2795 31.0618 39.9678C32.4425 38.2975 34.1127 36.9391 36.0279 35.9369C37.4755 35.1798 38.4331 33.6209 38.4331 31.9952C38.4331 28.343 37.1191 24.8466 34.7363 22.152C34.714 22.1297 34.6917 22.1074 34.6472 22.1297C34.6027 22.152 34.5581 22.1965 34.5804 22.2411C34.6027 22.5974 34.6027 22.976 34.6027 23.3546C34.6027 29.1669 32.153 34.7344 27.8995 38.6538C27.61 38.9211 27.1646 38.8988 26.8973 38.6093C26.6301 38.3198 26.6524 37.8744 26.9419 37.6072C30.9059 33.9772 33.1774 28.7884 33.1774 23.3768C33.1774 23.0205 33.1774 22.6865 33.1551 22.3524C33.1106 21.6843 33.4892 21.083 34.1127 20.8381C34.714 20.5931 35.3821 20.749 35.8052 21.2389C38.4108 24.2008 39.8583 28.0312 39.8583 31.9952C39.8583 34.1776 38.6112 36.2264 36.696 37.2286C34.959 38.1416 33.4446 39.3665 32.1753 40.9031C31.9971 41.0367 31.7967 41.1258 31.5963 41.1258Z" fill="#303030"/>
<path d="M17.7222 64.843C16.2746 64.843 14.8717 64.3308 13.7582 63.3955C13.5132 63.1951 13.4241 62.861 13.5577 62.5715C13.6914 62.282 13.9809 62.1039 14.2926 62.1484C15.8738 62.3266 17.2991 61.0572 17.2991 59.476C17.2991 59.0306 17.1877 58.6075 16.9873 58.2289C15.8961 58.9861 14.6267 59.387 13.2905 59.387C9.68281 59.387 6.76548 56.4474 6.76548 52.8174C6.76548 51.8821 6.9659 50.969 7.32222 50.145C4.13765 48.9647 1.99976 45.9806 1.99976 42.5065C1.99976 38.7652 4.51623 35.5361 8.1462 34.6676C8.52478 34.5785 8.90337 34.8012 9.01472 35.202C9.1038 35.5806 8.85883 35.9592 8.48024 36.0706C5.51837 36.7832 3.42502 39.4333 3.42502 42.5065C3.42502 45.602 5.51837 48.2521 8.50251 48.9647C8.72521 49.0093 8.90337 49.1652 8.99245 49.3879C9.08153 49.6105 9.05926 49.8332 8.94791 50.0337C8.4357 50.8577 8.16847 51.793 8.16847 52.7728C8.16847 55.6234 10.4622 57.9172 13.2682 57.9172C14.5153 57.9172 15.7179 57.4718 16.631 56.6255C16.7646 56.4919 16.965 56.4474 17.1432 56.4474C17.3213 56.4696 17.4995 56.5364 17.6331 56.6923C18.3012 57.4495 18.6798 58.4294 18.6798 59.4315C18.6798 61.0795 17.6999 62.527 16.2969 63.1728C16.7423 63.3064 17.21 63.3732 17.6999 63.3732C19.6151 63.3732 21.3521 62.2152 22.1093 60.4559C22.2652 60.0996 22.6883 59.9214 23.0446 60.0773C23.401 60.2332 23.5791 60.6563 23.4232 61.0126C22.4434 63.351 20.2164 64.843 17.7222 64.843Z" fill="#303030"/>
<path d="M63.9538 20.8158C63.5753 20.8158 63.2412 20.504 63.2412 20.1254C63.0853 13.6004 57.6961 8.27791 51.2156 8.27791C50.0798 8.27791 48.9663 8.4338 47.8751 8.74558C47.4965 8.85693 47.0957 8.63423 46.9843 8.25565C46.873 7.87706 47.0957 7.4762 47.4743 7.36486C48.6768 7.00854 49.9462 6.83038 51.1933 6.83038C58.4532 6.83038 64.4883 12.7764 64.6442 20.0809C64.6887 20.4817 64.377 20.7935 63.9538 20.8158C63.9761 20.8158 63.9761 20.8158 63.9538 20.8158Z" fill="#303030"/>
<path d="M73.4855 39.3888C73.2851 39.3888 73.0846 39.2997 72.951 39.1438C72.7061 38.8543 72.7283 38.3866 73.0178 38.1417C75.7125 35.8256 77.2713 32.4629 77.2713 28.8997C77.2713 22.1965 71.8821 16.7627 65.2457 16.7627C64.6221 16.7627 63.9986 16.8073 63.375 16.9186C62.9965 16.9854 62.6179 16.7182 62.5511 16.3173C62.4843 15.9387 62.7515 15.5602 63.1523 15.4934C63.8427 15.382 64.5331 15.3375 65.2234 15.3375C72.6392 15.3375 78.6743 21.4171 78.6743 28.8997C78.6743 32.886 76.9373 36.6496 73.9309 39.2329C73.8195 39.3442 73.6414 39.3888 73.4855 39.3888Z" fill="#303030"/>
<path d="M75.49 65.8897C75.2673 65.8897 75.0224 65.8897 74.7997 65.8674C74.3988 65.8451 74.1093 65.5111 74.1316 65.1103C74.1538 64.7094 74.4879 64.4199 74.8887 64.4422C75.0892 64.4644 75.2896 64.4644 75.49 64.4644C80.3894 64.4644 84.3756 60.4336 84.3756 55.4897C84.3756 53.4186 83.663 51.3921 82.3491 49.7887C82.1487 49.5437 82.1264 49.1874 82.3268 48.9202C83.6185 47.0718 84.3088 44.9562 84.3088 42.7515C84.3088 38.2975 81.5251 34.2667 77.383 32.7078C77.0044 32.5742 76.8262 32.1511 76.9598 31.7948C77.0934 31.4162 77.5166 31.238 77.8729 31.3716C82.5718 33.1309 85.7341 37.6962 85.7341 42.7515C85.7341 45.0675 85.066 47.3167 83.7744 49.2987C85.0883 51.0803 85.8009 53.2628 85.8009 55.4897C85.8232 61.2131 81.1911 65.8897 75.49 65.8897Z" fill="#303030"/>
<path d="M64.5777 84.8858C64.3995 84.8858 64.2214 84.819 64.0878 84.6854C63.9096 84.5072 63.8205 84.2622 63.8873 84.0173C63.8873 83.995 64.2659 82.4138 64.5331 79.3184C64.6445 78.0267 64.7113 76.7573 64.7558 75.4434C64.7558 75.3321 64.7558 75.2207 64.7558 75.1316C64.7558 72.0362 62.3953 69.4751 59.3443 69.2524C59.322 69.2524 59.2775 69.2524 59.2552 69.2524C54.4895 68.7625 50.3251 65.6447 48.4767 61.2353C46.7396 61.703 44.8913 61.8144 43.0874 61.5471C42.7088 61.4803 42.4193 61.124 42.4861 60.7454C42.5529 60.3445 42.9093 60.0996 43.2878 60.1441C45.0694 60.4114 46.9178 60.2555 48.6326 59.6987C48.9889 59.5874 49.412 59.7655 49.5456 60.1219C51.06 64.3308 54.8904 67.3595 59.322 67.8272C59.322 67.8272 59.322 67.8272 59.3443 67.8272C63.1747 68.0499 66.1811 71.2567 66.1811 75.1316C66.1811 75.2653 66.1811 75.3989 66.1811 75.5102C66.1366 76.8241 66.0475 78.1158 65.9361 79.452C65.8025 81.0331 65.6244 82.2357 65.4907 83.0597C67.6064 82.1021 72.3721 79.452 76.7592 73.2387C76.826 73.1496 76.8706 73.0828 76.9151 73.016C78.5853 70.6777 79.4539 67.9385 79.4539 65.0435C79.4539 64.6871 79.4316 64.3531 79.4093 64.0191C79.3871 63.6182 79.6766 63.2842 80.0774 63.2619C80.4783 63.2173 80.8123 63.5291 80.8346 63.93C80.8569 64.3086 80.8791 64.6871 80.8791 65.0657C80.8791 68.2503 79.8993 71.279 78.0731 73.84C78.0286 73.9291 77.9618 73.9959 77.895 74.085C71.7708 82.7479 65.0231 84.7744 64.7336 84.8635C64.7113 84.8858 64.6445 84.8858 64.5777 84.8858Z" fill="#303030"/>
<path d="M65.4686 76.1783C65.424 76.1783 65.4018 76.1783 65.3572 76.1783C64.9786 76.1115 64.7114 75.7552 64.7782 75.3544C64.7782 74.9535 65.09 74.6417 65.4908 74.6417C65.8917 74.6417 66.2035 74.9535 66.2035 75.3544C66.2035 75.4434 66.2035 75.5102 66.1812 75.5993C66.1144 75.9334 65.8249 76.1783 65.4686 76.1783Z" fill="#303030"/>
<path d="M44.312 77.2919C44.2898 77.2919 44.2452 77.2919 44.2229 77.2919C43.5326 77.2028 41.7955 76.7351 40.5484 74.33C40.3703 73.9737 40.5039 73.5505 40.8379 73.3724C41.1943 73.1942 41.6174 73.3278 41.7955 73.6619C42.7531 75.4657 43.9334 75.7998 44.4011 75.8666C44.802 75.9111 45.0692 76.2674 45.0247 76.6683C44.9578 77.0246 44.6683 77.2919 44.312 77.2919Z" fill="#303030"/>
<path d="M46.5169 72.2366C46.361 72.2366 46.2051 72.1921 46.0715 72.0807C45.9379 71.9694 42.5306 69.297 41.7957 66.9809C41.6844 66.6023 41.8848 66.2015 42.2634 66.0901C42.642 65.9788 43.0428 66.1792 43.1542 66.5578C43.6441 68.139 46.0493 70.2769 46.94 70.9672C47.2518 71.2122 47.2964 71.6576 47.0737 71.9694C46.94 72.1475 46.7396 72.2366 46.5169 72.2366Z" fill="#303030"/>
<path d="M30.9505 60.6787C30.8837 60.6787 30.7946 60.6564 30.7278 60.6342L28.3672 59.8547C27.4096 59.5429 26.6747 58.7635 26.3852 57.8059L25.1604 53.7305C25.049 53.352 25.2717 52.9511 25.628 52.8398C26.0066 52.7284 26.4075 52.9511 26.5188 53.3074L27.7436 57.3828C27.8995 57.9172 28.3004 58.3181 28.8126 58.4963L31.1732 59.2757C31.5518 59.4093 31.7522 59.8102 31.6186 60.1665C31.5295 60.5005 31.24 60.6787 30.9505 60.6787Z" fill="#303030"/>
<path d="M29.3024 60.0327C29.1242 60.0327 28.946 59.9659 28.8124 59.8323C28.5229 59.565 28.5229 59.1197 28.7902 58.8301C28.9906 58.6297 29.1242 58.3625 29.191 58.073C29.3469 57.2267 28.8124 56.425 27.9884 56.2691C27.6544 56.2023 27.3426 56.2469 27.0308 56.3805C26.6745 56.5586 26.2514 56.4027 26.0732 56.0464C25.8951 55.6901 26.051 55.267 26.4073 55.0888C26.9863 54.8216 27.6321 54.7325 28.2557 54.8661C29.8591 55.1779 30.8835 56.7591 30.5717 58.3625C30.4604 58.9192 30.1931 59.4314 29.8146 59.8323C29.6809 59.9659 29.4805 60.0327 29.3024 60.0327Z" fill="#303030"/>
<path d="M8.56951 39.5891C8.52497 39.5891 8.48044 39.5891 8.4359 39.5669C8.05731 39.5001 7.79007 39.1215 7.87915 38.7429C8.19093 37.0949 9.12626 35.7588 10.5515 34.8234C12.6894 33.4204 15.5622 33.2423 17.2992 33.6431C17.6778 33.7322 17.9228 34.1108 17.8337 34.4894C17.7446 34.868 17.3661 35.1129 16.9875 35.0239C15.4731 34.6675 13.068 34.9125 11.331 36.026C10.2175 36.7386 9.52711 37.763 9.28215 39.0324C9.19307 39.3442 8.90356 39.5891 8.56951 39.5891Z" fill="#303030"/>
<path d="M8.65869 27.6972C8.56961 27.6972 8.5028 27.6749 8.41372 27.6527C8.03514 27.519 7.85698 27.1182 7.9906 26.7396C9.25997 23.1987 13.4244 21.9293 16.8762 22.5084C17.2548 22.5752 17.522 22.9315 17.4552 23.3323C17.3884 23.7109 17.0321 23.9782 16.6313 23.9113C14.3152 23.5328 10.4403 24.0672 9.32678 27.2073C9.21544 27.519 8.9482 27.6972 8.65869 27.6972Z" fill="#303030"/>
<path d="M12.8895 15.4934C12.7558 15.4934 12.5999 15.4489 12.4886 15.3598C12.1768 15.1371 12.0877 14.6917 12.3104 14.3576C14.671 11.0395 19.1695 11.8634 21.6192 13.2219C21.9532 13.4223 22.0869 13.8454 21.8864 14.2018C21.686 14.5358 21.2629 14.6694 20.9066 14.469C19.5258 13.6895 15.495 12.3088 13.4685 15.1816C13.3349 15.382 13.1122 15.4934 12.8895 15.4934Z" fill="#303030"/>
<path d="M30.4827 8.67878C30.26 8.67878 30.0373 8.56743 29.8814 8.36701C29.7924 8.25566 27.8549 5.47194 23.6237 6.56316C23.2451 6.65224 22.8442 6.42954 22.7551 6.05096C22.6661 5.67237 22.8888 5.27152 23.2673 5.18244C28.5007 3.84625 30.9504 7.40941 31.0617 7.5653C31.2844 7.89934 31.1954 8.34474 30.8613 8.54516C30.75 8.63424 30.6163 8.67878 30.4827 8.67878Z" fill="#303030"/>
<path d="M40.5486 9.34693C40.5263 9.34693 40.504 9.34693 40.504 9.34693C40.1032 9.32466 39.8137 8.96835 39.8359 8.58976C39.8582 8.21118 39.9695 4.89299 36.206 4.58121C35.8051 4.55894 35.5156 4.20263 35.5601 3.80177C35.5824 3.40092 35.9387 3.11141 36.3396 3.15595C40.5486 3.51227 41.3948 6.9418 41.2835 8.70111C41.2166 9.05743 40.9049 9.34693 40.5486 9.34693Z" fill="#303030"/>
<path d="M48.9224 14.0013C48.811 14.0013 48.7219 13.979 48.6106 13.9344C48.2543 13.7563 48.0984 13.3332 48.2765 12.9768C48.3211 12.8655 49.4346 10.4158 47.5416 8.79014C47.2521 8.54517 47.2076 8.07751 47.4526 7.788C47.6975 7.4985 48.1652 7.45396 48.4547 7.69893C50.6371 9.54731 50.1249 12.3533 49.5459 13.5781C49.4346 13.8454 49.1896 14.0013 48.9224 14.0013Z" fill="#303030"/>
<path d="M54.6453 21.9516C54.4672 21.9516 54.2667 21.8848 54.1331 21.7289C53.8659 21.4394 53.8659 20.994 54.1554 20.7267C54.2222 20.6599 55.7811 19.0565 54.2667 16.1169C54.0886 15.7606 54.2222 15.3375 54.5785 15.1593C54.9348 14.9812 55.358 15.1148 55.5361 15.4711C57.5404 19.4128 55.2243 21.6843 55.1353 21.7734C55.0016 21.8848 54.8235 21.9516 54.6453 21.9516Z" fill="#303030"/>
<path d="M56.2487 30.3027C55.9147 30.3027 55.6252 30.08 55.5584 29.746C55.4693 29.3674 55.7143 28.9888 56.1151 28.8997C56.3155 28.8552 58.0748 28.343 57.6294 25.3366C57.5626 24.958 57.8299 24.5794 58.2307 24.5349C58.6093 24.4903 58.9879 24.7353 59.0324 25.1361C59.5669 28.6548 57.5404 30.0578 56.4046 30.3027C56.3601 30.3027 56.2933 30.3027 56.2487 30.3027Z" fill="#303030"/>
<path d="M54.2445 38.4757C53.7545 38.4757 53.3091 38.4089 52.9751 38.2976C52.5965 38.1862 52.3738 37.7854 52.4851 37.4068C52.5965 37.0282 52.9973 36.8055 53.3759 36.9169C53.6432 36.9837 55.9369 37.5627 56.8277 35.2912C56.9614 34.9349 57.3845 34.7344 57.7408 34.8903C58.0971 35.0239 58.2975 35.4471 58.1417 35.8034C57.3177 37.919 55.6029 38.4757 54.2445 38.4757Z" fill="#303030"/>
<path d="M15.1834 48.6307C14.8048 48.6307 14.493 48.3189 14.4707 47.9403C14.3371 44.1545 18.7688 39.1883 27.2313 37.429C27.6099 37.3622 27.9885 37.6072 28.0775 37.9857C28.1666 38.3643 27.8994 38.7429 27.5208 38.832C19.3478 40.5245 15.7847 45.1566 15.896 47.918C15.9183 48.3189 15.6065 48.6307 15.2056 48.6529C15.2056 48.6307 15.2056 48.6307 15.1834 48.6307Z" fill="#303030"/>
</svg>
