<svg width="88" height="88" viewBox="0 0 88 88" fill="none" xmlns="http://www.w3.org/2000/svg">
<g clip-path="url(#clip0_533_1930)">
<path d="M7.44221 36.1665C7.42052 36.2099 7.42052 36.2533 7.39884 36.2966C7.07355 37.4243 7.39884 38.8339 8.3747 40.0049L15.3358 48.3539C17.4177 46.8359 20.1934 45.4914 23.468 44.4288L12.7986 35.5593C11.1938 34.2365 9.1337 34.0847 8.00604 35.2123C7.7675 35.4726 7.57232 35.8195 7.44221 36.1665Z" fill="white"/>
<path d="M13.7094 34.4968L14.9021 35.4943L16.8539 31.1572C16.7888 31.1138 16.7021 31.0704 16.637 31.027C15.1624 30.1596 14.0781 28.9669 13.4058 27.4706C13.2323 27.6224 13.0805 27.8176 12.9504 28.0127L9.35059 33.1089C10.7602 32.9137 12.3649 33.3908 13.7094 34.4968Z" fill="white"/>
<path d="M26.5689 27.5139C26.5255 27.4923 26.4604 27.4489 26.4388 27.4272C24.5521 25.7791 23.7931 23.6756 24.2702 21.3335C25.246 16.5193 31.1229 11.5749 35.5251 9.57983C33.3999 8.75577 30.3856 8.90757 26.9809 10.0352C20.9089 12.0737 15.7477 16.4542 14.3815 20.7046C14.3815 20.7263 14.3815 20.748 14.3598 20.7697C13.4056 24.8683 14.4899 28.1862 17.3307 29.8343C20.5186 31.6776 25.0726 31.0921 28.5857 28.4681C27.6965 28.1862 27.1327 27.8609 26.5689 27.5139Z" fill="white"/>
<path d="M68.4008 76.5671C65.6901 76.3936 63.1095 75.4394 61.0711 73.8998C60.9626 73.813 60.8542 73.7263 60.7458 73.6395C58.9025 74.5937 56.9508 75.4394 54.8906 76.1334C56.2785 76.9791 57.7531 77.608 59.2711 78.02C62.3288 78.8658 65.6251 78.8224 68.5526 77.8899C68.7261 77.8466 68.8562 77.7164 68.943 77.5646C69.0297 77.4128 69.0514 77.2177 68.9864 77.0442C68.8996 76.7623 68.6828 76.5888 68.4008 76.5671Z" fill="white"/>
<path d="M75.4921 55.2716C75.4921 48.5707 61.0494 42.9108 43.9394 42.9108C26.8293 42.9108 12.3866 48.5707 12.3866 55.2716C12.3866 62.2761 27.0028 76.5454 43.9394 76.5454C60.8976 76.5454 75.4921 62.2761 75.4921 55.2716Z" fill="white"/>
<path d="M4.79662 52.3875C5.12191 52.8212 5.42551 53.2332 5.77248 53.5802L6.57485 54.4259L7.83263 55.5319L9.19883 56.5295C9.394 56.6596 9.63254 56.7897 9.8494 56.9198L10.2614 57.1583C10.5433 57.3318 10.8253 57.4836 11.1072 57.6137C11.2156 57.6788 11.3457 57.7222 11.4541 57.7655C11.1722 56.8764 11.0204 56.0307 11.0204 55.2717C11.0204 54.0139 11.4108 52.8212 12.1264 51.6718C10.6518 51.1297 9.19883 50.2406 7.876 49.0696C6.24957 47.5299 4.99179 45.5998 4.27616 43.453C3.90751 42.1952 3.69065 41.0675 3.6039 40.0049C3.51716 38.8122 3.6039 37.5978 3.82076 36.4051C3.88582 36.0798 3.71233 35.7762 3.43042 35.6461C3.10513 35.516 2.71479 35.6678 2.56299 35.9931C2.04253 37.2291 1.69556 38.5303 1.50039 39.8531C1.3269 41.1109 1.30522 42.4554 1.43533 43.9734C1.73893 46.7709 2.77985 49.5033 4.42796 51.867C4.53639 52.0405 4.66651 52.214 4.79662 52.3875Z" fill="white"/>
<path d="M26.851 73.8997C24.8126 75.4394 22.232 76.3936 19.5646 76.5671C19.2393 76.5888 19.0225 76.7623 18.9357 77.0442C18.8273 77.3911 19.0225 77.7815 19.3694 77.8899C22.297 78.8224 25.5933 78.8658 28.651 78.02C30.169 77.608 31.6219 76.9791 33.0098 76.1334C30.9713 75.4611 28.9979 74.6154 27.1546 73.6612C27.0679 73.7263 26.9595 73.813 26.851 73.8997Z" fill="white"/>
<path d="M21.039 69.736C18.415 67.7193 16.2248 65.5073 14.555 63.3387C12.8635 63.252 11.1503 62.84 9.6106 62.081C7.3336 60.9967 5.33851 59.1751 3.95062 56.9848C3.77713 56.7029 3.47353 56.5945 3.19162 56.6595C2.84464 56.7463 2.62779 57.1149 2.73622 57.4619C3.53859 60.3461 5.14333 62.9918 7.39865 65.0953C9.71903 67.2639 12.755 68.8036 15.9645 69.4324C17.591 69.7794 19.3258 69.8662 21.039 69.736Z" fill="white"/>
<path d="M35.6552 19.4685C32.1855 21.0733 28.564 21.7672 25.6798 21.3769C25.6581 21.4636 25.6364 21.5287 25.6147 21.6154C25.2461 23.4804 25.7882 25.0201 27.2845 26.3429C28.0002 26.7766 28.5857 27.1236 29.9519 27.3621C32.2939 25.4538 34.983 22.678 35.6552 19.4685Z" fill="white"/>
<path d="M57.9701 27.3621C59.3363 27.1019 59.9218 26.7766 60.6374 26.3429C62.1337 25.0201 62.6759 23.4804 62.3072 21.6154C62.2855 21.5287 62.2639 21.4636 62.2422 21.3769C59.358 21.7455 55.7581 21.0733 52.2667 19.4685C52.9173 22.678 55.6063 25.4538 57.9701 27.3621Z" fill="white"/>
<path d="M70.5911 29.8343C73.432 28.1862 74.5162 24.8683 73.5621 20.7697C73.5621 20.748 73.5621 20.7263 73.5621 20.7046C72.1742 16.4542 67.0347 12.0737 60.9626 10.0352C57.558 8.88589 54.5437 8.73409 52.4185 9.57984C56.8424 11.5966 62.7192 16.541 63.6734 21.3335C64.1504 23.6756 63.3914 25.7791 61.5048 27.4272C61.4614 27.4706 61.418 27.4923 61.353 27.5356C60.7892 27.8826 60.2253 28.2079 59.3362 28.4681C62.8493 31.0921 67.4033 31.6993 70.5911 29.8343Z" fill="white"/>
<path d="M74.5161 27.4922C73.8439 28.9669 72.7596 30.1813 71.285 31.0487C71.2199 31.0921 71.1332 31.1355 71.0681 31.1788L73.0198 35.516L74.2125 34.5184C75.5354 33.4341 77.0968 32.9571 78.5063 33.1305L74.9716 28.0344C74.8414 27.8392 74.6896 27.644 74.5161 27.4922Z" fill="white"/>
<path d="M79.5255 40.0049C80.6965 38.5954 80.9568 36.8605 80.2411 35.6895C80.1327 35.516 80.0243 35.3642 79.8725 35.2341C78.7448 34.1064 76.6847 34.2582 75.0799 35.581L73.3017 37.0774C73.2366 37.1424 73.1716 37.2075 73.0848 37.2509L64.4105 44.4722C67.7068 45.5565 70.4608 46.8793 72.5427 48.3973L79.5255 40.0049Z" fill="white"/>
<path d="M33.335 37.8147C33.5301 38.7472 34.3542 39.4194 35.3084 39.4194C36.4143 39.4194 37.3251 38.5086 37.3251 37.4026C37.3251 37.1641 37.2818 36.9472 37.195 36.7087L37.1516 36.6003C37.1083 36.5135 37.0649 36.4051 37.0215 36.34L36.9782 36.2533C36.9131 36.1666 36.848 36.0798 36.783 36.0147L36.7396 35.9497C36.6746 35.8846 36.5878 35.8196 36.5011 35.7545L36.436 35.7112C36.3493 35.6461 36.2625 35.6027 36.1541 35.5594L36.089 35.5377C35.9806 35.4943 35.8722 35.4509 35.7204 35.4292C35.612 35.4075 35.5035 35.3859 35.3734 35.3859H35.3084C35.1999 35.3859 35.0915 35.3859 34.9397 35.4292L34.853 35.4509C34.7445 35.4726 34.6361 35.516 34.571 35.5377L34.506 35.5594C34.3976 35.6027 34.3108 35.6461 34.2241 35.7112L34.1156 35.7762C34.0289 35.8413 33.9638 35.9063 33.8771 35.9714C33.7904 36.0581 33.7253 36.1449 33.6169 36.275C33.5518 36.3617 33.5084 36.4702 33.4217 36.622C33.3783 36.7304 33.335 36.8388 33.335 36.9256L33.3133 36.9906C33.2916 37.1207 33.2699 37.2292 33.2699 37.3159V37.381C33.2699 37.5111 33.2916 37.6195 33.2916 37.7062L33.335 37.8147Z" fill="white"/>
<path d="M52.5052 35.2991C52.3751 35.2991 52.245 35.3208 52.1366 35.3425L52.0715 35.3642C51.9631 35.3859 51.8763 35.4292 51.7679 35.4509L51.6595 35.4943C51.5727 35.5377 51.5077 35.581 51.4426 35.6244C51.3992 35.6461 51.3559 35.6895 51.3125 35.7112C51.2474 35.7545 51.1824 35.8196 51.139 35.863C51.0956 35.9063 51.074 35.928 51.0089 35.9931C50.9655 36.0364 50.9222 36.1015 50.8788 36.1449C50.8354 36.1882 50.8137 36.2533 50.7487 36.34C50.727 36.3834 50.7053 36.4268 50.6836 36.4702C50.6402 36.5569 50.6186 36.6436 50.5969 36.7304C50.5752 36.7738 50.5752 36.8171 50.5535 36.9039C50.5318 37.034 50.5101 37.1641 50.5101 37.2942C50.5101 38.4002 51.4209 39.311 52.5269 39.311C53.6329 39.311 54.5437 38.4002 54.5437 37.2942C54.5437 36.2099 53.6329 35.3208 52.5052 35.2991Z" fill="white"/>
<path d="M84.7518 56.6596C84.4699 56.5728 84.1663 56.703 84.0145 56.9415C82.6049 59.1751 80.6098 60.9751 78.3328 62.081C76.7715 62.84 75.0366 63.2738 73.3234 63.3388C71.6536 65.5074 69.4634 67.6976 66.8611 69.7144C68.5959 69.8662 70.3308 69.7578 72.0006 69.4325C75.2101 68.8036 78.2461 67.2639 80.5665 65.0953C82.8218 62.9918 84.4265 60.3679 85.2289 57.462C85.3157 57.115 85.0988 56.768 84.7518 56.6596Z" fill="white"/>
<path d="M85.3591 36.0147C85.229 35.6894 84.8386 35.516 84.4916 35.6678C84.2097 35.7762 84.0362 36.1015 84.1013 36.3834C84.3398 37.5978 84.4049 38.8122 84.3182 40.0049C84.2531 41.0675 84.0362 42.1952 83.6676 43.4312C82.9303 45.5998 81.6942 47.5299 80.0894 49.0695C78.7449 50.2623 77.292 51.1514 75.7957 51.6935C76.5113 52.8429 76.9016 54.0356 76.9016 55.2934C76.9016 56.074 76.7498 56.9198 76.4462 57.8089C76.5763 57.7438 76.6848 57.7005 76.8149 57.6354C77.1185 57.5053 77.4004 57.3318 77.6823 57.1583L78.0943 56.9198C78.3329 56.7897 78.5497 56.6379 78.7883 56.5078L80.1545 55.5102L81.4123 54.4042L82.1496 53.6019C82.5182 53.2332 82.8218 52.8212 83.1471 52.3875C83.2772 52.214 83.4074 52.0405 83.5375 51.867C85.1422 49.5466 86.1831 46.7925 86.5084 43.9951C86.6385 42.4988 86.6168 41.1542 86.4434 39.8965C86.2265 38.552 85.8795 37.2508 85.3591 36.0147Z" fill="white"/>
<path d="M52.6351 42.694L53.2423 42.759L54.0881 39.3544C53.6977 39.5278 53.2423 39.6146 52.7869 39.6146C51.7243 39.6146 50.7918 39.1158 50.163 38.3568L49.1654 42.3904L49.9895 42.4554C50.8786 42.5205 51.7677 42.6072 52.6351 42.694Z" fill="white"/>
<path d="M35.2215 42.7157C36.0672 42.6289 36.9564 42.5422 37.8888 42.4771L38.7129 42.4121L37.7154 38.4219C37.0865 39.1592 36.1757 39.6363 35.1131 39.6363C34.636 39.6363 34.1806 39.5278 33.7686 39.3327L34.6143 42.7807L35.2215 42.7157Z" fill="white"/>
<path d="M23.468 44.4288L12.7986 35.5593C12.0179 34.9088 11.1505 34.5618 10.3264 34.475C10.0879 34.5835 9.84936 34.7353 9.65419 34.9304C9.37228 35.2124 9.19879 35.5376 9.06867 35.8846C9.04699 35.928 9.04699 35.9714 9.0253 36.0147C8.70002 37.1424 9.0253 38.552 10.0012 39.723L16.5069 47.5515C18.4586 46.3588 20.779 45.3179 23.468 44.4288Z" fill="#FBCA82"/>
<path d="M13.7095 34.4968L14.9023 35.4943L16.854 31.1572C16.7889 31.1138 16.7022 31.0704 16.6371 31.027C15.1625 30.1596 14.0782 28.9669 13.4059 27.4706C13.2325 27.6224 13.0807 27.8176 12.9505 28.0127L9.35071 33.1089C10.7603 32.9137 12.365 33.3908 13.7095 34.4968Z" fill="#ECA870"/>
<path d="M29.7353 10.8376C23.6633 12.876 18.5021 17.2565 17.1359 21.5069C17.1359 21.5286 17.1359 21.5503 17.1142 21.572C16.16 25.6706 17.2443 28.9885 20.0851 30.6366C20.2153 30.7234 20.3671 30.7884 20.5189 30.8535C23.1645 31.1354 26.1138 30.2897 28.586 28.4681C27.6752 28.2078 27.133 27.8609 26.5475 27.5139C26.5041 27.4922 26.4391 27.4488 26.4174 27.4272C24.5307 25.779 23.7717 23.6755 24.2488 21.3335C25.1813 16.7361 30.6027 12.0086 34.9399 9.86169C33.3785 9.88338 31.622 10.2087 29.7353 10.8376Z" fill="#F68362"/>
<path d="M59.2713 77.9984C62.329 78.8441 65.6252 78.8008 68.5528 77.8683C68.7263 77.8249 68.8564 77.6948 68.9431 77.543C69.0299 77.3912 69.0515 77.196 68.9865 77.0225C68.8997 76.7623 68.6612 76.5671 68.401 76.5454C65.6903 76.3719 63.1096 75.4178 61.0712 73.8781C60.9628 73.7913 60.8543 73.7046 60.7459 73.6179C58.9026 74.572 56.9509 75.4178 54.8907 76.1117C56.2786 76.9575 57.7316 77.5863 59.2713 77.9984Z" fill="#FBCA82"/>
<path d="M75.4922 55.2717C75.4922 53.1031 73.9742 51.043 71.3285 49.243C65.495 46.5323 56.7774 44.7541 47.2356 44.7541C30.1256 44.7541 15.6829 50.4141 15.6829 57.115C15.6829 61.2353 20.7573 67.8928 28.3907 72.6637C33.0315 74.984 38.3445 76.5454 43.9394 76.5454C60.8977 76.5454 75.4922 62.2762 75.4922 55.2717Z" fill="#F68362"/>
<path d="M71.3286 49.2431C70.9165 49.0479 70.5045 48.8744 70.0708 48.7009C71.6755 50.1756 72.5863 51.7586 72.5863 53.4284C72.5863 60.4329 57.9701 74.7021 41.0336 74.7021C35.6772 74.7021 30.5593 73.2709 26.0487 71.0806C26.8077 71.6228 27.5667 72.1649 28.3908 72.6637C33.0315 74.9841 38.3445 76.5454 43.9395 76.5454C60.8977 76.5454 75.4922 62.2762 75.4922 55.2717C75.4922 53.1031 73.9742 51.043 71.3286 49.2431Z" fill="#E66754"/>
<path d="M11.259 51.3249C10.0663 50.7828 8.91697 50.0238 7.85436 49.0696C6.22793 47.5299 4.97016 45.5999 4.25453 43.453C3.88587 42.1952 3.66901 41.0676 3.58227 40.005C3.5389 39.2026 3.56058 38.4002 3.62564 37.5978C3.27867 38.5737 3.04013 39.5929 2.88833 40.6122C2.71484 41.8699 2.69315 43.2144 2.82327 44.7325C3.12687 47.5299 4.16779 50.2623 5.8159 52.6261C5.92433 52.7562 6.05445 52.9297 6.18456 53.1032C6.50985 53.5369 6.81345 53.9489 7.16042 54.2959L7.96279 55.1416L9.22057 56.2476L10.5868 57.2451C10.7819 57.3752 11.0205 57.5054 11.2373 57.6355L11.3675 57.7222C11.3891 57.7222 11.4108 57.7439 11.4325 57.7439C11.1506 56.8548 10.9988 56.009 10.9988 55.25C10.9988 54.0356 11.3675 52.8429 12.0614 51.7369C11.7795 51.6285 11.5193 51.4767 11.259 51.3249Z" fill="#FBCA82"/>
<path d="M27.1546 73.6395C27.0461 73.7263 26.9594 73.813 26.851 73.8998C24.9643 75.331 22.5789 76.2418 20.1067 76.502C20.1284 76.7623 20.3019 77.0008 20.5621 77.0876C23.4897 78.02 26.4823 78.3453 29.54 77.4996C30.6243 77.196 31.6869 76.784 32.7278 76.2635C32.8145 76.2201 32.923 76.1551 33.0097 76.1117C30.9712 75.4394 28.9978 74.5937 27.1546 73.6395Z" fill="#FBCA82"/>
<path d="M14.5552 63.3388C12.8637 63.252 11.1505 62.84 9.61082 62.081C7.52899 61.0835 5.66402 59.457 4.3195 57.5053C4.27613 57.6137 4.27613 57.7439 4.29781 57.874C5.10019 60.7582 6.70493 63.4038 8.96025 65.5074C10.8469 67.2639 13.189 68.6084 15.7045 69.3891C15.7913 69.4108 15.8563 69.4325 15.9431 69.4542C17.5912 69.7794 19.326 69.8662 21.0392 69.7361C18.4152 67.7193 16.2033 65.5074 14.5552 63.3388Z" fill="#FBCA82"/>
<path d="M27.2847 26.3212C28.0003 26.7549 28.5858 27.1019 29.952 27.3405C32.3158 25.4538 35.0048 22.6563 35.6554 19.4468C32.1856 21.0516 28.5641 21.7455 25.6799 21.3552C25.6582 21.4419 25.6365 21.507 25.6149 21.5937C25.2462 23.4587 25.7883 25.0201 27.2847 26.3212Z" fill="#E66754"/>
<path d="M60.6375 26.3212C62.1339 24.9984 62.676 23.4587 62.3073 21.5937C62.2857 21.507 62.264 21.4419 62.2423 21.3552C59.3581 21.7238 55.7583 21.0516 52.2668 19.4468C52.9174 22.678 55.6065 25.4538 57.9702 27.3405C59.3364 27.1019 59.9219 26.7549 60.6375 26.3212Z" fill="#E66754"/>
<path d="M78.5065 33.1089L74.9717 28.0127C74.8416 27.8176 74.6681 27.6441 74.5163 27.4706C73.844 28.9452 72.7597 30.1596 71.2851 31.027C71.22 31.0704 71.1333 31.1138 71.0682 31.1572L73.02 35.4943L74.2127 34.4968C75.5355 33.4125 77.0969 32.9354 78.5065 33.1089Z" fill="#ECA870"/>
<path d="M72.5646 48.3756L79.5474 40.0049C80.198 39.2242 80.545 38.3568 80.6317 37.511C80.61 37.446 80.5883 37.3809 80.545 37.3375C80.4365 37.1641 80.3281 37.0123 80.1763 36.8821C79.0486 35.7545 76.9885 35.9063 75.3837 37.2291L73.6055 38.7254C73.5405 38.7905 73.4754 38.8556 73.3887 38.8989L66.0155 45.036C68.5961 45.9685 70.8297 47.1178 72.5646 48.3756Z" fill="#FBCA82"/>
<path d="M37.1518 36.5785C37.1084 36.4918 37.065 36.3834 37.0217 36.3183L36.9783 36.2316C36.9132 36.1448 36.8482 36.0581 36.7831 35.993L36.7397 35.928C36.6747 35.8629 36.5879 35.7979 36.5012 35.7328L36.4361 35.6894C36.3494 35.6244 36.2627 35.581 36.1542 35.5376L36.0892 35.5159C35.9807 35.4726 35.8723 35.4292 35.7205 35.4075C35.6121 35.3858 35.5037 35.3641 35.3735 35.3641H35.3085C35.2001 35.3641 35.0916 35.3641 34.9398 35.4075L34.8531 35.4292C34.7446 35.4509 34.6362 35.4942 34.5712 35.5159L34.5061 35.5376C34.3977 35.581 34.3109 35.6244 34.2242 35.6894L34.1158 35.7545C34.029 35.8195 33.964 35.8846 33.8772 35.9497C33.7905 36.0364 33.7254 36.1231 33.617 36.2533C33.5519 36.34 33.5086 36.4484 33.4218 36.6002C33.3784 36.7087 33.3351 36.8171 33.3351 36.9038L33.3134 36.9689C33.2917 37.099 33.27 37.2291 33.27 37.2942V37.3592C33.27 37.4893 33.2917 37.5978 33.2917 37.6845L33.3134 37.7713C33.5086 38.7037 34.3326 39.376 35.2868 39.376C36.3928 39.376 37.3036 38.4652 37.3036 37.3592C37.3036 37.1207 37.2602 36.9038 37.1735 36.6653L37.1518 36.5785Z" fill="#737373"/>
<path d="M52.5053 35.2991C52.3752 35.2991 52.2451 35.3208 52.1367 35.3425L52.0716 35.3642C51.9632 35.3859 51.8765 35.4292 51.768 35.4509L51.6596 35.4943C51.5729 35.5377 51.5078 35.581 51.4427 35.6244C51.3994 35.6461 51.356 35.6895 51.3126 35.7112C51.2476 35.7545 51.1825 35.8196 51.1391 35.863C51.0958 35.9063 51.0741 35.928 51.009 35.9931C50.9657 36.0364 50.9223 36.1015 50.8789 36.1449C50.8355 36.1882 50.8139 36.2533 50.7488 36.34C50.7271 36.3834 50.7054 36.4268 50.6837 36.4702C50.6404 36.5569 50.6187 36.6436 50.597 36.7304C50.5753 36.7738 50.5753 36.8171 50.5536 36.9039C50.5319 37.034 50.5103 37.1641 50.5103 37.2942C50.5103 38.4002 51.4211 39.311 52.527 39.311C53.633 39.311 54.5438 38.4002 54.5438 37.2942C54.5438 36.2099 53.633 35.3208 52.5053 35.2991Z" fill="#737373"/>
<path d="M66.8395 69.7144C68.5743 69.8662 70.3092 69.7578 71.979 69.4325C75.1885 68.8036 78.2245 67.2639 80.5449 65.0953C82.8002 62.9918 84.4049 60.3679 85.2073 57.462C85.2941 57.115 85.0989 56.7463 84.7519 56.6596C84.47 56.5728 84.1664 56.703 84.0146 56.9415C82.605 59.1751 80.6099 60.9751 78.3329 62.081C76.7716 62.84 75.0367 63.2738 73.3235 63.3388C71.6537 65.5074 69.4635 67.7193 66.8395 69.7144Z" fill="#FBCA82"/>
<path d="M85.3592 36.0147C85.2291 35.6894 84.8387 35.516 84.4918 35.6678C84.2098 35.7762 84.0364 36.1015 84.1014 36.3834C84.34 37.5978 84.405 38.8122 84.3183 40.0049C84.2532 41.0675 84.0364 42.1952 83.6677 43.4312C82.9304 45.5998 81.6943 47.5299 80.0896 49.0695C78.745 50.2623 77.2921 51.1514 75.7958 51.6935C76.5114 52.8429 76.9017 54.0356 76.9017 55.2934C76.9017 56.074 76.7499 56.9198 76.4463 57.8089C76.5765 57.7438 76.6849 57.7005 76.815 57.6354C77.1186 57.5053 77.4005 57.3318 77.6824 57.1583L78.0945 56.9198C78.333 56.7897 78.5499 56.6379 78.7884 56.5078L80.1546 55.5102L81.4124 54.4042L82.1497 53.6019C82.5184 53.2332 82.822 52.8212 83.1472 52.3875C83.2774 52.214 83.4075 52.0405 83.5376 51.867C85.1423 49.5466 86.1833 46.7925 86.5085 43.9951C86.6387 42.4988 86.617 41.1542 86.4435 39.8965C86.2266 38.552 85.8796 37.2508 85.3592 36.0147Z" fill="#FBCA82"/>
<path d="M52.7873 39.6363C51.7247 39.6363 50.7922 39.1375 50.1633 38.3785L49.1658 42.412L49.9898 42.4771C50.8789 42.5421 51.7897 42.6289 52.6572 42.7156L53.2644 42.7807L54.1101 39.376C53.6764 39.5278 53.2427 39.6363 52.7873 39.6363Z" fill="#E7F4F6"/>
<path d="M35.1134 39.6363C34.6364 39.6363 34.181 39.5278 33.7689 39.3327L34.6147 42.7807L35.2219 42.7157C36.0676 42.6289 36.9567 42.5422 37.8892 42.4771L38.7133 42.4121L37.7157 38.4219C37.0652 39.1375 36.1544 39.6363 35.1134 39.6363Z" fill="#E7F4F6"/>
<path d="M28.5858 28.4681C27.675 28.2079 27.1329 27.8609 26.5474 27.5139C26.504 27.4922 26.4389 27.4489 26.4172 27.4272C25.4631 26.6031 24.7908 25.6489 24.4438 24.608C24.0752 26.8634 23.056 29.5307 20.5404 30.8535C23.1861 31.1354 26.1353 30.2897 28.5858 28.4681Z" fill="#E66754"/>
<path d="M73.5622 20.7697C73.5622 20.748 73.5622 20.7263 73.5622 20.7046C72.1743 16.4542 67.0348 12.0737 60.9628 10.0352C59.4231 9.51475 57.9701 9.21115 56.6256 9.10272C64.3457 14.4157 65.2782 19.1649 63.7602 23.3719C63.5867 24.89 62.8277 26.2778 61.5049 27.4272C61.4615 27.4706 61.4182 27.4922 61.3531 27.5356C60.7893 27.8826 60.2254 28.2079 59.3363 28.4681C62.8711 31.0921 67.4251 31.6993 70.5912 29.8343C73.4321 28.1862 74.5164 24.8683 73.5622 20.7697Z" fill="#F68362"/>
<path d="M73.5404 20.7046C72.3694 17.1048 68.5093 13.4399 63.6951 11.1629C74.2777 20.3793 71.7405 25.7791 69.9189 27.3622C68.119 28.9018 64.2806 28.9018 63.0879 25.4755C62.7192 26.1911 62.1771 26.8417 61.4832 27.4489C61.4398 27.4923 61.3964 27.514 61.3313 27.5573C60.7675 27.9043 60.2037 28.2296 59.3146 28.4898C62.8494 31.1138 67.4034 31.721 70.5695 29.856C73.4103 28.2079 74.4946 24.89 73.5404 20.7914C73.5404 20.748 73.5404 20.7263 73.5404 20.7046Z" fill="#E66754"/>
<path d="M26.8511 73.8997C25.6584 74.8105 24.2705 75.5045 22.7959 75.9599C25.897 76.5888 28.9763 76.8273 32.1208 76.5671C32.3159 76.4803 32.5328 76.3719 32.728 76.2852C32.8147 76.2418 32.9231 76.1767 33.0099 76.1334C30.9714 75.4611 28.998 74.6154 27.1547 73.6612C27.068 73.7263 26.9596 73.813 26.8511 73.8997Z" fill="#ECA870"/>
<path d="M14.5553 63.3387C12.8638 63.252 11.1506 62.84 9.61094 62.081C8.63509 61.6039 7.72428 61.0184 6.87854 60.3027C8.13631 62.0159 11.0856 65.3772 15.4661 66.635C16.6371 67.9578 18.0901 69.1939 18.784 69.7577C19.543 69.7794 20.302 69.7794 21.061 69.7144C18.4154 67.7193 16.2034 65.5073 14.5553 63.3387Z" fill="#ECA870"/>
<path d="M9.80594 52.8862C9.61076 54.6862 10.0878 56.3126 10.3914 57.115L10.5866 57.2451C10.7818 57.3752 11.0203 57.5053 11.2372 57.6354L11.3673 57.7222C11.389 57.7222 11.4107 57.7438 11.4324 57.7438C11.1505 56.8547 10.9987 56.009 10.9987 55.25C10.9987 54.0356 11.3673 52.8429 12.0613 51.7369C11.801 51.6068 11.5408 51.455 11.2806 51.3032C10.0879 50.761 8.9385 50.002 7.8759 49.0479C6.24947 47.5082 4.9917 45.5781 4.27607 43.4312C4.21101 43.2361 4.16764 43.0626 4.12427 42.8891C4.29775 45.0794 5.2953 49.1563 9.80594 52.8862Z" fill="#ECA870"/>
<path d="M14.7505 37.1641L18.4371 41.3928C19.5214 42.6289 19.478 44.5155 18.3286 45.7082L16.5721 47.5515C18.4804 46.3588 20.8008 45.3179 23.5115 44.4288L14.7505 37.1641Z" fill="#ECA870"/>
<path d="M84.7519 56.6596C84.5784 56.6163 84.4049 56.6379 84.2531 56.7247C83.8411 58.0909 81.846 63.8159 77.2269 65.7243C71.9573 67.8928 70.3742 67.5892 73.3452 63.3605C71.6754 65.5291 69.4851 67.7194 66.8828 69.7361C68.6177 69.8879 70.3525 69.7795 72.0223 69.4542C75.2318 68.8253 78.2678 67.2856 80.5882 65.1171C82.8435 63.0136 84.4483 60.3896 85.2506 57.4837C85.3157 57.115 85.0988 56.7681 84.7519 56.6596Z" fill="#ECA870"/>
<path d="M86.4219 39.8748C86.2267 38.552 85.8797 37.2508 85.3593 36.0147C85.2292 35.6894 84.8388 35.516 84.4918 35.6678C84.2099 35.7762 84.0364 36.1015 84.1015 36.3834C84.9256 36.1232 86.4869 44.277 82.6702 49.8502C78.8535 55.4235 77.444 54.6862 75.7742 51.6935C76.4898 52.8429 76.8801 54.0356 76.8801 55.2934C76.8801 56.074 76.7283 56.9198 76.4247 57.8089C76.5549 57.7438 76.6633 57.7005 76.7934 57.6354C77.097 57.5053 77.3789 57.3318 77.6608 57.1583L78.0729 56.9198C78.3114 56.7897 78.5283 56.6379 78.7668 56.5078L80.133 55.5102L81.3908 54.4042L82.1281 53.6019C82.4968 53.2332 82.8004 52.8212 83.1256 52.3875C83.2558 52.214 83.3859 52.0405 83.516 51.867C85.1207 49.5466 86.1616 46.7925 86.4869 43.9951C86.617 42.4988 86.5954 41.1542 86.4219 39.8748Z" fill="#ECA870"/>
<path d="M79.5257 40.0049C79.8076 39.6796 80.0245 39.3109 80.198 38.9423C79.1137 40.135 76.6849 42.1084 74.7549 43.6481C72.9983 45.036 70.743 45.6648 68.5311 45.3612L66.0155 45.0143C68.6178 45.9901 70.8297 47.1178 72.5646 48.3973L79.5257 40.0049Z" fill="#ECA870"/>
<path d="M65.3216 76.025C63.7602 75.5696 62.3072 74.8539 61.0495 73.8998C60.941 73.813 60.8326 73.7263 60.7242 73.6395C58.8809 74.5937 56.9292 75.4394 54.869 76.1334C55.1726 76.3286 55.4979 76.4804 55.8015 76.6538C58.0351 77.3695 62.6108 76.8273 65.3216 76.025Z" fill="#ECA870"/>
<path d="M75.5137 59.6739L75.0367 58.3728C75.6439 58.1559 76.2294 57.8957 76.7932 57.6138C77.0968 57.4836 77.3787 57.3102 77.6606 57.1367L78.0727 56.8981C78.3112 56.768 78.5281 56.6162 78.7666 56.4861L80.1328 55.4886L81.3906 54.3826L82.1279 53.5802C82.4966 53.2115 82.8002 52.7995 83.1254 52.3658C83.2556 52.1923 83.3857 52.0188 83.5158 51.8453C85.1205 49.525 86.1614 46.7709 86.4867 43.9734C86.6168 42.4771 86.5952 41.1326 86.4217 39.8748C86.2265 38.552 85.8795 37.2508 85.3591 36.0147C85.229 35.6895 84.8386 35.516 84.4916 35.6678C84.2097 35.7762 84.0362 36.1015 84.1013 36.3834C84.3398 37.5978 84.4049 38.8122 84.3182 40.0049C84.2531 41.0675 84.0362 42.1952 83.6676 43.4313C82.9303 45.5998 81.6942 47.5299 80.0894 49.0696C78.4847 50.5008 76.7065 51.4984 74.9065 51.9755L74.5596 50.6309C76.1426 50.1972 77.7474 49.3081 79.1786 48.0287C80.6316 46.6624 81.7376 44.9276 82.3881 42.9976C82.7134 41.8699 82.9086 40.8507 82.9953 39.8965C83.0604 38.8339 82.9953 37.7279 82.8002 36.6653C82.6267 35.6895 83.1254 34.7353 84.0146 34.3666C85.0555 33.9329 86.2482 34.4317 86.6819 35.4726C87.2457 36.8171 87.6361 38.2267 87.8313 39.6796C88.0264 41.0458 88.0481 42.4988 87.918 44.1252C87.571 47.1829 86.4651 50.1322 84.6868 52.6911C84.535 52.8863 84.4049 53.0597 84.2965 53.2115C83.9495 53.6669 83.6025 54.1223 83.1905 54.5561L82.3664 55.3801L81.0219 56.5728L79.569 57.6354C79.2871 57.8089 79.0485 57.9607 78.7883 58.1125L78.3763 58.3511C78.051 58.5462 77.7257 58.7197 77.3787 58.8932C76.7932 59.1751 76.1643 59.4354 75.5137 59.6739Z" fill="#303030"/>
<path d="M68.4224 71.189C67.2514 71.189 66.0804 71.0806 64.931 70.8854L65.1696 69.5192C67.4249 69.9096 69.767 69.8879 71.9789 69.4542C75.1884 68.8253 78.2244 67.2856 80.5448 65.117C82.8001 63.0135 84.4048 60.3895 85.2072 57.4836C85.294 57.1366 85.0988 56.768 84.7518 56.6812C84.4699 56.5945 84.1663 56.7246 84.0145 56.9632C82.6049 59.1968 80.6098 60.9967 78.3328 62.1027C76.5763 62.9484 74.6462 63.4038 72.7162 63.3821L72.7379 61.9943C74.4511 62.0159 76.1643 61.6039 77.7473 60.8449C79.7858 59.8691 81.6074 58.2209 82.8435 56.2475C83.3422 55.4452 84.253 55.0765 85.1421 55.3367C86.2264 55.6403 86.877 56.768 86.5734 57.8523C85.706 60.9967 83.9711 63.8592 81.5206 66.1362C79.0268 68.4783 75.7305 70.1481 72.2825 70.8204C71.003 71.0589 69.7236 71.189 68.4224 71.189Z" fill="#303030"/>
<path d="M63.7384 79.9935C62.112 79.9935 60.4856 79.7766 58.9025 79.3429C56.7556 78.7574 54.7171 77.7815 52.8522 76.437L53.6545 75.3093C55.3894 76.5671 57.2978 77.4779 59.2712 77.9984C62.3288 78.8441 65.6251 78.8008 68.5527 77.8683C68.7261 77.8249 68.8563 77.6948 68.943 77.543C69.0297 77.3912 69.0514 77.196 68.9864 77.0225C68.8996 76.7623 68.6611 76.5671 68.4009 76.5454C65.6901 76.3719 63.1095 75.4178 61.0711 73.8781C60.8325 73.7046 60.594 73.4877 60.3554 73.2926L61.2662 72.2516C61.4614 72.4251 61.6783 72.5986 61.8951 72.7721C63.7167 74.16 66.0371 75.0057 68.4442 75.1575C69.3333 75.2226 70.049 75.7864 70.3092 76.5888C70.4827 77.1093 70.4176 77.6731 70.1791 78.1502C69.9189 78.6273 69.5068 78.9959 68.9647 79.1694C67.2949 79.7116 65.5167 79.9935 63.7384 79.9935Z" fill="#303030"/>
<path d="M80.8701 36.0798C80.6099 36.0798 80.3713 35.928 80.2412 35.6895C80.1762 35.5377 80.0894 35.4076 79.981 35.2558L74.9716 28.0344C74.668 27.6224 74.2993 27.2537 73.8656 27.0152C73.5403 26.82 73.4319 26.408 73.6054 26.061C73.8006 25.7357 74.2126 25.6273 74.5596 25.8008C75.1451 26.1477 75.6872 26.6465 76.0993 27.232L81.1087 34.4534C81.2388 34.6269 81.3689 34.822 81.4773 35.0823C81.6508 35.4292 81.499 35.8413 81.152 36.0148C81.087 36.0581 80.9785 36.0798 80.8701 36.0798Z" fill="#303030"/>
<path d="M72.738 37.2074C72.4778 37.2074 72.2176 37.0557 72.1091 36.7954L69.5502 31.1354C69.3984 30.7885 69.5502 30.3764 69.8972 30.2246C70.2441 30.0728 70.6562 30.2246 70.808 30.5716L73.3669 36.2316C73.5187 36.5786 73.3669 36.9906 73.0199 37.1424C72.9115 37.1858 72.8248 37.2074 72.738 37.2074Z" fill="#303030"/>
<path d="M72.7596 49.9153C72.6078 49.9153 72.456 49.8719 72.3259 49.7635C72.0223 49.5249 72.0006 49.0912 72.2391 48.7876L79.5472 40.0049C80.87 38.4001 81.0218 36.34 79.8942 35.2123C78.7665 34.0847 76.7064 34.2365 75.1016 35.5593L63.5214 45.1878C63.2178 45.4263 62.7841 45.383 62.5456 45.101C62.307 44.7974 62.3504 44.3637 62.6323 44.1252L74.2125 34.4967C76.3594 32.6968 79.2219 32.5884 80.87 34.2365C82.5182 35.8846 82.388 38.7471 80.6098 40.894L73.3017 49.6767C73.1499 49.8285 72.9547 49.9153 72.7596 49.9153Z" fill="#303030"/>
<path d="M57.7965 28.7934C57.6447 28.7934 57.4929 28.75 57.3628 28.6416C53.1557 25.3454 50.857 21.7672 50.7269 18.2975C50.7269 18.0589 50.8354 17.8204 51.0522 17.6903C51.2691 17.5602 51.5293 17.5385 51.7462 17.6686C55.4761 19.6203 59.6398 20.5094 62.5674 19.9456C62.936 19.8805 63.3047 20.1191 63.3697 20.4877C63.4348 20.8564 63.1962 21.2251 62.8276 21.2901C59.8566 21.8539 55.9749 21.16 52.2666 19.4468C52.9389 22.7864 55.8014 25.649 58.2085 27.5356C58.5121 27.7742 58.5555 28.2079 58.3169 28.5115C58.2085 28.7066 57.9917 28.7934 57.7965 28.7934Z" fill="#303030"/>
<path d="M66.3841 32.2848C63.2614 32.2848 59.9218 31.0054 57.3195 28.5982C57.1243 28.4247 57.0593 28.1428 57.1243 27.8826C57.2111 27.6224 57.4062 27.4489 57.6881 27.4055C59.2712 27.1453 59.8784 26.7766 60.6374 26.3212C62.1337 24.9984 62.6759 23.4587 62.3072 21.5937C61.3313 16.8012 54.5871 11.64 50.5535 10.3171C50.315 10.2304 50.1198 10.0135 50.0764 9.75331C50.0331 9.49308 50.1415 9.23285 50.3584 9.08105C52.8088 7.30282 56.8424 7.17271 61.3964 8.69071C66.7311 10.4906 73.2368 14.9145 74.9283 20.401C74.95 20.4661 74.95 20.5094 74.95 20.5745C75.9909 25.2586 74.6681 29.0536 71.3068 31.0054C69.8322 31.8945 68.1407 32.2848 66.3841 32.2848ZM59.3146 28.4681C62.8494 31.0921 67.4034 31.6993 70.5695 29.8343C73.4103 28.1862 74.4946 24.8683 73.5404 20.7697C73.5404 20.748 73.5404 20.7263 73.5404 20.7046C72.1525 16.4542 67.013 12.0737 60.941 10.0352C57.5363 8.88588 54.522 8.73408 52.3968 9.57983C56.8207 11.5966 62.6976 16.541 63.6517 21.3335C64.1288 23.6756 63.3698 25.7791 61.4831 27.4272C61.4398 27.4706 61.3964 27.4923 61.3313 27.5356C60.7892 27.8609 60.2254 28.2079 59.3146 28.4681Z" fill="#303030"/>
<path d="M12.4081 59.6956C11.7576 59.457 11.107 59.1751 10.4998 58.8715C10.1745 58.7414 9.84923 58.5462 9.52394 58.3511L9.11191 58.1125C8.85168 57.9607 8.61314 57.8089 8.3746 57.6571L6.92165 56.5945L5.57713 55.4018L4.75308 54.5127C4.34105 54.1007 3.99407 53.6453 3.66879 53.1899C3.53867 53.0164 3.43025 52.8646 3.30013 52.6911C1.50021 50.1105 0.39424 47.1612 0.0472681 44.1252C-0.0828464 42.4988 -0.0611607 41.0458 0.112325 39.6796C0.307497 38.2267 0.697841 36.8171 1.26167 35.4726C1.69539 34.4317 2.8881 33.9329 3.92902 34.3666C4.81813 34.7353 5.33859 35.6895 5.16511 36.6219C4.94825 37.7279 4.88319 38.8122 4.96993 39.8965C5.03499 40.8507 5.23016 41.8699 5.57713 43.0192C6.20602 44.9276 7.33368 46.6624 8.78663 48.0287C10.1528 49.2647 11.7142 50.1322 13.2539 50.5876L12.8852 51.9321C11.1287 51.4333 9.39383 50.4575 7.85414 49.0696C6.22771 47.5299 4.96993 45.5998 4.2543 43.453C3.88565 42.1952 3.66879 41.0675 3.58205 40.0049C3.4953 38.8122 3.58205 37.5978 3.7989 36.4051C3.86396 36.0798 3.69047 35.7762 3.40856 35.6461C3.08327 35.516 2.69293 35.6678 2.54113 35.9931C2.02067 37.2291 1.6737 38.5303 1.47853 39.8531C1.30504 41.1109 1.28336 42.4554 1.41347 43.9734C1.71707 46.7709 2.75799 49.5033 4.4061 51.867C4.51453 51.9971 4.64465 52.1706 4.77476 52.3441C5.10005 52.7778 5.40365 53.1899 5.75062 53.5368L6.55299 54.3826L7.81077 55.4886L9.17697 56.4861C9.37214 56.6162 9.61068 56.7463 9.82754 56.8764L10.2396 57.115C10.5215 57.2885 10.8034 57.4403 11.0853 57.5704C11.6925 57.874 12.2997 58.1125 12.9069 58.3511L12.4081 59.6956Z" fill="#303030"/>
<path d="M19.4996 71.189C18.1985 71.189 16.919 71.0589 15.6613 70.8204C12.2132 70.1481 8.93868 68.4783 6.42313 66.1362C3.97264 63.8376 2.23778 60.975 1.37035 57.8523C1.06675 56.768 1.71732 55.6403 2.80161 55.3367C3.66904 55.0982 4.60153 55.4452 5.07861 56.2259C6.33639 58.2426 8.15799 59.8691 10.1965 60.8666C11.6928 61.5822 13.3192 61.9726 14.9456 62.016L14.9239 63.4038C13.1023 63.3822 11.2591 62.9268 9.58925 62.1244C7.31225 61.0401 5.31716 59.2185 3.92927 57.0282C3.75578 56.7463 3.45218 56.6379 3.17027 56.7029C2.8233 56.7897 2.60644 57.1583 2.71487 57.5053C3.51724 60.3895 5.12198 63.0352 7.3773 65.1387C9.69768 67.3073 12.7337 68.847 15.9432 69.4758C18.1334 69.9096 20.4972 69.9312 22.7308 69.5409L22.9694 70.9071C21.82 71.0806 20.649 71.189 19.4996 71.189Z" fill="#303030"/>
<path d="M24.1836 79.9934C22.3837 79.9934 20.6054 79.7332 18.9356 79.1911C17.8513 78.8441 17.2441 77.6947 17.5911 76.6104C17.8513 75.7864 18.567 75.2442 19.4127 75.1792C21.8632 75.0274 24.1836 74.1816 26.0052 72.7938C26.222 72.642 26.4172 72.4685 26.6124 72.295L27.5232 73.3359C27.3063 73.5311 27.0678 73.7262 26.8293 73.8997C24.7908 75.4394 22.2102 76.3936 19.5428 76.5671C19.2176 76.5888 19.0007 76.7622 18.914 77.0442C18.8055 77.3911 19.0007 77.7815 19.3477 77.8899C22.2752 78.8224 25.5715 78.8658 28.6292 78.02C30.5809 77.4996 32.4459 76.6105 34.159 75.3744L34.9614 76.502C33.0964 77.8248 31.1013 78.779 28.9761 79.3429C27.4365 79.7766 25.81 79.9934 24.1836 79.9934Z" fill="#303030"/>
<path d="M6.68328 37.034C6.63991 37.034 6.59654 37.034 6.55317 37.0123C6.18451 36.9472 5.92428 36.5786 6.01103 36.1882C6.14114 35.4726 6.40137 34.8871 6.74834 34.3666L11.8228 27.2103C12.2348 26.6248 12.7553 26.1477 13.3625 25.8008C13.6878 25.6056 14.1215 25.714 14.3167 26.0393C14.5118 26.3646 14.4034 26.7983 14.0781 26.9935C13.6661 27.232 13.2758 27.6007 12.9722 28.0127L7.89769 35.169C7.65914 35.516 7.48566 35.928 7.37723 36.4485C7.29049 36.7954 7.00857 37.034 6.68328 37.034Z" fill="#303030"/>
<path d="M15.1841 37.2291C15.0973 37.2291 14.9889 37.2075 14.9022 37.1641C14.5552 37.0123 14.4034 36.6003 14.5552 36.2533L17.0708 30.7017C17.2226 30.3548 17.6346 30.203 17.9816 30.3548C18.3285 30.5066 18.4803 30.9186 18.3285 31.2656L15.813 36.8171C15.7045 37.0773 15.4443 37.2291 15.1841 37.2291Z" fill="#303030"/>
<path d="M15.2059 49.9803C15.0107 49.9803 14.8155 49.8936 14.6637 49.7201L7.29059 40.8723C5.49067 38.7254 5.38224 35.8629 7.03036 34.2148C8.67848 32.5667 11.541 32.6968 13.6879 34.475L25.2464 44.0818C25.55 44.3203 25.5717 44.7541 25.3331 45.0577C25.0946 45.3613 24.6609 45.3829 24.3573 45.1444L12.7988 35.5376C11.194 34.2148 9.13388 34.063 8.00622 35.1906C6.87856 36.3183 7.03036 38.3784 8.35319 39.9832L15.7263 48.831C15.9649 49.1346 15.9215 49.5683 15.6396 49.8068C15.5312 49.937 15.3794 49.9803 15.2059 49.9803Z" fill="#303030"/>
<path d="M30.1257 28.7934C29.9306 28.7934 29.7137 28.7066 29.5836 28.5331C29.345 28.2295 29.4101 27.7958 29.692 27.5573C32.0991 25.6706 34.9616 22.8081 35.6339 19.4685C31.904 21.1817 28.0439 21.8756 25.0729 21.3118C24.7043 21.2467 24.4441 20.8781 24.5308 20.5094C24.5959 20.1407 24.9645 19.8805 25.3332 19.9673C28.2824 20.5311 32.4244 19.642 36.1544 17.6902C36.3712 17.5818 36.6315 17.5818 36.8483 17.7119C37.0652 17.842 37.1736 18.0806 37.1736 18.3191C37.0435 21.7889 34.7665 25.367 30.5378 28.6632C30.4293 28.75 30.2775 28.7934 30.1257 28.7934Z" fill="#303030"/>
<path d="M21.5382 32.2848C19.7817 32.2848 18.0902 31.8728 16.6372 31.027C13.2543 29.0753 11.9314 25.2803 12.9723 20.5962C12.9723 20.5311 12.994 20.4877 12.994 20.4227C14.6638 14.9362 21.1912 10.5123 26.5259 8.71238C31.0799 7.17269 35.0918 7.32449 37.564 9.10272C37.7808 9.25452 37.8893 9.51475 37.8459 9.77498C37.8025 10.0352 37.629 10.2521 37.3688 10.3388C33.3353 11.6616 26.5693 16.8228 25.6151 21.6154C25.2465 23.4804 25.7886 25.0201 27.2849 26.3429C28.0439 26.7983 28.6511 27.167 30.2342 27.4272C30.4944 27.4706 30.7113 27.6657 30.798 27.9043C30.8848 28.1645 30.798 28.4247 30.6029 28.6199C28.0006 31.0053 24.661 32.2848 21.5382 32.2848ZM14.3819 20.7046C14.3819 20.7263 14.3819 20.748 14.3602 20.7697C13.4061 24.8683 14.4903 28.1862 17.3312 29.8343C20.519 31.6776 25.073 31.0921 28.5861 28.4681C27.6753 28.2079 27.1331 27.8609 26.5476 27.5139C26.5043 27.4922 26.4392 27.4489 26.4175 27.4272C24.5309 25.7791 23.7718 23.6755 24.2489 21.3335C25.2248 16.5192 31.1016 11.5749 35.5038 9.57981C33.3786 8.75575 30.3643 8.90755 26.9597 10.0352C20.9093 12.0737 15.7481 16.4542 14.3819 20.7046Z" fill="#303030"/>
<path d="M34.6147 43.4964C34.3111 43.4964 34.0292 43.2795 33.9424 42.9759L32.7063 38.0315C32.3377 36.5786 33.2268 35.104 34.7014 34.7353C35.3954 34.5618 36.1327 34.6703 36.7616 35.0389C37.3905 35.4076 37.8242 36.0148 37.9977 36.7087L39.3639 42.1735C39.4506 42.5422 39.2337 42.9108 38.8651 43.0193C38.4964 43.106 38.1061 42.8892 38.0193 42.5205L36.6531 37.0557C36.5664 36.7087 36.3495 36.4268 36.0459 36.2316C35.7423 36.0365 35.3737 35.9931 35.0484 36.0798C34.3328 36.2533 33.8991 36.9906 34.0725 37.6846L35.3086 42.6289C35.3954 42.9976 35.1785 43.3662 34.8099 43.4747C34.7231 43.4747 34.6797 43.4964 34.6147 43.4964Z" fill="#303030"/>
<path d="M53.2428 43.4746C53.1778 43.4746 53.1344 43.4746 53.0693 43.4529C52.7007 43.3662 52.4621 42.9758 52.5706 42.6072L53.785 37.6845C53.9584 36.9689 53.5247 36.2533 52.8091 36.0798C52.4621 35.993 52.1152 36.0581 51.8116 36.2316C51.508 36.4051 51.2911 36.7087 51.2044 37.0556L49.8598 42.4988C49.7731 42.8674 49.3828 43.106 49.0141 42.9975C48.6454 42.9108 48.4069 42.5204 48.5153 42.1518L49.8598 36.7087C50.2285 35.2557 51.7031 34.3666 53.1561 34.7136C54.609 35.0822 55.4981 36.5569 55.1512 38.0098L53.9368 42.9325C53.8283 43.2578 53.5464 43.4746 53.2428 43.4746Z" fill="#303030"/>
<path d="M35.3521 40.07C33.8558 40.07 32.6414 38.8556 32.6414 37.3593C32.6414 35.863 33.8558 34.6486 35.3521 34.6486C36.8484 34.6486 38.0628 35.863 38.0628 37.3593C38.0845 38.8556 36.8484 40.07 35.3521 40.07ZM35.3521 36.0364C34.6148 36.0364 34.0292 36.622 34.0292 37.3593C34.0292 38.0966 34.6364 38.6821 35.3521 38.6821C36.0677 38.6821 36.6749 38.0749 36.6749 37.3593C36.6966 36.622 36.0894 36.0364 35.3521 36.0364Z" fill="#303030"/>
<path d="M52.4838 40.07C50.9875 40.07 49.7731 38.8556 49.7731 37.3593C49.7731 35.863 50.9875 34.6486 52.4838 34.6486C53.9801 34.6486 55.1945 35.863 55.1945 37.3593C55.1945 38.8556 53.9801 40.07 52.4838 40.07ZM52.4838 36.0364C51.7465 36.0364 51.161 36.622 51.161 37.3593C51.161 38.0966 51.7682 38.6821 52.4838 38.6821C53.2211 38.6821 53.8066 38.0749 53.8066 37.3593C53.8066 36.622 53.2211 36.0364 52.4838 36.0364Z" fill="#303030"/>
<path d="M43.9397 77.9333C25.9188 77.9333 10.999 62.9267 10.999 55.2717C10.999 47.5732 25.4634 41.5229 43.9397 41.5229C62.4159 41.5229 76.8803 47.5515 76.8803 55.2717C76.8803 62.9267 61.9605 77.9333 43.9397 77.9333ZM43.9397 42.9325C26.8296 42.9325 12.3869 48.5924 12.3869 55.2933C12.3869 62.2978 27.0031 76.5671 43.9397 76.5671C60.8979 76.5671 75.4924 62.2978 75.4924 55.2933C75.4924 48.5924 61.0497 42.9325 43.9397 42.9325Z" fill="#303030"/>
</g>
<defs>
<clipPath id="clip0_533_1930">
<rect width="88" height="88" fill="white"/>
</clipPath>
</defs>
</svg>
