<svg width="88" height="88" viewBox="0 0 88 88" fill="none" xmlns="http://www.w3.org/2000/svg">
<g clip-path="url(#clip0_533_1638)">
<path d="M32.057 60.1293C34.5556 60.0684 36.4245 60.9216 37.7043 61.8357C36.4854 58.9714 33.9665 57.6714 31.6711 57.387C30.9601 58.1386 30.2694 58.9105 29.599 59.6824C27.6083 61.9576 25.6988 64.1515 23.4642 64.9437C24.9878 66.447 26.7348 66.9751 27.7505 67.158C31.021 67.2595 32.5242 69.6972 32.5445 71.9723C32.5445 72.8662 32.3414 73.7803 31.8945 74.5725C33.7837 73.3537 34.8603 71.3832 35.2666 69.6362C35.876 66.9954 35.3072 63.2171 31.7929 61.3279C31.5289 61.1857 31.407 60.9013 31.4679 60.5966C31.5085 60.3528 31.7523 60.1497 32.057 60.1293Z" fill="white"/>
<path d="M69.6377 56.4931C69.9018 56.4119 70.2065 56.4931 70.369 56.7369C71.7097 58.6464 72.8473 60.759 73.7615 63.0748C74.2287 54.7055 71.5676 46.6612 66.1234 40.1201C60.1715 32.9696 51.5177 28.6224 42.3562 28.1552C41.9499 28.5412 41.503 28.9068 41.0154 29.2318C39.1872 30.4304 37.4199 31.3445 35.8151 31.9742C35.7338 31.9945 35.6526 32.0149 35.5713 32.0149C35.3072 32.0149 35.0635 31.8523 34.9619 31.6086C34.84 31.2836 35.0025 30.8976 35.3275 30.7757C36.8511 30.1866 38.5371 29.2928 40.2841 28.1552C42.7421 26.5707 44.0219 23.6862 43.575 20.8422C43.3312 19.3187 43.0468 17.917 42.7015 16.6779C41.1373 19.8062 37.5418 25.8597 32.7477 29.049C31.8539 29.6788 30.9601 30.2272 30.4319 30.5523L30.1678 30.7148C30.1678 30.7148 30.1475 30.7148 30.1475 30.7351C27.5067 32.4008 24.744 33.6603 21.7375 34.5947C21.0062 35.5901 20.7828 35.9761 20.4984 36.4839C20.4171 36.6058 20.3562 36.748 20.2546 36.9105C18.4467 40.6889 18.142 44.386 18.1217 46.2346C18.1217 46.2955 18.1014 46.3565 18.1014 46.4174C17.6951 47.7378 16.8825 49.2411 16.0293 50.8255C13.937 54.7258 11.7634 58.7683 14.4855 61.3888C14.587 61.4903 14.6683 61.6325 14.6886 61.795C14.8105 62.9529 15.4402 64.1515 16.1715 64.578C16.4762 64.7609 16.7809 64.7812 17.106 64.6593C17.1466 64.639 17.1872 64.6187 17.2482 64.5984C17.8982 64.3952 18.4264 64.2327 18.9545 64.0702L19.564 63.8671C19.9702 63.0342 21.3516 60.3528 22.5907 59.012C22.8345 58.748 23.2408 58.7276 23.5049 58.9714C23.7689 59.2152 23.7892 59.6215 23.5455 59.8855C22.611 60.9215 21.5141 62.892 20.9656 63.9686C23.7283 64.3952 25.9831 61.8357 28.5427 58.8902C30.3303 56.8384 32.1992 54.7258 34.454 53.3648C36.2823 51.9022 38.0699 50.3583 38.8622 48.9973C39.0247 48.7129 39.1466 48.4691 39.2075 48.2254C39.3091 47.88 39.6544 47.6769 40.0201 47.7784C40.3654 47.88 40.5685 48.2254 40.467 48.5707C40.3654 48.916 40.2232 49.2817 39.9997 49.6473C39.2888 50.8662 38.0293 52.1053 36.3432 53.507C42.2343 54.7461 46.5205 58.2807 48.491 63.603C50.6442 69.4331 49.4051 76.4211 45.4032 80.9917C42.6202 84.1607 38.8825 85.928 34.515 86.1717C41.9905 87.675 49.8723 86.1108 56.454 81.6824C64.7218 76.1163 69.3533 67.1782 69.1299 57.1432C69.1705 56.8384 69.3533 56.5744 69.6377 56.4931ZM17.8373 58.0776C17.6951 58.4026 17.3091 58.5651 16.9841 58.4229C16.6591 58.2807 16.4966 57.8948 16.6388 57.5697C16.6997 57.4479 16.6591 57.1838 16.5778 57.1228C16.1918 57.2447 15.8262 57.3463 15.684 59.1542C15.6637 59.4996 15.3793 59.7433 15.034 59.7433C15.0136 59.7433 14.9933 59.7433 14.973 59.7433C14.6074 59.723 14.3433 59.398 14.3839 59.0527C14.5464 57.0416 15.0543 56.2087 16.3137 55.904C16.8013 55.7821 17.2685 55.9243 17.5732 56.3103C17.9795 56.7369 18.081 57.5088 17.8373 58.0776ZM27.5067 38.3528C26.9176 38.5762 26.2472 38.9216 25.6175 39.2669C26.0441 39.7951 26.2879 40.4654 26.2879 41.1561C26.2879 42.8219 24.9268 44.1829 23.2611 44.1829C23.0579 44.1829 22.8548 44.1626 22.6517 44.1219L22.5298 44.5485C22.4485 44.8329 22.1844 45.0361 21.9001 45.0361C21.8391 45.0361 21.7782 45.0361 21.7375 45.0158C21.3922 44.9142 21.1891 44.5689 21.2703 44.2235L22.4485 39.8357C22.4892 39.6732 22.5907 39.5513 22.7329 39.4497C22.8345 39.3888 25.2722 37.8246 27.0192 37.1543C27.3442 37.0324 27.7301 37.1949 27.852 37.5199C28.0145 37.8449 27.852 38.2309 27.5067 38.3528Z" fill="white"/>
<path d="M23.6673 40.4045L23.0173 42.8625C23.0985 42.8828 23.2001 42.8828 23.2814 42.8828C24.2361 42.8828 25.008 42.1109 25.008 41.1561C25.008 40.6889 24.8049 40.242 24.4596 39.917C24.1345 40.1201 23.8501 40.2826 23.6673 40.4045Z" fill="white"/>
<path d="M27.1613 26.4286C26.9582 26.4489 26.7551 26.4489 26.5722 26.4489C25.4347 26.4489 24.358 26.1848 23.7486 25.9816C22.9767 28.2771 22.4485 30.6335 22.1641 33.0509C24.7846 32.1774 27.202 31.0398 29.5381 29.5772L29.5584 29.5569L29.8022 29.4147C30.2897 29.11 31.021 28.6631 31.8132 28.1349C32.6461 15.6419 41.4217 5.11926 52.8787 1.56433C48.044 2.17375 43.3922 3.83949 39.1669 6.45998L39.8169 7.00846C40.1013 7.23191 40.1216 7.63819 39.8982 7.92258C39.7763 8.08509 39.5935 8.14604 39.3903 8.14604C39.2481 8.14604 39.1059 8.10541 38.984 8.00384L38.009 7.19128C37.1761 7.73976 36.3635 8.34918 35.5916 8.97891C35.4088 9.1211 35.226 9.28362 35.0431 9.44613C35.6119 9.91335 36.1198 10.1571 36.1401 10.1571C36.4651 10.2993 36.6073 10.6853 36.4651 11.0103C36.3635 11.2541 36.1198 11.3963 35.876 11.3963C35.7948 11.3963 35.6932 11.3759 35.6119 11.3353C35.5713 11.315 34.8197 10.9697 34.0681 10.279C32.9102 11.315 31.8335 12.412 30.8382 13.5902C31.7523 14.1793 32.707 14.3012 32.707 14.3012C33.0727 14.3418 33.3165 14.6668 33.2758 15.0121C33.2352 15.3372 32.9508 15.6012 32.6258 15.6012C32.6055 15.6012 32.5852 15.6012 32.5648 15.6012C32.5039 15.6012 31.2038 15.4387 29.985 14.6059C29.0302 15.7841 28.1567 17.0232 27.3645 18.303C28.6036 18.9124 29.8428 18.8718 29.8631 18.8718C30.2084 18.8515 30.5335 19.1359 30.5335 19.5015C30.5538 19.8672 30.2694 20.1719 29.924 20.1719C29.9037 20.1719 29.8631 20.1719 29.8022 20.1719C29.3959 20.1719 28.0552 20.1109 26.7144 19.4203C25.7394 21.1266 24.9065 22.9142 24.2158 24.7425C24.8456 24.9456 26.0035 25.2097 27.0801 25.1081C27.4254 25.0675 27.7504 25.3316 27.7911 25.6973C27.7911 26.0832 27.527 26.3879 27.1613 26.4286Z" fill="white"/>
<path d="M29.5787 59.7027C27.5879 61.9778 25.6784 64.1717 23.4439 64.964C24.9675 66.4672 26.7144 66.9954 27.7301 67.1782C31.0007 67.2798 32.5039 69.7174 32.5242 71.9926C32.5242 72.8864 32.3211 73.8005 31.8742 74.5928C33.7634 73.3739 34.84 71.4035 35.2463 69.6565C35.8557 67.0157 35.2869 63.2373 31.7726 61.3481C31.5085 61.2059 31.3866 60.9215 31.4476 60.6168C31.5085 60.3324 31.7726 60.1293 32.057 60.109C34.5556 60.048 36.4245 60.9012 37.7043 61.8153C36.4854 58.9511 33.9665 57.651 31.671 57.3666C30.9397 58.1385 30.2694 58.9307 29.5787 59.7027Z" fill="#C9DEE2"/>
<path d="M69.1908 57.1228C69.1908 56.8384 69.3736 56.5744 69.6377 56.4931C69.9018 56.4118 70.2065 56.4931 70.369 56.7369C71.7097 58.6464 72.8473 60.759 73.7614 63.0748C74.2286 54.7055 71.5675 46.6612 66.1234 40.1201C60.1714 32.9696 51.5177 28.6224 42.3561 28.1552C41.9498 28.5412 41.5029 28.9068 41.0154 29.2318C39.1871 30.4304 37.4198 31.3445 35.815 31.9742C35.7338 31.9945 35.6525 32.0148 35.5713 32.0148C35.3072 32.0148 35.0634 31.8523 34.9618 31.6086C34.84 31.2835 35.0025 30.8976 35.3275 30.7757C36.851 30.1866 38.5371 29.2928 40.2841 28.1552C42.7421 26.5707 44.0218 23.6861 43.5749 20.8422C43.5343 20.5781 43.4937 20.3343 43.4531 20.0906C41.5842 23.3408 38.5168 27.688 34.6978 30.2475C33.8039 30.8773 32.9101 31.4257 32.382 31.7508L32.1179 31.9133C32.1179 31.9133 32.0976 31.9133 32.0976 31.9336C29.4568 33.5993 26.6941 34.8588 23.6876 35.7932C22.9563 36.7683 22.7329 37.1746 22.4485 37.6824C22.3672 37.8043 22.3063 37.9465 22.2047 38.109C20.4577 41.8468 20.153 45.5439 20.1124 47.3925C20.1124 47.4534 20.0921 47.5143 20.0921 47.5753C19.6858 48.8957 18.8732 50.3989 18.02 51.9834C17.3091 53.3038 16.5981 54.6648 16.0496 55.9649C16.1309 55.9446 16.2121 55.904 16.2934 55.8837C16.7809 55.7618 17.2481 55.904 17.5528 56.29C17.9388 56.7572 18.0607 57.5291 17.8169 58.0979C17.6747 58.4229 17.2887 58.5854 16.9637 58.4432C16.6387 58.301 16.4762 57.9151 16.6184 57.59C16.6793 57.4682 16.6387 57.2041 16.5574 57.1431C16.1715 57.265 15.8058 57.3666 15.6636 59.1745C15.6433 59.4589 15.4402 59.6621 15.1964 59.7433C15.237 60.7996 15.6027 61.7544 16.4559 62.5873C16.5574 62.6888 16.6387 62.831 16.659 62.9935C16.72 63.5623 16.9028 64.1514 17.1669 64.639C17.2075 64.6187 17.2278 64.5983 17.2684 64.5983C17.9185 64.3952 18.4466 64.2327 18.9748 64.0702L19.5842 63.867C19.9905 63.0342 21.3718 60.3527 22.611 59.012C22.8548 58.7479 23.261 58.7276 23.5251 58.9714C23.7892 59.2152 23.8095 59.6214 23.5657 59.8855C22.6313 60.9215 21.5343 62.892 20.9859 63.9686C23.7486 64.3952 26.0034 61.8357 28.563 58.8901C30.3506 56.8384 32.2195 54.7258 34.4743 53.3648C36.3026 51.9022 38.0902 50.3583 38.8824 48.9973C39.0449 48.7129 39.1668 48.4691 39.2278 48.2253C39.3293 47.88 39.6747 47.6769 40.0403 47.7784C40.3857 47.88 40.5888 48.2253 40.4872 48.5707C40.3857 48.916 40.2435 49.2817 40.02 49.6473C39.309 50.8661 38.0496 52.1053 36.3635 53.507C42.2545 54.7461 46.5408 58.2807 48.5112 63.603C50.6645 69.4331 49.4253 76.421 45.4235 80.9917C42.6405 84.1606 38.9027 85.9279 34.5352 86.1717C42.0108 87.6749 49.8926 86.1108 56.4743 81.6823C64.7827 76.0757 69.3939 67.1376 69.1908 57.1228ZM27.5066 38.3528C26.9175 38.5762 26.2472 38.9216 25.6174 39.2669C26.044 39.7951 26.2878 40.4654 26.2878 41.1561C26.2878 42.8218 24.9268 44.1829 23.261 44.1829C23.0579 44.1829 22.8548 44.1626 22.6516 44.1219L22.5297 44.5485C22.4485 44.8329 22.1844 45.0361 21.9 45.0361C21.8391 45.0361 21.7781 45.0361 21.7375 45.0157C21.3922 44.9142 21.189 44.5688 21.2703 44.2235L22.4485 39.8357C22.4891 39.6732 22.5907 39.5513 22.7329 39.4497C22.8344 39.3888 25.2721 37.8246 27.0191 37.1543C27.3441 37.0324 27.7301 37.1949 27.852 37.5199C28.0145 37.8449 27.852 38.2309 27.5066 38.3528Z" fill="#E7F4F6"/>
<path d="M23.0173 42.8421C23.0986 42.8624 23.2002 42.8624 23.2814 42.8624C24.2362 42.8624 25.0081 42.0905 25.0081 41.1358C25.0081 40.6685 24.805 40.2216 24.4596 39.8966C24.1346 40.0997 23.8502 40.2623 23.6674 40.3841L23.0173 42.8421Z" fill="white"/>
<path d="M39.8778 7.08971C40.081 7.33348 40.1013 7.67882 39.8981 7.92258C39.7762 8.08509 39.5934 8.14604 39.3903 8.14604C39.2481 8.14604 39.1059 8.10541 38.984 8.00384L38.8012 7.86164C37.8261 8.59294 36.912 9.34456 36.0588 10.1368C36.0994 10.1571 36.1197 10.1774 36.1197 10.1774C36.4448 10.3196 36.587 10.7056 36.4448 11.0306C36.3432 11.2744 36.0994 11.4166 35.8557 11.4166C35.7744 11.4166 35.6728 11.3963 35.5916 11.3556C35.5713 11.3556 35.3681 11.2541 35.0837 11.0916C34.0884 12.1072 33.1742 13.1839 32.382 14.2808C32.5648 14.3215 32.6867 14.3418 32.6867 14.3418C33.0523 14.3824 33.2961 14.7074 33.2555 15.0528C33.2149 15.3778 32.9305 15.6419 32.6054 15.6419C32.5851 15.6419 32.5648 15.6419 32.5445 15.6419C32.5039 15.6419 32.1179 15.5809 31.5897 15.4184C30.8178 16.556 30.1475 17.7342 29.538 18.9124C29.7209 18.9124 29.8427 18.9124 29.8427 18.9124C30.1881 18.8921 30.5131 19.1765 30.5131 19.5421C30.5334 19.9078 30.249 20.2125 29.9037 20.2125C29.8834 20.2125 29.8427 20.2125 29.7818 20.2125C29.6193 20.2125 29.3349 20.2125 28.9489 20.1516C28.1973 21.797 27.5676 23.483 27.0394 25.1488C27.0597 25.1488 27.0597 25.1488 27.0801 25.1488C27.4254 25.1082 27.7504 25.3722 27.791 25.7379C27.8317 26.1035 27.5676 26.4082 27.2019 26.4489C27.0191 26.4692 26.8363 26.4692 26.6738 26.4692C26.1659 28.2568 25.78 30.0444 25.4346 31.7914C26.8566 31.1617 28.238 30.4304 29.5787 29.5975L29.599 29.5772L29.8427 29.435C30.3303 29.1303 31.0616 28.6834 31.8538 28.1552C32.6461 15.6419 41.4217 5.11926 52.8787 1.56433C52.3709 1.62527 51.863 1.70653 51.3552 1.8081C46.7439 3.16913 42.9655 4.97707 39.8778 7.08971Z" fill="#FBCA82"/>
<path d="M44.7532 5.52551C31.3866 13.5698 30.1475 26.3879 30.0459 29.2522C30.5334 28.9474 31.1428 28.5615 31.8132 28.1146C32.4226 18.7905 37.4808 10.5837 44.7532 5.52551Z" fill="#ECA870"/>
<path d="M42.3764 28.1553C41.9702 28.5412 41.5233 28.9069 41.0357 29.2319C39.6138 30.146 38.2527 30.918 36.9526 31.4868C63.5435 31.1414 70.7753 53.507 70.7753 53.507C70.7753 53.507 68.1954 51.0084 66.2453 49.8099C67.4438 61.9982 61.7153 76.7868 49.2425 82.3325C62.4872 65.5125 50.177 51.8819 40.5076 48.3676C40.5076 48.4286 40.5076 48.4895 40.4873 48.5504C40.3857 48.8958 40.2435 49.2614 40.02 49.6271C39.309 50.8459 38.0496 52.0851 36.3635 53.4867C42.2546 54.7259 46.5408 58.2605 48.5112 63.5827C50.6645 69.4128 49.4254 76.4008 45.4235 80.9714C42.6405 84.1404 38.9028 85.9077 34.5353 86.1515C42.0108 87.6547 49.8926 86.0905 56.4743 81.6621C64.7421 76.0961 69.3736 67.158 69.1502 57.1229C69.1502 56.8385 69.333 56.5744 69.5971 56.4932C69.8612 56.4119 70.1659 56.4932 70.3284 56.7369C71.6691 58.6464 72.8067 60.7591 73.7208 63.0749C74.188 54.7055 71.5269 46.6612 66.0828 40.1202C60.1714 32.9494 51.538 28.6022 42.3764 28.1553Z" fill="#C9DEE2"/>
<path d="M28.1973 77.0305C28.116 77.0305 28.0144 77.0102 27.9332 76.9696C27.8722 76.9493 27.8113 76.9086 27.7707 76.8883C27.5269 76.7461 27.3847 76.4414 27.466 76.157C27.5472 75.8726 27.7707 75.6695 28.0551 75.6695C30.1677 75.5882 31.2443 73.76 31.224 71.9927C31.2037 70.4082 30.2693 68.519 27.6488 68.4784C27.6082 68.4784 27.5878 68.4784 27.5472 68.4784C26.2065 68.2346 23.6673 67.483 21.7374 65.0047C21.514 64.7203 21.5749 64.314 21.8593 64.0906C22.1437 63.8671 22.55 63.9281 22.7734 64.2125C24.4189 66.3251 26.5721 66.9955 27.73 67.1986C31.0006 67.3002 32.5038 69.7378 32.5241 72.013C32.5241 72.9068 32.321 73.8209 31.8741 74.6132C33.7633 73.3943 34.8399 71.4239 35.2462 69.6769C35.8556 67.0361 35.2868 63.2577 31.7725 61.3685C31.5084 61.2263 31.3865 60.9419 31.4475 60.6372C31.5084 60.3528 31.7725 60.1497 32.0569 60.1294C34.5555 60.0684 36.4244 60.9216 37.7042 61.8357C36.4447 58.8496 33.743 57.5495 31.3662 57.3667C31.0006 57.3463 30.7365 57.0213 30.7771 56.676C30.7974 56.3103 31.1225 56.0463 31.4678 56.0869C35.7134 56.4322 38.9027 59.4387 39.573 63.7655C39.6137 64.0499 39.4715 64.3343 39.2074 64.4562C38.9433 64.5781 38.6183 64.4968 38.4355 64.2734C37.8667 63.603 36.526 62.2623 34.3727 61.6935C36.6072 63.9687 37.1354 67.2798 36.526 69.9613C35.5915 74.085 32.3413 76.868 28.2379 77.0508C28.2176 77.0305 28.1973 77.0305 28.1973 77.0305Z" fill="#303030"/>
<path d="M40.1824 88.0001C36.1806 88.0001 32.1584 87.1875 28.3597 85.5624C28.055 85.4202 27.8925 85.0749 27.9941 84.7702C28.0957 84.4451 28.4207 84.2623 28.766 84.3436C35.2462 85.8062 40.8122 84.303 44.489 80.1183C48.1861 75.893 49.3237 69.4332 47.3329 64.05C45.3828 58.7887 40.9341 55.3963 34.7993 54.5228C34.4336 54.4821 34.1898 54.1368 34.2508 53.7915C34.3117 53.4258 34.6367 53.182 34.9821 53.243C41.6044 54.1774 46.4188 57.8542 48.5518 63.6031C50.705 69.4332 49.4659 76.4212 45.4641 80.9918C42.6811 84.1608 38.9433 85.9281 34.5758 86.1718C42.0513 87.6751 49.9331 86.1109 56.5148 81.6825C64.7826 76.1164 69.4142 67.1783 69.1907 57.1433C69.1907 56.8589 69.3735 56.5948 69.6376 56.5135C69.9017 56.4323 70.2064 56.5135 70.3689 56.7573C71.7096 58.6668 72.8472 60.7794 73.7613 63.0952C74.2285 54.7259 71.5674 46.6816 66.1233 40.1405C60.1104 32.9088 51.3551 28.5413 42.1123 28.1756C41.7466 28.1553 41.4825 27.8506 41.4825 27.5053C41.5028 27.1396 41.8076 26.8552 42.1529 26.8755C51.7614 27.2818 60.862 31.8118 67.1187 39.3076C73.4363 46.8847 76.1381 56.4323 74.7364 66.2033C74.6958 66.508 74.452 66.7314 74.1473 66.7517C73.8426 66.772 73.5582 66.5892 73.4769 66.2845C72.7253 63.7453 71.6893 61.3889 70.4502 59.2762C70.0236 68.8644 65.2701 77.3353 57.2258 82.7591C52.0661 86.2125 46.1344 88.0001 40.1824 88.0001Z" fill="#303030"/>
<path d="M16.7809 65.9797C16.3746 65.9797 15.9683 65.8578 15.5824 65.6344C14.5463 65.025 13.6932 63.603 13.49 62.0998C10.3211 58.8089 12.8806 54.0148 14.9526 50.1552C15.7449 48.6723 16.5168 47.2503 16.8824 46.0721C16.9231 43.675 17.37 40.0592 19.1779 36.2605C19.2795 36.0776 19.3607 35.9354 19.4217 35.8136C19.7467 35.2244 19.9905 34.7775 20.8843 33.5993C20.9655 33.4978 21.0874 33.4165 21.2093 33.3759C24.1955 32.4618 26.9175 31.2226 29.538 29.5975L29.5583 29.5772L29.8021 29.435C30.3506 29.0896 31.1834 28.5818 32.0569 27.9724C32.3413 27.7692 32.7476 27.8302 32.9711 28.1349C33.1742 28.4193 33.1133 28.8256 32.8086 29.049C31.9147 29.6788 31.0209 30.2272 30.4928 30.5522L30.2287 30.7148C30.2287 30.7148 30.2084 30.7148 30.2084 30.7351C27.5676 32.4008 24.8049 33.6603 21.7984 34.5947C21.0671 35.5901 20.8437 35.9761 20.5593 36.4839C20.478 36.6058 20.4171 36.748 20.3155 36.9105C18.5076 40.6889 18.2029 44.386 18.1825 46.2346C18.1825 46.2955 18.1622 46.3565 18.1622 46.4174C17.7559 47.7378 16.9434 49.241 16.0902 50.8255C13.9979 54.7258 11.8243 58.7683 14.5463 61.3888C14.6479 61.4903 14.7292 61.6325 14.7495 61.795C14.8714 62.9529 15.5011 64.1515 16.2324 64.578C16.5371 64.7609 16.8418 64.7812 17.1668 64.6593C17.2075 64.639 17.2481 64.6187 17.309 64.5984C17.9591 64.3952 18.4872 64.2327 19.0154 64.0702L19.8889 63.7858C20.0108 63.7452 20.153 63.7452 20.2952 63.7858C23.4235 64.8421 25.8206 62.0794 28.6239 58.8902C30.4318 56.8384 32.2804 54.7055 34.5759 53.3445C34.6774 53.2835 34.7993 53.2429 34.9009 53.2429C35.2665 53.2429 35.5509 53.5273 35.5509 53.8929C35.5509 54.157 35.4087 54.3805 35.1853 54.482C33.1133 55.7415 31.3256 57.7729 29.599 59.7433C26.6738 63.0748 23.9111 66.2438 20.092 65.0859L19.4217 65.289C18.9138 65.4515 18.3857 65.6141 17.7763 65.7969C17.4309 65.9188 17.1059 65.9797 16.7809 65.9797Z" fill="#303030"/>
<path d="M21.3921 34.6354C21.3718 34.6354 21.3515 34.6354 21.3311 34.6354C20.9655 34.5947 20.7014 34.29 20.742 33.9244C21.6765 23.8284 26.7753 14.3824 34.7586 7.96321C42.4576 1.78778 52.0051 -0.934286 61.6339 0.284549C61.9793 0.325176 62.223 0.629885 62.2027 0.975221C62.1824 1.32056 61.898 1.58464 61.5527 1.58464C61.4714 1.56432 61.4105 1.58464 61.3292 1.58464C46.561 1.58464 33.9055 13.6308 33.0726 28.5209C33.0523 28.8865 32.7476 29.1506 32.3819 29.1303C32.0163 29.11 31.7522 28.8053 31.7725 28.4396C32.4835 15.8044 41.32 5.13957 52.8583 1.56432C46.622 2.35657 40.67 4.87549 35.5712 8.9789C27.8519 15.1746 22.9156 24.2956 22.0218 34.0463C22.0015 34.3713 21.7171 34.6354 21.3921 34.6354Z" fill="#303030"/>
<path d="M20.0717 65.0047C19.9701 65.0047 19.8888 64.9844 19.7873 64.9438C19.4622 64.7813 19.3201 64.3953 19.4826 64.0703C19.5435 63.9281 21.1889 60.5357 22.6312 58.9512C22.875 58.6871 23.2813 58.6668 23.5453 58.9106C23.8094 59.1543 23.8297 59.5606 23.586 59.8247C22.2656 61.267 20.6608 64.5985 20.6405 64.6188C20.5389 64.8625 20.3154 65.0047 20.0717 65.0047Z" fill="#303030"/>
<path d="M34.8805 54.5023C34.6977 54.5023 34.4946 54.4211 34.3727 54.2586C34.1492 53.9742 34.1899 53.5679 34.4743 53.3444C36.3025 51.8615 38.1105 50.3177 38.923 48.9363C39.0855 48.6519 39.2074 48.4082 39.2683 48.1644C39.3699 47.8191 39.7153 47.6159 40.0809 47.7175C40.4262 47.8191 40.6294 48.1644 40.5278 48.5097C40.4262 48.8551 40.284 49.2207 40.0606 49.5864C39.2074 51.049 37.5417 52.5522 35.3071 54.3398C35.1649 54.4617 35.0227 54.5023 34.8805 54.5023Z" fill="#303030"/>
<path d="M15.0339 59.7433C15.0136 59.7433 14.9932 59.7433 14.9729 59.7433C14.6073 59.723 14.3432 59.398 14.3838 59.0527C14.5463 57.0416 15.0542 56.2087 16.3136 55.904C16.8012 55.7821 17.2684 55.9243 17.5731 56.3103C17.9591 56.7775 18.081 57.5494 17.8372 58.1182C17.695 58.4433 17.309 58.6058 16.984 58.4636C16.659 58.3214 16.4965 57.9354 16.6387 57.6104C16.6996 57.4885 16.659 57.2244 16.5777 57.1635C16.1918 57.2854 15.8261 57.3869 15.6839 59.1949C15.6636 59.4793 15.3792 59.7433 15.0339 59.7433Z" fill="#303030"/>
<path d="M21.9405 45.036C21.8796 45.036 21.8187 45.036 21.778 45.0157C21.4327 44.9142 21.2296 44.5688 21.3108 44.2235L22.489 39.8357C22.5297 39.6732 22.6312 39.5513 22.7734 39.4497C22.875 39.3888 25.3127 37.8246 27.0597 37.1542C27.3847 37.0324 27.7706 37.1949 27.8925 37.5199C28.0144 37.8449 27.8519 38.2309 27.5269 38.3528C26.1658 38.8809 24.297 39.9982 23.6875 40.4045L22.5906 44.5485C22.489 44.8329 22.2249 45.036 21.9405 45.036Z" fill="#303030"/>
<path d="M23.2813 44.1829C22.814 44.1829 22.3671 44.0814 21.9405 43.8782C21.6155 43.7157 21.4936 43.3297 21.6561 43.0047C21.8187 42.6797 22.2046 42.5578 22.5296 42.7203C22.7734 42.8422 23.0172 42.9032 23.3016 42.9032C24.2563 42.9032 25.0283 42.1312 25.0283 41.1765C25.0283 40.6077 24.7439 40.0592 24.2563 39.7342C23.9516 39.531 23.8704 39.1248 24.0735 38.8404C24.2766 38.5357 24.6829 38.4544 24.9673 38.6576C25.8002 39.2263 26.308 40.1608 26.308 41.1765C26.308 42.8219 24.947 44.1829 23.2813 44.1829Z" fill="#303030"/>
<path d="M35.6118 31.9946C35.3477 31.9946 35.104 31.8321 35.0024 31.5883C34.8805 31.2633 35.043 30.8773 35.368 30.7554C36.8916 30.1663 38.5776 29.2725 40.3246 28.1349C42.7826 26.5504 44.0624 23.6659 43.6155 20.8219C43.3717 19.2984 43.0873 17.8967 42.742 16.6576C41.1778 19.7859 37.5619 25.8395 32.7679 29.049C32.4631 29.2522 32.0569 29.1709 31.874 28.8662C31.6709 28.5615 31.7522 28.1552 32.0569 27.9724C37.2572 24.519 41.3606 16.9623 42.2544 14.6059C42.356 14.3418 42.5998 14.1996 42.8639 14.1996C43.1279 14.1996 43.3717 14.3824 43.4733 14.6465C44.0421 16.3122 44.5093 18.3436 44.8749 20.6594C45.4031 24.0315 43.8999 27.4036 41.0153 29.2725C39.187 30.471 37.4197 31.3851 35.8149 32.0149C35.7743 31.9946 35.6931 31.9946 35.6118 31.9946Z" fill="#303030"/>
<path d="M26.5721 26.4489C24.8657 26.4489 23.2813 25.8192 23.2 25.7989C22.875 25.6567 22.7125 25.291 22.8344 24.9457C22.9765 24.6206 23.3422 24.4581 23.6875 24.58C23.7078 24.58 25.4345 25.2707 27.0596 25.1285C27.405 25.0879 27.73 25.3519 27.7706 25.7176C27.8113 26.0832 27.5472 26.388 27.1815 26.4286C26.9784 26.4489 26.7752 26.4489 26.5721 26.4489Z" fill="#303030"/>
<path d="M29.7614 20.1922C29.2942 20.1922 27.6285 20.1109 26.1252 19.1155C25.8205 18.9124 25.7393 18.5061 25.9424 18.2217C26.1455 17.917 26.5518 17.8358 26.8362 18.0389C28.2176 18.953 29.802 18.8921 29.8224 18.8921C30.1677 18.8718 30.4927 19.1562 30.4927 19.5218C30.513 19.8875 30.2286 20.1922 29.8833 20.1922C29.8833 20.1922 29.8427 20.1922 29.7614 20.1922Z" fill="#303030"/>
<path d="M32.6054 15.6012C32.5851 15.6012 32.5648 15.6012 32.5444 15.6012C32.4632 15.6012 30.7771 15.3981 29.4364 14.1995C29.1723 13.9558 29.152 13.5495 29.3958 13.2854C29.6396 13.0213 30.0458 13.001 30.3099 13.2448C31.3256 14.1589 32.6866 14.3214 32.6866 14.3214C33.0523 14.3621 33.2961 14.6871 33.2554 15.0324C33.2148 15.3574 32.9304 15.6012 32.6054 15.6012Z" fill="#303030"/>
<path d="M35.8556 11.3963C35.7743 11.3963 35.6728 11.376 35.5915 11.3354C35.5509 11.3151 34.5555 10.8478 33.682 9.93372C33.4382 9.66964 33.4382 9.26336 33.7023 9.0196C33.9664 8.77583 34.3727 8.77583 34.6164 9.03991C35.3071 9.77121 36.1197 10.1369 36.1197 10.1369C36.4447 10.2791 36.5869 10.665 36.4447 10.99C36.3431 11.2541 36.0994 11.3963 35.8556 11.3963Z" fill="#303030"/>
<path d="M39.3902 8.14599C39.248 8.14599 39.1058 8.10536 38.9839 8.00379L37.7448 6.96778C37.4604 6.74433 37.44 6.31774 37.6635 6.05366C37.887 5.76926 38.2932 5.74895 38.5776 5.9724L39.8168 7.00841C40.1012 7.23186 40.1215 7.63814 39.898 7.92254C39.7558 8.06473 39.573 8.14599 39.3902 8.14599Z" fill="#303030"/>
</g>
<defs>
<clipPath id="clip0_533_1638">
<rect width="88" height="88" fill="white"/>
</clipPath>
</defs>
</svg>
