<svg width="88" height="88" viewBox="0 0 88 88" fill="none" xmlns="http://www.w3.org/2000/svg">
<path d="M17.8572 39.3485C17.8361 39.3274 17.8149 39.3062 17.7938 39.285C17.4552 40.3431 17.3917 41.4435 17.6245 42.5228C18.5133 42.2689 19.0846 41.8245 19.1693 41.2531C19.2328 40.6182 18.7249 39.8564 17.8572 39.3485Z" fill="white"/>
<path d="M11.3393 34.9257C11.3604 34.8199 11.3604 34.7141 11.3816 34.5871C11.4028 34.4601 11.4451 34.3755 11.5086 34.2908C13.2862 27.8788 17.7725 21.7419 22.0472 18.6946C22.2588 18.5253 22.5551 18.5253 22.7878 18.6734C23.0206 18.8215 23.1476 19.0755 23.1053 19.3506C22.7243 21.763 22.7455 24.5564 23.1053 27.0958C28.6285 18.3771 32.0567 14.1236 44.6057 16.2821C46.2563 16.5995 47.4414 17.3825 48.1186 18.6099C48.1186 18.6311 48.1397 18.6311 48.1397 18.6522C48.1609 18.6946 48.182 18.7369 48.2032 18.7792C49.875 22.1228 47.3356 27.5402 46.8065 28.5771C45.8542 30.4817 42.6588 32.8095 38.4053 33.5713C38.363 33.5713 38.3206 33.5925 38.2783 33.5925C37.9609 33.5925 37.6646 33.3597 37.6223 33.0423C37.5588 32.6825 37.8127 32.3228 38.1725 32.2593C42.4049 31.5186 44.9654 29.2543 45.6003 28.0058C45.8754 27.4344 48.2667 22.5248 47.0816 19.6468C34.9136 20.0701 32.9032 20.8107 29.7289 29.6564C29.6231 29.9315 29.3692 30.1008 29.0941 30.1008C29.0094 30.1008 28.9459 30.0796 28.8613 30.0585C28.5015 29.9315 28.3322 29.5506 28.4592 29.1908C31.7816 19.9219 34.321 18.7792 46.0659 18.3348C45.6215 18.0174 45.0501 17.7846 44.3518 17.6576C32.0356 15.5203 29.4538 19.541 23.338 29.2755C23.2534 29.4659 23.0841 29.6352 22.8725 29.6775C22.8725 29.6775 22.8725 29.6775 22.8513 29.6775C22.682 29.7199 22.4916 29.6987 22.3223 29.5929C22.1107 29.4659 22.0048 29.212 22.026 28.9792C21.497 26.4398 21.3277 23.4983 21.5604 20.8107C17.8571 23.985 14.0903 29.5929 12.6725 35.2431C11.5721 43.8772 11.17 49.2311 11.17 49.2946C11.17 49.3157 11.17 49.3581 11.1488 49.3792L8.84217 60.0025C8.84217 60.0236 8.82101 60.0448 8.82101 60.0871C8.52475 60.9336 8.60939 61.8436 9.03263 62.6477C9.45587 63.4519 10.1754 64.0021 11.0642 64.2348H11.0853C10.7467 63.0709 10.7467 61.5473 11.1065 59.6427C11.17 59.283 11.5297 59.029 11.8895 59.0925C12.2492 59.156 12.5032 59.5158 12.4397 59.8755C11.9953 62.2668 12.1434 63.9174 12.8629 64.7639L16.2911 65.8008C17.0953 66.0124 17.9629 65.8008 18.6613 65.2083C19.6982 64.3407 20.2696 62.8593 20.1426 61.2933C20.1214 60.9124 20.3965 60.595 20.7775 60.5738C21.1584 60.5527 21.4758 60.8278 21.497 61.2087C21.6239 63.0075 21.0102 64.785 19.8463 65.949L21.116 66.351C22.1953 66.6896 23.338 66.5203 24.2692 65.8855C25.2003 65.2294 25.7717 64.1925 25.814 63.0498C25.8563 61.9705 25.9409 60.9971 26.0891 60.0236C26.3219 58.4153 26.7451 56.7012 28.036 56.1087C29.2422 55.5585 30.8928 56.0664 33.5592 57.7593C33.5804 57.7805 33.6015 57.7805 33.6227 57.8016C36.4584 60.1294 38.0878 63.5788 38.0878 67.2398C38.0878 67.6631 38.0667 68.0651 38.0244 68.4249C38.0032 68.7211 37.9609 68.9963 37.9186 69.2714C38.109 68.8904 38.2783 68.4884 38.4264 68.0863C39.2094 66.1182 39.5903 64.0232 39.5903 61.8859C39.5903 57.1668 37.6011 52.6382 34.1517 49.4427C33.9401 49.2523 33.8766 48.956 33.9824 48.702C34.0883 48.4481 34.321 48.2788 34.5961 48.2577C36.8181 48.1942 38.9978 48.4904 41.0717 49.1676C41.9605 49.4639 42.8281 49.8236 43.6534 50.2469C43.6322 50.2045 43.6111 50.1622 43.5899 50.1199C42.9551 48.6386 42.0874 47.2419 41.0505 45.9722C40.331 45.1045 39.5057 44.3004 38.6381 43.602C37.2625 42.5016 35.7177 41.6128 34.0671 40.978C33.7073 40.851 33.538 40.4489 33.665 40.1103C33.792 39.7506 34.1941 39.5813 34.5327 39.7083C34.6173 39.7506 34.702 39.7929 34.8078 39.8141C35.6542 40.1527 36.4584 40.5336 37.2414 40.9991C37.2837 41.0203 37.3472 41.0626 37.3895 41.0838C37.7281 41.2742 38.0667 41.4859 38.3841 41.7186C38.765 41.9726 39.1248 42.2477 39.4845 42.544C40.4368 43.3058 41.3256 44.1734 42.0874 45.1045C43.2302 46.4589 44.1401 47.9614 44.8385 49.5697C45.1136 50.2045 45.3675 50.8817 45.5791 51.5801C45.6638 51.8552 45.558 52.1514 45.3252 52.3207C45.0924 52.49 44.7962 52.5112 44.5422 52.3419C43.336 51.5589 42.0239 50.924 40.6484 50.4585C39.2306 49.9929 37.7704 49.7178 36.2679 49.6332C39.2729 52.9767 40.9659 57.3572 40.9659 61.8859C40.9659 64.1925 40.5426 66.4568 39.6961 68.5942C39.1883 69.9274 38.4899 71.1971 37.6646 72.3821C36.8181 73.5884 35.8024 74.71 34.6596 75.7257C31.2949 79.0693 26.1737 80.3602 21.6874 80.1697C29.8982 83.873 40.4156 83.4075 47.9916 78.7307C48.0128 78.7095 48.0339 78.7095 48.0551 78.6884C53.7688 75.3448 58.4455 69.6099 60.5406 63.346C60.6464 63.0286 60.9638 62.8382 61.2812 62.9016C61.5987 62.944 61.8526 63.2402 61.8526 63.5577C61.9372 69.356 59.3767 75.239 55.1443 79.2809C64.0746 76.4452 71.1003 69.3348 73.8725 60.1294C76.941 49.9294 74.19 39.2639 66.5082 31.5821C66.2966 31.3705 66.2543 31.0319 66.4024 30.7568C66.5505 30.4817 66.868 30.3547 67.1642 30.4394C72.5817 31.963 77.1738 35.5394 79.946 40.2796C78.8667 28.9369 72.1796 18.6522 61.9584 12.9174C50.785 6.65346 37.4318 6.99205 26.2795 13.8273C26.0256 13.9755 25.687 13.9543 25.4754 13.7638C25.2426 13.5734 25.1791 13.2348 25.3061 12.9809C26.6393 10.124 28.6073 7.60574 31.041 5.61653C23.7401 4.24101 15.5928 8.21944 10.8314 15.6684C7.14923 21.4456 5.37163 30.0585 10.8314 37.5921C10.9584 36.7033 11.1277 35.8145 11.3393 34.9257ZM20.4812 41.4647C20.3119 42.5863 19.3808 43.4539 17.9206 43.856L17.8571 45.5701C17.836 45.9298 17.5397 46.2261 17.1799 46.2261H17.1588C16.7779 46.205 16.5028 45.9087 16.5028 45.5278L16.5662 43.8983C15.8891 41.9726 15.9737 39.8987 16.799 38.0576L17.4127 36.7033C17.5609 36.3647 17.9629 36.2166 18.3015 36.3647C18.6401 36.5128 18.7882 36.9149 18.6401 37.2535L18.2592 38.1211C18.3438 38.1211 18.4497 38.1635 18.5343 38.2058C19.9098 38.9888 20.6716 40.2373 20.4812 41.4647Z" fill="white"/>
<path d="M17.8572 39.3485C17.8361 39.3274 17.8149 39.3062 17.7937 39.285C17.4552 40.3431 17.3917 41.4435 17.6244 42.5228C18.5132 42.2689 19.0846 41.8245 19.1693 41.2531C19.2327 40.6182 18.7249 39.8564 17.8572 39.3485Z" fill="white"/>
<path d="M67.1856 30.4817C72.0952 31.8572 76.3275 34.9257 79.1421 39.0099C64.6885 5.63771 36.7972 10.2722 28.142 12.8327C27.5283 13.1713 26.9146 13.5099 26.3221 13.8697C26.0682 14.0178 25.7296 13.9966 25.5179 13.8062C25.2852 13.6157 25.2217 13.2771 25.3487 13.0232C26.6819 10.1663 28.6499 7.64809 31.0835 5.65887C15.5296 7.85971 7.80549 22.1651 11.5088 34.2697C13.2864 27.8576 17.7727 21.7207 22.0474 18.6734C22.259 18.5041 22.5553 18.5041 22.7881 18.6522C23.0209 18.8004 23.1478 19.0543 23.1055 19.3294C22.7246 21.7419 22.7457 24.5352 23.1055 27.0747C28.6287 18.356 32.057 14.1025 44.6059 16.261C46.2566 16.5784 47.4416 17.3614 48.1188 18.5888C48.1188 18.6099 48.14 18.6099 48.14 18.6311C48.1611 18.6734 48.1823 18.7157 48.2034 18.7581C49.8752 22.1016 47.3358 27.5191 46.8068 28.556C45.8545 30.4606 42.659 32.7884 38.4055 33.5502C38.3632 33.5502 38.3209 33.5713 38.2785 33.5713C37.9611 33.5713 37.6648 33.3386 37.6225 33.0211C37.559 32.6614 37.813 32.3016 38.1727 32.2381C42.4051 31.4975 44.9657 29.2332 45.6005 27.9846C45.8756 27.4133 48.2669 22.5037 47.0819 19.6257C34.9138 20.0489 32.9034 20.7896 29.7292 29.6352C29.6233 29.9103 29.3694 30.0796 29.0943 30.0796C29.0097 30.0796 28.9462 30.0585 28.8615 30.0373C28.5018 29.9103 28.3325 29.5294 28.4594 29.1697C31.7819 19.9008 34.3213 18.7581 46.0661 18.3137C45.6217 17.9962 45.0503 17.7635 44.352 17.6365C32.0358 15.4991 29.4541 19.5199 23.3383 29.2543C23.2536 29.4448 23.0843 29.6141 22.8727 29.6564C22.8727 29.6564 22.8727 29.6564 22.8516 29.6564C22.6823 29.6987 22.4918 29.6776 22.3225 29.5718C22.1109 29.4448 22.0051 29.1908 22.0262 28.9581C21.4972 26.4186 21.3279 23.4771 21.5607 20.7896C20.3333 21.8477 19.0848 23.202 17.8997 24.7469C13.6462 32.4709 14.7889 42.4805 13.2018 49.8448C12.3764 53.7174 11.7839 56.7224 11.9744 59.1349C12.2918 59.2407 12.4823 59.5581 12.4188 59.8967C12.3553 60.2353 12.313 60.5527 12.2706 60.849C12.8843 62.944 14.3868 64.5311 17.3283 65.8643C17.7939 65.7797 18.2383 65.5681 18.6615 65.2295C19.6984 64.3618 20.2698 62.8805 20.1428 61.3145C20.1217 60.9336 20.3968 60.6162 20.7777 60.595C21.1586 60.5739 21.476 60.849 21.4972 61.2299C21.6242 63.0286 21.0105 64.8062 19.8466 65.9701L21.1163 66.3722C22.1955 66.7108 23.3383 66.5415 24.2694 65.9067C25.2005 65.2506 25.7719 64.2137 25.8142 63.071C25.8565 61.9917 25.9412 61.0183 26.0893 60.0448C26.3221 58.4365 26.7453 56.7224 28.0362 56.1299C29.2424 55.5797 30.8931 56.0876 33.5595 57.7805C33.5806 57.8017 33.6018 57.8017 33.6229 57.8228C36.4586 60.1506 38.0881 63.6 38.0881 67.261C38.0881 67.6842 38.0669 68.0863 38.0246 68.4461C38.0034 68.7423 37.9611 69.0174 37.9188 69.2925C38.1092 68.9116 38.2785 68.5096 38.4267 68.1075C39.2097 66.1394 39.5906 64.0444 39.5906 61.9071C39.5906 57.188 37.6014 52.6593 34.152 49.4639C33.9404 49.2734 33.8769 48.9772 33.9827 48.7232C34.0885 48.4693 34.3213 48.3 34.5964 48.2788C36.8184 48.2153 38.998 48.5116 41.0719 49.1888C41.9607 49.4851 42.8283 49.8448 43.6536 50.268C43.6325 50.2257 43.6113 50.1834 43.5902 50.1411C42.9553 48.6597 42.0877 47.2631 41.0507 45.9934C40.3312 45.1257 39.5059 44.3216 38.6383 43.6232C37.2628 42.5228 35.718 41.634 34.0673 40.9992C33.7076 40.8722 33.5383 40.4701 33.6653 40.1315C33.7922 39.7718 34.1943 39.6025 34.5329 39.7294C36.3317 40.4066 37.9823 41.3589 39.4848 42.5651C40.437 43.327 41.3258 44.1946 42.0877 45.1257C43.2304 46.4801 44.1404 47.9826 44.8387 49.5909C45.1138 50.2257 45.3678 50.9029 45.5794 51.6012C45.664 51.8763 45.5582 52.1726 45.3254 52.3419C45.0927 52.5112 44.7964 52.5324 44.5424 52.3631C43.3362 51.5801 42.0242 50.9452 40.6487 50.4797C39.2308 50.0141 37.7707 49.739 36.2682 49.6544C39.2731 52.9979 40.9661 57.3784 40.9661 61.9071C40.9661 64.2137 40.5429 66.478 39.6964 68.6154C39.1885 69.9486 38.4902 71.2183 37.6648 72.4033C36.8184 73.6096 35.8026 74.7311 34.6599 75.7469C31.2951 79.0905 26.174 80.3814 21.6877 80.1909C29.8985 83.8942 40.4159 83.4287 47.9918 78.7519C48.013 78.7307 48.0342 78.7307 48.0553 78.7096C53.769 75.366 58.4458 69.6311 60.5408 63.3672C60.6466 63.0498 60.964 62.8593 61.2815 62.9228C61.5989 62.9652 61.8528 63.2614 61.8528 63.5788C61.9375 69.3772 59.3769 75.2602 55.1445 79.3021C64.0748 76.4664 71.1006 69.356 73.8728 60.1506C76.9412 49.9506 74.1902 39.285 66.5084 31.6033C66.2968 31.3917 66.2545 31.0531 66.4026 30.778C66.5719 30.524 66.8894 30.3971 67.1856 30.4817ZM20.4814 41.4647C20.3121 42.5863 19.381 43.4539 17.9208 43.856L17.8574 45.5701C17.8362 45.9299 17.5399 46.2261 17.1802 46.2261H17.159C16.7781 46.205 16.503 45.9087 16.503 45.5278L16.5665 43.8983C15.8893 41.9726 15.974 39.8987 16.7993 38.0577L17.413 36.7033C17.5611 36.3647 17.9632 36.2166 18.3018 36.3647C18.6404 36.5128 18.7885 36.9149 18.6404 37.2535L18.2594 38.1211C18.3441 38.1211 18.4499 38.1635 18.5345 38.2058C19.9101 38.9888 20.6719 40.2373 20.4814 41.4647Z" fill="#FBCA82"/>
<path d="M67.1856 30.4817C72.0952 31.8572 76.3275 34.9257 79.1421 39.0099C64.6885 5.63771 36.7972 10.2722 28.142 12.8327C27.5283 13.1713 26.9146 13.5099 26.3221 13.8697C26.0682 14.0178 25.7296 13.9966 25.5179 13.8062C25.2852 13.6157 25.2217 13.2771 25.3487 13.0232C26.6819 10.1663 28.6499 7.64809 31.0835 5.65887C15.5296 7.85971 7.80549 22.1651 11.5088 34.2697C13.2864 27.8576 17.7727 21.7207 22.0474 18.6734C22.259 18.5041 22.5553 18.5041 22.7881 18.6522C23.0209 18.8004 23.1478 19.0543 23.1055 19.3294C22.7246 21.7419 22.7457 24.5352 23.1055 27.0747C28.6287 18.356 32.057 14.1025 44.6059 16.261C46.2566 16.5784 47.4416 17.3614 48.1188 18.5888C48.1188 18.6099 48.14 18.6099 48.14 18.6311C48.1611 18.6734 48.1823 18.7157 48.2034 18.7581C49.8752 22.1016 47.3358 27.5191 46.8068 28.556C45.8545 30.4606 42.659 32.7884 38.4055 33.5502C38.3632 33.5502 38.3209 33.5713 38.2785 33.5713C39.7175 33.8888 43.442 36.0261 44.7541 38.7772C42.8918 38.1635 37.3051 37.9942 34.7868 39.8564C36.4798 40.5336 38.0458 41.4436 39.4636 42.5651C40.4159 43.327 41.3047 44.1946 42.0665 45.1257C43.2093 46.4801 44.1192 47.9826 44.8176 49.5909C45.0927 50.2257 45.3466 50.9029 45.5582 51.6012C45.6429 51.8763 45.5371 52.1726 45.3043 52.3419C45.0715 52.5112 44.7752 52.5324 44.5213 52.3631C43.3151 51.5801 42.003 50.9452 40.6275 50.4797C39.2097 50.0141 37.7495 49.739 36.247 49.6544C39.252 52.9979 40.9449 57.3784 40.9449 61.9071C40.9449 64.2137 40.5217 66.478 39.6752 68.6154C39.1673 69.9486 38.469 71.2183 37.6437 72.4033C36.7972 73.6096 35.7814 74.7311 34.6387 75.7469C31.274 79.0905 26.1528 80.3814 21.6665 80.1909C29.8773 83.8942 40.3947 83.4287 47.9707 78.7519C47.9918 78.7307 48.013 78.7307 48.0342 78.7096C53.7479 75.366 58.4246 69.6311 60.5196 63.3672C60.6255 63.0498 60.9429 62.8593 61.2603 62.9228C61.5777 62.9652 61.8317 63.2614 61.8317 63.5788C61.9163 69.3772 59.3557 75.2602 55.1234 79.3021C64.0537 76.4664 71.0794 69.356 73.8516 60.1506C76.9201 49.9506 74.169 39.285 66.4873 31.6033C66.2757 31.3917 66.2333 31.0531 66.3815 30.778C66.5719 30.524 66.8894 30.3971 67.1856 30.4817Z" fill="#F68362"/>
<path d="M73.8937 60.1505C76.9622 49.9505 74.2111 39.285 66.5294 31.6032C72.6451 47.1783 75.8194 62.1609 59.1016 74.202C58.0435 76.0854 56.7103 77.7995 55.1655 79.2808C64.0958 76.4452 71.1215 69.3348 73.8937 60.1505Z" fill="#E66754"/>
<path d="M47.9916 78.773C48.0127 78.7518 48.0339 78.7518 48.0551 78.7307C53.6206 75.4718 58.1916 69.9485 60.3713 63.8751C52.097 72.2763 40.987 82.307 23.7189 80.1908C23.0418 80.2332 22.3434 80.2332 21.6874 80.212C29.8982 83.8942 40.4156 83.4498 47.9916 78.773Z" fill="#E66754"/>
<path d="M48.9861 31.0743C51.4197 27.4344 50.5097 21.6149 48.2454 18.8639C49.8114 22.2286 47.3354 27.5402 46.8064 28.5772C45.8541 30.4817 42.6587 32.8095 38.4051 33.5714C38.3628 33.5714 38.3205 33.5925 38.2782 33.5925C39.7172 33.91 43.4416 36.0473 44.7537 38.7983C42.8914 38.1847 37.3047 38.0154 34.7865 39.8776C37.6221 38.1635 46.4255 40.7876 49.1342 43.6656C47.8645 38.1 41.3466 34.7564 41.3466 34.7564C41.3466 34.7564 46.1292 35.3701 48.9861 31.0743Z" fill="#E66754"/>
<path d="M47.4839 18.9908C38.8499 19.5622 35.3159 18.9908 33.0727 22.1016C30.8084 25.2124 29.3906 28.3232 28.9038 30.0373C31.3798 33.6983 37.6648 33.0211 37.6648 33.0211C37.6648 33.0211 43.696 32.2805 45.1138 29.868C46.5317 27.4556 48.9229 22.9481 48.0765 20.1124L47.4839 18.9908Z" fill="#ECA870"/>
<path d="M24.2694 65.8854C25.2005 65.2294 25.7718 64.1925 25.8142 63.0498C25.8565 61.9705 25.9411 60.9971 26.0893 60.0236C26.3221 58.4153 26.7453 56.7012 28.0362 56.1087C29.2424 55.5585 30.893 56.0664 33.5594 57.7593C33.5806 57.7805 33.6017 57.7805 33.6229 57.8016C36.4586 60.1294 38.088 63.5788 38.088 67.2398C38.088 67.663 38.0669 68.0651 38.0246 68.4249C38.0034 68.7211 37.9611 68.9962 37.9187 69.2713C38.0034 69.102 38.0669 68.9539 38.1304 68.7846C39.6963 63.5365 37.7918 59.1983 33.0515 54.8601C27.9515 50.2045 24.8407 54.2888 24.5656 57.9709C24.2905 61.4626 23.3806 63.6846 21.1162 63.8962C20.8411 64.6792 20.3967 65.3776 19.8465 65.9278L21.1162 66.3298C22.1955 66.7108 23.3382 66.5415 24.2694 65.8854Z" fill="#ECA870"/>
<path d="M33.5171 84C27.8669 84 22.1955 82.4975 17.6246 79.5137C17.3495 79.3232 17.2437 78.9635 17.3706 78.6672C17.4976 78.3709 17.8362 78.2017 18.1748 78.2863C22.7246 79.5349 29.708 78.7307 33.6864 74.7734C33.9404 74.5195 34.3848 74.5195 34.6387 74.7734C34.8927 75.0485 34.8927 75.4718 34.6387 75.7257C31.274 79.0693 26.1528 80.3602 21.6665 80.1697C29.8773 83.873 40.3947 83.4075 47.9707 78.7307C47.9918 78.7095 48.013 78.7095 48.0342 78.6884C53.7479 75.3448 58.4246 69.6099 60.5197 63.346C60.6255 63.0286 60.9429 62.8382 61.2603 62.9016C61.5777 62.944 61.8317 63.2402 61.8317 63.5577C61.9163 69.356 59.3558 75.239 55.1234 79.2809C64.0537 76.4452 71.0794 69.3348 73.8516 60.1294C76.9201 49.9294 74.169 39.2639 66.4873 31.5821C66.2757 31.3705 66.2333 31.0319 66.3815 30.7568C66.5296 30.4817 66.847 30.3547 67.1433 30.4394C72.5607 31.963 77.1529 35.5394 79.9251 40.2796C78.8458 28.9369 72.1587 18.6522 61.9375 12.9174C50.764 6.65345 37.4109 6.99204 26.2586 13.8273C26.0047 13.9755 25.6661 13.9543 25.4545 13.7638C25.2217 13.5734 25.1582 13.2348 25.2852 12.9808C26.6184 10.124 28.5864 7.60574 31.02 5.61652C23.7404 4.241 15.5931 8.21943 10.8316 15.6684C7.14948 21.4456 5.37188 30.0585 10.8316 37.5921C11.7416 30.0796 17.0321 22.2709 22.0474 18.6945C22.259 18.5252 22.5553 18.5252 22.7881 18.6734C23.0209 18.8215 23.1478 19.0755 23.1055 19.3506C22.6399 22.3344 22.7458 25.8684 23.4018 28.8311C23.4864 29.1908 23.2536 29.5506 22.8939 29.6352C22.5341 29.7199 22.1744 29.4871 22.0897 29.1273C21.5184 26.5456 21.3491 23.5406 21.5819 20.7896C16.9262 24.7892 12.2283 32.5132 12.059 39.3908C12.059 39.6659 11.8686 39.9199 11.6146 40.0045C11.3607 40.1103 11.0644 40.0257 10.874 39.8141C3.63661 31.434 5.52001 21.4667 9.6889 14.9489C15.064 6.52648 24.5657 2.29412 32.7976 4.64308C33.0516 4.70657 33.242 4.91818 33.2844 5.17213C33.3267 5.42607 33.2209 5.68001 33.0093 5.8493C30.8931 7.37296 29.0731 9.29869 27.6976 11.5207C38.8288 5.59536 51.7375 5.65885 62.657 11.7746C74.2749 18.2925 81.491 30.4817 81.491 43.602C81.491 43.9195 81.2583 44.2157 80.9408 44.258C80.6234 44.3215 80.306 44.1311 80.179 43.8348C78.2533 38.8195 74.296 34.7775 69.3441 32.6614C75.9466 40.4912 78.1475 50.7124 75.1848 60.5315C71.9682 71.1971 63.2495 79.1963 52.457 81.3759C52.1396 81.4394 51.8221 81.2701 51.6952 80.9739C51.5682 80.6776 51.674 80.339 51.9279 80.1485C56.0545 77.3129 58.996 72.7842 60.0753 67.8958C57.4935 72.8265 53.4304 77.1436 48.6902 79.9158C48.669 79.9158 48.669 79.9369 48.6479 79.9369C44.2462 82.6668 38.8922 84 33.5171 84Z" fill="#303030"/>
<path d="M34.1942 75.9374C34.0249 75.9374 33.8344 75.8739 33.7074 75.7257C33.4535 75.4718 33.4535 75.0486 33.7074 74.7946C34.4481 74.0328 35.0618 73.1863 35.5274 72.2552C36.1834 71.0067 36.5643 69.6946 36.6913 68.3191C36.7336 67.9805 36.7547 67.6419 36.7547 67.261C36.7547 64.0021 35.3157 60.9548 32.8186 58.8809C30.6813 57.5266 29.3269 57.0187 28.6286 57.3361C28.0784 57.59 27.6975 58.5 27.4435 60.2141C27.3166 61.1241 27.2319 62.0552 27.1896 63.0921C27.1261 64.6581 26.3643 66.0971 25.0734 66.9859C23.8037 67.8747 22.2165 68.1075 20.7352 67.6419L18.4709 66.9224C17.6668 67.261 16.7991 67.3457 15.9315 67.1129L10.7045 65.5257C9.49828 65.2295 8.46135 64.4042 7.84766 63.2826C7.25513 62.1822 7.12816 60.8701 7.53023 59.6639L9.81571 49.1465C9.85803 48.5751 10.3024 43.1153 11.3817 34.5871C11.424 34.2062 11.7626 33.9523 12.1435 33.9946C12.5244 34.0369 12.7784 34.3755 12.736 34.7564C11.5933 43.6867 11.1701 49.2311 11.1701 49.2946C11.1701 49.3158 11.1701 49.3581 11.1489 49.3792L8.84227 60.0025C8.84227 60.0237 8.8211 60.0448 8.8211 60.0871C8.52484 60.9336 8.60948 61.8436 9.03272 62.6477C9.45596 63.4519 10.1755 64.0021 11.0643 64.2349L16.2912 65.822C17.0954 66.0336 17.963 65.822 18.6614 65.2295C19.6983 64.3618 20.2697 62.8805 20.1427 61.3145C20.1215 60.9336 20.3966 60.6162 20.7775 60.595C21.1585 60.5739 21.4759 60.849 21.497 61.2299C21.624 63.0286 21.0103 64.8062 19.8464 65.9701L21.1161 66.3722C22.1954 66.7108 23.3381 66.5415 24.2693 65.9066C25.2004 65.2506 25.7717 64.2137 25.8141 63.071C25.8564 61.9917 25.941 61.0183 26.0892 60.0448C26.3219 58.4365 26.7452 56.7224 28.0361 56.1299C29.2423 55.5797 30.8929 56.0876 33.5593 57.7805C33.5805 57.8017 33.6016 57.8017 33.6228 57.8228C36.4585 60.1506 38.0879 63.6 38.0879 67.261C38.0879 67.6842 38.0668 68.0863 38.0244 68.4461C38.0033 68.7423 37.961 69.0174 37.9186 69.2925C38.1091 68.9116 38.2784 68.5096 38.4265 68.1075C39.2095 66.1394 39.5904 64.0444 39.5904 61.9071C39.5904 57.188 37.6012 52.6593 34.1518 49.4639C33.9402 49.2734 33.8767 48.9772 33.9825 48.7232C34.0883 48.4693 34.3211 48.3 34.5962 48.2788C36.8182 48.2153 38.9979 48.5116 41.0718 49.1888C41.9606 49.4851 42.8282 49.8448 43.6535 50.268C43.6323 50.2257 43.6112 50.1834 43.59 50.1411C42.9552 48.6597 42.0875 47.2631 41.0506 45.9934C40.3311 45.1257 39.5058 44.3216 38.6381 43.6232C37.2626 42.5228 35.7178 41.634 34.0672 40.9992C33.7074 40.8722 33.5381 40.4701 33.6651 40.1315C33.7921 39.7718 34.1942 39.6025 34.5327 39.7294C36.3315 40.4066 37.9821 41.3589 39.4846 42.5651C40.4369 43.327 41.3257 44.1946 42.0875 45.1257C43.2303 46.4801 44.1402 47.9826 44.8386 49.5909C45.1137 50.2257 45.3676 50.9029 45.5792 51.6012C45.6639 51.8763 45.5581 52.1726 45.3253 52.3419C45.0925 52.5112 44.7962 52.5324 44.5423 52.3631C43.3361 51.5801 42.024 50.9452 40.6485 50.4797C39.2307 50.0141 37.7705 49.739 36.268 49.6544C39.273 52.9979 40.9659 57.3784 40.9659 61.9071C40.9659 64.2137 40.5427 66.478 39.6962 68.6154C39.1883 69.9486 38.49 71.2183 37.6647 72.4033C36.8182 73.6307 35.8025 74.7523 34.6386 75.7681C34.5116 75.895 34.3423 75.9374 34.1942 75.9374Z" fill="#303030"/>
<path d="M38.2997 33.5714C37.9823 33.5714 37.686 33.3386 37.6437 33.0212C37.5802 32.6614 37.8342 32.3017 38.1939 32.2382C42.4263 31.4975 44.9869 29.2332 45.6217 27.9847C45.918 27.4133 48.4151 22.2286 47.0184 19.3929C46.5529 18.4407 45.6852 17.8693 44.3943 17.6365C32.0358 15.4992 29.4752 19.5622 23.3171 29.3602C23.1267 29.6776 22.7035 29.7623 22.386 29.5718C22.0686 29.3813 21.9839 28.9581 22.1744 28.6407C28.2902 18.9062 31.3586 14.0178 44.6483 16.3033C46.3836 16.6207 47.5898 17.4672 48.2458 18.8004C49.9176 22.144 47.3782 27.5614 46.8491 28.5983C45.8968 30.5029 42.7014 32.8307 38.4479 33.5925C38.3844 33.5714 38.3421 33.5714 38.2997 33.5714Z" fill="#303030"/>
<path d="M29.1157 30.0796C29.031 30.0796 28.9675 30.0584 28.8829 30.0372C28.5231 29.9103 28.3539 29.5294 28.4808 29.1696C31.9514 19.541 34.5331 18.6945 47.5053 18.2501C47.8862 18.2289 48.1825 18.5252 48.2037 18.9061C48.2248 19.287 47.9286 19.5833 47.5476 19.6044C34.9775 20.0277 32.9671 20.6837 29.7505 29.6352C29.6447 29.9103 29.3908 30.0796 29.1157 30.0796Z" fill="#303030"/>
<path d="M17.2012 46.2261H17.1801C16.7992 46.2049 16.5241 45.9086 16.5241 45.5277L16.5875 43.8983C15.9104 41.9725 15.995 39.8987 16.8203 38.0576L17.434 36.7032C17.5822 36.3646 17.9842 36.2165 18.3228 36.3646C18.6614 36.5128 18.8095 36.9148 18.6614 37.2534L18.0477 38.6078C17.3282 40.1738 17.2859 41.909 17.8784 43.5173C17.8996 43.602 17.9419 43.729 17.9419 43.8136L17.8784 45.5912C17.8573 45.9298 17.561 46.2261 17.2012 46.2261Z" fill="#303030"/>
<path d="M17.6665 43.8983C17.3703 43.8983 17.0952 43.6867 17.0105 43.3904C16.9259 43.0307 17.1375 42.6498 17.4972 42.5651C18.4707 42.3324 19.0632 41.8456 19.1479 41.2531C19.2325 40.5971 18.7458 39.8564 17.857 39.3485C17.5396 39.1581 17.4338 38.7348 17.6242 38.4174C17.8147 38.1 18.2379 37.9942 18.5553 38.1846C19.9309 38.9888 20.6715 40.2585 20.5022 41.4647C20.3329 42.6286 19.3595 43.4963 17.8358 43.8772C17.7724 43.8983 17.7089 43.8983 17.6665 43.8983Z" fill="#303030"/>
<path d="M12.482 66.076C12.3127 66.076 12.1435 66.0125 11.9953 65.8855C10.8103 64.7005 10.514 62.6689 11.0854 59.664C11.1488 59.3042 11.5086 59.0503 11.8683 59.1137C12.2281 59.1772 12.482 59.537 12.4186 59.8967C11.953 62.3938 12.1223 64.0868 12.9476 64.9121C13.2015 65.166 13.2015 65.6104 12.9476 65.8644C12.8206 66.0125 12.6513 66.076 12.482 66.076Z" fill="#303030"/>
</svg>
