<svg width="88" height="88" viewBox="0 0 88 88" fill="none" xmlns="http://www.w3.org/2000/svg">
<path d="M73.3003 37.6749C73.3003 38.9599 74.35 40.0095 75.6349 40.0095C76.9198 40.0095 77.9695 38.9599 77.9695 37.6749C77.9695 36.39 76.9198 35.3403 75.6349 35.3403C74.35 35.3403 73.3003 36.39 73.3003 37.6749Z" fill="white"/>
<path d="M44.0364 28.0469C44.6336 28.0469 45.1223 27.5583 45.1223 26.9611V21.6766C45.1223 21.0793 44.6336 20.5907 44.0364 20.5907C43.4392 20.5907 42.9506 21.0793 42.9506 21.6766V26.9611C42.9506 27.5583 43.4392 28.0469 44.0364 28.0469Z" fill="white"/>
<path d="M56.0895 74.7932H32.0015C30.5899 74.7932 29.3412 75.6437 28.8344 76.9649L28.2553 78.467H59.8357L59.2566 76.9649C58.7498 75.6437 57.5011 74.7932 56.0895 74.7932Z" fill="white"/>
<path d="M12.7595 39.9802C14.0322 39.7736 14.8965 38.5744 14.69 37.3017C14.4834 36.029 13.2842 35.1647 12.0115 35.3712C10.7388 35.5778 9.87448 36.777 10.081 38.0497C10.2876 39.3224 11.4868 40.1868 12.7595 39.9802Z" fill="white"/>
<path d="M46.3709 67.3731C46.3709 66.0882 45.3212 65.0385 44.0363 65.0385C42.7513 65.0385 41.7017 66.0882 41.7017 67.3731C41.7017 68.658 42.7513 69.7077 44.0363 69.7077C45.3212 69.6896 46.3709 68.658 46.3709 67.3731Z" fill="white"/>
<path d="M44.2175 29.1871C44.1632 29.1871 44.1089 29.2052 44.0365 29.2052C43.9822 29.2052 43.9279 29.1871 43.8555 29.1871C42.7515 45.8912 40.0912 66.5225 33.6846 73.6349H43.4393V70.8116C41.7924 70.5402 40.5255 69.1105 40.5255 67.3731C40.5255 65.6538 41.7924 64.2241 43.4393 63.9345V44.4796C43.4393 44.1538 43.6926 43.9005 44.0184 43.9005C44.3441 43.9005 44.5975 44.1538 44.5975 44.4796V63.9345C46.2444 64.206 47.5112 65.6357 47.5112 67.3731C47.5112 69.0924 46.2444 70.5221 44.5975 70.8116V73.6349H54.3521C47.9818 66.5225 45.3214 45.8912 44.2175 29.1871Z" fill="white"/>
<path d="M74.4766 34.3811C67.0023 26.6172 57.0124 22.0566 46.2624 21.4955C46.2624 21.5498 46.2805 21.6041 46.2805 21.6584V22.6538V25.9657V26.9429C46.2805 26.9972 46.2624 27.0515 46.2624 27.1239C55.7275 27.5221 64.903 30.4177 72.8478 35.5574C73.2641 35.0145 73.8251 34.5982 74.4766 34.3811Z" fill="white"/>
<path d="M15.1707 35.5936C23.1337 30.4539 32.3092 27.5221 41.8104 27.142C41.8104 27.0877 41.7923 27.0335 41.7923 26.9611V25.9657V22.6719V21.6766C41.7923 21.6223 41.8104 21.568 41.8104 21.5137C31.0604 22.0747 21.0705 26.6353 13.5781 34.4173C14.2296 34.6345 14.7726 35.0507 15.1707 35.5936Z" fill="white"/>
<path d="M12.4017 56.6592C11.5149 56.6592 10.7548 57.3108 10.6101 58.1975L10.5015 58.8671H14.2839L14.1753 58.1975C14.0486 57.2927 13.2885 56.6592 12.4017 56.6592Z" fill="white"/>
<path d="M5.19897 58.2338C5.12658 57.2927 4.34838 56.5688 3.3892 56.5507C3.3711 56.5507 3.35301 56.5507 3.31681 56.5507H3.29871C2.39383 56.5869 1.65183 57.3108 1.57944 58.2157L1.56134 58.8491H5.25326L5.19897 58.2338Z" fill="white"/>
<path d="M21.3782 56.6592C20.4914 56.6592 19.7313 57.3108 19.5865 58.1975L19.4779 58.8671H23.2603L23.1517 58.1975C23.0069 57.2927 22.2649 56.6592 21.3782 56.6592Z" fill="white"/>
<path d="M10.1577 66.4682C10.4835 67.4274 11.3883 68.0789 12.4018 68.0789C13.4153 68.0789 14.3202 67.4274 14.6459 66.4682L14.8993 65.7081H9.88623L10.1577 66.4682Z" fill="white"/>
<path d="M3.60634 62.8487C4.38454 63.9164 5.70567 64.5499 7.13538 64.5499H17.6682C19.0979 64.5499 20.4191 63.9164 21.1973 62.8487L23.2604 60.0255H1.54321L3.60634 62.8487Z" fill="white"/>
<path d="M75.6168 56.6592C74.73 56.6592 73.9699 57.3108 73.8251 58.1975L73.7166 58.8671H77.499L77.3904 58.1975C77.2637 57.2927 76.5217 56.6592 75.6168 56.6592Z" fill="white"/>
<path d="M66.6224 56.5507C66.6043 56.5507 66.5862 56.5507 66.55 56.5507H66.5319C65.627 56.5869 64.885 57.3108 64.8126 58.2157L64.7583 58.831H68.4502L68.3959 58.2157C68.3597 57.2927 67.5815 56.5688 66.6224 56.5507Z" fill="white"/>
<path d="M84.5932 56.6592C83.7064 56.6592 82.9463 57.3108 82.8015 58.1975L82.6929 58.8671H86.4753L86.3668 58.1975C86.2401 57.2927 85.4981 56.6592 84.5932 56.6592Z" fill="white"/>
<path d="M73.3725 66.4682C73.6983 67.4274 74.6032 68.0789 75.6167 68.0789C76.6301 68.0789 77.535 67.4274 77.8608 66.4682L78.1141 65.7081H73.1011L73.3725 66.4682Z" fill="white"/>
<path d="M66.8395 62.8487C67.6177 63.9164 68.9389 64.5499 70.3686 64.5499H80.8833C82.313 64.5499 83.6341 63.9164 84.4123 62.8487L86.4755 60.0255H64.7583L66.8395 62.8487Z" fill="white"/>
<path d="M55.8902 24.3369C52.2345 23.5044 48.6874 23.2872 46.2985 23.3415V25.9657C55.5102 26.3457 64.4323 29.0423 72.2686 33.8019C67.5632 29.368 61.971 26.1647 55.8902 24.3369Z" fill="#FBCA82"/>
<path d="M77.9513 38.073C77.9513 37.0053 77.0826 36.1366 76.0148 36.1366C74.9471 36.1366 74.0784 37.0053 74.0784 38.073C74.0784 39.1408 74.9471 40.0095 76.0148 40.0095C77.0826 39.9914 77.9513 39.1227 77.9513 38.073Z" fill="#F68362"/>
<path d="M45.1403 27.0697V22.3281C45.1403 21.7852 44.8145 21.3508 44.4163 21.3508C44.0182 21.3508 43.6924 21.7852 43.6924 22.3281V27.0516C43.6924 27.5945 44.0182 28.0289 44.4163 28.0289C44.8145 28.047 45.1403 27.6126 45.1403 27.0697Z" fill="#F68362"/>
<path d="M33.6481 75.7704C32.327 75.7704 31.1506 76.3857 30.662 77.3449L30.1191 78.4488H59.8354L59.2925 77.3449C58.8038 76.3857 57.6456 75.7704 56.3064 75.7704H33.6481Z" fill="#F68362"/>
<path d="M13.2415 39.936C14.2726 39.6925 14.911 38.6593 14.6676 37.6282C14.4241 36.5971 13.3909 35.9586 12.3598 36.2021C11.3287 36.4456 10.6902 37.4788 10.9337 38.5099C11.1772 39.541 12.2104 40.1795 13.2415 39.936Z" fill="#F68362"/>
<path d="M46.3709 67.3731C46.3709 66.0882 45.3212 65.0385 44.0363 65.0385C42.7514 65.0385 41.7017 66.0882 41.7017 67.3731C41.7017 68.658 42.7514 69.7077 44.0363 69.7077C45.3212 69.6896 46.3709 68.658 46.3709 67.3731Z" fill="#E66754"/>
<path d="M45.5384 66.9569C45.5384 65.9072 44.6878 65.0385 43.6201 65.0385C42.5704 65.0385 41.7017 65.8891 41.7017 66.9569C41.7017 68.0065 42.5523 68.8752 43.6201 68.8752C44.6697 68.8571 45.5384 68.0065 45.5384 66.9569Z" fill="#F68362"/>
<path d="M41.7919 23.5044C33.3946 23.9749 25.4678 26.961 18.9165 32.0646C25.9746 28.3908 33.7747 26.2914 41.7919 25.9657V23.5044Z" fill="#FBCA82"/>
<path d="M46.2985 24.7169V25.9657C55.5102 26.3457 64.4323 29.0423 72.2686 33.8019C70.8208 32.4265 69.2644 31.1778 67.6537 30.0376C61.0118 26.8343 53.7366 25.0246 46.2985 24.7169Z" fill="#ECA870"/>
<path d="M43.4573 73.6348V70.8116C41.8104 70.5401 40.5436 69.1104 40.5436 67.3731C40.5436 65.6538 41.8104 64.2241 43.4573 63.9345V44.4795C43.4573 44.1538 43.7107 43.9004 44.0364 43.9004C44.3622 43.9004 44.6155 44.1538 44.6155 44.4795V63.9345C46.2624 64.206 47.5293 65.6357 47.5293 67.3731C47.5293 69.0923 46.2624 70.522 44.6155 70.8116V73.6348H54.3702C48.4884 67.1016 45.7738 49.1487 44.507 33.3133C43.403 50.0174 41.8466 66.5225 35.4581 73.6348H43.4573Z" fill="#FBCA82"/>
<path d="M66.6407 57.7271C66.6224 57.7271 66.6041 57.7271 66.5858 57.7271C66.6041 57.7453 66.6224 57.7271 66.6407 57.7271Z" fill="#F68362"/>
<path d="M74.4764 34.3811C67.0021 26.6172 57.0122 22.0566 46.2622 21.4955C46.2622 21.5498 46.2803 21.6041 46.2803 21.6584V22.6538C56.053 23.1786 65.1742 27.1058 72.2504 33.8019C64.4322 29.0423 55.5101 26.3457 46.2984 25.9657V26.9429C46.2984 26.9972 46.2803 27.0515 46.2803 27.1239C55.7454 27.5221 64.9209 30.4177 72.8657 35.5574C73.2639 35.0145 73.8249 34.5982 74.4764 34.3811Z" fill="#FBCA82"/>
<path d="M12.4015 56.6592C11.5147 56.6592 10.7546 57.3108 10.6099 58.1975L10.5013 58.8671H14.2837L14.1751 58.1975C14.0484 57.2927 13.2883 56.6592 12.4015 56.6592Z" fill="#F68362"/>
<path d="M3.40712 56.5507C3.38902 56.5507 3.37092 56.5507 3.33473 56.5507H3.31663C2.41175 56.5869 1.66974 57.3108 1.59735 58.2157L1.56116 58.8491H5.25308L5.19878 58.2338C5.14449 57.2927 4.34819 56.5688 3.40712 56.5507Z" fill="#F68362"/>
<path d="M23.1518 58.1795C23.007 57.2928 22.265 56.6412 21.3601 56.6412C20.4733 56.6412 19.7132 57.2928 19.5684 58.1795L19.4598 58.8491H23.2422L23.1518 58.1795Z" fill="#F68362"/>
<path d="M9.88605 65.7081L10.1575 66.4682C10.4833 67.4274 11.3882 68.0789 12.4016 68.0789C13.4151 68.0789 14.32 67.4274 14.6457 66.4682L14.8991 65.7081H9.88605Z" fill="#E66754"/>
<path d="M21.1971 62.8487L23.2602 60.0255H4.94543L7.00857 62.8487C7.78676 63.9164 9.10789 64.5499 10.5376 64.5499H17.6681C19.0797 64.5499 20.4008 63.9164 21.1971 62.8487Z" fill="#FBCA82"/>
<path d="M19.6589 60.0255L17.5958 62.8487C16.8176 63.9164 15.4964 64.5499 14.0667 64.5499H17.6681C19.0979 64.5499 20.419 63.9164 21.1972 62.8487L23.2603 60.0255H19.6589Z" fill="#ECA870"/>
<path d="M84.4303 62.8487L86.4934 60.0255H68.1967L70.2598 62.8487C71.038 63.9164 72.3592 64.5499 73.7889 64.5499H80.9013C82.331 64.5499 83.6521 63.9164 84.4303 62.8487Z" fill="#FBCA82"/>
<path d="M82.9099 60.0255L80.8468 62.8487C80.0686 63.9164 78.7475 64.5499 77.3177 64.5499H80.9192C82.3489 64.5499 83.67 63.9164 84.4482 62.8487L86.5113 60.0255H82.9099Z" fill="#ECA870"/>
<path d="M3.40797 57.7271C3.38967 57.7271 3.37137 57.7271 3.33478 57.7271C3.37137 57.7453 3.38967 57.7271 3.40797 57.7271Z" fill="#F68362"/>
<path d="M75.6166 56.6592C74.7298 56.6592 73.9697 57.3108 73.825 58.1975L73.7164 58.8671H77.4988L77.3902 58.1975C77.2635 57.2927 76.5215 56.6592 75.6166 56.6592Z" fill="#F68362"/>
<path d="M66.6222 56.5507C66.6041 56.5507 66.586 56.5507 66.5498 56.5507H66.5317C65.6268 56.5869 64.8848 57.3108 64.8124 58.2157L64.7581 58.831H68.45L68.3957 58.2157C68.3595 57.2927 67.5813 56.5688 66.6222 56.5507Z" fill="#F68362"/>
<path d="M86.3847 58.1795C86.2399 57.2928 85.4979 56.6412 84.593 56.6412C83.7062 56.6412 82.9461 57.2928 82.8013 58.1795L82.6927 58.8491H86.4752L86.3847 58.1795Z" fill="#F68362"/>
<path d="M73.1192 65.7081L73.3907 66.4682C73.7164 67.4274 74.6213 68.0789 75.6348 68.0789C76.6482 68.0789 77.5531 67.4274 77.8789 66.4682L78.1323 65.7081H73.1192Z" fill="#E66754"/>
<path d="M66.6412 57.7271C66.6229 57.7271 66.6046 57.7271 66.568 57.7271C66.6046 57.7453 66.6229 57.7271 66.6412 57.7271Z" fill="#F68362"/>
<path d="M50.5878 71.3184C50.9497 71.9156 50.5516 72.6757 49.8639 72.73L44.6155 73.1462V73.6168H54.3702C48.5065 67.1016 45.7738 49.2392 44.507 33.44C44.507 33.5848 44.507 33.7296 44.507 33.9105C44.9232 48.2077 46.3529 64.3146 50.5878 71.3184Z" fill="#ECA870"/>
<path d="M43.4572 73.6349V73.2548L38.6432 73.6349H43.4572Z" fill="#ECA870"/>
<path d="M41.7921 25.9657V24.8074C37.1048 24.9884 30.3906 26.9792 25.8843 29.0242C30.9697 27.2325 36.3266 26.201 41.7921 25.9657Z" fill="#ECA870"/>
<path d="M21.3779 57.7452C21.1789 57.7452 20.9798 57.6366 20.8712 57.4375L12.4015 41.7831L3.91372 57.4375C3.76894 57.7271 3.40699 57.8176 3.13552 57.6728C2.84596 57.528 2.75547 57.1661 2.90025 56.8946L11.8767 40.2991C12.0758 39.919 12.6911 39.919 12.8901 40.2991L21.8666 56.8946C22.0114 57.1842 21.9209 57.528 21.6313 57.6728C21.5589 57.7271 21.4684 57.7452 21.3779 57.7452Z" fill="#303030"/>
<path d="M12.3838 57.8357C12.058 57.8357 11.8046 57.5823 11.8046 57.2565V40.5705C11.8046 40.2448 12.058 39.9914 12.3838 39.9914C12.7095 39.9914 12.9629 40.2448 12.9629 40.5705V57.2565C12.9629 57.5823 12.7095 57.8357 12.3838 57.8357Z" fill="#303030"/>
<path d="M12.4015 68.097C10.7728 68.097 9.43353 66.7759 9.43353 65.129C9.43353 64.8032 9.6869 64.5499 10.0127 64.5499C10.3384 64.5499 10.5918 64.8032 10.5918 65.129C10.5918 66.1244 11.4062 66.9388 12.4015 66.9388C13.3969 66.9388 14.2113 66.1244 14.2113 65.129C14.2113 64.8032 14.4647 64.5499 14.7904 64.5499C15.1162 64.5499 15.3696 64.8032 15.3696 65.129C15.3515 66.7578 14.0303 68.097 12.4015 68.097Z" fill="#303030"/>
<path d="M14.1751 60.0073C14.1389 60.0073 14.1027 60.0073 14.0665 59.9892C13.7588 59.9168 13.5417 59.6273 13.6141 59.3015C13.6322 59.2291 13.6322 59.1386 13.6322 59.0482C13.6322 58.3785 13.0892 57.8175 12.4015 57.8175C11.7319 57.8175 11.1709 58.3604 11.1709 59.0482C11.1709 59.1205 11.1709 59.211 11.189 59.2834C11.2433 59.5911 11.0442 59.8987 10.7365 59.9711C10.4108 60.0254 10.1212 59.8264 10.0488 59.5187C10.0126 59.3739 10.0126 59.211 10.0126 59.0663C10.0126 57.7451 11.0804 56.6774 12.4015 56.6774C13.7227 56.6774 14.7904 57.7451 14.7904 59.0663C14.7904 59.2291 14.7723 59.392 14.7361 59.5368C14.6818 59.8083 14.4466 60.0073 14.1751 60.0073Z" fill="#303030"/>
<path d="M5.14436 60.0254C5.09007 60.0254 5.03577 60.0254 4.98148 60.0073C4.67382 59.9169 4.49284 59.6092 4.58333 59.3015C4.61953 59.1929 4.61953 59.0844 4.61953 58.9758C4.61953 58.3062 4.0766 57.7451 3.38889 57.7451C2.70118 57.7451 2.15825 58.2881 2.15825 58.9758C2.15825 59.0844 2.17635 59.1929 2.19444 59.3015C2.28493 59.6092 2.10396 59.9349 1.7963 60.0073C1.48864 60.0978 1.16288 59.9168 1.09049 59.6092C1.0362 59.392 1 59.1929 1 58.9577C1 57.6365 2.06776 56.5688 3.38889 56.5688C4.71002 56.5688 5.77778 57.6365 5.77778 58.9577C5.77778 59.1748 5.74158 59.392 5.68729 59.6092C5.633 59.8626 5.39773 60.0254 5.14436 60.0254Z" fill="#303030"/>
<path d="M19.6046 60.0254C19.3331 60.0254 19.0978 59.8445 19.0435 59.573C19.0074 59.4101 18.9893 59.2291 18.9893 59.0663C18.9893 57.7451 20.057 56.6774 21.3781 56.6774C22.6993 56.6774 23.767 57.7451 23.767 59.0663C23.767 59.2472 23.7489 59.4101 23.7127 59.573C23.6404 59.8807 23.3327 60.0797 23.025 60.0073C22.7174 59.9349 22.5183 59.6273 22.5907 59.3196C22.6088 59.2291 22.6269 59.1386 22.6269 59.0482C22.6269 58.3785 22.084 57.8175 21.3962 57.8175C20.7266 57.8175 20.1656 58.3604 20.1656 59.0482C20.1656 59.1386 20.1837 59.2291 20.2018 59.3196C20.2742 59.6273 20.0751 59.9349 19.7675 60.0073C19.677 60.0254 19.6408 60.0254 19.6046 60.0254Z" fill="#303030"/>
<path d="M17.089 65.7081H7.71439C6.0494 65.7081 4.5111 64.8756 3.60622 63.4821L1.18114 59.7721C1.07255 59.5911 1.05446 59.3739 1.16304 59.1748C1.27163 58.9939 1.4526 58.8672 1.66978 58.8672H23.1517C23.3688 58.8672 23.5679 58.9758 23.6584 59.1748C23.767 59.3558 23.7489 59.5911 23.6403 59.7721L21.2152 63.4821C20.2922 64.8756 18.7539 65.7081 17.089 65.7081ZM2.73754 60.0254L4.5835 62.8487C5.27121 63.9164 6.44755 64.5499 7.73248 64.5499H17.1071C18.3739 64.5499 19.5502 63.9164 20.2561 62.8487L22.102 60.0254H2.73754Z" fill="#303030"/>
<path d="M84.6112 57.7452C84.4121 57.7452 84.213 57.6366 84.1045 57.4375L75.6348 41.7831L67.1651 57.4375C67.0203 57.7271 66.6583 57.8176 66.3869 57.6728C66.0973 57.528 66.0068 57.1661 66.1516 56.8946L75.128 40.2991C75.3271 39.919 75.9424 39.919 76.1415 40.2991L85.1179 56.8946C85.2627 57.1842 85.1722 57.528 84.8827 57.6728C84.7922 57.7271 84.7017 57.7452 84.6112 57.7452Z" fill="#303030"/>
<path d="M75.6348 57.8357C75.3091 57.8357 75.0557 57.5823 75.0557 57.2565V40.5705C75.0557 40.2448 75.3091 39.9914 75.6348 39.9914C75.9606 39.9914 76.214 40.2448 76.214 40.5705V57.2565C76.214 57.5823 75.9425 57.8357 75.6348 57.8357Z" fill="#303030"/>
<path d="M75.6348 68.097C74.006 68.097 72.6668 66.7759 72.6668 65.129C72.6668 64.8032 72.9202 64.5499 73.2459 64.5499C73.5717 64.5499 73.8251 64.8032 73.8251 65.129C73.8251 66.1244 74.6395 66.9388 75.6348 66.9388C76.6302 66.9388 77.4446 66.1244 77.4446 65.129C77.4446 64.8032 77.698 64.5499 78.0237 64.5499C78.3495 64.5499 78.6028 64.8032 78.6028 65.129C78.6028 66.7578 77.2636 68.097 75.6348 68.097Z" fill="#303030"/>
<path d="M73.8433 59.9349C73.5718 59.9349 73.3185 59.7359 73.2642 59.4463C73.2461 59.3196 73.228 59.1929 73.228 59.0663C73.228 57.7451 74.2957 56.6774 75.6169 56.6774C76.938 56.6774 78.0057 57.7451 78.0057 59.0663C78.0057 59.1929 77.9876 59.3196 77.9696 59.4463C77.9153 59.754 77.6257 59.9892 77.2999 59.9349C76.9923 59.8807 76.7751 59.5911 76.8113 59.2653C76.8294 59.211 76.8294 59.1386 76.8294 59.0663C76.8294 58.3966 76.2684 57.8356 75.5988 57.8356C74.9291 57.8356 74.3681 58.3785 74.3681 59.0663C74.3681 59.1386 74.3681 59.1929 74.3862 59.2653C74.4405 59.573 74.2233 59.8807 73.8976 59.9349C73.9157 59.9168 73.8795 59.9349 73.8433 59.9349Z" fill="#303030"/>
<path d="M68.3957 60.0254C68.3414 60.0254 68.2871 60.0254 68.2328 60.0073C67.9252 59.9169 67.7442 59.6092 67.8347 59.3015C67.8709 59.1929 67.8709 59.0844 67.8709 58.9758C67.8709 58.3062 67.3279 57.7451 66.6402 57.7451C65.9706 57.7451 65.4096 58.2881 65.4096 58.9758C65.4096 59.0844 65.4277 59.1929 65.4458 59.3015C65.5363 59.6092 65.3553 59.9349 65.0476 60.0073C64.74 60.0978 64.4142 59.9168 64.3418 59.6092C64.2875 59.4101 64.2513 59.1929 64.2513 58.9577C64.2513 57.6365 65.3191 56.5688 66.6402 56.5688C67.9614 56.5688 69.0291 57.6365 69.0291 58.9577C69.0291 59.1748 68.9929 59.392 68.9386 59.6092C68.8662 59.8626 68.6491 60.0254 68.3957 60.0254Z" fill="#303030"/>
<path d="M82.8376 60.0254C82.5661 60.0254 82.3309 59.8445 82.2766 59.573C82.2404 59.4101 82.2223 59.2291 82.2223 59.0663C82.2223 57.7451 83.29 56.6774 84.6112 56.6774C85.9323 56.6774 87.0001 57.7451 87.0001 59.0663C87.0001 59.2291 86.982 59.4101 86.9458 59.573C86.8734 59.8807 86.5657 60.0797 86.2581 60.0073C85.9504 59.9349 85.7513 59.6273 85.8237 59.3196C85.8418 59.2291 85.8599 59.1386 85.8599 59.0482C85.8599 58.3785 85.317 57.8175 84.6293 57.8175C83.9597 57.8175 83.3986 58.3604 83.3986 59.0482C83.3986 59.1386 83.4167 59.2291 83.4348 59.3196C83.5072 59.6273 83.3081 59.9349 83.0005 60.0073C82.9281 60.0254 82.8738 60.0254 82.8376 60.0254Z" fill="#303030"/>
<path d="M80.3219 65.7081H70.9474C69.2824 65.7081 67.7441 64.8756 66.8392 63.4821L64.4141 59.7721C64.3055 59.5911 64.2874 59.3739 64.396 59.1748C64.5046 58.9939 64.6856 58.8672 64.9027 58.8672H86.3846C86.6018 58.8672 86.8009 58.9758 86.8914 59.1748C87 59.3558 86.9819 59.5911 86.8733 59.7721L84.4482 63.4821C83.5252 64.8756 81.9869 65.7081 80.3219 65.7081ZM65.9705 60.0254L67.8165 62.8487C68.5223 63.9164 69.6805 64.5499 70.9655 64.5499H80.34C81.6069 64.5499 82.7832 63.9164 83.489 62.8487L85.335 60.0254H65.9705Z" fill="#303030"/>
<path d="M74.3136 35.6117C74.1688 35.6117 74.0059 35.5574 73.8973 35.4308C66.4954 27.6126 56.5055 23.0701 45.7736 22.6357C45.4479 22.6176 45.2126 22.3462 45.2126 22.0385C45.2307 21.7127 45.5202 21.4594 45.8098 21.4775C56.8494 21.9299 67.1107 26.6172 74.7298 34.6345C74.947 34.8697 74.947 35.2317 74.7117 35.4489C74.6032 35.5574 74.4584 35.6117 74.3136 35.6117Z" fill="#303030"/>
<path d="M73.6982 35.9917C73.5897 35.9917 73.4811 35.9555 73.3725 35.9012C65.1742 30.4719 55.6368 27.4315 45.7917 27.1239C45.4659 27.1058 45.2126 26.8524 45.2306 26.5267C45.2487 26.219 45.5021 25.9656 45.8098 25.9656H45.8279C55.8902 26.2914 65.6267 29.4042 74.0059 34.9421C74.2774 35.123 74.3498 35.485 74.1688 35.7384C74.0783 35.9012 73.8792 35.9917 73.6982 35.9917Z" fill="#303030"/>
<path d="M14.3742 35.9917C14.1932 35.9917 13.9941 35.9012 13.8855 35.7384C13.7046 35.4669 13.7769 35.1049 14.0484 34.9421C22.4276 29.3861 32.2003 26.2914 42.2626 25.9656H42.2807C42.5884 25.9656 42.8418 26.219 42.8599 26.5267C42.8779 26.8524 42.6246 27.1058 42.2988 27.1239C32.4356 27.4315 22.8801 30.472 14.6818 35.9193C14.5913 35.9555 14.4828 35.9917 14.3742 35.9917Z" fill="#303030"/>
<path d="M13.7951 35.5937C13.6503 35.5937 13.5056 35.5394 13.397 35.4308C13.1617 35.2136 13.1617 34.8516 13.3789 34.6164C20.9799 26.5991 31.2413 21.9299 42.2627 21.4775C42.5885 21.4413 42.8599 21.7128 42.8599 22.0385C42.878 22.3643 42.6247 22.6357 42.2989 22.6357C31.5851 23.0882 21.6133 27.6126 14.2114 35.4127C14.0847 35.5394 13.9399 35.5937 13.7951 35.5937Z" fill="#303030"/>
<path d="M75.6349 41.1496C73.7165 41.1496 72.142 39.5932 72.142 37.6568C72.142 35.7384 73.6984 34.1639 75.6349 34.1639C77.5532 34.1639 79.1277 35.7203 79.1277 37.6568C79.1096 39.5932 77.5532 41.1496 75.6349 41.1496ZM75.6349 35.3403C74.3499 35.3403 73.3003 36.3899 73.3003 37.6749C73.3003 38.9598 74.3499 40.0095 75.6349 40.0095C76.9198 40.0095 77.9695 38.9598 77.9695 37.6749C77.9514 36.3899 76.9017 35.3403 75.6349 35.3403Z" fill="#303030"/>
<path d="M12.3836 41.1496C10.4652 41.1496 8.89075 39.5932 8.89075 37.6568C8.89075 35.7384 10.4471 34.1639 12.3836 34.1639C14.3019 34.1639 15.8764 35.7203 15.8764 37.6568C15.8764 39.5932 14.3019 41.1496 12.3836 41.1496ZM12.3836 35.3403C11.0987 35.3403 10.049 36.3899 10.049 37.6749C10.049 38.9598 11.0987 40.0095 12.3836 40.0095C13.6685 40.0095 14.7182 38.9598 14.7182 37.6749C14.7182 36.3899 13.6685 35.3403 12.3836 35.3403Z" fill="#303030"/>
<path d="M44.3078 20.464C44.1992 20.464 44.0906 20.4278 44.0001 20.3735C43.9277 20.4097 43.8372 20.4278 43.7468 20.4097C43.421 20.3916 43.1857 20.1202 43.1857 19.8125C43.4029 14.4737 43.4391 10.456 43.4391 8.97201C43.4391 8.64625 43.6925 8.39288 44.0182 8.39288C44.344 8.39288 44.5973 8.64625 44.5973 8.97201C44.5973 10.456 44.6516 14.5099 44.8507 19.8487C44.8688 20.1744 44.6154 20.4459 44.2897 20.4459C44.3259 20.464 44.3078 20.464 44.3078 20.464Z" fill="#303030"/>
<path d="M55.8001 74.7931C55.6734 74.7931 55.5467 74.7569 55.4381 74.6664C48.2171 68.6761 45.3396 46.3798 44.1995 28.7165C44.1814 28.3908 44.4166 28.1193 44.7424 28.1012C45.0682 28.1012 45.3396 28.3184 45.3577 28.6441C46.4798 46.0722 49.2849 68.0608 56.1801 73.7796C56.4335 73.9787 56.4516 74.3407 56.2525 74.594C56.1258 74.7207 55.9629 74.7931 55.8001 74.7931Z" fill="#303030"/>
<path d="M32.291 74.7931C32.1281 74.7931 31.9652 74.7208 31.8385 74.576C31.6394 74.3226 31.6756 73.9607 31.9109 73.7616C38.8242 68.0427 41.6112 46.0179 42.7333 28.5537C42.7514 28.2279 43.0409 27.9926 43.3486 28.0107C43.6744 28.0288 43.9096 28.3003 43.8915 28.6261C42.7514 46.3075 39.8739 68.658 32.6348 74.6484C32.5443 74.7389 32.4176 74.7931 32.291 74.7931Z" fill="#303030"/>
<path d="M60.6861 79.6071H27.4046C27.2055 79.6071 27.0426 79.5166 26.934 79.3537C26.8254 79.1909 26.8073 78.9918 26.8797 78.8108L27.7665 76.5305C28.4542 74.775 30.1192 73.6349 32.0195 73.6349H56.1074C58.0077 73.6349 59.6727 74.775 60.3604 76.5305L61.2472 78.8108C61.3195 78.9918 61.3015 79.1909 61.1929 79.3537C61.0481 79.5166 60.8852 79.6071 60.6861 79.6071ZM28.2552 78.4489H59.8355L59.2564 76.9468C58.7497 75.6256 57.5009 74.775 56.0893 74.775H32.0014C30.5898 74.775 29.341 75.6256 28.8343 76.9468L28.2552 78.4489Z" fill="#303030"/>
<path d="M44.0365 74.7932C43.7108 74.7932 43.4574 74.5398 43.4574 74.214V70.3412C43.4574 70.0154 43.7108 69.762 44.0365 69.762C44.3623 69.762 44.6156 70.0154 44.6156 70.3412V74.214C44.6156 74.5398 44.3623 74.7932 44.0365 74.7932Z" fill="#303030"/>
<path d="M44.0365 64.948C43.7108 64.948 43.4574 64.6946 43.4574 64.3689V44.4796C43.4574 44.1538 43.7108 43.9005 44.0365 43.9005C44.3623 43.9005 44.6156 44.1538 44.6156 44.4796V64.3689C44.6156 64.6765 44.3623 64.948 44.0365 64.948Z" fill="#303030"/>
<path d="M44.0363 70.8478C42.118 70.8478 40.5435 69.2914 40.5435 67.355C40.5435 65.4366 42.0999 63.8621 44.0363 63.8621C45.9547 63.8621 47.5291 65.4185 47.5291 67.355C47.5291 69.2914 45.9547 70.8478 44.0363 70.8478ZM44.0363 65.0385C42.7514 65.0385 41.7017 66.0881 41.7017 67.3731C41.7017 68.658 42.7514 69.7077 44.0363 69.7077C45.3212 69.7077 46.3709 68.658 46.3709 67.3731C46.3709 66.0881 45.3212 65.0385 44.0363 65.0385Z" fill="#303030"/>
<path d="M44.0365 29.2052C42.7877 29.2052 41.7924 28.1917 41.7924 26.9611V21.6765C41.7924 20.4278 42.8058 19.4324 44.0365 19.4324C45.2852 19.4324 46.2806 20.4459 46.2806 21.6765V26.9611C46.2987 28.1917 45.2852 29.2052 44.0365 29.2052ZM44.0365 20.5726C43.4392 20.5726 42.9506 21.0612 42.9506 21.6584V26.943C42.9506 27.5402 43.4392 28.0288 44.0365 28.0288C44.6337 28.0288 45.1223 27.5402 45.1223 26.943V21.6765C45.1404 21.0612 44.6518 20.5726 44.0365 20.5726Z" fill="#303030"/>
</svg>
