<svg width="88" height="88" viewBox="0 0 88 88" fill="none" xmlns="http://www.w3.org/2000/svg">
<g clip-path="url(#clip0_533_2165)">
<path d="M41.3578 3.74095C42.7621 4.49713 45.0954 6.26873 47.1695 8.77489C48.2065 8.86131 49.2219 8.99094 50.2374 9.18538C47.0182 5.96626 44.6201 3.71935 43.1294 2.35824C41.7034 1.06195 39.4997 1.01874 38.0306 2.27182C35.222 4.64836 31.2899 8.60205 27.401 14.5866C27.9843 14.1545 28.5677 13.7224 29.1942 13.3335C29.5615 13.0959 29.9072 12.8798 30.2745 12.6638C30.3177 12.6206 30.3609 12.599 30.4257 12.5774C32.3269 11.4755 34.3362 10.6113 36.3886 9.98477C35.8701 9.7039 35.3732 9.46625 34.9843 9.29341L34.6818 9.14218C34.3362 8.99094 34.1849 8.58045 34.3362 8.23477C34.4874 7.88909 34.8979 7.73786 35.2436 7.88909L35.546 8.01872C36.1942 8.32119 37.1664 8.77489 38.225 9.46625C39.1541 9.2502 40.0615 9.07736 41.0121 8.94773C39.8454 8.08354 38.3979 7.32736 37.5337 6.98169C37.188 6.85206 37.0152 6.44156 37.1448 6.09589C37.296 5.75021 37.6849 5.55576 38.0522 5.707C39.2189 6.1607 41.509 7.39218 42.9349 8.75329C43.7127 8.68847 44.5121 8.66687 45.2898 8.68847C43.5831 6.85206 41.8331 5.55576 40.7312 4.95083C40.3855 4.77799 40.2775 4.34589 40.4503 4.02182C40.6016 3.67614 41.0337 3.56812 41.3578 3.74095Z" fill="white"/>
<path d="M18.1973 35.0248C18.5646 35.1544 18.7591 35.5433 18.6294 35.9106C17.9165 38.0063 17.614 40.8149 17.8949 42.6081C17.9597 42.6081 18.0029 42.5865 18.0677 42.5865C19.1263 42.5217 20.1418 42.9322 20.8763 43.6884C21.1356 43.9476 21.3732 44.2285 21.5893 44.5093L21.6109 44.531C20.2498 42.0032 19.6881 39.4322 19.5584 37.8983C19.5368 37.5094 19.8177 37.1853 20.185 37.1637C20.5739 37.1205 20.8979 37.4229 20.9195 37.7902C21.0924 40.1019 22.3887 44.8766 26.0615 48.0093C26.1047 48.0525 26.1263 48.0958 26.1695 48.139C28.1572 49.1112 30.3177 49.5865 32.3053 49.6513C26.4504 46.7346 22.8424 38.6328 21.0708 33.5341C21.006 33.3612 21.0276 33.1884 21.0924 33.0155C22.4535 30.0773 24.9596 27.5495 27.9411 25.7995C27.6603 25.5619 27.4442 25.281 27.3146 24.9353C27.0769 24.3736 27.0985 23.7687 27.3362 23.2069C27.401 23.0557 27.4874 22.9261 27.5738 22.7964C27.2498 22.5588 26.9905 22.2347 26.8393 21.8458C26.364 20.6792 26.9257 19.3613 28.0924 18.9076C28.4596 18.7563 28.8485 18.7131 29.2374 18.7563C29.6263 18.7995 29.8856 19.1452 29.8424 19.5341C29.7991 19.923 29.4535 20.1823 29.0646 20.139C28.9133 20.1174 28.7621 20.139 28.6109 20.2039C28.1572 20.3767 27.9411 20.8952 28.114 21.3489C28.2652 21.7162 28.6541 21.9322 29.043 21.889C29.0646 21.889 29.0646 21.889 29.0862 21.8674C29.1726 21.8458 29.259 21.8674 29.3454 21.889C29.6263 21.9322 29.864 22.1483 29.9072 22.4292C29.972 22.7964 29.7343 23.1637 29.367 23.2285C29.3238 23.2285 29.3022 23.2285 29.259 23.2285C29.1942 23.2285 29.151 23.2501 29.0862 23.2717C28.8701 23.3582 28.6973 23.531 28.6109 23.7471C28.5245 23.9631 28.5245 24.2008 28.6109 24.4168C28.7621 24.7841 29.1294 25.0001 29.5183 24.9569C31.7436 23.8983 34.1417 23.315 36.4534 23.2934C36.2158 22.9477 36.043 22.5588 35.9997 22.1267C35.8485 21.1113 36.3022 20.1606 37.08 19.5773C36.7127 19.1884 36.4534 18.6699 36.367 18.1082C36.151 16.6174 37.2096 15.2563 38.6787 15.0403C39.1541 14.9755 39.6078 15.0403 40.0615 15.2131C40.4071 15.3644 40.58 15.7532 40.4503 16.1205C40.3207 16.4662 39.9102 16.6607 39.5429 16.5094C39.3269 16.423 39.0892 16.4014 38.8732 16.423C38.1386 16.531 37.6417 17.2008 37.7281 17.9353C37.8146 18.5187 38.2467 18.9724 38.8084 19.0588C38.8516 19.0588 38.8948 19.0588 38.9596 19.0588C39.046 19.0588 39.1325 19.102 39.1973 19.1452C39.4565 19.2532 39.6294 19.5125 39.6078 19.815C39.5862 20.1823 39.2837 20.4631 38.9164 20.4631C38.8948 20.4631 38.8948 20.4631 38.8732 20.4631C38.83 20.4631 38.7868 20.4415 38.722 20.4415C38.6355 20.4415 38.5491 20.4415 38.4627 20.4415C37.7281 20.5495 37.2312 21.2193 37.3176 21.9538C37.4041 22.5588 37.8794 23.0125 38.4627 23.0989C38.5059 23.0989 38.5275 23.1205 38.5707 23.1421C38.6355 23.0989 38.7004 23.0773 38.7652 23.0341C39.7158 22.5156 40.688 21.9971 41.725 21.3489C42.0491 21.1545 42.4812 21.2625 42.6756 21.5866C42.8701 21.9106 42.7621 22.3427 42.438 22.5372C41.3578 23.1853 40.3207 23.7471 39.4133 24.244C36.4534 25.8427 34.3362 27.0094 33.2127 29.7532C35.8701 28.2625 39.0676 25.6699 40.472 24.5032C40.7744 24.2656 41.2065 24.2872 41.4442 24.5896C41.6818 24.8921 41.6602 25.3242 41.3578 25.5619C39.7158 26.9446 35.6541 30.2285 32.6726 31.5896C32.5862 32.0433 32.4998 32.5402 32.4349 33.0588C34.3362 32.0433 38.5059 29.5372 42.3084 25.2162C42.3084 25.2162 42.3084 25.1946 42.33 25.1946C43.1077 24.3304 43.8639 23.3798 44.5985 22.3427C44.8145 22.0403 45.2466 21.9538 45.5707 22.1699C45.8732 22.3859 45.9596 22.818 45.7435 23.1421C45.1818 23.9415 44.5769 24.6977 43.9935 25.4322C46.3269 26.3396 49.33 27.139 51.4904 27.5063C51.3392 27.2903 51.2096 27.0742 51.1232 26.923C50.4534 25.7563 50.3238 24.0279 50.7775 22.2995C51.188 20.7656 52.225 18.7563 53.1756 17.6329C53.4133 17.352 53.867 17.3088 54.1478 17.5465C54.4287 17.7841 54.4719 18.2378 54.2343 18.5187C53.4133 19.4909 52.4843 21.3057 52.117 22.6452C51.7497 24.0063 51.8361 25.3674 52.3114 26.21C52.7219 26.9014 53.262 27.6791 53.975 27.7007C55.0769 27.744 56.1787 27.7224 57.2589 27.6143C60.0892 27.3983 62.8762 26.7285 65.512 25.6483C66.1385 25.389 66.441 24.6761 66.2034 24.0279C64.367 19.4261 61.8176 15.9477 58.6633 13.7008C56.6756 12.2965 54.2343 11.5403 51.9009 10.9354C49.7188 10.3736 47.4935 10.0712 45.2898 10.0496C44.9658 10.3088 44.7497 10.6977 44.7281 11.1298C44.6849 11.778 45.0954 12.3829 45.7003 12.5989C45.7435 12.6205 45.7868 12.6205 45.8516 12.6421C45.938 12.6638 46.0244 12.707 46.0892 12.7718C46.3053 12.923 46.4349 13.2255 46.3701 13.5063C46.2837 13.8304 46.0028 14.0249 45.7003 14.0249C45.6355 14.0249 45.5923 14.0249 45.5275 14.0033C45.4843 13.9816 45.4195 13.96 45.3763 13.96C45.2898 13.9384 45.1818 13.9168 45.0954 13.9168C44.296 13.8736 43.5831 14.5002 43.5398 15.3212C43.4966 16.1421 44.1232 16.8335 44.9442 16.8983C45.333 16.9199 45.6139 17.244 45.5923 17.6329C45.5707 18.0002 45.2682 18.281 44.901 18.281C44.8793 18.281 44.8793 18.281 44.8577 18.281C43.2806 18.1946 42.0707 16.8335 42.1571 15.2563C42.2219 14.1545 42.9133 13.2471 43.8423 12.815C43.5182 12.3181 43.3454 11.7131 43.367 11.0866C43.3886 10.7409 43.475 10.4168 43.6047 10.1144C39.3053 10.3304 35.0491 11.5619 31.2467 13.744C31.0306 14.1113 31.009 14.565 31.2251 14.9323C31.5059 15.4724 32.1325 15.7316 32.6942 15.5588C33.0615 15.4508 33.4504 15.6668 33.5584 16.0341C33.6664 16.4014 33.4504 16.7903 33.0831 16.8983C32.8454 16.9631 32.5862 17.0063 32.3485 17.0063C31.3763 17.0063 30.4689 16.4662 29.9936 15.5804C29.8424 15.2995 29.7559 14.9971 29.7127 14.6946C23.3177 18.9076 18.9319 25.4971 17.6572 32.8427C17.6356 33.0156 17.5276 33.1668 17.3979 33.2748C11.9967 37.3581 10.614 42.6513 10.4196 46.3674C10.3115 49.5433 11.0677 52.6544 12.6233 55.355C12.4288 53.8643 12.472 52.4167 12.6449 51.0556C12.6233 51.0124 12.6017 50.9692 12.5801 50.926C10.8517 46.2593 12.1264 41.2038 13.898 38.0279C14.0924 37.7038 14.5029 37.5742 14.8486 37.7686C15.1726 37.9631 15.3023 38.3736 15.1078 38.7192C13.7683 41.0958 12.7529 44.639 13.293 48.1606C13.5523 47.3396 13.8547 46.605 14.1572 45.9785C14.4597 45.4384 14.8918 44.7254 15.4103 44.0556C15.7344 43.6235 16.1233 43.2779 16.5986 43.0186C16.2313 40.9878 16.5337 37.855 17.3547 35.4569C17.4412 35.0896 17.83 34.8952 18.1973 35.0248ZM57.6262 19.9662C57.691 18.7779 58.7065 17.8489 59.9163 17.9137C60.4997 17.9353 61.0182 18.1946 61.4071 18.6267C61.796 19.0588 61.9904 19.6205 61.9472 20.1823C61.9256 20.7656 61.6663 21.2841 61.2342 21.673C60.8237 22.0403 60.3268 22.2347 59.7867 22.2347C59.7435 22.2347 59.7003 22.2347 59.6571 22.2347C58.4688 22.1699 57.5614 21.1545 57.6262 19.9662Z" fill="white"/>
<path d="M49.438 85.4506C52.3978 82.6636 56.5028 78.0402 60.4348 71.1482C59.7435 71.7315 59.0521 72.2933 58.3176 72.8334C57.9503 73.0926 57.583 73.3519 57.1941 73.5895C57.1293 73.6544 57.0429 73.6976 56.9781 73.7408C54.9688 75.0371 52.8083 76.1173 50.6046 76.9167C51.2312 77.2192 51.8145 77.4568 52.2898 77.6513L52.6355 77.7809C52.9812 77.9321 53.154 78.321 53.0244 78.6883C52.9163 78.9476 52.6571 79.1204 52.3762 79.1204C52.2898 79.1204 52.2034 79.0988 52.117 79.0772L51.7929 78.9476C51.0583 78.6667 49.9781 78.2346 48.8114 77.5216C47.7744 77.8241 46.7157 78.0834 45.6571 78.2994C46.9966 79.2068 48.6602 79.963 49.6756 80.3087C50.0429 80.4383 50.2373 80.8272 50.1077 81.1729C50.0213 81.4537 49.7404 81.6482 49.4596 81.6482C49.3948 81.6482 49.3083 81.6266 49.2435 81.605C47.9472 81.1729 45.3979 79.9846 43.7775 78.5803C42.8701 78.6883 41.9843 78.7747 41.0769 78.8179C43.0645 80.7624 45.0954 82.1019 46.3701 82.7068C46.7157 82.8796 46.867 83.2901 46.6941 83.6358C46.5861 83.8951 46.3269 84.0247 46.0676 84.0247C45.9596 84.0247 45.8732 84.0031 45.7651 83.9599C44.188 83.2037 41.5522 81.4321 39.154 78.8395C37.9658 78.8179 36.7775 78.7315 35.5892 78.5587C39.3485 81.9506 42.1139 84.2624 43.8639 85.6667C45.4627 87.0062 47.8824 86.9198 49.438 85.4506Z" fill="white"/>
<path d="M24.7652 68.2964C25.2621 68.2964 25.6726 67.8859 25.6726 67.389C25.6726 66.8921 25.2621 66.4816 24.7652 66.4816C24.2683 66.4816 23.8578 66.8921 23.8578 67.389C23.8578 67.8859 24.2683 68.2964 24.7652 68.2964Z" fill="white"/>
<path d="M59.7434 20.8736C59.9594 20.8952 60.1539 20.8088 60.3051 20.6791C60.4564 20.5279 60.5644 20.3551 60.5644 20.139C60.586 19.923 60.4996 19.7285 60.3699 19.5773C60.2187 19.4261 60.0459 19.318 59.8298 19.318C59.3977 19.2964 59.0304 19.6205 59.0088 20.0526C58.9872 20.4631 59.3113 20.8304 59.7434 20.8736Z" fill="white"/>
<path d="M26.3207 74.2593C28.5676 75.6852 31.2682 76.355 33.8392 76.8735C36.2373 77.3704 38.6787 77.5433 41.0984 77.4352C41.4657 77.1112 41.6818 76.6575 41.6818 76.1606C41.6818 75.426 41.1848 74.7778 40.4935 74.5618C40.4503 74.5618 40.3855 74.5402 40.3423 74.5402C40.2558 74.5186 40.1694 74.4754 40.1046 74.4322C39.867 74.2809 39.7373 74.0001 39.7805 73.7192C39.8453 73.3519 40.2126 73.0927 40.6015 73.1791C40.6447 73.1791 40.7095 73.2007 40.7528 73.2223C40.8608 73.2439 40.9688 73.2655 41.0768 73.2655C42.0058 73.2655 42.762 72.5093 42.762 71.5803C42.762 70.6513 42.0058 69.8951 41.0768 69.8951C40.6879 69.8951 40.3855 69.5927 40.3855 69.2038C40.3855 68.8149 40.6879 68.5124 41.0768 68.5124C42.762 68.5124 44.1447 69.8951 44.1447 71.5803C44.1447 72.7902 43.4318 73.8272 42.4163 74.3241C42.8052 74.8427 43.0645 75.4908 43.0645 76.1822C43.0645 76.571 42.9781 76.9599 42.8484 77.3272C47.5367 76.8303 52.1169 75.2531 56.1786 72.639C56.3947 72.2069 56.3947 71.6883 56.1354 71.2562C55.7897 70.6729 55.0768 70.4137 54.4286 70.6297C54.0614 70.7593 53.6725 70.5649 53.5428 70.2192C53.4132 69.8519 53.6077 69.463 53.9533 69.3334C55.228 68.8797 56.6323 69.3982 57.3237 70.5433C57.5181 70.8674 57.6262 71.213 57.691 71.5803C64.4317 66.6328 68.8391 59.1791 69.7897 51.0773C69.8113 50.9044 69.8977 50.7532 70.0274 50.6236C75.6662 45.8705 76.8545 40.0156 76.8545 35.9539C76.7897 32.3891 75.7094 28.9539 73.7434 26.0372C74.0891 27.744 74.1539 29.4292 74.0243 31.0064C74.0675 31.0496 74.0891 31.0928 74.1107 31.136C76.2496 36.0835 75.1693 41.6144 73.4409 45.1576C73.3113 45.3952 73.0737 45.5464 72.8144 45.5464C72.7064 45.5464 72.5983 45.5248 72.5119 45.4816C72.1662 45.3088 72.0366 44.8983 72.1879 44.5526C73.5274 41.8304 74.4348 37.8119 73.549 33.9014C73.3113 34.8952 73.0088 35.8026 72.6848 36.5588C72.4039 37.1637 71.9502 37.9415 71.4533 38.7193C71.1292 39.2162 70.6971 39.6051 70.2218 39.9076C70.7403 42.0681 70.6107 45.5248 69.8545 48.1606C69.7681 48.4631 69.4872 48.6575 69.1848 48.6575C69.12 48.6575 69.0551 48.6575 68.9903 48.6359C68.6231 48.5279 68.407 48.1606 68.515 47.7933C69.1848 45.4384 69.336 42.3273 68.9039 40.3829C68.8175 40.4045 68.7527 40.4045 68.6663 40.4261C67.5428 40.5557 66.4193 40.1884 65.5984 39.4107C65.2959 39.1298 65.015 38.8273 64.7774 38.5681C64.7558 38.5465 64.7126 38.5032 64.691 38.46L64.6694 38.4384C64.5829 38.3304 64.4749 38.2224 64.3669 38.136C66.1817 40.9446 67.0459 43.9045 67.2835 45.6761C67.3268 46.065 67.0675 46.4106 66.6786 46.4538C66.657 46.4538 66.6138 46.4538 66.5922 46.4538C66.2465 46.4538 65.944 46.1946 65.9008 45.8489C65.5768 43.3427 63.8916 38.2224 59.7002 35.0249C59.657 34.9817 59.6138 34.9384 59.5922 34.8952C57.2373 33.9014 54.7527 33.5341 52.4842 33.5989C59.4626 36.4508 64.0644 46.0217 65.8792 50.494C65.944 50.6668 65.944 50.8396 65.8792 51.0125C64.5829 54.2748 61.9687 57.1915 58.836 59.2439C59.1601 59.4816 59.441 59.7841 59.6138 60.1729C59.9811 60.9507 59.8731 61.8365 59.441 62.5063C59.8083 62.7439 60.1323 63.0896 60.3268 63.5001C60.6076 64.0834 60.6292 64.7316 60.4132 65.3365C60.1971 65.9414 59.765 66.4167 59.1817 66.6976C58.8576 66.8488 58.512 66.9353 58.1663 66.9353C58.1015 66.9353 58.0367 66.9353 57.9934 66.9353C57.6046 66.9137 57.3237 66.568 57.3669 66.2007C57.3885 65.8118 57.7126 65.531 58.1015 65.5742C58.2743 65.5958 58.4471 65.5526 58.62 65.4877C58.8576 65.3797 59.0521 65.1637 59.1385 64.9044C59.2249 64.6451 59.2249 64.3643 59.0953 64.1266C58.9008 63.6945 58.4471 63.4785 57.9934 63.5649C57.9718 63.5649 57.9718 63.5865 57.9502 63.5865C57.907 63.5865 57.8638 63.6081 57.8206 63.6081C57.799 63.6081 57.7558 63.5865 57.7342 63.5865C57.691 63.5865 57.6478 63.5865 57.6046 63.5649C57.583 63.5649 57.583 63.5649 57.5613 63.5433C57.3453 63.4785 57.1509 63.3056 57.1076 63.068C57.0212 62.7007 57.2373 62.3118 57.6046 62.2254C57.6478 62.2254 57.691 62.2254 57.7342 62.2038C57.799 62.1822 57.8638 62.1606 57.9286 62.139C58.4255 61.9013 58.6632 61.2964 58.4255 60.7779C58.2311 60.3674 57.799 60.1297 57.3453 60.1945C57.3453 60.1945 57.3453 60.1945 57.3237 60.1945C54.9472 61.4908 52.333 62.2902 49.8052 62.4198C50.1077 62.7871 50.3453 63.2408 50.4317 63.7161C50.6478 64.818 50.1941 65.8766 49.3731 66.5248C49.8052 66.9353 50.1293 67.4754 50.2589 68.1019C50.5614 69.6575 49.5459 71.1914 47.9688 71.4939C47.7959 71.5371 47.6015 71.5371 47.4071 71.5371C47.1046 71.5371 46.7805 71.4939 46.4996 71.3859C46.1324 71.2562 45.9379 70.8674 46.0676 70.5217C46.1972 70.1544 46.5861 69.9599 46.9317 70.0896C47.1694 70.176 47.4503 70.1976 47.6879 70.1328C48.5089 69.9816 49.049 69.1822 48.8762 68.3612C48.7466 67.713 48.228 67.2377 47.6015 67.1513H47.5799C47.5367 67.1513 47.4935 67.1513 47.4287 67.1513C47.3422 67.1513 47.2558 67.1297 47.1694 67.0865C46.9101 66.9785 46.7157 66.7408 46.7157 66.4384C46.7157 66.0495 47.0182 65.747 47.4071 65.747C47.4503 65.747 47.5151 65.747 47.5583 65.7686C47.6663 65.7686 47.7527 65.7686 47.8608 65.747C48.6817 65.5958 49.2219 64.7964 49.049 63.9754C48.9194 63.3056 48.3577 62.8087 47.6879 62.7655C47.6447 62.7655 47.6015 62.7439 47.5583 62.7223C47.4719 62.7655 47.4071 62.8087 47.3422 62.8519C46.3484 63.4569 45.333 64.105 44.2311 64.8396C44.1231 64.926 43.9719 64.9692 43.8422 64.9692C43.6262 64.9692 43.4102 64.8612 43.2805 64.6668C43.0645 64.3427 43.1509 63.9322 43.4534 63.7161C44.5768 62.9384 45.6138 62.3118 46.6293 61.6853C49.8052 59.7192 52.0737 58.3149 53.0891 55.1606C50.2589 56.9322 46.8453 60.0001 45.3762 61.3828C45.2466 61.5124 45.0737 61.5773 44.9009 61.5773C44.7064 61.5773 44.5336 61.5124 44.404 61.3612C44.1447 61.0803 44.1663 60.6482 44.4256 60.389C46.1324 58.7902 50.3453 54.9878 53.4996 53.3458C53.586 52.8057 53.6509 52.2223 53.6725 51.5742C51.3175 52.9785 45.3546 57.0186 40.9904 63.9754C40.796 64.2995 40.3639 64.3859 40.0398 64.1914C39.7157 63.997 39.6293 63.5649 39.8237 63.2408C40.4071 62.3118 41.012 61.426 41.6386 60.605C38.9812 59.7192 35.5244 59.0063 33.1478 58.747C33.3639 59.0279 33.5367 59.2871 33.6663 59.46C34.4657 60.6698 34.7034 62.5063 34.2929 64.4075C33.9472 66.0927 32.9318 68.318 31.9812 69.5927C31.7435 69.8951 31.3114 69.9599 31.0089 69.7223C30.7065 69.4846 30.6417 69.0525 30.8793 68.7501C31.7219 67.6482 32.6293 65.6174 32.9534 64.1266C33.2775 62.6143 33.1046 61.1236 32.5213 60.2161C32.046 59.4816 31.3978 58.639 30.5985 58.6606C29.3886 58.6822 28.2003 58.7686 27.0337 58.9415C23.9658 59.352 20.9843 60.2378 18.1973 61.5773C17.5059 61.9013 17.2034 62.7439 17.5275 63.4569C19.7744 68.3828 22.7559 72.0124 26.3207 74.2593ZM24.7651 65.0772C26.0398 65.0772 27.0553 66.1143 27.0553 67.3674C27.0553 68.6421 26.0182 69.6575 24.7651 69.6575C23.4905 69.6575 22.475 68.6204 22.475 67.3674C22.475 66.1143 23.4905 65.0772 24.7651 65.0772Z" fill="white"/>
<path d="M24.7648 68.2964C25.2617 68.2964 25.6722 67.8859 25.6722 67.389C25.6722 66.8921 25.2617 66.4816 24.7648 66.4816C24.2679 66.4816 23.8574 66.8921 23.8574 67.389C23.8574 67.8859 24.2679 68.2964 24.7648 68.2964Z" fill="white"/>
<path d="M59.7432 20.8736C59.9592 20.8952 60.1536 20.8088 60.3049 20.6791C60.4561 20.5279 60.5641 20.3551 60.5641 20.139C60.5857 19.923 60.4993 19.7285 60.3697 19.5773C60.2185 19.4261 60.0456 19.318 59.8296 19.318C59.3975 19.2964 59.0302 19.6205 59.0086 20.0526C58.987 20.4631 59.3111 20.8304 59.7432 20.8736Z" fill="white"/>
<path d="M66.203 24.0496C64.3666 19.4477 61.8172 15.9694 58.6629 13.7225C57.9499 13.2255 57.1938 12.815 56.3944 12.4478C52.0086 11.6484 48.1845 11.3891 44.7494 11.6268C44.879 12.0805 45.2031 12.4478 45.6568 12.6206C45.7 12.6422 45.7432 12.6422 45.808 12.6638C45.8944 12.6854 45.9808 12.7286 46.0456 12.7934C46.2617 12.9447 46.3913 13.2471 46.3265 13.528C46.2401 13.8521 45.9592 14.0465 45.6568 14.0465C45.5919 14.0465 45.5487 14.0465 45.4839 14.0249C45.4407 14.0033 45.3759 13.9817 45.3327 13.9817C45.2463 13.9601 45.1382 13.9385 45.0518 13.9385C44.2524 13.8953 43.5395 14.5218 43.4963 15.3428C43.4531 16.1638 44.0796 16.8552 44.9006 16.92C45.2895 16.9416 45.5703 17.2657 45.5487 17.6545C45.5271 18.0218 45.2247 18.3027 44.8574 18.3027C44.8358 18.3027 44.8358 18.3027 44.8142 18.3027C43.237 18.2163 42.0271 16.8552 42.1136 15.278C42.1784 14.1762 42.8697 13.2687 43.7987 12.8367C43.6043 12.5342 43.4531 12.1669 43.3882 11.7996C39.0025 12.2749 35.2 13.5496 31.5488 15.4076C31.8512 15.6453 32.2617 15.7317 32.6506 15.6021C33.0179 15.4941 33.4068 15.7101 33.5148 16.0774C33.6228 16.4447 33.4068 16.8336 33.0395 16.9416C32.8019 17.0064 32.5426 17.0496 32.3049 17.0496C31.5272 17.0496 30.7926 16.7039 30.2741 16.099C21.5889 21.2193 18.6723 33.6638 18.6723 33.6638C18.6723 33.6638 16.1445 35.8458 14.7618 37.7903C14.7834 37.7903 14.7834 37.7903 14.805 37.8119C15.1291 38.0063 15.2587 38.4168 15.0642 38.7625C13.7247 41.139 12.7093 44.6822 13.2494 48.2038C13.5087 47.3829 13.8112 46.6483 14.1136 46.0217C14.4161 45.4816 14.8482 44.7687 15.3667 44.0989C15.6908 43.6668 16.0797 43.3211 16.555 43.0619C16.1877 41.031 16.4902 37.8983 17.3112 35.5002C17.4408 35.1329 17.8297 34.9384 18.197 35.0681C18.5642 35.1977 18.7587 35.5866 18.6291 35.9539C17.9161 38.0495 17.6136 40.8582 17.8945 42.6514C17.9593 42.6514 18.0025 42.6298 18.0673 42.6298C19.126 42.565 20.1414 42.9755 20.876 43.7316C21.1352 43.9909 21.3729 44.2718 21.5889 44.5526L21.6105 44.5742C20.2494 42.0464 19.6877 39.4755 19.5581 37.9415C19.5365 37.5526 19.8173 37.2286 20.1846 37.207C20.5735 37.1637 20.8976 37.4662 20.9192 37.8335C21.092 40.1452 22.3883 44.9199 26.0611 48.0526C26.1043 48.0958 26.1259 48.139 26.1692 48.1822C28.1568 49.1545 30.3173 49.6298 32.3049 49.6946C26.45 46.7779 22.842 38.6761 21.0704 33.5773C21.0056 33.4045 21.0272 33.2317 21.092 33.0588C22.4531 30.1206 24.9593 27.5928 27.9408 25.8428C27.6599 25.6051 27.4438 25.3243 27.3142 24.9786C27.0766 24.4169 27.0982 23.8119 27.3358 23.2502C27.4006 23.099 27.4871 22.9693 27.5735 22.8397C27.2494 22.6021 26.9901 22.278 26.8389 21.8891C26.3636 20.7224 26.9253 19.4045 28.092 18.9508C28.4593 18.7996 28.8482 18.7564 29.237 18.7996C29.6259 18.8428 29.8852 19.1885 29.842 19.5774C29.7988 19.9663 29.4531 20.2255 29.0642 20.1823C28.913 20.1607 28.7617 20.1823 28.6105 20.2471C28.1568 20.42 27.9408 20.9385 28.1136 21.3922C28.2648 21.7595 28.6537 21.9755 29.0426 21.9323C29.0642 21.9323 29.0642 21.9323 29.0858 21.9107C29.1722 21.8891 29.2587 21.9107 29.3451 21.9323C29.6259 21.9755 29.8636 22.1916 29.9068 22.4724C29.9716 22.8397 29.734 23.207 29.3667 23.2718C29.3235 23.2718 29.3019 23.2718 29.2587 23.2718C29.1938 23.2718 29.1506 23.2934 29.0858 23.315C28.8698 23.4014 28.6969 23.5743 28.6105 23.7903C28.5241 24.0064 28.5241 24.244 28.6105 24.4601C28.7617 24.8274 29.129 25.0434 29.5179 25.0002C31.7432 23.9416 34.1414 23.3582 36.4531 23.3366C36.2154 22.9909 36.0426 22.6021 35.9994 22.17C35.8481 21.1545 36.3018 20.2039 37.0796 19.6206C36.7123 19.2317 36.4531 18.7132 36.3667 18.1515C36.1506 16.6607 37.2092 15.2996 38.6784 15.0836C39.1537 15.0187 39.6074 15.0836 40.0611 15.2564C40.4068 15.4076 40.5796 15.7965 40.45 16.1638C40.3204 16.5095 39.9099 16.7039 39.5426 16.5527C39.3265 16.4663 39.0889 16.4447 38.8728 16.4663C38.1383 16.5743 37.6413 17.244 37.7278 17.9786C37.8142 18.5619 38.2463 19.0156 38.808 19.1021C38.8512 19.1021 38.8944 19.1021 38.9592 19.1021C39.0457 19.1021 39.1321 19.1453 39.1969 19.1885C39.4562 19.2965 39.629 19.5558 39.6074 19.8582C39.5858 20.2255 39.2833 20.5064 38.916 20.5064C38.8944 20.5064 38.8944 20.5064 38.8728 20.5064C38.8296 20.5064 38.7864 20.4848 38.7216 20.4848C38.6352 20.4848 38.5488 20.4848 38.4623 20.4848C37.7278 20.5928 37.2309 21.2626 37.3173 21.9971C37.4037 22.6021 37.879 23.0558 38.4623 23.1422C38.5055 23.1422 38.5271 23.1638 38.5704 23.1854C38.6352 23.1422 38.7 23.1206 38.7648 23.0774C39.7154 22.5588 40.6876 22.0403 41.7247 21.3922C42.0487 21.1977 42.4808 21.3058 42.6753 21.6298C42.8697 21.9539 42.7617 22.386 42.4376 22.5805C41.3574 23.2286 40.3204 23.7903 39.4129 24.2872C36.4531 25.886 34.3358 27.0527 33.2123 29.7965C35.8697 28.3057 39.0673 25.7132 40.4716 24.5465C40.7741 24.3088 41.2062 24.3304 41.4438 24.6329C41.6815 24.9354 41.6599 25.3675 41.3574 25.6051C39.7154 26.9878 35.6537 30.2718 32.6722 31.6329C32.5858 32.0866 32.4994 32.5835 32.4346 33.102C34.3358 32.0866 38.5055 29.5804 42.308 25.2595C42.308 25.2595 42.308 25.2379 42.3296 25.2379C43.1074 24.3737 43.8636 23.423 44.5981 22.386C44.8142 22.0835 45.2463 21.9971 45.5703 22.2132C45.8728 22.4292 45.9592 22.8613 45.7432 23.1854C45.1815 23.9848 44.5765 24.7409 43.9932 25.4755C46.3265 26.3829 49.3296 27.1823 51.4901 27.5496C51.3388 27.3335 51.2092 27.1175 51.1228 26.9662C50.453 25.7996 50.3234 24.0712 50.7771 22.3428C51.1876 20.8089 52.2246 18.7996 53.1753 17.6761C53.4129 17.3953 53.8666 17.3521 54.1475 17.5897C54.4283 17.8274 54.4715 18.2811 54.2339 18.5619C53.4129 19.5342 52.4839 21.349 52.1166 22.6885C51.7493 24.0496 51.8358 25.4107 52.3111 26.2533C52.7216 26.9446 53.2617 27.7224 53.9746 27.744C55.0765 27.7872 56.1783 27.7656 57.2586 27.6576C60.0888 27.4415 62.8759 26.7718 65.5116 25.6916C66.1598 25.4107 66.4623 24.6761 66.203 24.0496ZM61.2339 21.6947C60.8234 22.0619 60.3265 22.2564 59.7864 22.2564C59.7431 22.2564 59.6999 22.2564 59.6567 22.2564C58.4685 22.1916 57.5394 21.1761 57.6043 19.9663C57.6691 18.778 58.6845 17.849 59.8944 17.9138C60.4777 17.9354 60.9962 18.1947 61.3851 18.6268C61.774 19.0589 61.9684 19.6206 61.9252 20.1823C61.9252 20.7656 61.666 21.3058 61.2339 21.6947Z" fill="#FBCA82"/>
<path d="M34.6816 9.16379C34.5303 9.09898 34.4007 8.96935 34.3359 8.81812C33.4069 9.91996 32.4995 11.0218 31.8081 11.8644C33.2988 11.1082 34.8328 10.5033 36.3883 10.0064C35.8698 9.72552 35.3729 9.48787 34.984 9.31503L34.6816 9.16379Z" fill="#FBCA82"/>
<path d="M38.2464 4.28113C37.6414 4.92928 36.4315 6.3552 35.1353 7.86754C35.1785 7.86754 35.2217 7.88915 35.2649 7.91075L35.5674 8.04038C36.2155 8.34285 37.1877 8.79655 38.2464 9.48791C39.1754 9.27186 40.0828 9.09902 41.0334 8.96939C39.8667 8.1052 38.4192 7.34903 37.555 7.00335C37.2093 6.87372 37.0365 6.46323 37.1661 6.11755C37.3173 5.77187 37.7062 5.57743 38.0735 5.72866C39.2402 6.18236 41.5303 7.41384 42.9562 8.77495C43.734 8.71013 44.5334 8.68853 45.3112 8.71013C43.6044 6.87372 41.8544 5.57743 40.7525 4.97249C40.4068 4.79965 40.2988 4.36755 40.4717 4.04348C40.6445 3.6978 41.0766 3.58978 41.4007 3.76262C42.805 4.51879 45.1383 6.29039 47.2124 8.79655C48.2494 8.88297 49.2648 9.0126 50.2803 9.20705C47.7957 6.70088 45.7865 4.79965 44.3173 3.43854C41.6599 2.3799 39.7371 2.68237 38.2464 4.28113Z" fill="#FBCA82"/>
<path d="M73.7648 26.0588C74.1105 27.7656 74.1753 29.4508 74.0457 31.028C74.0889 31.0712 74.1105 31.1144 74.1321 31.1576C76.271 36.1051 75.1907 41.636 73.4623 45.1792C73.3327 45.4168 73.0951 45.568 72.8358 45.568C72.7278 45.568 72.6198 45.5464 72.5333 45.5032C72.1877 45.3304 72.058 44.9199 72.2093 44.5742C73.5488 41.852 74.4562 37.8335 73.5704 33.923C73.3327 34.9168 73.0302 35.8242 72.7062 36.5804C72.4253 37.1854 71.9716 37.9631 71.4747 38.7409C71.1506 39.2378 70.7185 39.6267 70.2432 39.9292C70.7617 42.0897 70.6321 45.5464 69.8759 48.1822C69.7895 48.4847 69.5086 48.6791 69.2062 48.6791C69.1414 48.6791 69.0765 48.6792 69.0117 48.6575C68.6444 48.5495 68.4284 48.1822 68.5364 47.815C69.2062 45.46 69.3574 42.3489 68.9253 40.4045C68.8389 40.4261 68.7741 40.4261 68.6877 40.4477C67.5642 40.5773 66.4408 40.21 65.6198 39.4323C65.3173 39.1514 65.0364 38.8489 64.7988 38.5897C64.7772 38.5681 64.734 38.5249 64.7124 38.4816L64.6908 38.46C64.6043 38.352 64.4963 38.244 64.3883 38.1576C66.2031 40.9662 67.0673 43.9261 67.3049 45.6977C67.3482 46.0866 67.0889 46.4322 66.7 46.4755C66.6784 46.4755 66.6352 46.4755 66.6136 46.4755C66.2679 46.4755 65.9654 46.2162 65.9222 45.8705C65.5982 43.3643 63.913 38.244 59.7216 35.0465C59.6784 35.0033 59.6352 34.96 59.6136 34.9168C57.2587 33.923 54.7741 33.5557 52.5056 33.6205C59.484 36.4724 64.0858 46.0434 65.9006 50.5156C65.9654 50.6884 65.9654 50.8612 65.9006 51.0341C64.6043 54.2964 61.9901 57.2131 58.8574 59.2655C59.1815 59.5032 59.4624 59.8057 59.6352 60.1946C60.0025 60.9723 59.8945 61.8581 59.4624 62.5279C59.8297 62.7655 60.1537 63.1112 60.3482 63.5217C60.629 64.105 60.6506 64.7532 60.4346 65.3581C60.2185 65.9631 59.7864 66.4384 59.2031 66.7192C58.879 66.8705 58.5334 66.9569 58.1877 66.9569C58.1229 66.9569 58.0581 66.9569 58.0148 66.9569C57.626 66.9353 57.3451 66.5896 57.3883 66.2223C57.4099 65.8334 57.734 65.5526 58.1229 65.5958C58.2957 65.6174 58.4686 65.5742 58.6414 65.5093C58.879 65.4013 59.0735 65.1853 59.1599 64.926C59.2463 64.6668 59.2463 64.3859 59.1167 64.1482C58.9223 63.7161 58.4686 63.5001 58.0148 63.5865C57.9932 63.5865 57.9932 63.6081 57.9716 63.6081C57.9284 63.6081 57.8852 63.6297 57.842 63.6297C57.8204 63.6297 57.7772 63.6081 57.7556 63.6081C57.7124 63.6081 57.6692 63.6081 57.626 63.5865C57.6044 63.5865 57.6044 63.5865 57.5828 63.5649C57.3667 63.5001 57.1723 63.3273 57.1291 63.0896C57.0426 62.7223 57.2587 62.3334 57.626 62.247C57.6692 62.247 57.7124 62.247 57.7556 62.2254C57.8204 62.2038 57.8852 62.1822 57.95 62.1606C58.4469 61.9229 58.6846 61.318 58.4469 60.7995C58.2525 60.389 57.8204 60.1513 57.3667 60.2162C57.3667 60.2162 57.3667 60.2162 57.3451 60.2162C54.9686 61.5124 52.3544 62.3118 49.8266 62.4415C50.1291 62.8087 50.3667 63.2624 50.4531 63.7378C50.6692 64.8396 50.2155 65.8982 49.3945 66.5464C49.8266 66.9569 50.1507 67.497 50.2803 68.1235C50.5828 69.6791 49.5673 71.213 47.9902 71.5155C47.8173 71.5587 47.6229 71.5587 47.4285 71.5587C47.126 71.5587 46.8019 71.5155 46.5211 71.4075C46.1538 71.2779 45.9593 70.889 46.089 70.5433C46.2186 70.176 46.6075 69.9816 46.9531 70.1112C47.1908 70.1976 47.4717 70.2192 47.7093 70.1544C48.5303 70.0032 49.0704 69.2038 48.8976 68.3828C48.768 67.7347 48.2494 67.2593 47.6229 67.1729H47.6013C47.5581 67.1729 47.5149 67.1729 47.4501 67.1729C47.3636 67.1729 47.2772 67.1513 47.1908 67.1081C46.9315 67.0001 46.7371 66.7624 46.7371 66.46C46.7371 66.0711 47.0396 65.7686 47.4285 65.7686C47.4717 65.7686 47.5365 65.7686 47.5797 65.7902C47.6877 65.7902 47.7741 65.7902 47.8822 65.7686C48.7031 65.6174 49.2433 64.818 49.0704 63.997C48.9408 63.3273 48.3791 62.8303 47.7093 62.7871C47.6661 62.7871 47.6229 62.7655 47.5797 62.7439C47.4933 62.7871 47.4285 62.8303 47.3636 62.8736C46.3698 63.4785 45.3544 64.1266 44.2525 64.8612C44.1445 64.9476 43.9933 64.9908 43.8637 64.9908C43.6476 64.9908 43.4316 64.8828 43.3019 64.6884C43.0859 64.3643 43.1723 63.9538 43.4748 63.7378C44.5982 62.96 45.6353 62.3334 46.6507 61.7069C49.8266 59.7409 52.0951 58.3365 53.1105 55.1822C50.2803 56.9538 46.8667 60.0217 45.3976 61.4044C45.268 61.5341 45.0951 61.5989 44.9223 61.5989C44.7278 61.5989 44.555 61.5341 44.4254 61.3828C44.1661 61.102 44.1877 60.6699 44.447 60.4106C46.1538 58.8118 50.3667 55.0094 53.521 53.3674C53.6075 52.8273 53.6723 52.244 53.6939 51.5958C51.3389 53.0001 45.376 57.0402 41.0118 63.997C40.8174 64.3211 40.3853 64.4075 40.0612 64.2131C39.7371 64.0186 39.6507 63.5865 39.8451 63.2624C40.4285 62.3334 41.0334 61.4476 41.66 60.6267C39.0026 59.7409 35.5458 59.0279 33.1692 58.7686C33.3853 59.0495 33.5581 59.3088 33.6878 59.4816C34.4871 60.6915 34.7248 62.5279 34.3143 64.4291C33.9686 66.1143 32.9532 68.3396 32.0026 69.6143C31.7649 69.9167 31.3328 69.9816 31.0304 69.7439C30.7279 69.5063 30.6631 69.0742 30.9007 68.7717C31.7433 67.6698 32.6507 65.639 32.9748 64.1482C33.2989 62.6359 33.126 61.1452 32.5427 60.2378C32.197 59.6976 31.7433 59.1143 31.2248 58.8334C25.6291 60.1945 22.1724 61.4476 20.4656 62.139C19.7742 62.4199 19.4933 63.2624 19.8822 63.9106C20.4872 64.8828 21.4162 66.3087 22.518 67.7779C22.4964 67.6482 22.4748 67.497 22.4748 67.3458C22.4748 66.0711 23.5119 65.0557 24.7649 65.0557C26.0396 65.0557 27.0551 66.0927 27.0551 67.3458C27.0551 68.6205 26.018 69.6359 24.7649 69.6359C24.4409 69.6359 24.1168 69.5711 23.8359 69.4414C24.981 70.8242 26.2341 72.0772 27.4223 72.8334C29.9717 74.4538 35.0921 76.0741 41.7032 76.1606V76.139C41.7032 75.4044 41.2063 74.7562 40.5149 74.5402C40.4717 74.5402 40.4069 74.5186 40.3637 74.5186C40.2772 74.497 40.1908 74.4538 40.126 74.4106C39.8884 74.2593 39.7587 73.9785 39.8019 73.6976C39.8668 73.3303 40.234 73.0711 40.6229 73.1575C40.6661 73.1575 40.7309 73.1791 40.7742 73.2007C40.8822 73.2223 40.9902 73.2439 41.0982 73.2439C42.0272 73.2439 42.7834 72.4877 42.7834 71.5587C42.7834 70.6297 42.0272 69.8735 41.0982 69.8735C40.7093 69.8735 40.4069 69.5711 40.4069 69.1822C40.4069 68.7933 40.7093 68.4908 41.0982 68.4908C42.7834 68.4908 44.1661 69.8735 44.1661 71.5587C44.1661 72.7686 43.4532 73.8056 42.4377 74.3025C42.8266 74.8211 43.0859 75.4692 43.0859 76.1606V76.1822C45.4624 76.139 48.0118 75.9013 50.6908 75.4044C52.592 74.6698 54.45 73.7408 56.2 72.6174C56.4161 72.1853 56.4161 71.6667 56.1568 71.2346C55.8112 70.6513 55.0982 70.3921 54.45 70.6081C54.0828 70.7377 53.6939 70.5433 53.5642 70.1976C53.4346 69.8303 53.6291 69.4414 53.9747 69.3118C55.2494 68.8581 56.6537 69.3766 57.3451 70.5217C57.5395 70.8458 57.6476 71.1914 57.7124 71.5587C64.4531 66.6112 68.8605 59.1575 69.8111 51.0557C69.8327 50.8828 69.9191 50.7316 70.0488 50.602C75.6876 45.8489 76.8759 39.994 76.8759 35.9323C76.8111 32.3891 75.7309 28.9755 73.7648 26.0588Z" fill="#F68362"/>
<path d="M46.6506 83.6358C47.3636 83.8519 48.1413 83.7438 48.7463 83.2901C50.6259 81.9938 54.2771 79.142 58.4253 74.4321C59.095 73.3951 59.7432 72.3149 60.4129 71.1482C59.7215 71.7315 59.0302 72.2933 58.2956 72.8334C57.9283 73.0926 57.5611 73.3519 57.1722 73.5895C57.1074 73.6544 57.0209 73.6976 56.9561 73.7408C54.9469 75.0371 52.7864 76.1173 50.5827 76.9167C51.2092 77.2192 51.7926 77.4568 52.2679 77.6513L52.6135 77.7809C52.9592 77.9321 53.1321 78.321 53.0024 78.6883C52.8944 78.9476 52.6351 79.1204 52.3543 79.1204C52.2679 79.1204 52.1814 79.0988 52.095 79.0772L51.771 78.9476C51.0364 78.6667 49.9561 78.2346 48.7895 77.5216C47.7524 77.8241 46.6938 78.0834 45.6352 78.2994C46.9747 79.2068 48.6382 79.963 49.6537 80.3087C50.021 80.4383 50.2154 80.8272 50.0858 81.1729C49.9994 81.4537 49.7185 81.6482 49.4376 81.6482C49.3728 81.6482 49.2864 81.6266 49.2216 81.605C47.9253 81.1729 45.3759 79.9846 43.7555 78.5803C42.8481 78.6883 41.9623 78.7747 41.0549 78.8179C43.0426 80.7624 45.0734 82.1019 46.3481 82.7068C46.6722 82.8796 46.8234 83.2901 46.6506 83.6358Z" fill="#F68362"/>
<path d="M21.0705 33.5341C21.0056 33.3613 21.0272 33.1884 21.0921 33.0156C22.4532 30.0773 24.9593 27.5495 27.9408 25.7996C27.6599 25.5619 27.4439 25.281 27.3143 24.9354C27.2062 24.6545 27.1414 24.3304 27.1414 24.028C22.7988 27.3551 20.1846 33.2748 20.1846 33.2748C20.1846 33.2748 20.0982 34.8736 20.4223 37.1637C20.7032 37.2285 20.9192 37.4662 20.9408 37.7687C21.1137 40.0804 22.41 44.8551 26.0828 47.9878C26.126 48.031 26.1476 48.0742 26.1908 48.1174C28.1785 49.0896 30.3389 49.5649 32.3266 49.6297C26.4501 46.7347 22.8421 38.6329 21.0705 33.5341Z" fill="#ECA870"/>
<path d="M66.095 25.1947C61.7741 26.0373 56.4593 25.886 51.9655 25.0219C52.0303 25.4756 52.1599 25.886 52.3543 26.2101C52.7648 26.9015 53.305 27.6793 54.0179 27.7009C55.1198 27.7441 56.2216 27.7225 57.3019 27.6144C60.1321 27.3984 62.9191 26.7286 65.5549 25.6484C65.771 25.562 65.9654 25.3891 66.095 25.1947Z" fill="#ECA870"/>
<path d="M44.0364 25.4107C46.3697 26.3181 49.3728 27.1175 51.5333 27.4848C51.382 27.2687 51.2524 27.0527 51.166 26.9015C50.8203 26.2965 50.6043 25.5404 50.5611 24.7194C48.7462 24.2873 47.1043 23.7688 45.7864 23.1206C45.2246 23.9416 44.6413 24.6978 44.0364 25.4107Z" fill="#ECA870"/>
<path d="M29.3668 23.207C29.3236 23.207 29.3019 23.207 29.2587 23.207C29.1939 23.207 29.1507 23.2286 29.0859 23.2502C28.8698 23.3366 28.697 23.5095 28.6106 23.7255C28.5242 23.9416 28.5242 24.1792 28.6106 24.3953C28.7618 24.7626 29.1291 24.9786 29.518 24.9354C31.7433 23.8768 34.1414 23.2934 36.4532 23.2718C36.2155 22.9261 36.0427 22.5373 35.9995 22.1052C35.9562 21.8243 35.9779 21.5218 36.0211 21.2626C34.0118 21.349 31.8297 21.6515 29.9285 22.4292C29.9501 22.7965 29.7124 23.1422 29.3668 23.207Z" fill="#ECA870"/>
<path d="M37.3389 21.9323C37.4253 22.5373 37.9006 22.991 38.4839 23.0774C38.5271 23.0774 38.5487 23.099 38.592 23.1206C38.6568 23.0774 38.7216 23.0558 38.7864 23.0126C39.629 22.5589 40.5148 22.062 41.4438 21.5218C40.5796 21.4138 39.1105 21.2626 37.4253 21.2626C37.3605 21.4786 37.3173 21.6947 37.3389 21.9323Z" fill="#ECA870"/>
<path d="M45.2679 8.68844C44.4901 7.86746 43.7339 7.1545 42.9994 6.54956C42.3728 6.78721 41.7679 7.04647 41.1198 7.34894C41.7679 7.78104 42.3944 8.25635 42.913 8.75326C43.7123 8.71005 44.4901 8.68844 45.2679 8.68844Z" fill="#ECA870"/>
<path d="M41.0117 8.9693C40.6012 8.66683 40.1259 8.36436 39.6722 8.0835C39.0457 8.40757 38.4191 8.77485 37.7278 9.18534C37.879 9.29337 38.0519 9.37979 38.2031 9.48781C39.1537 9.27176 40.0827 9.09893 41.0117 8.9693Z" fill="#ECA870"/>
<path d="M47.1907 8.77492C48.2278 8.86134 49.2432 8.99097 50.2586 9.18541C48.8975 7.8243 47.7092 6.65764 46.6506 5.64221C45.9376 5.72863 45.2247 5.87987 44.5333 6.07431C45.4191 6.83048 46.3265 7.73789 47.1907 8.77492Z" fill="#ECA870"/>
<path d="M47.6878 62.8087C47.6446 62.8087 47.6013 62.7871 47.5581 62.7655C47.4717 62.8087 47.4069 62.8519 47.3421 62.8951C46.4563 63.4353 45.5273 64.0186 44.5551 64.6667C45.4841 64.7531 47.126 64.8396 49.0273 64.7531C49.1137 64.5155 49.1353 64.2562 49.0705 63.997C48.9408 63.3704 48.3575 62.8519 47.6878 62.8087Z" fill="#E66754"/>
<path d="M41.6383 60.6266C38.9809 59.7408 35.5241 59.0278 33.1476 58.7686C37.1013 60.713 39.1105 62.463 39.8667 63.1759C40.45 62.2901 41.0334 61.426 41.6383 60.6266Z" fill="#E66754"/>
<path d="M73.7648 26.0588C74.1105 27.7656 74.1753 29.4508 74.0457 31.028C74.0889 31.0712 74.1105 31.1144 74.1321 31.1576C76.271 36.1051 75.1907 41.636 73.4624 45.1792C73.3327 45.4168 73.0951 45.568 72.8358 45.568C72.7278 45.568 72.6198 45.5464 72.5333 45.5032C72.1877 45.3304 72.058 44.9199 72.2093 44.5742C73.5488 41.852 74.4562 37.8335 73.5704 33.923C73.3327 34.9168 73.0303 35.8242 72.7062 36.5804C72.4253 37.1854 71.9716 37.9631 71.4747 38.7409C71.1506 39.2378 70.7185 39.6267 70.2432 39.9292C70.7617 42.0897 70.6321 45.5464 69.8759 48.1822C69.7895 48.4847 69.5087 48.6791 69.2062 48.6791C69.1414 48.6791 69.0766 48.6791 69.0117 48.6575C68.6445 48.5495 68.4284 48.1822 68.5364 47.815C69.2062 45.46 69.3574 42.3489 68.9253 40.4045C68.8389 40.4261 68.7741 40.4261 68.6877 40.4477C67.5642 40.5773 66.4408 40.21 65.6198 39.4323C65.3173 39.1514 65.0365 38.8489 64.7988 38.5897C64.7772 38.5681 64.734 38.5249 64.7124 38.4816L64.6908 38.46C64.6044 38.352 64.4963 38.244 64.3883 38.1576C66.2031 40.9662 67.0673 43.9261 67.305 45.6977C67.3482 46.065 67.1105 46.389 66.7432 46.4538C67.6939 51.1637 68.4068 50.8612 68.4068 50.8612C68.4068 50.8612 68.6229 56.2193 66.2031 62.0094C68.1043 58.639 69.3574 54.923 69.8111 51.0773C69.8327 50.9045 69.9192 50.7532 70.0488 50.6236C75.6877 45.8705 76.8759 40.0156 76.8759 35.9539C76.8111 32.3891 75.7309 28.9755 73.7648 26.0588Z" fill="#E66754"/>
<path d="M57.6043 62.247C57.6475 62.247 57.6907 62.247 57.7339 62.2254C57.7987 62.2038 57.8636 62.1822 57.9284 62.1606C58.4253 61.9229 58.6629 61.318 58.4253 60.7995C58.2308 60.389 57.7987 60.1513 57.345 60.2161C57.345 60.2161 57.345 60.2161 57.3234 60.2161C54.9469 61.5124 52.3327 62.3118 49.8049 62.4415C50.1074 62.8087 50.3451 63.2624 50.4315 63.7377C50.4963 64.0402 50.4963 64.3643 50.4531 64.6451C52.7 64.4291 55.1197 63.9322 57.1074 62.8736C57.1074 62.5927 57.3018 62.3118 57.6043 62.247Z" fill="#E66754"/>
<path d="M58.879 59.2871C59.2031 59.5248 59.484 59.8272 59.6568 60.2161C59.7432 60.389 59.7864 60.5618 59.8296 60.7347C63.8482 56.6729 65.3389 53.1945 65.9222 51.0557C64.6043 54.318 62.0117 57.2131 58.879 59.2871Z" fill="#E66754"/>
<path d="M65.9222 50.5372C65.9438 50.602 65.9438 50.6452 65.9654 50.71C65.9438 50.4075 65.8358 50.1051 65.6198 49.781C65.7062 50.0403 65.8142 50.2995 65.9222 50.5372Z" fill="#E66754"/>
<path d="M43.7555 78.6019C42.8481 78.71 41.9623 78.7964 41.0549 78.8396C41.487 79.2717 41.9191 79.6606 42.3512 80.0279C43.7339 80.6112 45.1383 80.8272 46.6938 80.5464C45.6568 79.9846 44.5765 79.3149 43.7555 78.6019Z" fill="#E66754"/>
<path d="M45.6353 78.2994C46.6075 78.9475 47.7525 79.5309 48.7031 79.9414C49.4809 79.6389 50.2803 79.2284 51.1661 78.6883C50.4964 78.4074 49.6754 78.0401 48.8112 77.5216C47.7309 77.8457 46.6939 78.1049 45.6353 78.2994Z" fill="#E66754"/>
<path d="M57.1937 73.6111C57.1289 73.676 57.0425 73.7192 56.9777 73.7624C54.9684 75.0587 52.8079 76.1389 50.6042 76.9383C51.2308 77.2408 51.8141 77.4784 52.2894 77.6729L52.5919 77.7809C54.7956 76.2686 57.3666 74.0865 60.4561 71.1698C59.7647 71.7531 59.0734 72.3149 58.3388 72.855C57.9499 73.1142 57.561 73.3519 57.1937 73.6111Z" fill="#E66754"/>
<path d="M46.4993 88C45.2462 88 43.9715 87.5895 42.9561 86.7469C40.9468 85.1265 37.5981 82.2963 32.953 78.0617C32.6722 77.8025 32.6506 77.3704 32.9098 77.0895C33.1691 76.8086 33.6012 76.787 33.882 77.0463C38.5055 81.2593 41.8326 84.0679 43.8203 85.6883C45.4623 87.0278 47.882 86.9413 49.4376 85.4722C52.9159 82.1883 57.9931 76.3982 62.4653 67.3457C62.6381 67 63.0486 66.8704 63.3943 67.0216C63.74 67.1945 63.8696 67.605 63.6968 67.9506C59.1381 77.1759 53.9314 83.1173 50.3666 86.466C49.3079 87.4815 47.9036 88 46.4993 88Z" fill="#303030"/>
<path d="M42.6105 60.9291C42.5241 60.9291 42.4592 60.9075 42.3728 60.8859C38.5704 59.4816 32.5642 58.4445 30.8358 58.7038C30.4469 58.7686 30.1013 58.4878 30.058 58.1205C29.9932 57.7532 30.2741 57.3859 30.6414 57.3427C32.7587 57.0402 39.0457 58.2069 42.8481 59.6112C43.2154 59.7408 43.3883 60.1513 43.2586 60.497C43.1506 60.7563 42.8913 60.9291 42.6105 60.9291Z" fill="#303030"/>
<path d="M39.7802 78.8612C37.7061 78.8612 35.6104 78.6451 33.558 78.2346C33.1907 78.1482 32.953 77.8025 33.0178 77.4136C33.1043 77.0463 33.4499 76.8087 33.8388 76.8735C42.0055 78.5587 50.6258 76.6791 57.4962 71.7315C64.3665 66.784 68.8387 59.2439 69.811 51.0773C69.8326 50.9044 69.919 50.7532 70.0486 50.6236C75.6875 45.8705 76.8758 40.0156 76.8758 35.9539C76.8109 32.3891 75.7307 28.9539 73.7646 26.0372C74.5856 30.0557 73.8295 34.0094 72.706 36.5588C72.4251 37.1637 71.9714 37.9415 71.4745 38.7193C70.848 39.6699 69.8326 40.2964 68.7091 40.4261C67.5857 40.5557 66.4622 40.1884 65.6412 39.4106C65.3387 39.1298 65.0579 38.8273 64.8202 38.5681C64.7986 38.5464 64.7554 38.5032 64.7338 38.46L64.7122 38.4384C64.6258 38.3304 64.5178 38.2224 64.4097 38.136C61.0826 34.7008 56.4591 33.4693 52.5054 33.5989C59.4838 36.4508 64.0857 46.0217 65.9005 50.4939C65.9653 50.6668 65.9653 50.8396 65.9005 51.0125C63.2215 57.7316 55.0116 62.96 47.99 62.4198C47.6011 62.3982 47.3203 62.0526 47.3635 61.6853C47.3851 61.2964 47.7092 61.0155 48.0981 61.0587C54.3851 61.5556 61.9684 56.7594 64.5178 50.7748C62.4005 45.6761 56.8696 34.4847 48.7678 34.1823C48.4221 34.1607 48.1413 33.923 48.0981 33.5773C48.0548 33.2316 48.2709 32.9292 48.595 32.8212C53.3264 31.46 60.5857 32.2162 65.3603 37.1421C65.4684 37.2502 65.598 37.3798 65.7276 37.5094C65.7492 37.531 65.7708 37.5526 65.7708 37.5742L65.8357 37.639C66.0733 37.9199 66.3326 38.1576 66.5918 38.4168C67.1103 38.9137 67.8233 39.1514 68.5363 39.065C69.2708 38.9785 69.919 38.5897 70.3079 37.9631C70.7616 37.2502 71.1937 36.5156 71.4313 35.9971C72.8788 32.7131 73.3974 27.4199 71.2801 23.0341C71.1288 22.7317 71.2369 22.3644 71.4961 22.1699C71.777 21.9755 72.1443 21.9971 72.3819 22.2348C76.0548 25.886 78.1288 30.7471 78.2153 35.9323C78.2153 42.0032 75.6875 47.5125 71.1073 51.4878C70.027 59.9353 65.3604 67.713 58.274 72.8334C52.8511 76.7871 46.3481 78.8612 39.7802 78.8612Z" fill="#303030"/>
<path d="M33.7093 78.2346C33.6661 78.2346 33.6228 78.2346 33.5796 78.213C30.879 77.6728 28.0272 76.9383 25.5858 75.4043C21.7834 73.0062 18.6507 69.1821 16.2525 64.0402C15.6044 62.6575 16.2093 60.9939 17.592 60.3457C20.5303 58.9414 23.6414 58.0124 26.8389 57.6019C28.0488 57.4291 29.3019 57.3426 30.5549 57.321C30.5766 57.321 30.5766 57.321 30.5982 57.321C32.2185 57.321 33.234 58.855 33.666 59.5031C34.4654 60.713 34.7031 62.5494 34.2926 64.4507C33.9469 66.1358 32.9315 68.3611 31.9809 69.6358C31.7432 69.9383 31.3111 70.0031 31.0087 69.7655C30.7062 69.5278 30.6414 69.0957 30.879 68.7932C31.7216 67.6914 32.629 65.6605 32.9531 64.1698C33.2772 62.6575 33.1043 61.1667 32.521 60.2593C32.0457 59.5247 31.3975 58.6822 30.5982 58.7038C29.3883 58.7254 28.2 58.8118 27.0334 58.9846C23.9655 59.3951 20.984 60.2809 18.197 61.6204C17.5056 61.9445 17.2031 62.7871 17.5272 63.5C19.8173 68.4044 22.7772 72.034 26.342 74.2809C28.5889 75.7068 31.2895 76.3766 33.8605 76.8951C34.2278 76.9815 34.487 77.3272 34.4006 77.7161C34.3142 78.0185 34.0333 78.2346 33.7093 78.2346Z" fill="#303030"/>
<path d="M43.8203 65.034C43.6043 65.034 43.3882 64.926 43.2586 64.7316C43.0425 64.4075 43.129 63.997 43.4314 63.7809C44.5549 63.0032 45.5919 62.3766 46.6073 61.7501C50.7771 59.1791 53.4129 57.5587 53.6505 51.6174C51.2956 53.0217 45.3327 57.0618 40.9685 64.0186C40.774 64.3427 40.3419 64.4291 40.0179 64.2346C39.6938 64.0402 39.6074 63.6081 39.8018 63.284C45.5487 54.1236 53.7153 49.9754 54.061 49.8026C54.2771 49.6946 54.5363 49.7162 54.7308 49.8242C54.9252 49.9538 55.0548 50.1699 55.0548 50.4075C55.0981 58.1205 51.8357 60.1297 47.3203 62.9167C46.3265 63.5217 45.311 64.1698 44.2092 64.9044C44.1012 64.9908 43.9499 65.034 43.8203 65.034Z" fill="#303030"/>
<path d="M24.7648 69.6791C23.4902 69.6791 22.4747 68.6421 22.4747 67.389C22.4747 66.1143 23.5118 65.0989 24.7648 65.0989C26.0395 65.0989 27.055 66.1359 27.055 67.389C27.055 68.6421 26.0395 69.6791 24.7648 69.6791ZM24.7648 66.46C24.2679 66.46 23.8574 66.8705 23.8574 67.3674C23.8574 67.8643 24.2679 68.2748 24.7648 68.2748C25.2618 68.2748 25.6723 67.8643 25.6723 67.3674C25.6723 66.8705 25.2618 66.46 24.7648 66.46Z" fill="#303030"/>
<path d="M56.7185 73.8056C56.5889 73.8056 56.4593 73.7624 56.3512 73.6976C56.0272 73.5032 55.9407 73.071 56.1352 72.747C56.4376 72.2933 56.4376 71.7099 56.1568 71.2346C55.8111 70.6513 55.0981 70.392 54.45 70.6081C54.0827 70.7377 53.6938 70.5433 53.5642 70.1976C53.4346 69.8303 53.629 69.4414 53.9747 69.3118C55.2494 68.8581 56.6537 69.3766 57.3451 70.5217C57.8852 71.4507 57.8636 72.5741 57.3018 73.4815C57.1722 73.6976 56.9346 73.8056 56.7185 73.8056Z" fill="#303030"/>
<path d="M41.5085 78.7099C41.3141 78.7099 41.098 78.6235 40.9684 78.4506C40.7307 78.1482 40.774 77.7161 41.0764 77.4784C41.4869 77.1544 41.703 76.679 41.703 76.1605C41.703 75.3611 41.1412 74.6698 40.3419 74.5186C39.9746 74.4537 39.7153 74.0865 39.8017 73.6976C39.8665 73.3303 40.2338 73.071 40.6227 73.1574C42.0486 73.4383 43.0857 74.6914 43.0857 76.1605C43.0857 77.1111 42.6536 77.9753 41.919 78.5587C41.811 78.6667 41.6598 78.7099 41.5085 78.7099Z" fill="#303030"/>
<path d="M41.098 74.6266C40.8388 74.6266 40.6011 74.605 40.3635 74.5402C39.9962 74.4538 39.7585 74.0649 39.8665 73.6976C39.953 73.3303 40.3419 73.0927 40.7091 73.2007C40.8388 73.2223 40.9684 73.2439 41.1196 73.2439C42.0486 73.2439 42.8048 72.4877 42.8048 71.5587C42.8048 70.6297 42.0486 69.8736 41.1196 69.8736C40.7307 69.8736 40.4283 69.5711 40.4283 69.1822C40.4283 68.7933 40.7307 68.4908 41.1196 68.4908C42.8048 68.4908 44.1875 69.8736 44.1875 71.5587C44.1659 73.2655 42.8048 74.6266 41.098 74.6266Z" fill="#303030"/>
<path d="M47.4067 71.5803C47.1042 71.5803 46.7801 71.5371 46.4993 71.429C46.132 71.2994 45.9375 70.9105 46.0672 70.5648C46.1968 70.1976 46.5857 70.0031 46.9314 70.1327C47.169 70.2192 47.4499 70.2408 47.6875 70.1759C48.5085 70.0247 49.0486 69.2253 48.8758 68.4044C48.7462 67.6914 48.1196 67.1945 47.4067 67.1729C47.0178 67.1729 46.7153 66.8704 46.7153 66.4815C46.7153 66.0926 47.0178 65.7902 47.4067 65.7902C48.7894 65.7902 49.9777 66.784 50.2369 68.1235C50.5394 69.679 49.524 71.213 47.9468 71.5155C47.774 71.5803 47.6011 71.5803 47.4067 71.5803Z" fill="#303030"/>
<path d="M47.5796 67.2161C47.5364 67.2161 47.4932 67.2161 47.4284 67.2161C47.0395 67.1945 46.7586 66.8704 46.7802 66.4815C46.8018 66.0926 47.1259 65.7902 47.5148 65.8334C47.6444 65.8334 47.7524 65.8334 47.8821 65.8118C48.7031 65.6605 49.2432 64.8611 49.0703 64.0402C48.9407 63.3704 48.379 62.8735 47.7092 62.8303C47.3203 62.8087 47.0395 62.463 47.0611 62.0957C47.0827 61.7068 47.4284 61.426 47.7957 61.4476C49.0919 61.534 50.1722 62.5062 50.4314 63.7809C50.7339 65.3365 49.7185 66.8704 48.1413 67.1729C47.9469 67.1945 47.774 67.2161 47.5796 67.2161Z" fill="#303030"/>
<path d="M58.1876 66.9784C58.1228 66.9784 58.058 66.9784 58.0148 66.9784C57.6259 66.9568 57.345 66.6111 57.3882 66.2439C57.4098 65.855 57.7339 65.5741 58.1228 65.6173C58.2956 65.6389 58.4685 65.5957 58.6413 65.5309C58.879 65.4229 59.0734 65.2068 59.1598 64.9476C59.2462 64.6883 59.2462 64.4074 59.1166 64.1698C58.9006 63.7377 58.4253 63.5 57.95 63.6081C57.5827 63.6945 57.1938 63.4784 57.1074 63.1111C57.0209 62.7439 57.237 62.355 57.6043 62.2685C58.7061 61.9877 59.8728 62.5494 60.3481 63.5864C60.629 64.1698 60.6506 64.8179 60.4345 65.4229C60.2185 66.0278 59.7864 66.5031 59.203 66.784C58.879 66.892 58.5333 66.9784 58.1876 66.9784Z" fill="#303030"/>
<path d="M57.8204 63.6081C57.4963 63.6081 57.2155 63.392 57.1507 63.0464C57.0642 62.6791 57.3235 62.3118 57.6908 62.2254C57.7772 62.2038 57.8636 62.1822 57.9284 62.139C58.4253 61.9013 58.663 61.2964 58.4253 60.7779C58.2309 60.3674 57.7988 60.1297 57.3451 60.1945C56.9562 60.2593 56.6105 60.0001 56.5457 59.6328C56.4809 59.2655 56.7402 58.8982 57.1074 58.8334C58.1661 58.6606 59.2031 59.2223 59.6568 60.1945C60.2185 61.3828 59.7 62.8303 58.5118 63.392C58.3389 63.4785 58.1445 63.5433 57.9716 63.5649C57.9068 63.6081 57.8636 63.6081 57.8204 63.6081Z" fill="#303030"/>
<path d="M46.024 84.0247C45.916 84.0247 45.8296 84.0031 45.7216 83.9599C44.1228 83.2037 41.379 81.3457 38.9377 78.6667C38.6784 78.3858 38.7 77.9537 38.9809 77.6945C39.2617 77.4352 39.6938 77.4568 39.9531 77.7377C42.2648 80.2871 44.8142 82.0155 46.3049 82.7068C46.6506 82.8797 46.8018 83.2902 46.629 83.6358C46.5426 83.8951 46.2833 84.0247 46.024 84.0247Z" fill="#303030"/>
<path d="M49.4376 81.6698C49.3728 81.6698 49.2864 81.6482 49.2216 81.6266C47.8605 81.1729 45.095 79.8982 43.5179 78.3858C43.237 78.1266 43.237 77.6945 43.4963 77.4136C43.7555 77.1328 44.1876 77.1328 44.4685 77.392C45.808 78.6667 48.3142 79.8766 49.6753 80.3303C50.0425 80.4599 50.237 80.8488 50.1074 81.1945C49.9993 81.4753 49.7185 81.6698 49.4376 81.6698Z" fill="#303030"/>
<path d="M52.3543 79.1204C52.2679 79.1204 52.1815 79.0988 52.095 79.0772L51.771 78.9475C50.9932 78.6451 49.8049 78.1698 48.5086 77.3704C48.1846 77.1759 48.0765 76.7438 48.2926 76.4198C48.487 76.0957 48.9191 75.9877 49.2432 76.2037C50.4315 76.9383 51.4901 77.3488 52.2679 77.6512L52.6136 77.7809C52.9592 77.9321 53.1321 78.321 53.0024 78.6883C52.8944 78.9691 52.6352 79.1204 52.3543 79.1204Z" fill="#303030"/>
<path d="M44.9006 61.6205C44.7062 61.6205 44.5333 61.5557 44.4037 61.4045C44.1444 61.1236 44.1661 60.6915 44.4253 60.4323C46.1753 58.7903 50.6259 54.7718 53.8018 53.2378C54.1475 53.065 54.558 53.2162 54.7308 53.5619C54.9037 53.9076 54.7524 54.3181 54.4068 54.4909C51.4037 55.96 47.0827 59.8489 45.3759 61.4477C45.2247 61.5557 45.0519 61.6205 44.9006 61.6205Z" fill="#303030"/>
<path d="M72.8573 45.5465C72.7493 45.5465 72.6412 45.5248 72.5548 45.4816C72.2091 45.3088 72.0795 44.8983 72.2307 44.5526C73.8295 41.2903 74.8233 36.2131 72.8789 31.6977C72.7277 31.352 72.8789 30.9416 73.2462 30.7903C73.5918 30.6391 74.0023 30.7903 74.1536 31.1576C76.2925 36.1051 75.2122 41.636 73.4838 45.1792C73.3542 45.4168 73.1165 45.5465 72.8573 45.5465Z" fill="#303030"/>
<path d="M66.6136 46.4754C66.2679 46.4754 65.9654 46.2161 65.9222 45.8704C65.5982 43.3643 63.913 38.2439 59.7216 35.0464C59.4192 34.8087 59.3543 34.3766 59.592 34.0742C59.8297 33.7717 60.2618 33.7069 60.5642 33.9445C65.1229 37.4229 66.9377 42.9538 67.3049 45.6976C67.3482 46.0865 67.0889 46.4322 66.7 46.4754C66.6784 46.4754 66.6568 46.4754 66.6136 46.4754Z" fill="#303030"/>
<path d="M69.206 48.6791C69.1412 48.6791 69.0764 48.6791 69.0116 48.6575C68.6443 48.5495 68.4283 48.1822 68.5363 47.815C69.2492 45.2872 69.3789 41.852 68.8388 39.9724C68.7307 39.6051 68.9468 39.2162 69.3141 39.1082C69.6813 39.0002 70.0702 39.2162 70.1783 39.5835C70.8048 41.7008 70.6752 45.3952 69.8974 48.1822C69.7894 48.4847 69.5085 48.6791 69.206 48.6791Z" fill="#303030"/>
<path d="M24.6138 18.5619C24.5058 18.5619 24.3761 18.5403 24.2681 18.4755C23.944 18.2811 23.8144 17.8706 24.0088 17.5249C28.6539 9.29342 33.7094 4.12986 37.1446 1.2348C39.1539 -0.450378 42.1137 -0.407168 44.0582 1.34283C45.8082 2.91998 48.7248 5.6638 52.7433 9.74713C53.0026 10.028 53.0026 10.4601 52.7433 10.7193C52.4625 10.9786 52.0304 10.9786 51.7711 10.7193C47.7742 6.65763 44.8792 3.93541 43.1292 2.35826C41.7032 1.06196 39.4995 1.01875 38.0304 2.27184C34.7033 5.10208 29.7773 10.1576 25.2187 18.1946C25.0891 18.4323 24.873 18.5619 24.6138 18.5619Z" fill="#303030"/>
<path d="M53.5212 29.0835C51.2527 29.0835 45.8083 27.7224 42.6107 26.3181C42.2651 26.1668 42.1138 25.7564 42.2651 25.4107C42.4163 25.065 42.8268 24.9138 43.1725 25.065C46.5428 26.5557 52.1817 27.852 53.7805 27.7224C54.1694 27.6792 54.4934 27.96 54.5366 28.3489C54.5799 28.7378 54.299 29.0619 53.9101 29.1051C53.7805 29.0835 53.6508 29.0835 53.5212 29.0835Z" fill="#303030"/>
<path d="M14.2219 59.4384C14.0275 59.4384 13.833 59.352 13.7034 59.2008C10.5059 55.6576 8.82069 51.0773 9.01514 46.3026C9.31761 40.707 11.9102 35.7595 16.3176 32.3459C17.7219 24.6113 22.4102 17.6978 29.1941 13.3336C36.0644 8.92619 44.4687 7.56509 52.2465 9.61755C52.6138 9.72557 52.8298 10.0929 52.7434 10.4601C52.657 10.8274 52.2681 11.0435 51.9008 10.9571C44.4904 9.01261 36.4965 10.3089 29.9503 14.5003C23.404 18.7132 18.9102 25.3891 17.6355 32.8212C17.6139 32.994 17.5059 33.1453 17.3762 33.2533C11.975 37.3366 10.5923 42.6298 10.3978 46.3458C10.2898 49.5218 11.046 52.6329 12.6015 55.3335C12.1262 51.6823 13.012 48.2039 14.1355 45.957C14.438 45.4168 14.8701 44.7039 15.3886 44.0341C16.0151 43.1699 16.9873 42.6514 18.0676 42.5866C19.1262 42.5218 20.1417 42.9323 20.8762 43.6884C21.1355 43.9477 21.3731 44.2286 21.5892 44.5094C21.6108 44.531 21.6324 44.5742 21.6756 44.5959C21.6756 44.5959 21.6756 44.6175 21.6972 44.6175C21.7836 44.7255 21.87 44.8119 21.9565 44.9199C24.7651 48.1391 28.7836 49.5218 32.3268 49.6514C26.4719 46.7347 22.8639 38.6329 21.0923 33.5342C21.0275 33.3613 21.0491 33.1885 21.1139 33.0156C23.9441 26.9015 31.7867 22.5157 38.2681 23.4015C38.6354 23.4447 38.9163 23.812 38.8515 24.1792C38.8083 24.5681 38.441 24.8274 38.0737 24.7626C32.3268 23.9848 25.1324 27.9601 22.475 33.3397C24.1602 38.136 28.6756 48.636 36.0644 49.3273C36.4101 49.3489 36.6694 49.6298 36.691 49.9755C36.7126 50.3211 36.4965 50.6236 36.1509 50.6884C31.7219 51.7039 25.0676 50.6452 20.9194 45.8705C20.8114 45.7625 20.7034 45.6329 20.5954 45.5033C20.5737 45.4817 20.5737 45.4817 20.5521 45.46L20.4873 45.3952C20.2929 45.1576 20.0768 44.8983 19.8392 44.6607C19.4071 44.1854 18.7805 43.9477 18.1324 43.9909C17.4843 44.0341 16.8793 44.3582 16.4904 44.8767C16.0367 45.5033 15.6046 46.1514 15.3454 46.6267C13.8546 49.565 13.1201 54.3829 14.8269 58.5094C14.9565 58.8119 14.8485 59.1791 14.5676 59.352C14.4596 59.3952 14.3299 59.4384 14.2219 59.4384Z" fill="#303030"/>
<path d="M55.0118 29.1267C54.6661 29.1267 54.2989 29.1267 53.9532 29.1051C52.3976 29.0403 51.5334 27.5496 51.1662 26.923C50.4964 25.7564 50.3668 24.028 50.8205 22.2996C51.231 20.7656 52.268 18.7564 53.2186 17.6329C53.4563 17.3521 53.91 17.3089 54.1908 17.5465C54.4717 17.7842 54.5149 18.2379 54.2773 18.5187C53.4563 19.4909 52.5273 21.3058 52.16 22.6453C51.7927 24.0064 51.8791 25.3675 52.3544 26.2101C52.7649 26.9014 53.305 27.6792 54.018 27.7008C55.1198 27.744 56.2217 27.7224 57.3019 27.6144C60.1322 27.3983 62.9192 26.7286 65.555 25.6483C66.1815 25.3891 66.484 24.6761 66.2464 24.028C64.41 19.4261 61.8606 15.9477 58.7063 13.7008C56.7186 12.2965 54.2773 11.5404 51.9439 10.9354C51.5767 10.849 51.3606 10.4601 51.447 10.0928C51.5334 9.72554 51.9223 9.48789 52.2896 9.59591C54.7526 10.2441 57.3452 11.0434 59.5056 12.5774C62.876 14.9755 65.5982 18.6484 67.5427 23.5095C68.0828 24.849 67.4346 26.3613 66.0951 26.923C63.3297 28.0681 60.413 28.7594 57.4316 28.9971C56.6322 29.0835 55.8328 29.1267 55.0118 29.1267Z" fill="#303030"/>
<path d="M31.7218 34.8736C31.5921 34.8736 31.4409 34.8304 31.3329 34.7439C31.1384 34.6143 31.0304 34.3767 31.0304 34.139C31.3761 27.031 34.4872 25.3242 38.7865 22.9909C39.7372 22.4724 40.7094 21.9538 41.7464 21.3057C42.0705 21.1113 42.5026 21.2193 42.697 21.5434C42.8915 21.8674 42.7834 22.2995 42.4594 22.494C41.3791 23.1421 40.3421 23.7038 39.4347 24.2008C35.5026 26.3396 33.0396 27.6791 32.4779 33.0155C34.768 31.8057 40.3421 28.4137 44.6415 22.3211C44.8575 22.0187 45.2896 21.9322 45.6137 22.1483C45.9162 22.3643 46.0026 22.7964 45.7865 23.1205C40.0396 31.2655 32.3267 34.6791 32.0026 34.8088C31.9162 34.8736 31.8298 34.8736 31.7218 34.8736Z" fill="#303030"/>
<path d="M59.7865 22.2564C59.7433 22.2564 59.7001 22.2564 59.6569 22.2564C58.4686 22.1916 57.5396 21.1762 57.6044 19.9663C57.6692 18.778 58.6846 17.849 59.8945 17.9138C60.4778 17.9354 60.9964 18.1947 61.3852 18.6268C61.7741 19.0589 61.9686 19.6206 61.9254 20.1824C61.9038 20.7657 61.6445 21.2842 61.2124 21.6731C60.8451 22.062 60.3266 22.2564 59.7865 22.2564ZM59.0087 20.0311C58.9871 20.4632 59.3112 20.8305 59.7433 20.8521C59.9593 20.8737 60.1538 20.7873 60.305 20.6577C60.4562 20.5064 60.5643 20.3336 60.5643 20.1175C60.5859 19.9015 60.4994 19.707 60.3698 19.5558C60.2186 19.4046 60.0457 19.2966 59.8297 19.2966C59.3976 19.2533 59.0303 19.599 59.0087 20.0311Z" fill="#303030"/>
<path d="M32.3051 17.0064C31.3329 17.0064 30.4255 16.4663 29.9502 15.5805C29.4965 14.6947 29.5613 13.636 30.1447 12.815C30.3607 12.5126 30.7928 12.4262 31.1169 12.6638C31.4193 12.8799 31.5058 13.312 31.2681 13.636C30.9872 14.0249 30.944 14.5218 31.1817 14.9539C31.4625 15.4941 32.0891 15.7533 32.6508 15.5805C33.0181 15.4724 33.407 15.6885 33.515 16.0558C33.623 16.4231 33.407 16.812 33.0397 16.92C32.8021 16.9632 32.5428 17.0064 32.3051 17.0064Z" fill="#303030"/>
<path d="M45.6569 14.0465C45.5921 14.0465 45.5489 14.0465 45.4841 14.0249C44.1662 13.6793 43.2588 12.4478 43.3236 11.0867C43.3668 10.2009 43.8205 9.4015 44.5334 8.90459C44.8359 8.68854 45.268 8.75335 45.5057 9.07743C45.7217 9.37989 45.6569 9.81199 45.3328 10.0496C44.9655 10.3089 44.7279 10.7194 44.7063 11.1947C44.6631 11.9077 45.1384 12.5342 45.8297 12.707C46.197 12.7935 46.4131 13.1824 46.3267 13.5496C46.2402 13.8305 45.9594 14.0465 45.6569 14.0465Z" fill="#303030"/>
<path d="M44.8576 18.281C44.8359 18.281 44.8359 18.281 44.8143 18.281C43.2372 18.1946 42.0273 16.8335 42.1137 15.2563C42.2002 13.6792 43.5397 12.4693 45.1384 12.5341C45.3761 12.5557 45.6137 12.5773 45.8298 12.6637C46.1971 12.7718 46.3915 13.1606 46.2835 13.5279C46.1754 13.8952 45.7866 14.1113 45.4193 13.9816C45.3113 13.9384 45.1816 13.9168 45.052 13.9168C44.2526 13.8736 43.5397 14.5001 43.4964 15.3211C43.4532 16.1421 44.0798 16.8335 44.9008 16.8983C45.2896 16.9199 45.5705 17.244 45.5489 17.6329C45.5273 18.0001 45.2248 18.281 44.8576 18.281Z" fill="#303030"/>
<path d="M38.9163 20.4632C38.8947 20.4632 38.8947 20.4632 38.873 20.4632C37.5768 20.3984 36.5181 19.4046 36.3453 18.1299C36.1292 16.6392 37.1879 15.2781 38.657 15.062C39.1323 14.9972 39.586 15.062 40.0397 15.2348C40.3854 15.3861 40.5582 15.775 40.4286 16.1423C40.299 16.4879 39.8885 16.6824 39.5212 16.5311C39.3051 16.4447 39.0675 16.4231 38.8514 16.4447C38.1169 16.5527 37.62 17.2225 37.7064 17.9571C37.7928 18.5836 38.3113 19.0589 38.9595 19.1021C39.3484 19.1237 39.6292 19.4478 39.6076 19.8367C39.586 20.1608 39.2835 20.4632 38.9163 20.4632Z" fill="#303030"/>
<path d="M38.4193 24.4601C38.3977 24.4601 38.3545 24.4601 38.3329 24.4601C37.123 24.3089 36.1508 23.3582 35.978 22.1484C35.7619 20.6576 36.8206 19.2965 38.2897 19.0805C38.5057 19.0589 38.7434 19.0373 38.9594 19.0589C39.3483 19.1021 39.6076 19.4478 39.5644 19.815C39.5212 20.2039 39.1755 20.4632 38.8082 20.42C38.7002 20.3984 38.5922 20.42 38.4841 20.42C37.7496 20.528 37.2527 21.1978 37.3391 21.9323C37.4255 22.5373 37.9008 22.991 38.4841 23.0774C38.873 23.1206 39.1323 23.4663 39.0891 23.8552C39.0459 24.2008 38.765 24.4601 38.4193 24.4601Z" fill="#303030"/>
<path d="M28.9347 23.2502C28.0273 23.2502 27.1847 22.7101 26.839 21.8242C26.3637 20.6576 26.9255 19.3397 28.0921 18.886C28.4594 18.7348 28.8483 18.6915 29.2372 18.7348C29.6261 18.778 29.8853 19.1236 29.8421 19.5125C29.7989 19.9014 29.4532 20.1607 29.0643 20.1175C28.9131 20.0959 28.7619 20.1175 28.6106 20.1823C28.1569 20.3551 27.9409 20.8736 28.1137 21.3273C28.265 21.7162 28.6755 21.9539 29.086 21.8675C29.4748 21.8026 29.8205 22.0403 29.8853 22.4076C29.9501 22.7749 29.7125 23.1421 29.3452 23.207C29.2156 23.2502 29.086 23.2502 28.9347 23.2502Z" fill="#303030"/>
<path d="M29.41 26.3613C28.5026 26.3613 27.66 25.7996 27.3143 24.9354C27.0766 24.3737 27.0982 23.7687 27.3359 23.207C27.5735 22.6453 28.0056 22.2132 28.5674 21.9971C28.7402 21.9323 28.9131 21.8891 29.1075 21.8459C29.4964 21.8027 29.8421 22.0619 29.8853 22.4292C29.9285 22.8181 29.6692 23.1638 29.3019 23.207C29.2371 23.207 29.1723 23.2286 29.1075 23.2718C28.8914 23.3582 28.7186 23.5311 28.6322 23.7471C28.5458 23.9632 28.5458 24.2008 28.6322 24.4169C28.7834 24.7842 29.1507 25.0002 29.5396 24.957C29.9285 24.9138 30.2526 25.1946 30.2958 25.5619C30.339 25.9508 30.0581 26.2749 29.6908 26.3181C29.5612 26.3613 29.4964 26.3613 29.41 26.3613Z" fill="#303030"/>
<path d="M46.8021 10.0928C46.6076 10.0928 46.3916 10.0064 46.2619 9.83357C44.2743 7.39221 42.0274 5.68543 40.6879 4.95086C40.3422 4.77802 40.2342 4.34593 40.407 4.02185C40.5798 3.67618 41.0119 3.56815 41.336 3.74099C42.7835 4.51877 45.2033 6.35518 47.3206 8.96937C47.5582 9.27184 47.515 9.70394 47.2125 9.94159C47.1261 10.0496 46.9533 10.0928 46.8021 10.0928Z" fill="#303030"/>
<path d="M42.6538 10.1576C42.481 10.1576 42.2866 10.0928 42.1569 9.94158C40.9903 8.73171 38.7218 7.45702 37.5551 7.00332C37.2094 6.87369 37.0366 6.4632 37.1662 6.11752C37.3174 5.77184 37.7063 5.5774 38.0736 5.72863C39.3051 6.22554 41.7897 7.54344 43.1724 8.99097C43.4316 9.27183 43.4316 9.70393 43.1508 9.96319C42.9995 10.0928 42.8267 10.1576 42.6538 10.1576Z" fill="#303030"/>
<path d="M38.0952 10.9138C37.9656 10.9138 37.8144 10.8706 37.7064 10.7841C36.6693 10.0496 35.6971 9.61748 35.0057 9.29341L34.7033 9.14218C34.3576 8.99094 34.2064 8.58045 34.3576 8.23477C34.5088 7.88909 34.9193 7.73786 35.265 7.88909L35.5675 8.01872C36.2804 8.34279 37.3391 8.8181 38.4841 9.61748C38.7866 9.83353 38.873 10.2656 38.657 10.5897C38.5273 10.8058 38.3113 10.9138 38.0952 10.9138Z" fill="#303030"/>
<path d="M32.154 31.7409C31.8947 31.7409 31.6355 31.5897 31.5274 31.3088C31.3762 30.9631 31.549 30.5526 31.8947 30.4014C34.725 29.2131 38.8731 25.8428 40.5151 24.4601C40.8175 24.2224 41.2496 24.244 41.4873 24.5465C41.7249 24.849 41.7033 25.2811 41.4009 25.5187C39.6941 26.9446 35.4163 30.4014 32.4132 31.6761C32.3484 31.7409 32.262 31.7409 32.154 31.7409Z" fill="#303030"/>
<path d="M13.2065 51.3798C12.9256 51.3798 12.6664 51.207 12.5584 50.9261C10.83 46.2594 12.1047 41.2039 13.8763 38.028C14.0707 37.7039 14.4812 37.5743 14.8269 37.7687C15.1509 37.9632 15.2806 38.3737 15.0861 38.7193C13.4658 41.6144 12.2991 46.2162 13.8546 50.4508C13.9843 50.8181 13.8114 51.207 13.4442 51.3366C13.3577 51.3582 13.2713 51.3798 13.2065 51.3798Z" fill="#303030"/>
<path d="M25.6291 49.2192C25.4779 49.2192 25.3051 49.176 25.1754 49.0464C21.1569 45.6112 19.7526 40.4044 19.5582 37.8766C19.5366 37.4877 19.8174 37.1637 20.1847 37.1421C20.5736 37.0989 20.8977 37.4013 20.9193 37.7686C21.0921 40.0803 22.3884 44.855 26.0612 47.9877C26.3421 48.2254 26.3853 48.6791 26.1477 48.9599C26.018 49.1544 25.8236 49.2192 25.6291 49.2192Z" fill="#303030"/>
<path d="M17.3113 43.926C16.9872 43.926 16.7064 43.71 16.6416 43.3859C16.1662 41.3982 16.4687 37.9847 17.3329 35.4569C17.4625 35.0896 17.8514 34.8952 18.2187 35.0248C18.586 35.1544 18.7804 35.5433 18.6508 35.9106C17.873 38.2007 17.5922 41.3334 18.0027 43.0834C18.0891 43.4507 17.8514 43.818 17.4841 43.926C17.3977 43.9044 17.3545 43.926 17.3113 43.926Z" fill="#303030"/>
</g>
<defs>
<clipPath id="clip0_533_2165">
<rect width="88" height="88" fill="white"/>
</clipPath>
</defs>
</svg>
