<svg width="88" height="88" viewBox="0 0 88 88" fill="none" xmlns="http://www.w3.org/2000/svg">
<path d="M49.418 8.86439C57.043 8.77279 64.3017 10.7649 70.5986 14.6805C63.4316 7.97137 54.0205 4.3306 44.037 4.46798C40.3733 4.51378 36.7555 5.06333 33.275 6.09374L36.5036 11.1313C40.6252 9.71161 44.9987 8.93308 49.418 8.86439Z" fill="white"/>
<path d="M11.2013 36.3648L6.11792 33.182C5.06461 36.6854 4.49216 40.3262 4.46926 44.0356C4.35477 54.0191 7.99555 63.4531 14.7046 70.6201C10.7891 64.3003 8.77408 57.0416 8.86567 49.4166C8.93436 44.9286 9.73579 40.5322 11.2013 36.3648Z" fill="white"/>
<path d="M24.5279 21.0918L24.4363 19.7408C24.2073 19.9469 23.9783 20.153 23.7493 20.3362L24.5508 21.1376C24.5508 21.1376 24.5279 21.1147 24.5279 21.0918Z" fill="white"/>
<path d="M25.1232 9.55126L25.6727 16.8786C28.6037 14.7262 31.7636 12.9631 35.0838 11.6579L31.8094 6.55164C29.5196 7.35306 27.2756 8.36057 25.1232 9.55126Z" fill="white"/>
<path d="M14.2697 10.078L5.59138 5.54419L10.1481 14.2225L13.4225 13.3753L14.2697 10.078Z" fill="white"/>
<path d="M18.0019 14.6347L22.696 19.3059C23.2226 18.848 23.7493 18.39 24.2988 17.9549L23.7264 10.3757C21.7114 11.6122 19.7879 13.0319 18.0019 14.6347Z" fill="white"/>
<path d="M62.0805 71.9024L68.2858 71.5589L53.6769 56.9271L62.0805 71.9024Z" fill="white"/>
<path d="M14.7276 14.1537C14.6589 14.4056 14.4529 14.6117 14.201 14.6804L13.6285 14.8407L15.1398 16.3519L15.1627 16.3748L70.2551 71.4673L71.4458 71.3986L71.5145 70.2079L14.8879 13.5813L14.7276 14.1537Z" fill="white"/>
<path d="M11.728 34.9681C12.0486 34.1667 12.392 33.3652 12.7584 32.5867L11.8883 21.4354C9.6214 24.6182 7.83536 28.0987 6.57597 31.7624L11.728 34.9681Z" fill="white"/>
<path d="M71.606 68.2158L71.9495 62.0105L56.9742 53.6069L71.606 68.2158Z" fill="white"/>
<path d="M13.6514 16.9016C13.4682 17.1077 13.2621 17.3367 13.0789 17.5428L13.2392 19.6494L14.0406 30.0908C15.529 27.4347 17.2921 24.9388 19.3758 22.6261L14.6818 17.9549L13.6514 16.9016Z" fill="white"/>
<path d="M24.5508 21.1605C24.5508 21.1376 24.5279 21.1147 24.5279 21.0918L24.4363 19.7408C24.2073 19.9469 23.9783 20.153 23.7493 20.3362L24.5508 21.1605Z" fill="#E6E6E6"/>
<path d="M13.4224 13.3753L14.0178 11.0855L8.01854 7.94849L11.1556 13.9477L13.4224 13.3753Z" fill="#E7F4F6"/>
<path d="M68.286 71.5589L57.9361 61.1862L63.8896 71.8108L68.286 71.5589Z" fill="#F68362"/>
<path d="M14.7274 14.1537C14.6587 14.4056 14.4527 14.6117 14.2008 14.6804L13.6283 14.8407L15.1396 16.3519L70.232 71.4444L71.4227 71.3757L71.4914 70.185L14.8877 13.5813L14.7274 14.1537Z" fill="#FBCA82"/>
<path d="M71.606 68.2158L71.9495 62.0105L56.9742 53.6069L71.606 68.2158Z" fill="#F68362"/>
<path d="M71.8579 63.9568L71.9495 62.0105L56.9742 53.6069L61.5309 58.1636L71.8579 63.9568Z" fill="#E66754"/>
<path d="M14.6818 17.9548L13.6514 16.9244C13.4682 17.1305 13.2621 17.3595 13.0789 17.5656L13.2392 19.6722C13.6972 19.0768 14.178 18.5044 14.6818 17.9548Z" fill="#E6E6E6"/>
<path d="M15.1398 16.3291C15.1631 16.3524 15.1631 16.3524 15.1398 16.3291V16.3291Z" fill="#E6E6E6"/>
<path d="M34.4197 7.87988L36.5035 11.1543C40.6251 9.71171 44.9986 8.93319 49.4179 8.86449C57.0429 8.7729 64.3015 10.765 70.5985 14.6806C66.5684 10.9024 61.8515 8.10886 56.6994 6.41441C53.9746 5.88776 51.1581 5.59009 48.2959 5.59009C43.4415 5.59009 38.7703 6.39152 34.4197 7.87988Z" fill="#FBCA82"/>
<path d="M25.6728 16.9016C28.6037 14.7492 31.7636 12.986 35.0838 11.6808L33.0001 8.38354C30.2981 9.41395 27.7336 10.6962 25.3293 12.2075L25.6728 16.9016Z" fill="#F68362"/>
<path d="M22.6959 19.3059C23.2226 18.8479 23.7492 18.3899 24.2988 17.9549L23.9324 13.1234C22.467 14.1309 21.0931 15.2071 19.765 16.3749L22.6959 19.3059Z" fill="#F68362"/>
<path d="M13.5139 23.1756L14.0406 30.0679C15.5289 27.4118 17.2921 24.9159 19.3758 22.6032L16.399 19.6265C15.3686 20.7943 14.4069 21.9621 13.5139 23.1756Z" fill="#F68362"/>
<path d="M11.728 34.968C12.0485 34.1666 12.392 33.3652 12.7584 32.5866L12.1859 25.099C10.606 27.5033 9.27788 30.0678 8.20168 32.7469L11.728 34.968Z" fill="#F68362"/>
<path d="M5.27076 52.3246C6.66753 59.1711 9.89614 65.4909 14.7276 70.6201C10.8121 64.3002 8.79704 57.0416 8.88863 49.4166C8.93443 44.9286 9.73586 40.5322 11.2242 36.3648L7.65214 34.1437C6.00349 38.7233 5.11047 43.6463 5.11047 48.7984C5.11047 49.9661 5.15627 51.1568 5.27076 52.3246Z" fill="#FBCA82"/>
<path d="M35.7021 9.87191L36.5036 11.1542C40.6252 9.71162 44.9987 8.93309 49.418 8.8644C52.9672 8.8186 56.4248 9.23076 59.745 10.078C55.8752 8.7957 51.7307 8.10876 47.4259 8.10876C43.35 8.10876 39.3887 8.72701 35.7021 9.87191Z" fill="#ECA870"/>
<path d="M25.6729 16.9016C28.6038 14.7492 31.7637 12.9861 35.0839 11.6809L34.2367 10.3757C31.1226 11.4748 28.1916 12.9632 25.4897 14.7721L25.6729 16.9016Z" fill="#E66754"/>
<path d="M22.6961 19.3058C23.2227 18.8479 23.7494 18.3899 24.2989 17.9549L24.1387 15.7338C23.1769 16.4436 22.261 17.1763 21.3909 17.9778L22.6961 19.3058Z" fill="#E66754"/>
<path d="M14.0407 30.0908C15.529 27.4346 17.2922 24.9387 19.3759 22.6261L18.0478 21.298C16.4678 23.0611 15.0482 24.9616 13.8117 26.9996L14.0407 30.0908Z" fill="#E66754"/>
<path d="M11.728 34.968C12.0486 34.1666 12.3921 33.3652 12.7584 32.5867L12.5066 29.3123C11.7051 30.8693 10.9953 32.4722 10.3999 34.1208L11.728 34.968Z" fill="#E66754"/>
<path d="M10.1709 60.0412C9.27793 56.6294 8.84287 53.0574 8.86576 49.4166C8.91156 44.9286 9.71299 40.5322 11.2014 36.3648L9.91907 35.5634C8.72838 39.3186 8.08723 43.3029 8.08723 47.4474C8.08723 51.8438 8.81997 56.0799 10.1709 60.0412Z" fill="#ECA870"/>
<path d="M15.8725 85C15.6664 85 15.4603 84.9084 15.3001 84.7252C15.0482 84.4275 15.0711 84.0153 15.3459 83.7406C18.1852 80.9012 18.2997 76.3674 15.6206 73.5968C15.5977 73.5739 15.5977 73.551 15.5748 73.551C15.3917 73.3678 15.2543 73.2304 15.094 73.1159C14.4986 72.5435 14.0407 72.0626 13.6056 71.6276C6.66754 64.1857 2.88938 54.3854 3.00387 44.0356C3.11836 33.8002 7.0797 23.977 14.1094 16.3978C14.3841 16.1001 14.8421 16.0772 15.1398 16.352C15.4374 16.6267 15.4603 17.0847 15.1856 17.3824C8.38488 24.7097 4.58383 34.1895 4.46934 44.0585C4.35485 54.0191 7.99562 63.453 14.7047 70.6201C10.7892 64.3002 8.77415 57.0416 8.86574 49.4166C8.98023 39.3644 12.85 29.7015 19.7423 22.1909C20.017 21.8933 20.475 21.8704 20.7727 22.1451C21.0703 22.4199 21.0932 22.8779 20.8185 23.1755C14.1781 30.3884 10.4457 39.7079 10.3312 49.4166C10.2396 58.0033 12.8958 66.1092 18.0249 72.8412C18.1623 73.0243 18.2997 73.2075 18.4371 73.3678C18.46 73.3907 18.4829 73.4136 18.5058 73.4365C18.8263 73.8945 19.0782 74.3753 19.2843 74.8791C20.5666 77.9245 19.8567 81.4737 17.4525 83.8551C17.0861 84.2214 16.6968 84.542 16.2847 84.8397C16.1702 84.9771 16.0328 85 15.8725 85Z" fill="#303030"/>
<path d="M22.7418 20.9774C22.5358 20.9774 22.3526 20.8858 22.1923 20.7484C21.9175 20.4507 21.9404 19.9928 22.2381 19.718C29.7257 12.8486 39.3657 9.00178 49.395 8.88729C57.0201 8.7957 64.2787 10.7878 70.5756 14.7034C63.4086 7.99428 53.9975 4.35351 44.014 4.49089C34.1908 4.60538 24.7798 8.38354 17.4524 15.0926C17.1548 15.3674 16.6968 15.3445 16.422 15.0468C16.1472 14.7492 16.1701 14.2912 16.4678 14.0164C24.0699 7.03256 33.8473 3.13992 44.0369 3.00253C54.3868 2.88804 64.21 6.6662 71.6747 13.673C72.2701 14.2225 72.8425 14.8179 73.3921 15.3903L73.5295 15.5277C76.3001 18.2983 80.8797 18.2296 83.719 15.3903L83.7877 15.3216C84.0625 15.0468 84.4747 15.0239 84.7723 15.2758C85.07 15.5277 85.1158 15.9399 84.9097 16.2604C84.6121 16.6955 84.2915 17.0848 83.9251 17.4511C81.5208 19.8554 77.9717 20.5881 74.9033 19.2601C74.8804 19.2601 74.8575 19.2372 74.8575 19.2372C74.1935 18.9624 73.5981 18.5731 73.0257 18.1381C66.2937 12.9173 58.142 10.2154 49.4637 10.3299C39.7779 10.4444 30.4813 14.1538 23.2685 20.7713C23.1082 20.9087 22.925 20.9774 22.7418 20.9774Z" fill="#303030"/>
<path d="M61.6684 73.4137C61.4165 73.4137 61.1646 73.2763 61.0272 73.0473L49.8988 53.2177C49.6927 52.8743 49.8301 52.4163 50.1736 52.2102C50.5171 52.0041 50.975 52.1415 51.1811 52.485L62.3095 72.3146C62.5156 72.6581 62.3782 73.116 62.0347 73.3221C61.9202 73.3679 61.7829 73.4137 61.6684 73.4137Z" fill="#303030"/>
<path d="M72.6364 62.2852C72.5219 62.2852 72.3845 62.2623 72.27 62.1936L52.6007 51.1339C52.2573 50.9278 52.1199 50.4927 52.326 50.1264C52.532 49.7829 52.9671 49.6455 53.3335 49.8516L73.0028 60.9113C73.3463 61.1174 73.4836 61.5524 73.2776 61.9188C73.1402 62.1478 72.8883 62.2852 72.6364 62.2852Z" fill="#303030"/>
<path d="M69.9573 72.9098C69.7742 72.9098 69.591 72.8411 69.4307 72.7037L11.705 14.9781C11.4303 14.7033 11.4303 14.2224 11.705 13.9477C11.9798 13.6729 12.4607 13.6729 12.7354 13.9477L70.4611 71.6733C70.7359 71.9481 70.7359 72.429 70.4611 72.7037C70.3237 72.8411 70.1405 72.9098 69.9573 72.9098Z" fill="#303030"/>
<path d="M72.2472 70.6201C72.064 70.6201 71.8808 70.5514 71.7205 70.414L14.0177 12.7112C13.743 12.4364 13.743 11.9556 14.0177 11.6808C14.2925 11.406 14.7734 11.406 15.0481 11.6808L72.7509 69.3836C73.0257 69.6584 73.0257 70.1392 72.7509 70.414C72.6135 70.5514 72.4304 70.6201 72.2472 70.6201Z" fill="#303030"/>
<path d="M9.75869 15.8025C9.48391 15.8025 9.23203 15.6651 9.11754 15.4132L3.20988 4.14741C3.07249 3.84974 3.11829 3.50627 3.34727 3.27729C3.57625 3.04831 3.91972 3.00252 4.19449 3.1399L15.4603 9.02467C15.7579 9.18495 15.9182 9.52842 15.8266 9.84899L14.7275 14.108C14.6588 14.3599 14.4528 14.566 14.2009 14.6347L9.94187 15.7338C9.87318 15.8025 9.82738 15.8025 9.75869 15.8025ZM5.59126 5.54418L10.148 14.2225L13.4224 13.3753L14.2696 10.078L5.59126 5.54418Z" fill="#303030"/>
<path d="M18.6203 75.9324C18.231 75.9324 17.9104 75.6348 17.8875 75.2455C17.8646 74.8333 18.1623 74.4899 18.5745 74.467L71.4229 71.3758L74.4454 18.5502C74.4683 18.1381 74.8347 17.8404 75.2239 17.8633C75.6361 17.8862 75.9338 18.2297 75.9109 18.6418L72.8426 72.1085C72.8197 72.4748 72.522 72.7725 72.1556 72.7954L18.6661 75.9324C18.6432 75.9324 18.6432 75.9324 18.6203 75.9324Z" fill="#303030"/>
<path d="M12.0715 36.7769C11.9341 36.7769 11.7967 36.7311 11.6823 36.6624L5.49981 32.7926C5.15634 32.5865 5.06475 32.1286 5.27083 31.7851C5.47691 31.4417 5.93487 31.3272 6.27834 31.5561L12.4608 35.4259C12.8043 35.632 12.8958 36.0899 12.6898 36.4334C12.5524 36.6624 12.3005 36.7769 12.0715 36.7769Z" fill="#303030"/>
<path d="M36.0684 12.6884C35.8166 12.6884 35.5876 12.5739 35.4502 12.3449L31.6033 6.20829C31.3973 5.86482 31.4888 5.40686 31.8323 5.20078C32.1758 4.9947 32.6337 5.08629 32.8398 5.42976L36.6867 11.5664C36.8928 11.9099 36.8012 12.3678 36.4577 12.5739C36.3432 12.6426 36.2058 12.6884 36.0684 12.6884Z" fill="#303030"/>
<path d="M13.4453 33.2966C13.0561 33.2966 12.7355 32.9989 12.7126 32.6096L11.7509 19.4891C11.728 19.077 12.0257 18.7335 12.4378 18.7106C12.85 18.6877 13.1935 18.9854 13.2164 19.3975L14.201 32.518C14.2239 32.9302 13.9262 33.2737 13.514 33.2966C13.4911 33.2966 13.4682 33.2966 13.4453 33.2966Z" fill="#303030"/>
<path d="M25.0545 18.8251C24.6652 18.8251 24.3447 18.5274 24.3218 18.1381L23.6577 9.25372C23.6348 8.84155 23.9325 8.49809 24.3447 8.47519C24.7568 8.42939 25.1003 8.74996 25.1232 9.16213L25.7872 18.0465C25.8101 18.4587 25.5125 18.8022 25.1003 18.8251C25.0774 18.8251 25.0545 18.8251 25.0545 18.8251Z" fill="#303030"/>
</svg>
