<svg width="88" height="88" viewBox="0 0 88 88" fill="none" xmlns="http://www.w3.org/2000/svg">
<path d="M39.2422 64.8706C40.7487 65.9842 41.9496 66.0933 43.347 65.8313C43.5654 65.1545 43.6745 64.4558 43.6745 63.7789C43.5654 60.2854 41.3819 57.4251 37.8448 56.1587C33.8491 54.7177 29.2639 55.7002 26.7311 58.5605C26.6874 58.6042 26.6438 58.6697 26.6001 58.7133C32.7137 57.9491 37.9758 61.6173 39.2422 64.8706Z" fill="white"/>
<path d="M17.0367 51.9884C17.2769 53.1238 16.076 54.2592 13.3904 55.4601C11.5563 56.268 9.15456 57.054 6.51261 57.6872C9.00172 58.4732 12.4515 58.5387 15.945 57.8182C22.3206 56.5081 27.1679 52.9273 26.5783 50.0015C25.967 47.0975 20.0936 45.7438 13.7179 47.0539C10.2244 47.7744 7.05847 49.2155 5.09338 50.9185C10.0061 50.0888 16.5564 49.6085 17.0367 51.9884Z" fill="white"/>
<path d="M46.0982 55.4819L46.3166 57.6653C47.4738 57.9055 48.5873 58.102 49.7009 58.1893L48.0633 53.5605C47.9323 53.1674 47.583 52.9054 47.1681 52.8399L42.7357 52.3159H42.7139C42.6921 52.3159 42.6921 52.3159 42.6702 52.3159L36.0981 51.5299C35.7924 51.4862 35.5086 51.5735 35.2902 51.7482C35.0501 51.9229 34.9191 52.1849 34.8754 52.4906C34.8317 52.7744 34.9191 53.0801 35.0937 53.2984C35.1374 53.3421 35.1811 53.4076 35.2247 53.4513L35.4431 53.6041C35.5522 53.6696 35.6833 53.7133 35.8143 53.7133L45.465 54.8487C45.8144 54.8923 46.0764 55.1544 46.0982 55.4819Z" fill="white"/>
<path d="M23.5651 76.4865C23.6306 77.3817 23.4778 78.1896 23.1066 78.8883L29.2638 77.7529C28.718 77.1634 28.4123 76.3773 28.4341 75.5695L23.5651 76.4865Z" fill="white"/>
<path d="M42.7138 67.3161C42.5392 67.3379 42.3863 67.3597 42.2116 67.3597C41.0108 67.3597 39.7007 67.0104 38.216 65.875C38.1068 65.7877 38.0195 65.6785 37.9758 65.5475C37.1461 63.0584 32.1679 59.019 25.9233 60.2854C25.8796 60.6348 25.8796 60.9841 25.9451 61.3335C26.3818 63.4077 27.7573 65.22 30.1373 66.8794C30.3993 66.2244 30.8578 65.613 31.4692 65.1981C32.3425 64.5868 33.4343 64.4121 34.4605 64.696C35.4867 64.9798 36.3382 65.7003 36.7749 66.661C37.2116 67.6218 37.2116 68.7135 36.7749 69.6523L36.5784 70.2419C36.7967 70.3292 37.0369 70.4384 37.2553 70.5257C37.7356 70.7222 38.1941 70.9406 38.6527 71.1371C40.3776 70.3729 41.8186 68.9536 42.7138 67.3161Z" fill="white"/>
<path d="M34.111 66.0278C33.9145 65.9842 33.718 65.9405 33.5215 65.9405C33.0848 65.9405 32.6481 66.0715 32.2769 66.3335C31.731 66.7047 31.4035 67.2942 31.338 67.9274L29.897 75.3292C29.7223 76.1808 30.2463 77.0105 31.076 77.2507C31.9057 77.4908 32.8009 77.0105 33.0848 76.2026L35.5084 69.172C35.5084 69.1501 35.5302 69.1283 35.5302 69.1065C35.8141 68.5169 35.8141 67.8401 35.5302 67.2505C35.2464 66.6392 34.7442 66.2025 34.111 66.0278Z" fill="white"/>
<path d="M59.3079 52.1194C59.6354 52.0757 59.9411 52.2504 60.0721 52.5342L61.6441 56.2679C62.6703 55.8094 63.631 55.2853 64.5699 54.6958L61.4258 50.1543C61.1856 49.8049 60.7708 49.6303 60.3559 49.6958L53.5654 50.8311L55.0938 50.8093C56.1419 50.853 56.9934 51.508 57.3428 52.425L59.3079 52.1194Z" fill="white"/>
<path d="M14.9187 67.2069C11.971 65.1981 8.73957 63.9317 6.14128 63.7134C10.137 66.6392 15.0497 71.006 13.696 73.0148C12.3422 75.0236 6.4688 72.0541 2.27661 69.434C3.43383 71.7702 5.81377 74.303 8.7614 76.3118C11.4689 78.1677 14.3728 79.3686 16.9056 79.7398C19.22 80.0673 21.0104 79.6306 21.7528 78.517C22.517 77.4035 22.2768 75.5912 21.1196 73.5388C19.8314 71.2899 17.648 69.0409 14.9187 67.2069Z" fill="white"/>
<path d="M27.5171 52.5561L30.6176 54.5866C31.6001 54.3028 32.6482 54.1281 33.718 54.1063L28.0193 50.2198C28.0629 50.984 27.8883 51.77 27.5171 52.5561Z" fill="white"/>
<path d="M53.2377 54.3464C53.6089 54.3683 53.8927 54.674 53.8927 55.0451V58.2111C55.0281 58.1238 56.1417 57.9491 57.2334 57.7089L56.0325 53.0364C55.9233 52.5779 55.5085 52.2503 55.0281 52.2285L48.8708 52.2722C49.0892 52.5124 49.242 52.7744 49.3512 53.1019L49.7224 54.1936L53.2377 54.3464Z" fill="white"/>
<path d="M46.9713 68.1458C47.2115 68.1239 47.4735 68.1239 47.7355 68.1676L53.8054 69.1065C54.0674 69.1501 54.3076 69.2156 54.526 69.3248C54.8535 68.7353 55.3557 68.2768 55.967 67.9711C56.2072 67.8619 56.4692 67.7746 56.7531 67.7091L63.3907 66.4209C63.8274 66.3335 64.2859 66.3772 64.6789 66.5082C65.0064 65.7003 65.6833 65.0453 66.513 64.7396C66.7095 64.6741 66.9278 64.6086 67.1462 64.5868L72.8013 63.7571C72.7576 63.6261 72.7139 63.4951 72.6921 63.3422C72.4519 61.792 73.5 60.3509 75.0502 60.0889C75.1812 60.0671 75.3122 60.0671 75.4214 60.0452L79.6354 59.9361C83.8713 54.3901 86.142 47.556 86.1857 40.176C86.2294 26.8353 78.0633 14.6954 65.727 9.71716C65.727 9.739 65.727 9.76083 65.7051 9.78267C65.6615 10.132 65.5741 10.3504 65.4868 10.5469C67.5174 11.8569 69.2641 13.2762 70.7489 14.8046C71.12 14.3242 71.6222 14.084 71.9279 14.0404C72.2991 13.9749 72.6703 14.215 72.7358 14.608C72.8013 14.9792 72.5611 15.3504 72.1681 15.4159C72.1026 15.4378 71.8406 15.5251 71.7096 15.8744C72.6048 16.9006 73.4126 17.9705 74.1113 19.0404C75.0284 18.0579 76.2293 17.8832 76.8625 18.0579C77.2336 18.1452 77.4738 18.5382 77.3646 18.9094C77.2773 19.2806 76.8843 19.5208 76.5131 19.4116C76.3603 19.3679 75.4651 19.3679 74.8755 20.3068L74.8537 20.3286C75.5961 21.6605 76.2074 23.0361 76.666 24.4335C78.369 23.3418 80.1158 23.4728 80.9018 23.8658C81.2512 24.0405 81.3822 24.4553 81.2075 24.8047C81.0328 25.154 80.618 25.285 80.2686 25.1103C79.8319 24.892 78.4564 24.8047 77.0808 25.8309C77.5612 27.5995 77.845 29.3899 77.9323 31.1584C80.4651 30.3942 82.1464 31.0929 82.8887 31.4205C83.2381 31.5733 83.4127 31.9882 83.2599 32.3375C83.1071 32.6868 82.7141 32.8615 82.3429 32.7087C81.6223 32.403 80.2031 31.8135 77.9323 32.6213C77.9323 34.8048 77.6485 36.9664 77.1463 39.0625C79.5917 38.997 81.7315 39.5865 82.9761 40.6782C83.2599 40.9402 83.2817 41.3769 83.0416 41.6608C82.9106 41.8136 82.7141 41.9009 82.5175 41.9009C82.3429 41.9009 82.19 41.8354 82.059 41.7263C81.2511 41.0057 79.4389 40.3289 76.7751 40.4817C76.2511 42.2284 75.5524 43.9097 74.7445 45.4818C74.548 45.8529 74.3297 46.246 74.1113 46.6171C75.1594 46.8573 76.1638 47.2722 77.1463 47.9054C78.369 48.7569 79.4389 50.0451 80.1376 51.5299C80.3123 51.8792 80.1594 52.2941 79.8101 52.4687C79.7228 52.5124 79.6136 52.5342 79.5044 52.5342C79.2424 52.5342 78.9804 52.3814 78.8712 52.1412C78.2817 50.8748 77.3865 49.7831 76.3821 49.0844C75.3777 48.4294 74.3952 48.08 73.3035 47.9054C72.0807 49.7613 70.6178 51.508 68.9366 53.0364C70.2685 54.019 71.3165 55.329 72.0152 56.9448C72.4519 58.0365 72.6484 59.281 72.5829 60.5693C72.5611 60.9404 72.2554 61.2461 71.8842 61.2461C71.8624 61.2461 71.8624 61.2461 71.8406 61.2461C71.4475 61.2243 71.1637 60.8968 71.1855 60.5256C71.2292 59.4339 71.0764 58.4077 70.727 57.5125C70.0938 56.0496 69.1113 54.8705 67.8449 54.019C65.9016 55.6129 63.7182 56.9448 61.2946 57.9055C62.2335 58.9535 62.8667 60.1762 63.2815 61.7046C63.478 62.5562 63.5217 63.4296 63.4562 64.3466C63.4125 64.7178 63.1287 64.9798 62.7575 64.9798C62.7357 64.9798 62.7138 64.9798 62.692 64.9798C62.299 64.9361 62.0151 64.6086 62.0588 64.2156C62.1243 63.4514 62.0806 62.709 61.9278 62.0322C61.5348 60.5256 60.8797 59.3902 59.8754 58.4295C57.7138 59.15 55.4212 59.5649 52.9757 59.6741C53.6963 60.7439 54.1548 61.9667 54.395 63.4514C54.526 64.5431 54.4386 65.7222 54.1329 66.8794C54.0456 67.1851 53.7618 67.3816 53.4561 67.3816C53.3906 67.3816 53.3251 67.3816 53.2596 67.3597C52.8884 67.2506 52.67 66.8794 52.7792 66.5082C53.0412 65.5256 53.1286 64.5431 53.0194 63.6479C52.7574 62.0103 52.1679 60.7439 51.229 59.6741C48.6525 59.6086 45.9232 59.15 43.0848 58.2548C44.2638 59.8051 44.9625 61.6828 45.028 63.7571C45.028 64.6959 44.8534 65.613 44.5477 66.5082C44.5259 66.6174 44.504 66.7265 44.4385 66.8139C43.6743 68.8008 42.2333 70.5694 40.3992 71.7484C41.6874 72.1414 42.9975 72.4908 44.3075 72.731C44.1547 72.3816 44.0237 72.0323 44.0018 71.6174C43.9363 70.7659 44.1983 69.9143 44.7442 69.2593C45.3337 68.6261 46.1198 68.2331 46.9713 68.1458Z" fill="white"/>
<path d="M59.9629 12.5556C61.2948 12.3373 63.631 11.6386 64.3516 9.52065C64.3516 9.45514 64.3734 9.36781 64.3734 9.25864C64.3952 7.90491 63.6529 6.85686 62.1245 6.15816C59.155 4.7826 54.3296 5.28479 52.561 7.14071C51.5567 8.18875 50.2466 8.38526 49.0457 7.62106C48.7182 7.42455 48.4125 7.14071 48.1505 6.81319C48.1942 7.57739 48.478 8.31976 48.9802 9.01846C50.8798 11.6167 55.9235 13.2325 59.9629 12.5556Z" fill="white"/>
<path d="M65.5088 50.4163L68.1945 51.9229C68.915 51.2678 69.5919 50.5473 70.2251 49.8268L65.7927 48.0582C65.5743 47.9709 65.3123 47.949 65.094 48.0145L62.1464 48.8879C62.2992 49.0189 62.452 49.1936 62.583 49.3683L63.5656 50.7875L64.9848 50.3726C65.1595 50.2853 65.356 50.3071 65.5088 50.4163Z" fill="white"/>
<path d="M57.8013 81.8577L54.4607 71.2244C54.3297 70.8314 54.0022 70.5475 53.5873 70.482L47.5174 69.5431C47.3645 69.5213 47.2117 69.5213 47.0807 69.5213C46.6003 69.565 46.1636 69.7833 45.8361 70.1763C45.5304 70.5475 45.3776 71.0279 45.4213 71.5082C45.5086 72.5126 46.4038 73.255 47.4082 73.1676L52.0589 72.7528C52.0807 72.7528 52.1026 72.7528 52.1244 72.7528C52.4301 72.7528 52.6921 72.9493 52.8013 73.2331L55.7052 82.5127C55.8799 83.0804 56.5131 83.4079 57.0808 83.2332C57.6703 83.0804 57.9978 82.4472 57.8013 81.8577C57.8232 81.8577 57.8232 81.8577 57.8013 81.8577Z" fill="white"/>
<path d="M74.9413 65.5038C74.7011 65.1545 74.2862 64.958 73.8714 65.0235L67.3648 65.9842C67.2338 66.006 67.1246 66.0279 67.0154 66.0715C66.4259 66.2899 66.011 66.8139 65.9019 67.4253C65.9674 67.5126 66.0329 67.5999 66.0765 67.6873L66.9936 69.3904C67.4084 69.5432 67.8451 69.565 68.26 69.4122L73.0635 67.6436C73.3692 67.5344 73.7185 67.6436 73.8932 67.9056L79.2426 75.9843C79.3955 76.2245 79.6575 76.3992 79.9413 76.4647C80.2252 76.5302 80.5308 76.4647 80.771 76.3118C81.0112 76.159 81.1859 75.897 81.2514 75.6131C81.3169 75.3293 81.2514 75.0236 81.0985 74.7834L74.9413 65.5038Z" fill="white"/>
<path d="M86.1421 65.2636L81.2294 61.5736C81.0329 61.4208 80.7927 61.3334 80.5525 61.3552L75.487 61.4644C75.4215 61.4644 75.3559 61.4644 75.2904 61.4863C74.5044 61.6173 73.9804 62.3596 74.0896 63.1238C74.1114 63.2985 74.1769 63.4732 74.2642 63.626C74.8319 63.6697 75.356 63.9317 75.7708 64.3247L79.9848 63.6479C80.1813 63.626 80.356 63.6697 80.5088 63.7789L84.8102 67.0103C85.0504 67.185 85.3342 67.2723 85.6181 67.2287C85.9019 67.185 86.1639 67.0322 86.3386 66.792C86.5133 66.5518 86.6006 66.268 86.5569 65.9623C86.5351 65.7003 86.3823 65.4383 86.1421 65.2636Z" fill="white"/>
<path d="M64.8319 68.3641C64.6135 67.9492 64.1332 67.7309 63.6746 67.8182L57.037 69.1065C56.8842 69.1283 56.7095 69.1938 56.5785 69.2593C56.12 69.4776 55.7706 69.8707 55.5959 70.351C55.6833 70.5039 55.7488 70.6349 55.7925 70.8095L56.3602 72.6218C56.9278 72.9711 57.6265 73.0366 58.2161 72.7528L62.7576 70.613C63.0851 70.4602 63.5 70.5912 63.6746 70.9187L68.5655 80.0236C68.6965 80.2856 68.9367 80.4821 69.2206 80.5695C69.5044 80.6568 69.8101 80.6131 70.0503 80.4821C70.3123 80.3511 70.5088 80.111 70.5961 79.8271C70.6835 79.5433 70.6616 79.2376 70.5088 78.9756L64.8319 68.3641Z" fill="white"/>
<path d="M35.8359 53.7133L45.4866 54.8487C45.8141 54.8923 46.0761 55.1544 46.098 55.4819L46.3163 57.6653C47.4735 57.9055 48.5871 58.102 49.7006 58.1893L48.0631 53.5605C47.9321 53.1674 47.5827 52.9054 47.1679 52.8399L42.7355 52.3159H42.7137C42.6918 52.3159 42.6918 52.3159 42.67 52.3159L36.0979 51.5299C35.7922 51.4862 35.5083 51.5735 35.29 51.7482C35.0498 51.9229 34.9188 52.1849 34.8751 52.4906C34.8315 52.7744 34.9188 53.0801 35.0935 53.2984C35.1372 53.3421 35.1808 53.4076 35.2245 53.4513L35.4428 53.6041C35.5738 53.6696 35.7048 53.7133 35.8359 53.7133Z" fill="#ECA870"/>
<path d="M23.1064 78.8883L29.2637 77.7529C28.7179 77.1634 28.4122 76.3773 28.434 75.5695L23.5431 76.4865C23.6523 77.3817 23.4776 78.1896 23.1064 78.8883Z" fill="#535353"/>
<path d="M35.5301 69.1065C35.8139 68.517 35.8139 67.8401 35.5301 67.2506C35.2681 66.661 34.7441 66.2244 34.1109 66.0497C33.9144 66.006 33.7178 65.9623 33.5213 65.9623C33.0847 65.9623 32.648 66.0934 32.2768 66.3554C31.7309 66.7265 31.4034 67.3161 31.3379 67.9493L29.8968 75.3511C29.7222 76.2026 30.2462 77.0323 31.0759 77.2725C31.9056 77.5127 32.8008 77.0323 33.0847 76.2245L35.5083 69.1938C35.5083 69.1502 35.5083 69.1283 35.5301 69.1065Z" fill="#737373"/>
<path d="M57.3208 52.4469L59.3077 52.1194C59.6352 52.0757 59.9409 52.2504 60.0719 52.5342L61.644 56.2679C62.6702 55.8094 63.6309 55.2853 64.5698 54.6958L61.4257 50.1543C61.1855 49.8049 60.7706 49.6303 60.3558 49.6958L53.5653 50.8311L55.0937 50.8093C56.1199 50.8748 56.9715 51.5298 57.3208 52.4469Z" fill="#ECA870"/>
<path d="M28.0192 50.2198C28.0847 51.0058 27.91 51.77 27.517 52.5561L30.6174 54.5866C31.6 54.3028 32.648 54.1281 33.7179 54.1063L28.0192 50.2198Z" fill="#535353"/>
<path d="M49.7662 54.1718L53.2378 54.3465C53.609 54.3683 53.8929 54.674 53.8929 55.0452V58.2112C55.0282 58.1238 56.1418 57.9492 57.2335 57.709L56.0326 53.0364C55.9235 52.5779 55.5086 52.2504 55.0282 52.2286L48.871 52.2722C49.0893 52.5124 49.2422 52.7744 49.3513 53.1019L49.7662 54.1718Z" fill="#ECA870"/>
<path d="M64.3514 9.49882C64.3514 9.43332 64.3732 9.34598 64.3732 9.23681C64.3951 8.36344 64.0675 7.59924 63.4343 7.00971C60.443 5.69965 55.7268 6.22367 54.0019 8.05776C52.9975 9.1058 51.3381 9.78267 50.2028 9.54249C50.7705 10.3067 51.622 11.0272 52.67 11.6386C54.8971 12.5556 57.6046 12.9705 59.9845 12.5556C61.2946 12.3154 63.6309 11.6167 64.3514 9.49882Z" fill="#FBCA82"/>
<path d="M62.5611 49.3464L63.5436 50.7657L64.9629 50.3508C65.1375 50.3071 65.334 50.329 65.5087 50.4163L68.1943 51.9229C68.9149 51.2678 69.5917 50.5473 70.2249 49.8268L65.7926 48.0582C65.5742 47.9709 65.3122 47.949 65.0939 48.0145L62.1462 48.8879C62.2991 49.0189 62.4301 49.1717 62.5611 49.3464Z" fill="#ECA870"/>
<path d="M53.6089 70.482L47.539 69.5431C47.3861 69.5213 47.2333 69.5213 47.1023 69.5213C46.6219 69.565 46.1853 69.7833 45.8577 70.1763C45.5521 70.5475 45.3992 71.0279 45.4429 71.5082C45.5302 72.5126 46.4254 73.255 47.4298 73.1676L52.0805 72.7528C52.1024 72.7528 52.1242 72.7528 52.146 72.7528C52.4517 72.7528 52.7137 72.9493 52.8229 73.2331L55.7268 82.5127C55.9015 83.0804 56.5347 83.4079 57.1024 83.2332C57.6919 83.0367 57.9976 82.4254 57.8229 81.8358L54.4605 71.2244C54.3513 70.8314 54.0238 70.5475 53.6089 70.482Z" fill="#FBCA82"/>
<path d="M73.8713 65.0453L67.3646 66.006C67.2336 66.0279 67.1245 66.0497 67.0153 66.0934C66.4258 66.3117 66.0109 66.8357 65.9017 67.4471C65.9672 67.5344 66.0327 67.6218 66.0764 67.7091L66.9934 69.4122C67.4083 69.565 67.845 69.5868 68.2598 69.434L73.0634 67.6654C73.3691 67.5563 73.7184 67.6654 73.8931 67.9274L79.2425 76.0061C79.3953 76.2463 79.6573 76.421 79.9412 76.4865C80.225 76.552 80.5307 76.4865 80.7709 76.3336C81.0111 76.1808 81.1858 75.9188 81.2513 75.6349C81.3168 75.3511 81.2513 75.0454 81.0984 74.8052L74.963 65.5257C74.701 65.1545 74.2861 64.9798 73.8713 65.0453Z" fill="#FBCA82"/>
<path d="M86.142 65.2637L81.2293 61.5737C81.0327 61.4208 80.7926 61.3335 80.5524 61.3553L75.4868 61.4645C75.4213 61.4645 75.3558 61.4645 75.2903 61.4863C74.5043 61.6173 73.9803 62.3597 74.0894 63.1239C74.1113 63.2986 74.1768 63.4732 74.2641 63.6261C74.8318 63.6698 75.3558 63.9318 75.7707 64.3248L79.9847 63.6479C80.1812 63.6261 80.3559 63.6697 80.5087 63.7789L84.8101 67.0104C85.0503 67.1851 85.3341 67.2724 85.618 67.2287C85.9018 67.1851 86.1638 67.0322 86.3385 66.7921C86.5132 66.5519 86.6005 66.268 86.5568 65.9623C86.535 65.7003 86.3822 65.4383 86.142 65.2637Z" fill="#FBCA82"/>
<path d="M63.6745 67.8182L57.0369 69.1065C56.884 69.1283 56.7094 69.1938 56.5784 69.2593C56.1199 69.4776 55.7705 69.8707 55.5958 70.351C55.6832 70.5039 55.7487 70.6349 55.7923 70.8095L56.36 72.6218C56.9277 72.9711 57.6264 73.0366 58.2159 72.7528L62.7575 70.613C63.085 70.4602 63.4998 70.5912 63.6745 70.9187L68.5654 80.0236C68.6964 80.2856 68.9366 80.4821 69.2204 80.5695C69.5043 80.6568 69.81 80.6131 70.0501 80.4821C70.3121 80.3511 70.5087 80.111 70.596 79.8271C70.6833 79.5433 70.6615 79.2376 70.5087 78.9756L64.8317 68.3641C64.6134 67.9492 64.133 67.7309 63.6745 67.8182Z" fill="#FBCA82"/>
<path d="M65.7271 9.76086C65.7271 9.7827 65.7271 9.80453 65.7052 9.82637C65.6616 10.1757 65.5742 10.3941 65.4869 10.5906C67.321 11.6823 69.2424 12.9705 71.0983 14.4989C71.404 14.2369 71.7315 14.1059 71.9498 14.0622C72.321 13.9967 72.6922 14.2369 72.7577 14.6299C72.8232 15.0011 72.583 15.3723 72.19 15.4378C72.19 15.4378 72.19 15.4378 72.1682 15.4378C73.1726 16.333 74.1551 17.3155 75.0503 18.3854C75.749 18.0361 76.4477 17.9706 76.8844 18.0797C77.2556 18.1671 77.4958 18.5601 77.3866 18.9313C77.2992 19.3025 76.9062 19.5426 76.535 19.4335C76.4695 19.4116 76.2294 19.4116 75.9237 19.499C76.9062 20.7872 77.7578 22.2064 78.4565 23.7348C79.5045 23.5165 80.4216 23.6475 80.9019 23.8877C81.2513 24.0623 81.3823 24.4772 81.2076 24.8265C81.0329 25.1759 80.6181 25.3069 80.2687 25.1322C80.0504 25.023 79.57 24.9357 79.0023 25.023C79.3298 25.8527 79.6137 26.7261 79.832 27.6432C80.094 28.6912 80.2687 29.7611 80.3779 30.8528C81.5788 30.8965 82.4085 31.2458 82.8888 31.4642C83.2382 31.617 83.4129 32.0319 83.26 32.3812C83.1072 32.7306 82.7142 32.9052 82.343 32.7524C81.95 32.5777 81.3168 32.3375 80.4652 32.272C80.5744 34.5865 80.3997 36.9664 79.9412 39.3245C81.1858 39.5865 82.2338 40.045 82.9762 40.7001C83.26 40.9621 83.2818 41.3988 83.0417 41.6826C82.9107 41.8355 82.7142 41.9228 82.5176 41.9228C82.343 41.9228 82.1901 41.8573 82.0591 41.7481C81.6006 41.3333 80.7709 40.9403 79.6792 40.7001C79.1115 43.1455 78.2818 45.591 77.2337 47.9927C78.4346 48.8443 79.4608 50.0888 80.1377 51.5517C80.3124 51.9011 80.1595 52.3159 79.8102 52.4906C79.7229 52.5343 79.6137 52.5561 79.5045 52.5561C79.2425 52.5561 78.9805 52.4033 78.8713 52.1631C78.3255 51.0059 77.5394 50.0233 76.6442 49.3246C75.9019 50.9185 75.0503 52.4688 74.1333 53.9972C73.5438 54.9797 72.7795 55.8968 71.9062 56.7265C71.9498 56.8138 71.9935 56.9011 72.0372 56.9885C72.4739 58.0802 72.6704 59.3247 72.6049 60.613C72.583 60.9841 72.2774 61.2898 71.9062 61.2898C71.8843 61.2898 71.8843 61.2898 71.8625 61.2898C71.4695 61.268 71.1856 60.9405 71.2075 60.5693C71.2511 59.5431 71.1201 58.5824 70.7926 57.709C68.6965 59.3902 66.0982 60.7221 63.2598 61.661C63.2598 61.7047 63.2816 61.7265 63.2816 61.7483C63.4781 62.5999 63.5218 63.4733 63.4563 64.3903C63.4126 64.7615 63.1288 65.0235 62.7576 65.0235C62.7358 65.0235 62.7139 65.0235 62.6921 65.0235C62.2991 64.9798 62.0152 64.6523 62.0589 64.2593C62.1244 63.4951 62.0807 62.7527 61.9279 62.0759V62.054C59.4606 62.7527 56.8842 63.1457 54.3296 63.2112C54.3514 63.2986 54.3732 63.3859 54.3951 63.4733C54.5261 64.565 54.4387 65.744 54.1331 66.9012C54.0457 67.2069 53.7619 67.4034 53.4562 67.4034C53.3907 67.4034 53.3252 67.4034 53.2597 67.3816C52.8885 67.2724 52.6702 66.9012 52.7793 66.5301C53.0413 65.5475 53.1287 64.565 53.0195 63.6698C52.9977 63.4951 52.954 63.3641 52.9103 63.2112C49.9627 63.1457 47.1461 62.6217 44.7006 61.6173C44.8753 62.316 44.9845 63.0366 45.0063 63.8008C45.0063 64.7396 44.8316 65.6567 44.526 66.5519C44.5041 66.6611 44.4823 66.7702 44.4168 66.8576C43.6526 68.8445 42.2115 70.6131 40.3774 71.7921C41.6657 72.1851 42.9757 72.5345 44.2858 72.7747C44.1329 72.4253 44.0019 72.076 43.9801 71.6611C43.9146 70.8096 44.1766 69.958 44.7225 69.303C45.2683 68.648 46.0544 68.2331 46.9059 68.1676C47.1461 68.1458 47.4081 68.1458 47.6701 68.1895L53.74 69.1283C54.002 69.172 54.2422 69.2375 54.4606 69.3467C54.7881 68.7572 55.2903 68.2986 55.9016 67.993C56.1418 67.8838 56.4038 67.7964 56.6877 67.7309L63.3253 66.4427C63.762 66.3554 64.2205 66.3991 64.6135 66.5301C64.941 65.7222 65.6179 65.0672 66.4476 64.7615C66.6441 64.696 66.8624 64.6305 67.0808 64.6086L72.7359 63.7789C72.6922 63.6479 72.6485 63.5169 72.6267 63.3641C72.3865 61.8138 73.4346 60.3728 74.9848 60.1108C75.1158 60.0889 75.2468 60.0889 75.356 60.0671L79.57 59.9579C83.8059 54.412 86.0766 47.5779 86.1203 40.1979C86.2513 26.879 78.0634 14.7609 65.7271 9.76086Z" fill="#737373"/>
<path d="M29.6786 58.7133C34.4166 59.2155 38.194 62.185 39.2202 64.8706C40.7267 65.9842 41.9276 66.0933 43.325 65.8313C43.5434 65.1545 43.6525 64.4558 43.6525 63.7789C43.6089 62.709 43.3905 61.6828 42.9757 60.7658C36.0542 57.4251 31.731 57.8181 29.6786 58.7133Z" fill="#737373"/>
<path d="M38.2159 65.8531C38.1067 65.7658 38.0194 65.6566 37.9757 65.5256C37.2552 63.3422 33.3032 59.9578 28.1066 60.0452C27.5608 61.1151 27.8883 62.6435 28.6525 65.6784C29.111 66.0933 29.5914 66.4863 30.1591 66.8793C30.4211 66.2243 30.8796 65.6129 31.4909 65.1981C32.3643 64.5867 33.456 64.412 34.4822 64.6959C35.5085 64.9797 36.36 65.7003 36.7967 66.661C37.2334 67.6217 37.2334 68.7134 36.7967 69.6523L36.6002 70.2418C36.8185 70.3291 37.0587 70.4383 37.277 70.5256C37.7574 70.7221 38.2159 70.9405 38.6744 71.137C40.3775 70.3728 41.8186 68.9536 42.7138 67.316C42.5391 67.3378 42.3863 67.3597 42.2116 67.3597C41.0107 67.3597 39.7006 67.0103 38.2159 65.8531Z" fill="#FBCA82"/>
<path d="M15.9664 57.8181C22.3421 56.5081 27.1893 52.9273 26.5997 50.0015C26.2722 48.4076 24.3508 47.294 21.6434 46.8137C20.2241 46.7263 18.6739 46.8137 17.0582 47.1412C14.2415 47.7307 11.8398 48.8879 10.2458 50.3071C13.6738 50.0888 16.7088 50.3945 17.0363 51.9884C17.2765 53.1238 16.0756 54.2592 13.39 55.46C12.2983 55.9404 11.0101 56.4207 9.59082 56.8574C10.3769 57.4906 11.4249 57.971 12.6695 58.2767C13.7612 58.1893 14.8529 58.0583 15.9664 57.8181Z" fill="#FBCA82"/>
<path d="M26.5999 50.0015C26.3161 48.6478 24.8969 47.6434 22.8008 47.0757C23.434 47.7089 23.8925 48.4731 24.0672 49.3028C24.7877 52.7744 20.792 56.5518 15.1588 57.709C14.067 57.9273 12.9972 58.0365 11.9709 58.0583C12.2111 58.1238 12.4513 58.2112 12.6915 58.2767C13.7614 58.2112 14.8531 58.0583 15.9666 57.84C22.3204 56.5081 27.1895 52.9273 26.5999 50.0015Z" fill="#ECA870"/>
<path d="M6.51257 71.8358C7.45145 73.0366 8.67417 74.1939 10.1371 75.2201C14.7441 78.4515 19.9407 78.9756 21.7311 76.421C21.8621 76.2244 21.9713 76.0279 22.0586 75.8314C21.8839 75.1109 21.5782 74.3467 21.1197 73.5388C19.8533 71.3117 17.6481 69.0628 14.9188 67.2287C11.993 65.2418 8.78334 63.9754 6.20689 63.7352L6.18506 63.7571C10.1807 66.661 15.0498 71.0061 13.6961 73.0148C12.7572 74.3685 9.70038 73.4297 6.51257 71.8358Z" fill="#FBCA82"/>
<path d="M17.0584 70.2637C19.1763 71.7484 20.8357 73.517 21.9056 75.3074C21.7309 74.7397 21.4689 74.1502 21.0977 73.517C19.8314 71.2899 17.6261 69.0409 14.8968 67.2069C11.971 65.2199 8.76137 63.9536 6.18492 63.7134L6.16309 63.7352C7.66965 64.8269 9.28539 66.137 10.661 67.447C12.7134 67.8401 14.9405 68.7789 17.0584 70.2637Z" fill="#ECA870"/>
<path d="M47.4298 73.1895L52.0805 72.7746C52.1024 72.7746 52.1242 72.7746 52.146 72.7746C52.4517 72.7746 52.7137 72.9712 52.8229 73.255L55.7269 82.5346C55.9015 83.1023 56.5129 83.408 57.0806 83.2551L53.1941 71.4864L48.3905 71.3773C47.6045 71.3554 46.9713 70.7222 46.9931 69.9362V69.565C46.5565 69.6305 46.1634 69.8488 45.8796 70.1982C45.5739 70.5694 45.4211 71.0497 45.4647 71.5301C45.5302 72.5345 46.4254 73.2768 47.4298 73.1895Z" fill="#ECA870"/>
<path d="M55.5958 70.3511C55.6832 70.5039 55.7487 70.6349 55.7923 70.8096L56.36 72.6218C56.9277 72.9712 57.6264 73.0367 58.2159 72.7528L62.7575 70.6131C63.085 70.4602 63.4998 70.5913 63.6745 70.9188L68.5654 80.0237C68.6964 80.2857 68.9366 80.4822 69.2204 80.5695C69.5043 80.6569 69.81 80.6132 70.0501 80.4822C70.0938 80.4604 70.1156 80.4385 70.1375 80.4167L63.5435 69.041L58.7836 70.6568C57.8448 70.9843 56.8185 70.4602 56.491 69.5214L56.4255 69.3467C56.0543 69.565 55.7487 69.9144 55.5958 70.3511Z" fill="#ECA870"/>
<path d="M66.9716 69.3903C67.3865 69.5431 67.8231 69.5649 68.238 69.4121L73.0415 67.6435C73.3472 67.5344 73.6966 67.6435 73.8712 67.9055L79.2206 75.9842C79.3735 76.2244 79.6355 76.3991 79.9193 76.4646C80.2032 76.5301 80.5089 76.4646 80.749 76.3117C80.7927 76.2899 80.8364 76.2462 80.8801 76.2026L73.9149 66.2898L66.0546 67.6872L66.9716 69.3903Z" fill="#ECA870"/>
<path d="M74.0895 62.7527C74.0677 62.8837 74.0677 63.0147 74.0895 63.1457C74.1113 63.3204 74.1768 63.4951 74.2642 63.6479C74.8319 63.6916 75.3559 63.9536 75.7707 64.3466L79.9848 63.6698C80.1813 63.6479 80.3559 63.6916 80.5088 63.8008L84.8101 67.0322C85.0503 67.2069 85.3342 67.2943 85.618 67.2506C85.9019 67.2069 86.1639 67.0541 86.3385 66.8139L80.5525 62.4034L74.0895 62.7527Z" fill="#ECA870"/>
<path d="M41.4254 69.1065C39.8096 69.0191 38.3686 68.91 37.0803 68.7571C37.0367 69.0628 36.9493 69.3685 36.8183 69.6523L36.6218 70.2419C36.8402 70.3292 37.0803 70.4384 37.2987 70.5257C37.779 70.7222 38.2376 70.9406 38.6961 71.1371C39.7005 70.6786 40.6393 69.958 41.4254 69.1065Z" fill="#ECA870"/>
<path d="M44.0455 71.6393C43.98 70.7877 44.242 69.9362 44.7879 69.2812C44.8097 69.2593 44.8534 69.2157 44.8752 69.1938C44.3075 69.1938 43.7398 69.172 43.194 69.172C42.4516 70.1764 41.5128 71.0716 40.4429 71.7484C41.7311 72.1415 43.0412 72.4908 44.3512 72.731C44.1984 72.4035 44.0892 72.0541 44.0455 71.6393Z" fill="#535353"/>
<path d="M69.3079 64.3029L72.8232 63.8007C72.7795 63.6697 72.7358 63.5387 72.714 63.3859C72.6485 62.971 72.6922 62.578 72.7795 62.185C71.666 62.9492 70.5087 63.6697 69.3079 64.3029Z" fill="#535353"/>
<path d="M77.3866 17.7958C78.7185 19.7173 79.8757 21.7478 80.7927 23.8221C80.8364 23.8439 80.9019 23.8658 80.9456 23.8876C81.2949 24.0623 81.4259 24.4771 81.2513 24.8265C81.2513 24.8483 81.2294 24.8483 81.2294 24.8702C85.8583 36.093 84.8757 48.8661 78.7185 56.5736C77.6923 57.8618 76.5787 59.019 75.3997 60.0889H75.4215L79.6355 59.9797C83.8714 54.4338 86.1421 47.5997 86.1858 40.2197C86.2295 31.748 82.9325 23.7784 77.3866 17.7958Z" fill="#535353"/>
<path d="M64.8538 66.268C64.6791 66.3335 64.5262 66.399 64.3516 66.4427C64.4607 66.4645 64.5917 66.4864 64.7009 66.53C64.7446 66.4427 64.7883 66.3553 64.8538 66.268Z" fill="#535353"/>
<path d="M53.8274 69.1065C54.0894 69.1502 54.3296 69.2157 54.5479 69.3248C54.7007 69.0628 54.8973 68.8008 55.1156 68.6043C54.2422 68.7135 53.3907 68.8227 52.4955 68.91L53.8274 69.1065Z" fill="#535353"/>
<path d="M52.6483 11.6167C54.8754 12.5338 57.5829 12.9486 59.9628 12.5338C61.2947 12.3154 63.631 11.6167 64.3515 9.49882C64.3515 9.43331 64.3733 9.34598 64.3733 9.2368C64.3952 8.36343 64.0677 7.59923 63.4345 7.0097C63.4345 7.0097 61.7532 12.905 52.6483 11.6167Z" fill="#ECA870"/>
<path d="M71.1422 50.1761C71.0112 50.1761 70.8802 50.1325 70.7711 50.067L70.6837 50.0233C70.64 50.0014 70.5745 49.9578 70.509 49.9359L65.7928 48.0582C65.5745 47.9709 65.3125 47.949 65.0941 48.0145L59.1989 49.7394C59.1334 49.7613 59.0679 49.7831 59.0024 49.8049C58.653 49.9796 58.2382 49.8486 58.0635 49.4993C57.8888 49.1499 58.0198 48.7351 58.3692 48.5604C58.5002 48.4949 58.653 48.4294 58.784 48.3857L64.6793 46.6608C65.2033 46.508 65.7928 46.5298 66.295 46.7481L71.0112 48.6259C71.1204 48.6696 71.2514 48.7351 71.3606 48.8006C71.4261 48.8224 71.4697 48.8661 71.5134 48.8879C71.8409 49.1062 71.9283 49.5429 71.7099 49.8486C71.5789 50.067 71.3606 50.1761 71.1422 50.1761Z" fill="#303030"/>
<path d="M68.2164 53.4294C68.1072 53.4294 67.9762 53.4076 67.867 53.3421L65.0722 51.77L63.5002 52.2285C63.129 52.3377 62.736 52.1194 62.6268 51.7482C62.5176 51.377 62.736 50.984 63.1072 50.8748L64.9631 50.329C65.1377 50.2853 65.3342 50.3071 65.5089 50.3945L68.5657 52.1194C68.8932 52.3159 69.0242 52.7307 68.8277 53.0801C68.6967 53.3203 68.4566 53.4294 68.2164 53.4294Z" fill="#303030"/>
<path d="M65.5525 55.5692C65.3341 55.5692 65.1158 55.46 64.9848 55.2635L61.4258 50.1325C61.1856 49.7831 60.7708 49.6085 60.3559 49.674L49.3951 51.508C49.0894 51.5517 48.8056 51.7482 48.6309 52.0102C48.4344 52.3377 47.9977 52.4469 47.6702 52.2286C47.3427 52.0321 47.2335 51.5954 47.4519 51.2679C47.823 50.6565 48.4562 50.2416 49.1549 50.1325L60.1157 48.2984C61.0546 48.1456 62.0153 48.5386 62.5612 49.3246L66.1202 54.4557C66.3385 54.7832 66.2512 55.198 65.9455 55.4382C65.8145 55.5474 65.6835 55.5692 65.5525 55.5692Z" fill="#303030"/>
<path d="M61.2293 57.7745C60.9673 57.7745 60.7053 57.6216 60.5743 57.3378L59.0022 53.5823L56.9498 53.9316C56.5567 53.9971 56.2074 53.7351 56.1419 53.364C56.0764 52.9928 56.3384 52.6216 56.7096 52.5561L59.3079 52.1194C59.6354 52.0757 59.9411 52.2504 60.0721 52.5342L61.8625 56.8138C62.0153 57.1631 61.8406 57.578 61.4913 57.7308C61.404 57.7526 61.3166 57.7745 61.2293 57.7745Z" fill="#303030"/>
<path d="M58.0853 58.888C57.7796 58.888 57.4958 58.6697 57.4084 58.364L56.0329 53.0364C55.9237 52.5779 55.5089 52.2504 55.0285 52.2286L42.714 52.3159C42.3209 52.3159 42.0153 52.0102 42.0153 51.6172C42.0153 51.2242 42.3209 50.9185 42.714 50.9185L55.0722 50.8312C56.2076 50.8748 57.1246 51.639 57.3866 52.6871L58.7622 58.0147C58.8495 58.3858 58.6312 58.7789 58.26 58.8662C58.2163 58.888 58.1508 58.888 58.0853 58.888Z" fill="#303030"/>
<path d="M53.2162 59.6522C52.8232 59.6522 52.5175 59.3465 52.5175 58.9535V55.7002L49.3297 55.5473C48.9367 55.5255 48.6528 55.198 48.6746 54.805C48.6965 54.4119 49.024 54.1281 49.417 54.1499L53.2598 54.3464C53.631 54.3683 53.9149 54.6739 53.9149 55.0451L53.9367 58.9535C53.9149 59.3465 53.6092 59.6522 53.2162 59.6522Z" fill="#303030"/>
<path d="M50.7053 59.6304C50.4214 59.6304 50.1376 59.4557 50.0503 59.1718L48.0852 53.5823C47.9542 53.1892 47.6048 52.9272 47.19 52.8617L36.12 51.5517C35.8143 51.508 35.5304 51.5953 35.3121 51.77C35.0719 51.9447 34.9409 52.2067 34.8973 52.5124C34.8536 52.7962 34.9409 53.1019 35.1156 53.3203C35.2903 53.5604 35.5523 53.6914 35.858 53.7351L45.5087 54.8705C45.8362 54.9142 46.0983 55.1762 46.1201 55.5037L46.3821 58.1238C46.4258 58.5168 46.1419 58.8443 45.7489 58.888C45.3777 58.9317 45.0284 58.6478 44.9847 58.2548L44.7882 56.1805L35.6833 55.1107C35.0064 55.0233 34.4169 54.6958 34.0239 54.1718C33.609 53.6478 33.4344 52.9927 33.5217 52.3377C33.609 51.6827 33.9365 51.0931 34.4606 50.6783C34.9846 50.2634 35.6396 50.0888 36.3165 50.1761L47.3865 51.4862C48.3254 51.5953 49.1114 52.2285 49.4171 53.1237L51.3822 58.7133C51.5132 59.0845 51.3166 59.4775 50.9455 59.6085C50.8581 59.6085 50.7708 59.6304 50.7053 59.6304Z" fill="#303030"/>
<path d="M30.5084 56.0496C30.3774 56.0496 30.2464 56.0059 30.1154 55.9404L26.2289 53.4076C25.9014 53.1893 25.814 52.7526 26.0324 52.4469C26.2507 52.1194 26.6874 52.032 26.9931 52.2504L30.8796 54.7832C31.2071 55.0015 31.2944 55.4382 31.0761 55.7439C30.9669 55.9404 30.7267 56.0496 30.5084 56.0496Z" fill="#303030"/>
<path d="M36.1635 55.6347C36.0325 55.6347 35.9015 55.5911 35.7705 55.5037L26.1634 48.9534C25.8358 48.7351 25.7703 48.2984 25.9887 47.9927C26.207 47.6871 26.6437 47.5997 26.9494 47.8181L36.5565 54.3684C36.884 54.5867 36.9495 55.0234 36.7312 55.3291C36.622 55.5256 36.4037 55.6347 36.1635 55.6347Z" fill="#303030"/>
<path d="M11.1633 59.7177C8.25936 59.7177 5.68291 59.15 3.958 58.0583C3.71782 57.9055 3.58681 57.6216 3.65232 57.3378C3.69599 57.054 3.91433 56.8356 4.19817 56.7701L4.37285 56.7264C11.6655 55.2199 15.6175 52.9928 15.683 52.2286C15.3337 51.5735 10.814 51.115 3.52131 52.6434L3.34664 52.6871C3.06279 52.7526 2.77894 52.6216 2.6261 52.3814C2.47326 52.1412 2.47326 51.8356 2.6261 51.5954C4.41652 48.9534 8.58687 46.6827 13.4559 45.6783C20.8141 44.1499 27.1897 45.9185 27.9757 49.6958C28.7618 53.4731 23.6089 57.6435 16.2725 59.1719C14.504 59.5431 12.7791 59.7177 11.1633 59.7177ZM6.51261 57.6871C9.00172 58.4732 12.4515 58.5387 15.945 57.8182C22.3206 56.5081 27.1679 52.9273 26.5783 50.0015C25.967 47.0975 20.0935 45.7438 13.7179 47.0538C10.2244 47.7744 7.05847 49.2154 5.09338 50.9185C9.98426 50.0888 16.5346 49.5866 17.0149 51.9666C17.2551 53.1019 16.0542 54.2373 13.3686 55.4382C11.5563 56.2679 9.15456 57.054 6.51261 57.6871Z" fill="#303030"/>
<path d="M80.0505 61.3116C79.8976 61.3116 79.7448 61.2679 79.6138 61.1587C79.3081 60.9186 79.2644 60.4819 79.4828 60.1762C83.8278 54.6084 86.1204 47.687 86.1641 40.2196C86.2078 26.8789 78.0199 14.739 65.7053 9.73895C65.6617 10.132 65.5743 10.3721 65.4652 10.5687C79.7011 19.6954 80.3125 35.0012 74.7884 45.5035C69.046 56.4207 55.8581 64.15 39.3077 56.8137C38.9583 56.6609 38.8055 56.246 38.9583 55.8967C39.1112 55.5473 39.526 55.3727 39.8754 55.5473C55.5961 62.5125 68.1071 55.198 73.5439 44.8703C78.8496 34.8047 78.1727 20.0229 64.1769 11.4202C63.8931 11.2455 63.7839 10.918 63.8713 10.6123C63.9586 10.3285 64.0678 10.1538 64.1551 10.0446C64.2424 9.89179 64.3516 9.76079 64.3298 8.75641C64.3298 8.53807 64.439 8.31972 64.6355 8.18872C64.832 8.05771 65.0721 8.03588 65.2687 8.10138C78.6531 13.0578 87.6051 25.9837 87.5396 40.2415C87.496 48.0363 85.0724 55.2416 80.5527 61.0496C80.4653 61.2242 80.2688 61.3116 80.0505 61.3116Z" fill="#303030"/>
<path d="M38.6525 72.5999C38.5652 72.5999 38.456 72.5781 38.3686 72.5344C37.8446 72.2942 37.2988 72.0541 36.7092 71.8139C36.3162 71.6392 35.9232 71.4864 35.5302 71.2899C35.1808 71.137 35.0062 70.7222 35.159 70.3728C35.3118 70.0235 35.7267 69.8488 36.076 70.0235C36.4691 70.1981 36.8621 70.3728 37.2551 70.5257C37.7354 70.7222 38.194 70.9405 38.6525 71.137C41.5128 69.8488 43.6525 66.7483 43.6525 63.7789C43.5434 60.2854 41.3599 57.4251 37.8228 56.1587C33.8271 54.7176 29.2419 55.7002 26.7091 58.5605C26.0323 59.3247 25.7484 60.3509 25.9449 61.3116C26.4253 63.6042 28.0629 65.5911 30.945 67.4034C31.2725 67.5999 31.3598 68.0365 31.1633 68.3641C30.9668 68.6916 30.5301 68.7789 30.2026 68.5824C26.993 66.5737 25.1589 64.281 24.5912 61.5954C24.3073 60.198 24.7004 58.7133 25.6829 57.6216C28.6524 54.2809 33.7179 53.1674 38.325 54.8268C42.408 56.3115 44.9408 59.6303 45.0718 63.7352C45.0718 67.4034 42.4735 71.0934 38.9145 72.5126C38.849 72.5781 38.7398 72.5999 38.6525 72.5999Z" fill="#303030"/>
<path d="M58.0195 14.1059C53.9802 14.1059 49.7443 12.4028 47.8666 9.82633C46.5128 7.99225 46.4037 5.87432 47.5172 3.69089C47.6919 3.36338 48.0849 3.21054 48.4343 3.36338C48.7836 3.51622 48.9364 3.90924 48.8054 4.25859C48.5653 4.86995 49.0456 5.91799 49.8316 6.42018C50.4648 6.8132 51.0325 6.72586 51.5784 6.15817C53.7182 3.90924 59.2422 3.25421 62.7357 4.84811C64.9192 5.85249 65.989 7.55557 65.7707 9.65166C65.7707 9.69533 65.7489 9.739 65.7489 9.78267C65.0938 11.9443 63.1287 13.4072 60.2248 13.8875C59.4824 14.0404 58.7619 14.1059 58.0195 14.1059ZM48.1504 6.79137C48.1941 7.55557 48.4779 8.29793 48.9801 8.99663C50.8797 11.5949 55.9016 13.2107 59.9628 12.5338C61.3165 12.3154 63.6528 11.6167 64.3515 9.45515C64.4825 7.99225 63.7183 6.85687 62.1025 6.13634C59.1331 4.76077 54.3077 5.26296 52.5391 7.11888C51.5347 8.16693 50.2247 8.36344 49.0238 7.59923C48.7181 7.40273 48.4124 7.11888 48.1504 6.79137Z" fill="#303030"/>
<path d="M46.5566 74.5214C46.5348 74.5214 46.4911 74.5214 46.4693 74.5214C43.7182 74.172 41.0107 73.517 38.4124 72.5563C38.0413 72.4253 37.8666 72.0323 37.9976 71.6611C38.1286 71.2899 38.5216 71.1152 38.8928 71.2463C41.3819 72.1633 43.9802 72.7965 46.644 73.124C47.037 73.1677 47.299 73.517 47.2553 73.91C47.2117 74.2594 46.906 74.5214 46.5566 74.5214Z" fill="#303030"/>
<path d="M20.9668 80.7005C20.6392 80.7005 20.3336 80.4603 20.2899 80.1328C20.2244 79.7616 20.4646 79.3904 20.8576 79.3249L31.2289 77.4035C31.6001 77.338 31.9712 77.5782 32.0368 77.9712C32.1023 78.3424 31.8621 78.7135 31.4691 78.779L21.0978 80.7005C21.0541 80.7005 21.0104 80.7005 20.9668 80.7005Z" fill="#303030"/>
<path d="M22.9101 76.5956C22.5826 76.5956 22.2769 76.3554 22.2333 76.0279C22.1678 75.6568 22.4079 75.2856 22.8009 75.2201L29.0892 74.0192C29.4604 73.9537 29.8316 74.1938 29.8971 74.565C29.9626 74.9362 29.7224 75.3074 29.3512 75.3729L23.063 76.552C22.9975 76.5956 22.9538 76.5956 22.9101 76.5956Z" fill="#303030"/>
<path d="M31.4908 78.7136C31.2288 78.7136 30.9449 78.6699 30.6829 78.6044C29.1545 78.1896 28.1938 76.6393 28.4995 75.0673L29.9406 67.7309C30.0497 66.7266 30.5956 65.7877 31.4908 65.1763C32.3642 64.565 33.4559 64.3903 34.4821 64.6741C35.5083 64.958 36.3599 65.6785 36.7965 66.6392C37.2332 67.5999 37.2332 68.6916 36.7965 69.6305L34.3729 76.6393C33.9581 77.9275 32.779 78.7136 31.4908 78.7136ZM33.5214 65.9624C33.0847 65.9624 32.648 66.0934 32.2768 66.3554C31.731 66.7266 31.4035 67.3161 31.338 67.9493L29.8969 75.3511C29.7222 76.2026 30.2462 77.0323 31.0759 77.2725C31.9057 77.5127 32.8009 77.0323 33.0847 76.2245L35.5083 69.1938C35.5083 69.172 35.5301 69.1502 35.5301 69.1283C35.814 68.5388 35.814 67.8619 35.5301 67.2724C35.2681 66.6829 34.7441 66.2462 34.1109 66.0715C33.9144 65.9842 33.7179 65.9624 33.5214 65.9624Z" fill="#303030"/>
<path d="M18.3467 81.2245C17.8226 81.2245 17.2768 81.1809 16.6873 81.0935C13.9361 80.7005 10.8357 79.3904 7.95353 77.4472C3.82685 74.6524 0.85738 70.9624 0.202351 67.8401C0.136848 67.5563 0.267854 67.2724 0.508031 67.1196C0.748209 66.9667 1.05389 66.9667 1.29407 67.1196L1.42507 67.2287C7.60418 71.4209 11.9274 72.7092 12.5387 72.2288C12.7571 71.5301 9.96229 67.9711 3.78318 63.7789L3.63034 63.6697C3.39016 63.5169 3.28099 63.2331 3.34649 62.9492C3.41199 62.6654 3.63034 62.447 3.91418 62.4034C7.05832 61.8575 11.578 63.2549 15.7047 66.0497C18.5868 68.0148 20.9449 70.4165 22.3205 72.8183C23.7834 75.3729 24.0017 77.6655 22.91 79.2594C22.0367 80.5477 20.4428 81.2245 18.3467 81.2245ZM2.25478 69.4122C3.41199 71.7484 5.79193 74.2812 8.73956 76.29C11.447 78.1459 14.351 79.3468 16.8838 79.718C19.1982 80.0455 20.9886 79.6088 21.731 78.4952C22.4952 77.3817 22.255 75.5694 21.0978 73.517C19.8314 71.2899 17.6261 69.041 14.8968 67.2069C11.9492 65.1982 8.71773 63.9318 6.11945 63.7134C10.137 66.6392 15.0497 71.0061 13.696 73.0148C12.3204 75.0018 6.4688 72.0541 2.25478 69.4122Z" fill="#303030"/>
<path d="M85.465 68.6479C84.9192 68.6479 84.417 68.4732 83.9803 68.1457L79.9191 65.0889L75.9671 65.7221C75.9235 65.7221 75.858 65.744 75.8143 65.744C75.4431 65.7876 75.0938 65.5038 75.0501 65.1108C75.0064 64.7178 75.2903 64.3902 75.6833 64.3466H75.7706L80.0283 63.6697C80.2248 63.6479 80.3995 63.6915 80.5523 63.8007L84.8537 67.0322C85.0939 67.2069 85.3777 67.2942 85.6616 67.2505C85.9454 67.2069 86.2074 67.054 86.3821 66.8138C86.5568 66.5737 86.6441 66.2898 86.6004 65.9841C86.5568 65.7003 86.4039 65.4383 86.1637 65.2636L81.251 61.5736C81.0545 61.4208 80.8143 61.3334 80.5742 61.3553L75.5086 61.4644C75.4431 61.4644 75.3776 61.4644 75.3121 61.4863C74.5261 61.6173 74.002 62.3596 74.1112 63.1238C74.1549 63.3422 74.2204 63.5387 74.3514 63.7134C74.5697 64.0191 74.5042 64.4557 74.1767 64.6959C73.871 64.9143 73.4343 64.8488 73.1942 64.5212C72.954 64.1719 72.7793 63.7789 72.7138 63.3422C72.4736 61.792 73.5217 60.3509 75.0719 60.0889C75.2029 60.067 75.3339 60.067 75.4431 60.0452L80.5305 59.936C81.0764 59.936 81.644 60.1107 82.0807 60.4382L86.9934 64.1282C87.5175 64.5212 87.8668 65.1108 87.976 65.7658C88.0633 66.4208 87.9105 67.0759 87.4956 67.6217C87.1026 68.1457 86.5131 68.4951 85.8581 68.6043C85.7052 68.6479 85.5961 68.6479 85.465 68.6479Z" fill="#303030"/>
<path d="M80.1812 77.9057C80.0065 77.9057 79.8537 77.8838 79.679 77.862C79.024 77.731 78.4563 77.3598 78.0851 76.7921L73.0195 69.1719L68.7182 70.7658C67.9321 71.0497 67.0588 71.0279 66.2946 70.6785C65.9452 70.5257 65.7924 70.1108 65.9452 69.7615C66.0981 69.4121 66.5129 69.2593 66.8622 69.4121C67.2989 69.6086 67.7793 69.6305 68.216 69.4558L73.0195 67.6872C73.3252 67.578 73.6746 67.6872 73.8492 67.9492L79.1986 76.0279C79.3515 76.2681 79.6135 76.4428 79.8973 76.5083C80.1812 76.5738 80.4869 76.5083 80.727 76.3554C80.9672 76.2026 81.1419 75.9406 81.2074 75.6567C81.2729 75.3729 81.2074 75.0672 81.0545 74.827L74.9191 65.5474C74.6789 65.1981 74.2641 65.0016 73.8492 65.0671L67.3426 66.0278C67.2116 66.0496 67.1024 66.0715 66.9933 66.1151C66.3382 66.3553 65.9015 66.923 65.836 67.6217C65.7924 68.0147 65.4649 68.2767 65.0718 68.2549C64.6788 68.2112 64.4168 67.8837 64.4386 67.4907C64.5478 66.2898 65.3775 65.2418 66.4911 64.8269C66.6876 64.7614 66.9059 64.6959 67.1243 64.6741L73.6309 63.7134C74.5916 63.5824 75.5305 63.9972 76.0545 64.8051L82.1899 74.0847C82.5611 74.6305 82.6921 75.3074 82.5611 75.9624C82.4301 76.6174 82.0589 77.1851 81.4912 77.5563C81.1419 77.7528 80.6615 77.9057 80.1812 77.9057Z" fill="#303030"/>
<path d="M69.548 81.9887C69.3078 81.9887 69.0676 81.945 68.8274 81.8795C68.1942 81.683 67.6702 81.2463 67.3427 80.6786L62.7575 72.1414L58.8055 73.9973C57.7138 74.5214 56.4255 74.3904 55.443 73.6917C55.1373 73.4733 55.05 73.0366 55.2683 72.7091C55.4867 72.4034 55.9234 72.3161 56.2509 72.5344C56.8186 72.9493 57.5609 73.0148 58.1941 72.7091L62.7357 70.5694C63.0632 70.4165 63.478 70.5475 63.6527 70.875L68.5436 79.9799C68.6746 80.242 68.9148 80.4385 69.1986 80.5258C69.4825 80.6131 69.7881 80.5695 70.0283 80.4385C70.2903 80.3075 70.4868 80.0673 70.5742 79.7834C70.6615 79.4996 70.6397 79.1939 70.4868 78.9319L64.8318 68.3641C64.6134 67.9492 64.1331 67.7309 63.6745 67.8182L57.0369 69.1065C56.8841 69.1283 56.7094 69.1938 56.5784 69.2593C56.0762 69.4995 55.6832 69.958 55.5303 70.5039C55.4212 70.875 55.05 71.0934 54.6788 70.9842C54.3076 70.875 54.0893 70.5039 54.1984 70.1327C54.4605 69.1938 55.1155 68.4078 55.9889 67.9929C56.229 67.8837 56.4911 67.7964 56.7749 67.7309L63.4125 66.4427C64.4824 66.2243 65.5523 66.7484 66.0763 67.7091L71.7751 78.3205C72.0807 78.9101 72.1681 79.5869 71.9716 80.2201C71.7751 80.8533 71.3384 81.3773 70.7707 81.7049C70.3777 81.9014 69.9628 81.9887 69.548 81.9887Z" fill="#303030"/>
<path d="M56.7748 84.6962C55.7049 84.6962 54.7224 84.0193 54.3949 82.9494L51.6656 74.1939L47.5607 74.565C45.7922 74.7179 44.2201 73.4078 44.0672 71.6392C44.0017 70.7877 44.2638 69.9362 44.8096 69.2811C45.3555 68.6261 46.1415 68.2113 46.993 68.1458C47.2332 68.1239 47.4952 68.1239 47.7572 68.1676L53.8272 69.1065C54.7661 69.2593 55.5303 69.8925 55.8141 70.8095L59.1547 81.4647C59.5696 82.7747 58.8491 84.194 57.539 84.6088C57.277 84.6743 57.015 84.6962 56.7748 84.6962ZM52.1459 72.7746C52.4516 72.7746 52.7136 72.9711 52.8228 73.255L55.7268 82.5346C55.9014 83.1022 56.5346 83.4298 57.1023 83.2551C57.6919 83.0586 57.9975 82.4472 57.8229 81.8577L54.4604 71.2244C54.3294 70.8314 54.0019 70.5475 53.587 70.482L47.5171 69.5431C47.3642 69.5213 47.2114 69.5213 47.0804 69.5213C46.6 69.565 46.1633 69.7833 45.8358 70.1763C45.5301 70.5475 45.3773 71.0279 45.421 71.5082C45.5083 72.5126 46.4035 73.255 47.4079 73.1676L52.0586 72.7528C52.1023 72.7746 52.1241 72.7746 52.1459 72.7746Z" fill="#303030"/>
<path d="M53.4998 67.4034C53.4343 67.4034 53.3688 67.4034 53.3033 67.3816C52.9321 67.2724 52.7138 66.9012 52.823 66.53C53.085 65.5475 53.1723 64.5649 53.0631 63.6697C52.7793 61.9448 52.1679 60.6348 51.1199 59.543C50.8579 59.2592 50.8579 58.8225 51.1417 58.5605C51.4256 58.2985 51.8623 58.2985 52.1243 58.5823C53.3688 59.8924 54.0894 61.4426 54.4169 63.4732C54.5479 64.5649 54.4605 65.744 54.1549 66.9012C54.0894 67.1851 53.8055 67.4034 53.4998 67.4034Z" fill="#303030"/>
<path d="M62.823 65.0016C62.8012 65.0016 62.7794 65.0016 62.7575 65.0016C62.3645 64.958 62.0807 64.6305 62.1243 64.2374C62.1898 63.4732 62.1462 62.7309 61.9933 62.054C61.5566 60.4383 60.8579 59.2374 59.7007 58.233C59.4169 57.971 59.395 57.5343 59.6352 57.2505C59.8972 56.9666 60.3339 56.9448 60.6178 57.185C61.9715 58.3858 62.823 59.8269 63.3252 61.7265C63.5217 62.578 63.5654 63.4514 63.4999 64.3684C63.4999 64.7178 63.1942 65.0016 62.823 65.0016Z" fill="#303030"/>
<path d="M71.9717 61.268C71.9499 61.268 71.9499 61.268 71.9281 61.268C71.535 61.2461 71.2512 60.9186 71.273 60.5474C71.3167 59.4557 71.1639 58.4295 70.8145 57.5343C70.1158 55.9186 69.0241 54.674 67.583 53.8006C67.2555 53.6041 67.1464 53.1675 67.3429 52.8399C67.5394 52.5124 67.9761 52.4032 68.3036 52.5998C70.0066 53.6041 71.2949 55.0889 72.1027 56.9885C72.5394 58.0802 72.7359 59.3247 72.6704 60.6129C72.6486 60.9623 72.3429 61.268 71.9717 61.268Z" fill="#303030"/>
<path d="M79.57 52.5561C79.308 52.5561 79.046 52.4032 78.9368 52.1631C78.3473 50.8967 77.4521 49.805 76.4477 49.1063C75.3341 48.3857 74.2861 48.0145 73.0415 47.8835C72.6485 47.8399 72.3865 47.4905 72.4302 47.1193C72.4738 46.7482 72.8013 46.4425 73.1944 46.508C74.6354 46.6608 75.9236 47.1193 77.2337 47.949C78.4564 48.8006 79.5263 50.0888 80.225 51.5735C80.3997 51.9229 80.2468 52.3377 79.8975 52.5124C79.7883 52.5561 79.6792 52.5561 79.57 52.5561Z" fill="#303030"/>
<path d="M82.6051 41.9446C82.4304 41.9446 82.2776 41.8791 82.1466 41.7699C81.3169 41.0275 79.461 40.3288 76.688 40.5253C76.3168 40.5472 75.9675 40.2633 75.9456 39.8703C75.9238 39.4773 76.2076 39.1498 76.6007 39.128C79.33 38.9314 81.7536 39.521 83.0855 40.7219C83.3693 40.9839 83.3911 41.4206 83.151 41.7044C82.9763 41.8572 82.8016 41.9446 82.6051 41.9446Z" fill="#303030"/>
<path d="M77.496 32.8179C77.2121 32.8179 76.9501 32.6432 76.8409 32.3812C76.6881 32.0318 76.8628 31.617 77.2339 31.4641C80.2034 30.2851 82.1467 31.1148 82.9545 31.4641C83.3039 31.617 83.4786 32.0318 83.3257 32.3812C83.1729 32.7305 82.7799 32.9052 82.4087 32.7523C81.6663 32.4248 80.1597 31.7916 77.7361 32.7523C77.6706 32.796 77.5833 32.8179 77.496 32.8179Z" fill="#303030"/>
<path d="M76.6223 26.0929C76.4258 26.0929 76.2075 26.0056 76.0765 25.8309C75.8363 25.5252 75.88 25.0885 76.1857 24.8483C78.0416 23.3636 80.094 23.4728 80.9455 23.9095C81.2949 24.0841 81.4259 24.499 81.2512 24.8483C81.0765 25.1977 80.6617 25.3287 80.3123 25.154C79.8756 24.9357 78.4346 24.8265 77.0372 25.9401C76.928 26.0274 76.7752 26.0929 76.6223 26.0929Z" fill="#303030"/>
<path d="M74.3517 20.6561C74.2206 20.6561 74.0896 20.6125 73.9805 20.547C73.653 20.3505 73.5656 19.9138 73.7621 19.5863C74.6792 18.1452 76.1857 17.905 76.9063 18.0797C77.2774 18.167 77.5176 18.56 77.4085 18.9312C77.3211 19.3024 76.9281 19.5426 76.5569 19.4334C76.4041 19.3897 75.5089 19.3897 74.9193 20.3286C74.8102 20.547 74.5918 20.6561 74.3517 20.6561Z" fill="#303030"/>
<path d="M70.9893 16.8133C70.9674 16.8133 70.9456 16.8133 70.9238 16.8133C70.5307 16.7697 70.2469 16.4422 70.2906 16.0491C70.4216 14.6954 71.426 14.1496 71.9281 14.0404C72.2993 13.9749 72.6705 14.2151 72.736 14.6081C72.8015 14.9793 72.5613 15.3504 72.1683 15.4159C72.081 15.4378 71.7098 15.5688 71.6661 16.1801C71.6661 16.5513 71.3605 16.8133 70.9893 16.8133Z" fill="#303030"/>
<path d="M42.2117 67.3597C41.0108 67.3597 39.7007 67.0104 38.216 65.875C38.1068 65.7877 38.0195 65.6785 37.9758 65.5475C37.1243 63.0147 32.015 58.888 25.6394 60.3509C25.2682 60.4383 24.897 60.1981 24.8097 59.8269C24.7224 59.4557 24.9626 59.0845 25.3337 58.9972C31.9714 57.4906 37.8885 61.4427 39.2204 64.9143C40.8798 66.137 42.1462 66.1589 43.7401 65.7877C44.1112 65.7003 44.4824 65.9405 44.5698 66.3117C44.6571 66.6829 44.4169 67.0541 44.0457 67.1414C43.478 67.2506 42.8667 67.3597 42.2117 67.3597Z" fill="#303030"/>
</svg>
