<svg width="88" height="88" viewBox="0 0 88 88" fill="none" xmlns="http://www.w3.org/2000/svg">
<g clip-path="url(#clip0_533_1553)">
<path d="M37.5003 46.028C37.2854 46.028 37.0705 46.0924 36.8771 46.1999C36.9416 46.9734 37.0275 47.7899 37.1565 48.542C37.2639 48.5634 37.3928 48.5849 37.5003 48.5849C38.2093 48.5849 38.768 48.0048 38.768 47.3172C38.768 46.6081 38.2093 46.028 37.5003 46.028Z" fill="white"/>
<path d="M19.5799 48.542C22.0939 48.1767 24.436 46.7156 26.0046 44.5454C26.2839 44.1801 26.5417 43.7933 26.8211 43.428C27.1649 42.9768 27.5302 42.5041 27.8954 42.0528C28.1748 41.709 28.4541 41.3438 28.7549 41C29.0772 40.6132 29.421 40.2264 29.7648 39.8396C30.1086 39.4529 30.4524 39.0876 30.7962 38.7008C31.6342 37.8199 32.4292 37.0248 33.2243 36.2728C33.3962 36.1009 33.5895 35.929 33.7614 35.7571L34.4705 35.1125C34.7284 34.8761 34.9862 34.6612 35.2441 34.4249C35.2655 34.4034 35.287 34.3819 35.3085 34.3819C35.5664 34.167 35.8027 33.9522 36.0391 33.7803C36.9201 32.8778 37.4143 31.696 37.4143 30.4068C37.4143 29.4613 37.1349 28.5374 36.5978 27.7423C36.5763 27.7209 36.5763 27.6994 36.5548 27.6779C36.5548 27.6779 36.5548 27.6564 36.5333 27.6564C35.6308 26.3672 34.1697 25.6151 32.6011 25.6151C31.3549 25.6151 30.1731 26.0878 29.2706 26.9688C29.2706 26.9688 29.2491 27.0118 29.2062 27.0333L28.8624 27.3986C26.1979 30.2778 24.1137 33.5439 22.6096 37.1108C20.9121 41.1933 17.8179 44.309 13.8858 45.9205C10.9635 47.1238 7.9553 48.0907 4.88263 48.7998C9.65279 49.3155 14.5734 49.2296 19.2791 48.5635L19.5799 48.542Z" fill="white"/>
<path d="M70.6119 21.6185C68.1839 20.1358 65.5624 18.954 62.855 18.1375C62.6617 18.0731 62.4468 18.0086 62.2534 17.9656C59.6105 17.2136 56.8601 16.8268 54.0883 16.7623C51.08 21.468 46.2239 24.5837 40.7017 25.3572C40.315 25.4217 39.9712 25.1424 39.9282 24.7771C39.8852 24.3903 40.1431 24.0465 40.5083 24.0035C45.7512 23.273 50.3495 20.2648 53.1213 15.7095C54.7973 12.9591 55.6998 9.779 55.6998 6.53443C55.6998 5.11627 55.5279 3.69812 55.2056 2.34442C52.4982 6.44848 49.3396 10.2517 45.8157 13.6467C41.948 17.3855 37.6291 21.2532 32.2358 24.2614C32.3647 24.2614 32.4936 24.2399 32.6225 24.2399C34.6638 24.2399 36.5547 25.2283 37.6935 26.9043C37.715 26.9258 37.7365 26.9473 37.7365 26.9903C37.7365 26.9903 37.7365 26.9903 37.758 27.0117C38.4241 28.0216 38.7894 29.2034 38.7894 30.4067C38.7894 32.0398 38.1662 33.5868 37.0059 34.7471L36.9844 34.7686C36.9629 34.7901 36.9415 34.8116 36.92 34.8331C36.6621 35.048 36.4043 35.2628 36.1679 35.4777C36.1464 35.4992 36.1249 35.4992 36.1249 35.5207C35.8671 35.7356 35.6307 35.9504 35.3944 36.1653L34.7283 36.7669C34.5134 36.9603 34.3415 37.1322 34.1696 37.2826C33.3961 38.0132 32.6225 38.7867 31.806 39.6677C31.4622 40.033 31.1399 40.3983 30.7961 40.7851C30.4523 41.1503 30.13 41.5371 29.8077 41.9239C29.5069 42.2677 29.2276 42.6115 28.9697 42.9338C28.7119 43.2561 28.4755 43.5784 28.2177 43.9007C28.7978 44.7602 29.3565 45.6627 29.9151 46.6081C30.4738 47.5535 31.054 48.5634 31.5911 49.6163C34.4704 55.1385 36.5547 61.0045 37.7795 67.0639L44.5264 69.2341C44.5479 69.3201 44.5694 69.406 44.5694 69.492C44.5909 69.7928 44.5909 70.0721 44.5694 70.3515C44.3975 72.3498 43.0868 73.9398 41.3893 74.0902C39.9926 74.2192 38.6819 73.3167 37.9728 71.8341C37.715 71.2754 37.5646 70.6953 37.5001 70.0721C37.4572 69.535 37.5001 68.9763 37.6291 68.4606L37.0274 68.2887C36.7696 68.2242 36.5762 68.0094 36.5332 67.7515C36.5117 67.6656 36.4902 67.6011 36.4902 67.5152C36.1894 68.3532 36.082 69.2556 36.1464 70.1796C36.2109 70.9746 36.4043 71.7267 36.7481 72.4357C37.6291 74.3051 39.348 75.4869 41.1744 75.4869C41.2819 75.4869 41.4108 75.4869 41.5182 75.4654C43.8603 75.272 45.6868 73.1878 45.9446 70.6093C45.9661 70.3085 45.9876 70.0077 45.9661 69.7068L46.2239 69.7928C46.2239 69.7928 47.3628 68.6325 47.4057 68.568L51.3594 64.2706L49.447 58.4475C49.3181 58.0823 49.533 57.6955 49.8768 57.5881C50.242 57.4591 50.6288 57.674 50.7363 58.0178L52.4123 63.1103L54.9263 60.3814L52.7561 56.922C52.6271 56.7071 52.6056 56.4277 52.7561 56.1914C53.7015 54.6013 54.6254 52.9038 55.4634 51.1849C56.8386 48.3271 58.0204 45.3403 58.9659 42.3321C59.0733 41.9669 59.4601 41.7735 59.8253 41.8809C60.1906 41.9883 60.384 42.3751 60.2766 42.7404C59.3526 45.6627 58.2353 48.5419 56.9031 51.3138C61.4584 55.3964 64.0583 61.2194 64.0583 67.3433C64.0583 73.2737 61.6732 78.8389 57.4403 82.8785C73.8995 80.8372 86.491 66.7631 86.491 49.9386C86.491 38.2925 80.5605 27.7208 70.6119 21.6185ZM37.5001 49.9601C37.4786 49.9601 37.4786 49.9601 37.4572 49.9601C37.5001 50.1105 37.5431 50.2394 37.5861 50.3684C37.715 50.7336 37.5216 51.1204 37.1563 51.2493C37.0919 51.2708 37.0059 51.2923 36.9415 51.2923C36.6621 51.2923 36.3828 51.1204 36.2968 50.8411C35.4374 48.3486 35.3299 42.8908 35.3084 42.6544C35.3084 42.2677 35.6093 41.9669 35.9745 41.9454C36.3613 41.9454 36.6621 42.2462 36.6836 42.6115C36.6836 42.633 36.7051 43.5354 36.7696 44.7602C37.0059 44.6957 37.2423 44.6528 37.5001 44.6528C38.9613 44.6528 40.1431 45.8346 40.1431 47.2957C40.1431 48.7783 38.9613 49.9601 37.5001 49.9601Z" fill="white"/>
<path d="M38.768 47.3172C38.768 46.6081 38.1879 46.0494 37.5003 46.0494C37.2854 46.0494 37.0705 46.1139 36.8771 46.2213C36.9416 46.9949 37.0275 47.8114 37.1565 48.5634C37.2639 48.5849 37.3928 48.6064 37.5003 48.6064C38.2093 48.5849 38.768 48.0048 38.768 47.3172Z" fill="white"/>
<path d="M31.7632 27.9357C31.7632 27.9357 31.7417 27.9786 31.6987 28.0001L31.3549 28.3654C28.6905 31.2447 26.6063 34.5108 25.1022 38.0776C23.4047 42.1602 20.3105 45.2758 16.3784 46.8874C14.2726 47.7684 12.1239 48.4989 9.93219 49.1221C13.0908 49.1865 16.2494 49.0146 19.3221 48.5634L19.58 48.5204C22.094 48.1551 24.4361 46.694 26.0046 44.5238C26.284 44.1585 26.5418 43.7717 26.8211 43.4065C27.1649 42.9552 27.5302 42.4825 27.8955 42.0313C28.1748 41.6875 28.4542 41.3222 28.755 40.9784C29.0773 40.5916 29.4211 40.2049 29.7649 39.8181C30.1087 39.4313 30.4525 39.066 30.7963 38.6793C31.6343 37.7983 32.4293 37.0033 33.2243 36.2512C33.3962 36.0793 33.5896 35.9074 33.7615 35.7355L34.4706 35.0909C34.7284 34.8546 34.9863 34.6397 35.2441 34.4033C35.2656 34.3818 35.2871 34.3603 35.3086 34.3603C35.5664 34.1455 35.8028 33.9306 36.0392 33.7587C36.9201 32.8562 37.4143 31.6744 37.4143 30.3852C37.4143 29.4398 37.135 28.5158 36.5978 27.7208C36.5763 27.6993 36.5763 27.6778 36.5548 27.6563C36.5548 27.6563 36.5548 27.6348 36.5334 27.6348C36.254 27.2266 35.9102 26.8828 35.5235 26.6035C35.3731 26.582 35.2012 26.582 35.0293 26.582C33.8475 26.582 32.6657 27.0762 31.7632 27.9357Z" fill="#E7F4F6"/>
<path d="M36.6407 27.7423C36.6192 27.7208 36.6192 27.6994 36.5978 27.6779C36.5978 27.6779 36.5978 27.6564 36.5763 27.6564C36.2969 27.2481 35.9531 26.9043 35.5664 26.625C35.5234 26.625 35.4804 26.625 35.416 26.625C35.8887 27.3985 36.1465 28.258 36.1465 29.139C36.1465 30.4068 35.6523 31.61 34.7713 32.5125C34.535 32.7059 34.2986 32.8993 34.0408 33.1141C34.0193 33.1356 33.9978 33.1356 33.9763 33.1571C33.7185 33.3935 33.4391 33.6298 33.2028 33.8447L32.4937 34.4893C32.3003 34.6612 32.1284 34.8331 31.9565 35.005C31.1615 35.7571 30.3665 36.5521 29.5285 37.4331C29.1847 37.8198 28.8409 38.1851 28.4971 38.5719C28.1533 38.9587 27.8095 39.3454 27.4872 39.7322C27.1864 40.076 26.907 40.4198 26.6277 40.7851C26.2624 41.2363 25.8971 41.6875 25.5533 42.1603C25.274 42.5255 24.9947 42.8908 24.7368 43.2776C23.1683 45.4478 21.4063 47.4246 18.8923 47.7899L18.6344 47.8329C16.4642 48.1552 13.5205 48.8213 10.8561 49.1651C13.7139 49.1866 16.5502 49.0147 19.3435 48.6064L19.6014 48.5634C22.1154 48.1982 24.4575 46.737 26.0261 44.5668C26.3054 44.2015 26.5632 43.8148 26.8426 43.4495C27.1864 42.9983 27.5516 42.5255 27.9169 42.0743C28.1963 41.7305 28.4756 41.3652 28.7764 41.0214C29.0987 40.6347 29.4425 40.2479 29.7863 39.8611C30.1301 39.4744 30.4739 39.1091 30.8177 38.7223C31.6557 37.8413 32.4507 37.0463 33.2458 36.2942C33.4177 36.1223 33.611 35.9505 33.7829 35.7786L34.492 35.1339C34.7499 34.8976 35.0077 34.6827 35.2656 34.4463C35.287 34.4249 35.3085 34.4034 35.33 34.4034C35.5879 34.1885 35.8242 33.9736 36.0606 33.8017C36.9416 32.8993 37.4358 31.7175 37.4358 30.4282C37.4358 29.4613 37.1564 28.5589 36.6407 27.7423Z" fill="#C9DEE2"/>
<path d="M45.9232 69.363C45.9232 69.2986 45.9017 69.2556 45.9017 69.1911C45.6223 66.5482 43.7959 64.421 41.4753 64.0987C41.3249 64.0772 41.1745 64.1202 41.0456 64.2061C41.4968 64.9797 42.0555 65.5598 42.3563 65.8391C43.3877 66.3978 44.1827 67.5151 44.4405 68.8903C44.4835 69.0837 44.505 69.2771 44.5265 69.492C44.548 69.7928 44.548 70.0721 44.5265 70.3515C44.3546 72.3498 43.0439 73.9398 41.3464 74.0902C39.9497 74.2192 38.639 73.3167 37.9299 71.8341C37.6721 71.2754 37.5217 70.6953 37.4572 70.0721C37.4142 69.5349 37.4572 68.9763 37.5861 68.4606L36.9845 68.2887C36.7266 68.2242 36.5332 68.0093 36.4903 67.7515C36.4688 67.6656 36.4473 67.6011 36.4473 67.5151C36.1465 68.3531 36.039 69.2556 36.1035 70.1796C36.168 70.9746 36.3613 71.7266 36.7051 72.4357C37.5861 74.3051 39.3051 75.4869 41.1315 75.4869C41.2389 75.4869 41.3679 75.4869 41.4753 75.4654C43.8174 75.272 45.6438 73.1878 45.9017 70.6093C45.9446 70.1581 45.9446 69.7713 45.9232 69.363Z" fill="#E6E6E6"/>
<path d="M86.4911 49.9386C86.4911 38.2925 80.5607 27.7208 70.6336 21.6185C68.2055 20.1358 65.5841 18.954 62.8767 18.1375C62.6833 18.0731 62.4684 18.0086 62.275 17.9656C59.6321 17.2136 56.8817 16.8268 54.1099 16.7624C51.1017 21.4681 46.2456 24.5837 40.7234 25.3572C40.3366 25.4217 39.9928 25.1424 39.9498 24.7771C39.9068 24.3903 40.1647 24.0465 40.53 24.0035C45.7729 23.273 50.3711 20.2648 53.143 15.7095C54.819 12.9591 55.7214 9.77901 55.7214 6.53444C55.7214 6.51295 55.7214 6.46997 55.7214 6.44849C53.6372 9.19885 51.3595 11.7773 48.8885 14.1409C45.3216 17.6004 40.5944 22.0052 35.6309 25.0349C36.4474 25.4862 37.178 26.1308 37.7151 26.9258C37.7366 26.9473 37.7581 26.9688 37.7581 27.0118C37.7581 27.0118 37.7581 27.0118 37.7796 27.0332C38.4457 28.0431 38.811 29.2249 38.811 30.4282C38.811 32.0613 38.1879 33.6083 37.0276 34.7686L37.0061 34.7901C36.9846 34.8116 36.9631 34.8331 36.9416 34.8546C36.6838 35.0695 36.4259 35.2843 36.1896 35.4992C36.1681 35.5207 36.1466 35.5207 36.1466 35.5422C35.8887 35.7571 35.6524 35.9719 35.416 36.1868L34.7499 36.7884C34.535 36.9818 34.3631 37.1537 34.1912 37.3041C33.4177 38.0347 32.6442 38.8082 31.8277 39.6892C31.4839 40.0545 31.1616 40.4198 30.8178 40.8065C30.4954 41.1718 30.1517 41.5586 29.8508 41.9239C30.6888 43.2776 32.5152 46.2858 32.988 47.1238C33.5466 48.0692 34.1268 49.0791 34.664 50.132C37.4358 55.4393 39.5201 62.1434 40.7663 68.0523L46.2241 69.7928C46.2241 69.7928 47.3629 68.6325 47.4059 68.568L51.3595 64.2706L49.4472 58.4476C49.3182 58.0823 49.5331 57.6955 49.8769 57.5881C50.2422 57.4591 50.629 57.674 50.7364 58.0178L52.4124 63.1103L54.9264 60.3814L52.7562 56.922C52.6273 56.7071 52.6058 56.4278 52.7562 56.1914C53.7016 54.6013 54.6256 52.9039 55.4636 51.1849C56.8388 48.3271 58.0206 45.3404 58.966 42.3321C59.0734 41.9669 59.4602 41.7735 59.8255 41.8809C60.1908 41.9883 60.3842 42.3751 60.2767 42.7404C59.3528 45.6627 58.2354 48.5419 56.9032 51.3138C61.4585 55.3964 64.0585 61.2194 64.0585 67.3433C64.0585 73.2737 61.6734 78.8389 57.4404 82.8785C73.8781 80.8372 86.4911 66.7631 86.4911 49.9386ZM37.5003 49.9601C37.4788 49.9601 37.4788 49.9601 37.4573 49.9601C37.5003 50.1105 37.5433 50.2394 37.5862 50.3684C37.7152 50.7336 37.5218 51.1204 37.1565 51.2493C37.092 51.2708 37.0061 51.2923 36.9416 51.2923C36.6623 51.2923 36.3829 51.1204 36.297 50.8411C35.4375 48.3486 35.3301 42.8908 35.3086 42.6544C35.3086 42.2677 35.6094 41.9669 35.9747 41.9454C36.3615 41.9454 36.6623 42.2462 36.6838 42.6115C36.6838 42.633 36.7053 43.5354 36.7697 44.7602C37.0061 44.6957 37.2424 44.6528 37.5003 44.6528C38.9614 44.6528 40.1432 45.8346 40.1432 47.2957C40.1432 48.7783 38.9614 49.9601 37.5003 49.9601Z" fill="#737373"/>
<path d="M70.612 21.6185C68.1839 20.1359 65.5625 18.9541 62.8551 18.1376C62.6617 18.0731 62.4468 18.0086 62.2534 17.9657C59.6105 17.2136 56.8601 16.8269 54.0883 16.7624C52.004 20.0284 49.0173 22.521 45.5364 24.0036C75.8548 21.8119 86.3621 52.3237 71.2566 71.0176C73.2979 60.7682 68.807 48.8428 60.2551 42.6545C60.2551 42.676 60.2551 42.6975 60.2551 42.7404C59.3312 45.6627 58.2138 48.542 56.8816 51.3138C61.4369 55.3964 64.0369 61.2194 64.0369 67.3433C64.0369 73.2738 61.6518 78.839 57.4188 82.8786C73.878 80.8373 86.4695 66.7631 86.4695 49.9386C86.491 38.2926 80.5605 27.7209 70.612 21.6185Z" fill="#535353"/>
<path d="M37.3283 72.7795C37.0704 72.7795 36.8341 72.6291 36.7051 72.3928C36.3828 71.6837 36.168 70.9316 36.1035 70.1366C36.039 69.2341 36.1465 68.3102 36.4473 67.4722C36.5762 67.1069 36.963 66.935 37.3283 67.0639C37.6936 67.1928 37.8655 67.5796 37.7365 67.9449C37.5002 68.5895 37.4142 69.3201 37.4787 70.0292C37.5217 70.6523 37.6936 71.2539 37.9514 71.7911C38.1233 72.1349 37.9729 72.5432 37.6291 72.7151C37.5217 72.758 37.4357 72.7795 37.3283 72.7795Z" fill="#303030"/>
<path d="M27.4225 28.6878C27.2936 28.6878 27.1431 28.6448 27.0142 28.5588C26.7134 28.344 26.6275 27.9142 26.8638 27.5919C26.9498 27.463 29.1415 24.4548 31.4406 23.1226C36.7694 20.1788 41.0239 16.3326 44.8701 12.6368C48.6733 8.9625 52.0253 4.81546 54.8617 0.324634C55.0121 0.109762 55.2484 -0.019161 55.5278 0.00232625C55.7856 0.0238135 56.022 0.217198 56.1079 0.475045C56.774 2.40889 57.0963 4.45018 57.0963 6.51295C57.0963 10.0154 56.1294 13.4318 54.3245 16.3971C51.3377 21.2962 46.3742 24.5407 40.7231 25.3358C40.3363 25.4002 39.9925 25.1209 39.9495 24.7556C39.9066 24.3688 40.1644 24.025 40.5297 23.9821C45.7726 23.2515 50.3708 20.2433 53.1427 15.688C54.8187 12.9376 55.7211 9.75752 55.7211 6.51295C55.7211 5.0948 55.5492 3.67664 55.2269 2.32295C52.5195 6.427 49.3609 10.2302 45.837 13.6252C41.9478 17.407 37.5859 21.2962 32.1282 24.3259C30.1084 25.4862 28.0026 28.3655 27.9812 28.3869C27.8522 28.5803 27.6374 28.6878 27.4225 28.6878Z" fill="#303030"/>
<path d="M11.1783 50.5402C7.65443 50.5402 4.13053 50.2179 0.714063 49.6163C0.391755 49.5518 0.155396 49.2725 0.155396 48.9287C0.155396 48.5849 0.413242 48.3056 0.73555 48.2626C5.07597 47.575 9.35192 46.3502 13.413 44.6742C17.0229 43.1916 19.8377 40.3338 21.3848 36.638C22.9748 32.8562 25.145 29.4613 27.9169 26.4531C27.9384 26.4316 27.9599 26.4101 27.9599 26.4101L28.2822 26.0448C28.3036 26.0233 28.3036 26.0233 28.3251 26.0018L28.3466 25.9803C29.5069 24.863 31.0325 24.2399 32.6441 24.2399C34.6853 24.2399 36.5762 25.2283 37.715 26.9043C37.7365 26.9258 37.758 26.9473 37.758 26.9902C37.758 26.9902 37.758 26.9902 37.7795 27.0117C38.4456 28.0216 38.8109 29.2034 38.8109 30.4067C38.8109 32.0397 38.1878 33.5868 37.0275 34.7471L37.006 34.7686C36.9845 34.7901 36.963 34.8116 36.9415 34.8331C36.6837 35.0479 36.4258 35.2628 36.1895 35.4777C36.168 35.4992 36.1465 35.4992 36.1465 35.5207C35.8886 35.7355 35.6523 35.9504 35.4159 36.1653L34.7498 36.7669C34.5349 36.9603 34.363 37.1322 34.1911 37.2826C33.4176 38.0132 32.6441 38.7867 31.8275 39.6677C31.4838 40.033 31.1614 40.3983 30.8177 40.785C30.4739 41.1503 30.1515 41.5371 29.8292 41.9238C29.5284 42.2676 29.2491 42.6114 28.9912 42.9337C28.6474 43.385 28.2822 43.8147 27.9384 44.266C27.659 44.6312 27.4012 44.9965 27.1219 45.3618C25.3384 47.8328 22.6525 49.4873 19.7732 49.9171L19.5154 49.9601C16.765 50.3253 13.9717 50.5402 11.1783 50.5402ZM4.90407 48.8212C9.67423 49.3369 14.5948 49.251 19.3005 48.5849L19.5584 48.5419C22.0724 48.1766 24.4145 46.7155 25.983 44.5453C26.2624 44.18 26.5202 43.7932 26.7995 43.428C27.1433 42.9767 27.5086 42.504 27.8739 42.0528C28.1532 41.709 28.4326 41.3437 28.7334 40.9999C29.0557 40.6131 29.3995 40.2264 29.7433 39.8396C30.0871 39.4528 30.4309 39.0875 30.7747 38.7008C31.6127 37.8198 32.4077 37.0248 33.2027 36.2727C33.3746 36.1008 33.568 35.9289 33.7399 35.757L34.449 35.1124C34.7068 34.876 34.9647 34.6612 35.2225 34.4248C35.244 34.4033 35.2655 34.3818 35.287 34.3818C35.5448 34.167 35.7812 33.9521 36.0176 33.7802C36.8985 32.8777 37.3927 31.6959 37.3927 30.4067C37.3927 29.4613 37.1134 28.5373 36.5762 27.7423C36.5547 27.7208 36.5547 27.6993 36.5332 27.6778C36.5332 27.6778 36.5332 27.6563 36.5118 27.6563C35.6093 26.3671 34.1482 25.615 32.5796 25.615C31.3333 25.615 30.1515 26.0878 29.2491 26.9687C29.2491 26.9687 29.2276 27.0117 29.1846 27.0332L28.8408 27.3985C26.1764 30.2778 24.0922 33.5438 22.588 37.1107C20.8906 41.1933 17.7964 44.3089 13.8642 45.9205C11.0064 47.1452 7.97674 48.1122 4.90407 48.8212Z" fill="#303030"/>
<path d="M55.3561 84.4471C55.0768 84.4471 54.819 84.2752 54.7115 83.9958C54.6041 83.7165 54.69 83.3942 54.9264 83.2008C59.847 79.3546 62.6618 73.5745 62.6618 67.3218C62.6618 61.4128 60.0833 55.8261 55.5925 51.9799C55.3132 51.7435 55.2702 51.2923 55.5066 51.013C55.7644 50.7336 56.1941 50.6907 56.4735 50.927C61.2651 55.0311 64.037 61.0045 64.037 67.3218C64.037 73.2522 61.6519 78.8174 57.4189 82.857C73.8781 80.8157 86.4696 66.7416 86.4696 49.9171C86.4696 38.271 80.5392 27.6993 70.6121 21.597C68.184 20.1143 65.5626 18.9325 62.8552 18.116C62.6618 18.0516 62.4469 17.9871 62.2535 17.9441C59.4817 17.1706 56.6239 16.7623 53.7016 16.7194C53.3149 16.7194 53.014 16.3971 53.014 16.0318C53.014 15.645 53.3149 15.3442 53.7016 15.3442C56.7313 15.3872 59.718 15.8169 62.5758 16.6119C62.7907 16.6549 63.0056 16.7194 63.242 16.8053C66.0568 17.6433 68.7857 18.8681 71.3211 20.4152C81.6565 26.7754 87.8448 37.7983 87.8448 49.9171C87.8448 68.1812 73.5988 83.3297 55.3776 84.4256C55.3991 84.4471 55.3776 84.4471 55.3561 84.4471Z" fill="#303030"/>
<path d="M45.8802 70.5663C45.5794 70.5663 45.2786 70.5233 44.9777 70.4374L36.9845 68.2457C36.7267 68.1812 36.5333 67.9664 36.4903 67.7085C35.287 61.6276 33.2242 55.7401 30.345 50.2179C29.8078 49.208 29.2706 48.2196 28.7119 47.2742C28.0888 46.1998 27.4442 45.1684 26.7996 44.223C26.5847 43.9007 26.6706 43.4709 26.9929 43.2775C27.3153 43.0627 27.7235 43.1486 27.9384 43.4709C28.6045 44.4593 29.2706 45.5122 29.8937 46.6081C30.4524 47.5535 31.0325 48.5634 31.5697 49.6163C34.449 55.1385 36.5333 61.0045 37.758 67.0639L45.343 69.1267C46.0736 69.3201 46.8471 69.1052 47.3843 68.5465L54.9263 60.3814L52.7561 56.9219C52.6272 56.7071 52.6057 56.4277 52.7561 56.1914C53.7016 54.6013 54.6255 52.9038 55.4635 51.1848C56.8387 48.327 58.0205 45.3403 58.9659 42.3321C59.0734 41.9668 59.4601 41.7734 59.8254 41.8809C60.1907 41.9883 60.3841 42.3751 60.2766 42.7404C59.3097 45.813 58.1064 48.8642 56.6883 51.7865C55.8933 53.4195 55.0553 55.0096 54.1528 56.5352L56.3875 60.0805C56.5594 60.3384 56.5164 60.6822 56.3015 60.9186L48.3942 69.4705C47.7281 70.1795 46.8256 70.5663 45.8802 70.5663Z" fill="#303030"/>
<path d="M41.1315 75.444C39.3051 75.444 37.6076 74.2837 36.7052 72.3928C36.5333 72.049 36.6837 71.6408 37.0275 71.4689C37.3713 71.297 37.7795 71.4474 37.9514 71.7912C38.6605 73.2738 39.9712 74.1548 41.3679 74.0473C43.3232 73.8969 44.7414 71.8341 44.548 69.4705C44.3761 67.3863 43.0224 65.7103 41.3034 65.4739C40.9166 65.4309 40.6588 65.0872 40.7233 64.7004C40.7662 64.3136 41.11 64.0558 41.4968 64.1202C43.8389 64.4425 45.7083 66.6557 45.9447 69.3631C46.2025 72.5002 44.2042 75.2076 41.4968 75.4225C41.3679 75.4225 41.239 75.444 41.1315 75.444Z" fill="#303030"/>
<path d="M36.9201 51.2923C36.6407 51.2923 36.3614 51.1204 36.2755 50.8411C35.416 48.3486 35.3085 42.8908 35.287 42.6545C35.287 42.2677 35.5879 41.9669 35.9532 41.9454C36.3399 41.9454 36.6407 42.2462 36.6622 42.6115C36.6622 42.6759 36.7697 48.0907 37.5647 50.3684C37.6936 50.7336 37.5002 51.1204 37.1349 51.2493C37.0705 51.2708 37.006 51.2923 36.9201 51.2923Z" fill="#303030"/>
<path d="M37.5003 49.9601C37.2639 49.9601 37.0061 49.9171 36.7697 49.8527C36.4044 49.7452 36.1896 49.38 36.297 49.0147C36.4044 48.6494 36.7912 48.4345 37.135 48.542C37.2424 48.5634 37.3713 48.5849 37.4788 48.5849C38.1879 48.5849 38.7465 48.0048 38.7465 47.3172C38.7465 46.6081 38.1664 46.0494 37.4788 46.0494C37.2424 46.0494 37.0276 46.1139 36.8342 46.2213C36.5119 46.4147 36.0821 46.3073 35.8887 45.985C35.6953 45.6627 35.8028 45.2329 36.1251 45.0395C36.5333 44.8032 37.0061 44.6743 37.4788 44.6743C38.9399 44.6743 40.1217 45.8561 40.1217 47.3172C40.1432 48.7783 38.9614 49.9601 37.5003 49.9601Z" fill="#303030"/>
<path d="M52.0686 64.9582C51.7892 64.9582 51.5099 64.7648 51.4239 64.4855L49.4471 58.4261C49.3182 58.0608 49.5331 57.674 49.8769 57.5666C50.2421 57.4376 50.6289 57.6525 50.7364 57.9963L52.7132 64.0557C52.8206 64.421 52.6272 64.8078 52.2834 64.9152C52.219 64.9367 52.133 64.9582 52.0686 64.9582Z" fill="#303030"/>
<path d="M42.1628 67.2573C42.0123 67.2573 41.8619 67.2143 41.733 67.1069C41.6471 67.0424 39.6487 65.4524 39.1545 63.1532C38.8537 61.7351 39.5628 60.9401 40.3148 60.7037C41.2603 60.3814 42.4206 60.8326 42.8289 61.6706C43.0007 62.0144 42.8503 62.4227 42.5065 62.5946C42.1627 62.7665 41.7545 62.6161 41.5826 62.2723C41.4752 62.0359 41.0454 61.907 40.7661 62.0144C40.4867 62.1004 40.4223 62.4012 40.5082 62.8954C40.895 64.7003 42.571 66.054 42.5925 66.054C42.8933 66.2904 42.9363 66.7201 42.6999 67.0209C42.571 67.1499 42.3776 67.2573 42.1628 67.2573Z" fill="#303030"/>
</g>
<defs>
<clipPath id="clip0_533_1553">
<rect width="88" height="88" fill="white"/>
</clipPath>
</defs>
</svg>
