<svg width="88" height="88" viewBox="0 0 88 88" fill="none" xmlns="http://www.w3.org/2000/svg">
<path d="M12.6719 80.9779C15.3306 82.6238 18.5169 82.7504 21.9143 81.4211C18.0316 80.6403 16.4068 77.7494 16.1747 75.2594C15.8793 71.9887 17.6729 68.9923 20.5427 67.9584C22.0831 67.4097 23.8978 67.4941 25.4804 68.2538C36.4109 73.3392 48.8186 72.7273 58.6307 66.6079C68.2108 60.6151 73.8448 50.3809 74.0769 38.5219C73.7815 18.7499 59.4748 7.79825 45.4212 5.70921C32.6549 3.81008 15.415 8.93772 8.78919 29.596C7.4809 36.6017 11.7434 42.7211 16.66 45.1688C16.6811 45.1899 16.7022 45.1899 16.7233 45.211C17.1453 45.4221 17.5885 45.612 18.0527 45.7597C16.0481 43.1642 15.0352 40.1678 14.782 38.0999C14.7609 37.8678 14.8453 37.6145 15.0563 37.4668C15.2462 37.3191 15.4994 37.298 15.7316 37.3824C23.0115 40.5265 30.1438 37.0237 33.5411 31.9383C33.4145 31.052 33.4356 30.2501 33.5833 29.5327C32.3806 29.8281 31.0934 30.0602 29.553 30.0602C27.5483 30.0602 25.1639 29.6804 22.1253 28.5831C21.7666 28.4565 21.5977 28.0767 21.7244 27.718C21.851 27.3593 22.2308 27.1904 22.5895 27.317C28.2025 29.3217 31.2833 28.8152 34.132 27.9923C34.7017 26.9161 35.5669 26.1776 36.4742 25.84C37.8458 25.3124 39.3018 25.6078 40.5257 26.5574C42.2982 26.473 44.1763 26.7051 46.2442 27.317C52.3636 29.0896 55.5288 34.0273 55.6343 41.9614C55.6343 42.1091 55.6343 42.2568 55.6343 42.3624C55.6976 42.5523 55.7609 42.7211 55.8242 42.911C57.6178 48.4818 56.394 54.2002 52.5535 58.1884C49.1351 61.7545 40.5257 66.9033 21.4078 61.5435C18.7913 60.805 16.1958 60.8683 13.8957 61.7123C10.2452 63.0628 7.92403 66.0381 7.54421 69.9208C7.10108 74.2888 9.21122 78.8467 12.6719 80.9779Z" fill="white"/>
<path d="M54.115 39.2182C53.7141 35.631 52.1315 30.4401 45.8432 28.6042C44.3872 28.1822 43.0368 27.9501 41.7496 27.8868C41.834 27.9923 41.8973 28.1189 41.9817 28.2244C42.7624 29.4905 43.5432 30.8621 44.0707 32.1704C48.3332 33.0777 51.8782 35.5888 54.115 39.2182Z" fill="white"/>
<path d="M16.3435 39.0916C16.9132 41.4761 18.327 44.4514 20.606 46.5615C20.606 46.5615 20.6271 46.5826 20.6271 46.6037L20.6482 46.6248C20.9858 47.0047 21.3023 47.3634 21.6189 47.6799C23.1171 49.2836 24.2987 50.5497 24.4675 53.7149C24.5097 54.4535 24.6997 54.8966 25.0373 55.0232C25.7547 55.2975 27.1896 54.4746 27.4428 54.2213C27.7594 53.9048 28.2025 53.8204 28.6667 53.9892C29.5108 54.2846 30.4814 55.4241 30.6925 57.07C30.7136 57.281 30.7769 57.3866 30.798 57.3866C30.9668 57.471 31.4521 57.3021 31.8741 57.0489C32.4439 55.8251 33.2246 54.8544 33.2457 54.8122C33.4778 54.5168 33.8999 54.4746 34.1953 54.7278C34.4907 54.9599 34.5329 55.3819 34.2797 55.6773C34.2797 55.6773 33.5834 56.5214 33.098 57.5765C33.1613 57.7242 33.2246 57.8297 33.2668 57.8508C33.3512 57.8508 33.6256 57.7453 33.7944 57.6609C34.4907 57.3655 35.799 56.8168 36.833 58.0196C37.2761 58.526 38.0569 59.1169 38.8376 59.1169C38.8587 59.1169 38.8587 59.1169 38.8798 59.1169C39.3862 59.0958 39.8294 58.8426 40.2092 58.3361C41.4753 56.7113 44.5772 51.8158 45.5901 47.8698C46.4341 44.578 46.1387 42.088 44.7671 40.822C44.4928 40.5687 44.4717 40.1467 44.7249 39.8724C44.9781 39.5981 45.4001 39.577 45.6745 39.8302C46.9194 40.9697 48.1433 43.3541 46.8983 48.2074C46.8561 48.3341 46.835 48.4607 46.7928 48.5873C49.2828 51.0983 50.1058 55.2975 49.8525 58.737C50.5278 58.2306 51.0975 57.7242 51.5617 57.2388C55.0646 53.6094 56.1619 48.3974 54.5159 43.3119C52.9544 38.4586 49.2617 34.9136 44.5561 33.6897C44.9148 35.1879 44.7671 36.454 43.6276 37.1925C43.5221 37.2558 43.3955 37.298 43.2689 37.298C43.0579 37.298 42.8258 37.1925 42.6992 36.9815C42.4881 36.665 42.5937 36.2429 42.8891 36.053C44.2396 35.1668 42.5092 31.7061 40.8 28.9419C39.7661 27.2748 38.2679 26.5574 36.8963 27.0849C35.6091 27.5703 34.4274 29.2795 34.8494 31.875C34.8916 32.0016 34.8916 32.1282 34.8705 32.2548C34.8705 32.2759 34.8494 32.3181 34.8283 32.3392C34.8072 32.3814 34.8072 32.4236 34.7861 32.4447L34.765 32.4658C34.7439 32.4869 34.7439 32.508 34.7228 32.508C32.1696 36.454 28.2025 38.9439 23.9189 39.6825C23.94 39.7036 23.9611 39.7036 23.9822 39.7247C24.2354 39.999 24.2354 40.421 23.9611 40.6742C22.062 42.5312 22.1464 44.367 22.1886 44.9578C22.1886 45.0422 22.1886 45.1055 22.1886 45.1477C22.1886 45.5276 21.8932 45.823 21.5134 45.823C21.1335 45.823 20.8381 45.5276 20.8381 45.1477V45.0422C20.7326 43.0587 21.4289 41.3073 22.9271 39.8091C20.7959 40.0834 18.5381 39.8513 16.3435 39.0916ZM37.8247 30.1868C37.9513 29.8281 38.3312 29.6382 38.6688 29.7648C39.0275 29.8914 39.2174 30.2712 39.0908 30.6089C38.3523 32.8245 38.2679 33.8163 40.5468 34.597C40.9055 34.7236 41.0955 35.1035 40.9688 35.4622C40.8633 35.7365 40.6101 35.9264 40.3358 35.9264C40.2725 35.9264 40.1881 35.9053 40.1248 35.8842C36.3687 34.5759 37.2128 32.0438 37.8247 30.1868ZM25.3538 47.4056C26.3667 46.8992 26.7887 45.4432 26.4933 43.5229C26.43 43.1642 26.6832 42.8055 27.0419 42.7422C27.4006 42.6789 27.7594 42.9321 27.8227 43.2908C28.2447 45.823 27.5484 47.8276 25.9657 48.6084C25.8602 48.6506 25.7758 48.6717 25.6703 48.6717C25.4171 48.6717 25.185 48.5451 25.0584 48.2918C24.8896 47.9753 25.0162 47.5744 25.3538 47.4056Z" fill="white"/>
<path d="M59.3482 67.7474C50.9709 72.9805 40.8211 74.331 31.1567 71.7355C40.2303 77.8128 51.6883 78.6357 61.8592 73.7402C73.5283 68.1061 80.1963 56.7324 79.711 43.312C79.5844 32.0227 74.098 21.6197 65.7208 14.5718C71.3549 20.2903 75.2797 28.2878 75.4274 38.5008C75.1953 50.8663 69.3291 61.5014 59.3482 67.7474Z" fill="white"/>
<path d="M54.1151 39.2182C53.7141 35.631 52.1315 30.4401 45.8433 28.6042C44.3873 28.1822 43.0368 27.9501 41.7496 27.8868C41.834 27.9923 41.8973 28.1189 41.9817 28.2244C42.7625 29.4905 43.5433 30.8621 44.0708 32.1704C48.3333 33.0777 51.8783 35.5888 54.1151 39.2182Z" fill="#535353"/>
<path d="M75.4275 38.5008C75.1954 50.8662 69.3292 61.5014 59.3482 67.7263C50.971 72.9594 40.8212 74.3099 31.1567 71.7144C40.2303 77.7916 51.6884 78.6146 61.8593 73.7191C73.5284 68.085 80.1964 56.7113 79.7111 43.2908C79.5845 32.0016 74.0981 21.5986 65.7208 14.5507C71.376 20.2692 75.2798 28.2877 75.4275 38.5008Z" fill="#535353"/>
<path d="M64.096 14.6984C56.8793 10.3726 48.2066 8.51572 39.9349 8.97995C21.5134 10.035 12.9462 25.9244 12.1021 29.7015C11.3425 33.0989 11.1104 37.0026 15.816 41.877C15.2462 40.5055 14.9086 39.1761 14.782 38.121C14.7609 37.8889 14.8453 37.6357 15.0563 37.4879C15.2462 37.3402 15.4995 37.3191 15.7316 37.4035C23.0116 40.5477 30.1438 37.0448 33.5412 31.9594C33.4146 31.0731 33.4357 30.2713 33.5834 29.5538C32.3806 29.8492 31.0934 30.0814 29.553 30.0814C27.5484 30.0814 25.1639 29.7015 22.1253 28.6043C21.7666 28.4776 21.5978 28.0978 21.7244 27.7391C21.851 27.3804 22.2308 27.2116 22.5895 27.3382C28.2025 29.3428 31.2833 28.8364 34.132 28.0134C34.7017 26.9372 35.5669 26.1987 36.4743 25.8611C37.8459 25.3335 39.3018 25.629 40.5257 26.5785C42.2982 26.4941 44.1763 26.7262 46.2442 27.3382C52.3636 29.1107 55.5288 34.0484 55.6343 41.9825C55.6343 42.1303 55.6343 42.278 55.6343 42.3835C55.6976 42.5734 55.7609 42.7422 55.8242 42.9321C57.6179 48.5029 56.394 54.2214 52.5535 58.2095C51.0975 59.7288 48.7131 61.5225 44.9781 62.683C32.1274 67.9584 19.2344 61.3114 13.9802 64.6666C7.08 69.0557 10.0342 80.7036 20.8803 81.2101C20.9014 81.2101 20.9225 81.2101 20.9647 81.2101C17.7573 80.1761 16.3646 77.5806 16.1536 75.2806C15.8582 72.0098 17.6518 69.0135 20.5216 67.9795C22.062 67.4308 23.8767 67.5153 25.4593 68.2749C36.3899 73.3603 48.7975 72.7484 58.6096 66.629C68.1897 60.6362 73.8238 50.402 74.0559 38.543C73.9293 28.14 69.8989 20.2059 64.096 14.6984Z" fill="#737373"/>
<path d="M21.0703 43.2064C21.3446 41.9825 21.9987 40.843 22.9905 39.8513C21.5767 39.999 20.1418 39.9568 18.7069 39.7036C19.3822 40.9696 20.2262 42.1302 21.0703 43.2064Z" fill="#FBEADE"/>
<path d="M54.5371 43.333C52.9756 38.4797 49.2829 34.9347 44.5773 33.7108C44.936 35.209 44.7883 36.4751 43.6488 37.2136C43.5433 37.2769 43.4167 37.3191 43.2901 37.3191C43.0791 37.3191 42.8469 37.2136 42.7203 37.0026C42.5093 36.6861 42.6148 36.2641 42.9102 36.0742C44.2607 35.1879 42.5304 31.7273 40.8212 28.963C39.7872 27.296 38.289 26.5785 36.9174 27.1061C35.6303 27.5914 34.4486 29.3006 34.8706 31.8961C34.9128 32.0227 34.9128 32.1493 34.8917 32.2759C34.8917 32.297 34.8706 32.3392 34.8495 32.3603C34.8284 32.4025 34.8284 32.4447 34.8073 32.4658L34.7862 32.4869C34.7651 32.508 34.7651 32.5291 34.744 32.5291C32.1907 36.4751 28.2237 38.965 23.9401 39.7036C23.9612 39.7247 23.9823 39.7247 24.0034 39.7458C24.2566 40.0201 24.2566 40.4421 23.9823 40.6954C22.3786 42.2569 22.1887 43.8184 22.1887 44.6202C23.3281 45.9707 24.2988 47.1524 24.6786 48.1442C25.2273 49.5579 25.586 51.2883 25.7548 52.28C25.8181 52.6599 26.219 52.8709 26.5778 52.7021C27.1897 52.4066 28.0971 52.0479 28.709 52.1745C29.6797 52.3644 31.1146 54.7067 32.655 55.593C32.9715 55.1287 33.2036 54.8333 33.2247 54.8122C33.4568 54.5168 33.8788 54.4746 34.1743 54.7278C34.4697 54.9599 34.5119 55.3819 34.2587 55.6774C34.2587 55.6774 34.1954 55.7618 34.0899 55.9095C35.3348 55.7829 36.5798 54.9177 37.3395 55.2131C38.3523 55.6141 39.0487 58.1251 42.1506 55.4241C42.1717 55.403 42.1717 55.403 42.1928 55.3819C43.5011 53.2085 44.936 50.3809 45.569 47.912C46.4131 44.6202 46.1177 42.1303 44.7461 40.8642C44.4717 40.611 44.4506 40.1889 44.7039 39.9146C44.9571 39.6403 45.3791 39.6192 45.6534 39.8724C46.8984 41.0119 48.1223 43.3963 46.8773 48.2497C46.8351 48.3763 46.814 48.5029 46.7718 48.6295C49.2618 51.1406 50.0847 55.3397 49.8315 58.7793C50.5067 58.2728 51.0765 57.7664 51.5407 57.2811C55.0858 53.6305 56.183 48.4185 54.5371 43.333ZM25.9658 48.6084C25.8603 48.6506 25.7759 48.6717 25.6704 48.6717C25.4172 48.6717 25.1851 48.5451 25.0585 48.2919C24.8896 47.9542 25.0373 47.5533 25.3539 47.3845C26.3667 46.8781 26.7888 45.4221 26.4933 43.5018C26.43 43.1431 26.6833 42.7844 27.042 42.7211C27.4007 42.6578 27.7594 42.911 27.8227 43.2697C28.2237 45.823 27.5273 47.8276 25.9658 48.6084ZM40.99 35.4622C40.8845 35.7365 40.6313 35.9264 40.357 35.9264C40.2937 35.9264 40.2093 35.9053 40.146 35.8842C36.3688 34.5971 37.2129 32.0438 37.8459 30.1869C37.9725 29.8281 38.3523 29.6382 38.69 29.7648C39.0487 29.8914 39.2386 30.2713 39.112 30.6089C38.3734 32.8245 38.289 33.8163 40.568 34.5971C40.9267 34.7237 41.1166 35.1035 40.99 35.4622Z" fill="#FBEADE"/>
<path d="M38.6689 29.7648C38.6689 29.7648 36.9386 32.6768 38.1202 33.6897C39.3019 34.7026 40.9689 35.4622 40.9689 35.4622L38.6689 29.7648Z" fill="#F3CFBB"/>
<path d="M54.5371 43.333C52.9756 38.4797 49.2829 34.9346 44.5773 33.7108C44.936 35.209 44.7883 36.475 43.6488 37.2136C43.5433 37.2769 43.4167 37.3191 43.2901 37.3191C43.0791 37.3191 42.8469 37.2136 42.7203 37.0026C42.7203 37.0026 43.8176 38.2687 44.8727 39.8091C45.1259 39.6191 45.4846 39.6191 45.7167 39.8513C46.9617 40.9907 48.1856 43.3752 46.9406 48.2285C46.8984 48.3551 46.8773 48.4817 46.8351 48.6083C49.3251 51.1194 50.148 55.3186 49.8948 58.7581C50.5701 58.2517 51.1398 57.7453 51.604 57.2599C55.0858 53.6305 56.183 48.4184 54.5371 43.333Z" fill="#F3CFBB"/>
<path d="M69.5613 21.5564C74.0981 33.3943 71.7559 48.7772 64.0538 59.2646C54.727 71.9677 32.7183 69.2667 28.3081 67.3886C23.8979 65.5106 19.8464 65.1941 17.1243 67.2198C15.0564 68.7602 13.9802 72.0732 16.2592 75.9558C16.217 75.7237 16.1748 75.4916 16.1537 75.2595C15.8582 71.9888 17.6519 68.9924 20.5216 67.9584C22.062 67.4098 23.8768 67.4942 25.4594 68.2538C36.3899 73.3392 48.7975 72.7273 58.6097 66.6079C68.1897 60.6151 73.8238 50.3809 74.0559 38.5219C73.9715 31.8539 72.2834 26.1987 69.5613 21.5564Z" fill="#535353"/>
<path d="M33.5835 29.5538C32.3807 29.8492 31.0935 30.0813 29.5531 30.0813C27.5485 30.0813 25.164 29.7015 22.1254 28.6042C22.0621 28.5831 21.9988 28.5409 21.9355 28.4987C23.0961 31.2419 28.0549 32.297 33.0137 32.6768C33.1825 32.4447 33.3724 32.2126 33.5202 31.9593C33.4147 31.0731 33.4358 30.2712 33.5835 29.5538Z" fill="#535353"/>
<path d="M17.483 83.7C15.5205 83.7 13.6425 83.1936 11.9755 82.1385C8.07173 79.7329 5.70838 74.6475 6.19371 69.7731C6.63684 65.3629 9.27451 61.9656 13.4315 60.4463C16.0059 59.4967 18.8757 59.4334 21.7665 60.2564C40.2092 65.4262 48.3543 60.6151 51.5617 57.26C55.0646 53.6305 56.1618 48.4185 54.5159 43.333C52.8278 38.0999 48.6919 34.4071 43.4588 33.4576C43.1001 33.3943 42.8468 33.0355 42.9102 32.6768C42.9735 32.3181 43.3322 32.0649 43.6909 32.1282C49.4305 33.1622 53.9462 37.2136 55.8031 42.9321C57.5967 48.5029 56.3728 54.2214 52.5324 58.2095C49.114 61.7757 40.5046 66.9244 21.3867 61.5646C18.7701 60.8261 16.1747 60.8894 13.8746 61.7335C10.2452 63.0628 7.92402 66.0381 7.5442 69.9208C7.10107 74.2888 9.21121 78.8467 12.6718 80.999C15.3306 82.6449 18.5169 82.7716 21.9143 81.4422C18.0316 80.6614 16.4068 77.7705 16.1747 75.2806C15.8793 72.0098 17.6729 69.0134 20.5427 67.9795C22.0831 67.4308 23.8978 67.5152 25.4804 68.2749C36.4109 73.3603 48.8185 72.7484 58.6307 66.629C68.2107 60.6362 73.8448 50.402 74.0769 38.543C73.7815 18.7499 59.4748 7.79826 45.4212 5.70922C32.6549 3.8101 15.415 8.93774 8.78918 29.596C7.48089 36.6017 11.7434 42.7211 16.66 45.1689C16.6811 45.19 16.7022 45.19 16.7233 45.2111C17.1453 45.4221 17.5885 45.612 18.0527 45.7597C16.0481 43.1642 15.0352 40.1678 14.782 38.0999C14.7609 37.8678 14.8453 37.6146 15.0563 37.4668C15.2462 37.3191 15.4994 37.298 15.7315 37.3824C23.117 40.5687 30.3548 36.9393 33.6888 31.7062C33.8999 31.3896 34.3008 31.3052 34.6173 31.4951C34.9338 31.7062 35.0182 32.1071 34.8283 32.4236C30.7979 38.7329 23.1803 41.3917 16.3435 39.0494C16.9132 41.4339 18.327 44.4092 20.606 46.5193C20.8381 46.7304 20.8803 47.0469 20.7537 47.3212C20.6271 47.5955 20.3105 47.7432 20.0151 47.6799C18.6435 47.4056 17.3141 46.9625 16.0692 46.3505C16.0481 46.3294 16.0059 46.3294 15.9848 46.3083C9.75984 43.2064 6.19371 36.053 7.48089 29.3217C7.48089 29.3006 7.50199 29.2584 7.50199 29.2373C14.3811 7.73496 32.3383 2.4174 45.6322 4.37983C59.7702 6.48998 75.132 18.0535 75.4274 38.5008C75.1953 50.8662 69.3291 61.5013 59.3481 67.7263C49.1351 74.0989 36.2632 74.7319 24.9107 69.4566C23.6446 68.8657 22.2097 68.7813 20.9858 69.2245C18.6857 70.0474 17.2508 72.4952 17.5041 75.1329C17.7573 77.8127 19.5931 79.6696 22.4418 80.155H22.5262C23.2858 80.1972 23.6868 80.2183 25.1006 79.7963C25.4171 79.6908 25.7758 79.8596 25.9024 80.1761C26.0501 80.4926 25.9235 80.8513 25.6492 81.0201C22.8638 82.7927 20.0784 83.7 17.483 83.7Z" fill="#303030"/>
<path d="M48.1223 78.2769C40.6102 78.2769 33.2458 75.6182 27.2108 70.4272C26.9364 70.1951 26.8942 69.752 27.1475 69.4777C27.4007 69.2033 27.8227 69.1611 28.097 69.4144C37.5715 77.5595 50.5067 79.2054 61.8593 73.7401C73.5283 68.1061 80.1964 56.7324 79.7111 43.3119C79.4789 23.0757 62.0492 5.70921 41.6652 5.35049C41.2854 5.35049 40.99 5.03397 41.0111 4.65414C41.0111 4.27432 41.3276 4 41.6863 4C41.6863 4 41.6863 4 41.7074 4C51.8994 4.16881 61.6483 8.34689 69.1393 15.7324C76.7147 23.2023 80.9349 32.9722 81.0615 43.2697C81.568 57.0278 74.4568 69.1822 62.4501 74.9429C57.8289 77.1797 52.9545 78.2769 48.1223 78.2769Z" fill="#303030"/>
<path d="M54.959 43.0587C54.6003 43.0587 54.3049 42.7633 54.2838 42.4046C54.2838 42.2991 54.2838 42.1513 54.2838 41.9825C54.2416 39.2604 54.1361 31.0098 45.8643 28.6253C43.8386 28.0345 42.0239 27.8024 40.3358 27.929C39.9771 27.9501 39.6394 27.6758 39.6183 27.296C39.5972 26.9161 39.8715 26.5996 40.2514 26.5785C42.1083 26.4519 44.0707 26.7051 46.2442 27.3171C52.3636 29.0896 55.5288 34.0273 55.6343 41.9614C55.6343 42.1091 55.6343 42.2568 55.6343 42.3624C55.6554 42.7422 55.36 43.0376 54.9802 43.0587H54.959Z" fill="#303030"/>
<path d="M29.553 30.0814C27.5483 30.0814 25.1639 29.7015 22.1253 28.6043C21.7666 28.4777 21.5977 28.0978 21.7244 27.7391C21.851 27.3804 22.2308 27.2116 22.5895 27.3382C28.3713 29.4061 31.4521 28.7942 34.3852 27.929C34.7439 27.8235 35.1237 28.0345 35.2293 28.3933C35.3348 28.752 35.1237 29.1318 34.765 29.2373C33.2457 29.6804 31.5998 30.0814 29.553 30.0814Z" fill="#303030"/>
<path d="M38.8798 60.4885C37.8247 60.4885 36.6852 59.8976 35.8412 58.9058C35.5036 58.5049 35.187 58.5471 34.3641 58.9058C34.0054 59.0536 33.6677 59.2013 33.309 59.2013C32.7182 59.2013 32.3173 58.8636 32.064 58.4627C31.5365 58.6948 30.8402 58.8847 30.2493 58.6104C29.8906 58.4627 29.4475 58.0829 29.342 57.2177C29.1942 56.0572 28.5612 55.403 28.2658 55.2764C27.6749 55.7617 25.9024 56.7957 24.5519 56.2682C23.94 56.0361 23.2014 55.403 23.117 53.7571C22.9904 51.0983 22.1042 50.1488 20.6271 48.5662C20.3106 48.2285 19.9729 47.8698 19.6353 47.4689C19.3821 47.1946 19.4243 46.7514 19.6986 46.5193C19.9729 46.2661 20.4161 46.3083 20.6482 46.5826C20.9858 46.9624 21.3023 47.3212 21.6188 47.6377C23.117 49.2414 24.2987 50.5075 24.4675 53.6727C24.5097 54.4112 24.6996 54.8544 25.0373 54.981C25.7547 55.2553 27.1896 54.4323 27.4428 54.1791C27.7593 53.8626 28.2025 53.7782 28.6667 53.947C29.5108 54.2424 30.4814 55.3819 30.6924 57.0278C30.7135 57.2388 30.7768 57.3443 30.798 57.3443C30.9879 57.4287 31.5787 57.2177 32.0218 56.9012C32.2117 56.7746 32.4439 56.7535 32.676 56.8379C32.887 56.9223 33.0347 57.1122 33.0769 57.3443C33.1191 57.5343 33.2457 57.7664 33.309 57.8086C33.3934 57.8086 33.6677 57.7031 33.8366 57.6187C34.5329 57.3232 35.8412 56.7746 36.8752 57.9774C37.3183 58.4838 38.099 59.0747 38.8798 59.0747C38.9009 59.0747 38.9009 59.0747 38.922 59.0747C39.4284 59.0536 39.8716 58.8003 40.2514 58.2939C41.5175 56.6691 44.6194 51.7736 45.6322 47.8276C46.4763 44.5358 46.1809 42.0458 44.8093 40.7797C44.535 40.5265 44.5139 40.1045 44.7671 39.8302C45.0203 39.5559 45.4423 39.5348 45.7166 39.788C46.9616 40.9274 48.1855 43.3119 46.9405 48.1652C45.8644 52.3433 42.6991 57.3443 41.3276 59.1169C40.5257 60.1719 39.5972 60.404 38.9431 60.4251C38.922 60.4884 38.9009 60.4885 38.8798 60.4885Z" fill="#303030"/>
<path d="M21.5977 45.8652C21.2179 45.8652 20.9225 45.5698 20.9225 45.1899V45.0844C20.817 43.0587 21.5555 41.2651 23.0959 39.7458C23.3703 39.4925 23.7923 39.4925 24.0455 39.7669C24.2987 40.0412 24.2987 40.4632 24.0244 40.7164C22.1253 42.5734 22.2097 44.4092 22.2519 45C22.2519 45.0844 22.2519 45.1477 22.2519 45.1899C22.273 45.5698 21.9565 45.8652 21.5977 45.8652Z" fill="#303030"/>
<path d="M25.6492 48.6717C25.396 48.6717 25.1639 48.5451 25.0373 48.2919C24.8685 47.9542 25.0162 47.5533 25.3327 47.3845C26.3456 46.8781 26.7676 45.4221 26.4722 43.5018C26.4089 43.1431 26.6621 42.7844 27.0208 42.7211C27.3796 42.6578 27.7383 42.911 27.8016 43.2697C28.2236 45.8019 27.5273 47.8065 25.9447 48.5873C25.8603 48.6506 25.7547 48.6717 25.6492 48.6717Z" fill="#303030"/>
<path d="M32.4228 58.1884C32.3383 58.1884 32.2539 58.1673 32.1484 58.1251C31.8108 57.9774 31.642 57.5765 31.7897 57.2389C32.3594 55.9095 33.2246 54.8544 33.2668 54.8122C33.4989 54.5168 33.921 54.4746 34.2164 54.7278C34.5118 54.9599 34.554 55.3819 34.3008 55.6774C34.3008 55.6774 33.52 56.648 33.0347 57.7875C32.9292 58.0407 32.676 58.1884 32.4228 58.1884Z" fill="#303030"/>
<path d="M49.0296 60.8261C48.9874 60.8261 48.9452 60.8261 48.903 60.805C48.5442 60.7417 48.291 60.383 48.3543 60.0242C48.9663 56.5425 48.2488 51.7525 45.6534 49.3469C45.379 49.0937 45.3579 48.6717 45.6112 48.3974C45.8644 48.1231 46.2864 48.102 46.5607 48.3552C49.6415 51.2039 50.3379 56.5214 49.6837 60.2564C49.6415 60.594 49.3672 60.8261 49.0296 60.8261Z" fill="#303030"/>
<path d="M40.3569 35.9265C40.2936 35.9265 40.2092 35.9054 40.1458 35.8843C36.3687 34.5971 37.2128 32.0438 37.8458 30.1869C37.9724 29.8281 38.3522 29.6382 38.6898 29.7648C39.0486 29.8914 39.2385 30.2713 39.1119 30.6089C38.3733 32.8245 38.2889 33.8163 40.5679 34.5971C40.9266 34.7237 41.1165 35.1035 40.9899 35.4622C40.8844 35.7365 40.6312 35.9265 40.3569 35.9265Z" fill="#303030"/>
<path d="M43.3111 37.3191C43.1001 37.3191 42.868 37.2136 42.7414 37.0026C42.5303 36.6861 42.6358 36.264 42.9313 36.0741C44.2818 35.1879 42.5514 31.7272 40.8422 28.963C39.8083 27.2959 38.3101 26.5785 36.9385 27.106C35.6302 27.6125 34.4274 29.3639 34.9127 32.0016C34.976 32.3603 34.7439 32.719 34.3641 32.7823C34.0054 32.8456 33.6466 32.6135 33.5833 32.2337C32.9714 28.8152 34.6595 26.5152 36.4742 25.8188C38.4578 25.0592 40.6312 26.0088 42.0028 28.2244C44.0707 31.5584 46.1176 35.5888 43.6909 37.1714C43.5643 37.2769 43.4377 37.3191 43.3111 37.3191Z" fill="#303030"/>
</svg>
